<svg width="24" height="24" viewBox="0 0 24 24" fill="none" xmlns="http://www.w3.org/2000/svg">
<path d="M12 7.5C14.0719 7.5 15.75 5.82188 15.75 3.75C15.75 1.67812 14.0719 0 12 0C9.92817 0 8.25004 1.67812 8.25004 3.75C8.25004 5.82188 9.92817 7.5 12 7.5ZM9.49692 19.1625L10.6969 17.6625L7.8141 15.2625L5.66254 17.9531C5.12817 18.6187 5.1141 19.5656 5.62504 20.25L7.87504 23.25C8.24535 23.7422 8.80785 24 9.37504 24C9.7641 24 10.1625 23.8781 10.5 23.625C11.3297 23.0063 11.4938 21.8297 10.875 21L9.49692 19.1625ZM16.186 15.2625L13.3032 17.6625L14.5032 19.1625L13.125 21C12.5063 21.8297 12.6704 23.0063 13.5 23.625C13.8375 23.8781 14.2313 24 14.625 24C15.1969 24 15.7594 23.7422 16.125 23.25L18.375 20.25C18.886 19.5656 18.8719 18.6187 18.3375 17.9531L16.186 15.2625ZM20.6579 6.79688C20.0625 5.94844 18.8954 5.74687 18.0469 6.3375L16.1438 7.67344C13.6735 9.40781 10.3219 9.40781 7.85629 7.67344L5.95317 6.34219C5.10473 5.74688 3.93754 5.95312 3.34223 6.79688C2.74692 7.64531 2.95317 8.8125 3.79692 9.40781L5.70004 10.7437C6.49692 11.3016 7.35942 11.7234 8.25004 12.0516V13.5H15.75V12.0563C16.6407 11.7281 17.5032 11.3063 18.3 10.7484L20.2032 9.4125C21.0516 8.8125 21.2532 7.64531 20.6579 6.79688Z" fill="white"/>
</svg>
