<svg width="55" height="55" viewBox="0 0 55 55" fill="none" xmlns="http://www.w3.org/2000/svg">
<rect width="55" height="55" rx="15" fill="white"/>
<path d="M32.9063 35.6327C32.8431 35.9879 32.6589 36.3103 32.385 36.5451C32.1112 36.78 31.7645 36.9128 31.4038 36.9211C31.0431 36.9293 30.6907 36.8126 30.4063 36.5905C30.122 36.3685 29.9232 36.0549 29.8438 35.703L29 32.2577C28.9153 31.9198 28.7202 31.62 28.4456 31.4057C28.171 31.1914 27.8327 31.075 27.4844 31.075C27.1361 31.075 26.7978 31.1914 26.5232 31.4057C26.2486 31.62 26.0534 31.9198 25.9688 32.2577L25.711 33.3046C25.6905 33.4035 25.7092 33.5064 25.763 33.5919C25.8168 33.6773 25.9017 33.7386 25.9997 33.7628C26.0977 33.7871 26.2013 33.7724 26.2888 33.7219C26.3762 33.6715 26.4407 33.5891 26.4688 33.4921L26.7266 32.4452C26.7689 32.2763 26.8665 32.1263 27.0038 32.0192C27.1411 31.912 27.3102 31.8539 27.4844 31.8539C27.6586 31.8539 27.8277 31.912 27.965 32.0192C28.1023 32.1263 28.1999 32.2763 28.2422 32.4452L29.086 35.8905C29.2129 36.4065 29.5115 36.864 29.9327 37.188C30.3538 37.512 30.8726 37.6833 31.4039 37.6738C31.9352 37.6642 32.4474 37.4744 32.8567 37.1355C33.2659 36.7966 33.5479 36.3287 33.6563 35.8085C33.8399 34.9296 34.0742 33.7811 34.3047 32.6483L33.5235 32.496C33.3242 33.6053 33.0899 34.7499 32.9063 35.6327ZM20.2696 19.1717C20.4336 19.1717 20.4844 19.0975 20.6836 18.9725C20.7544 18.9131 20.8018 18.8306 20.8174 18.7396C20.8331 18.6485 20.816 18.5549 20.7692 18.4753C20.7223 18.3957 20.6488 18.3352 20.5616 18.3047C20.4745 18.2741 20.3793 18.2755 20.293 18.3085C20.211 18.3592 20.125 18.4139 20.0469 18.4725C19.9836 18.5215 19.9368 18.5888 19.913 18.6653C19.8892 18.7417 19.8894 18.8237 19.9137 18.9C19.938 18.9763 19.9852 19.0433 20.0489 19.0919C20.1125 19.1405 20.1895 19.1684 20.2696 19.1717ZM27.5 21.2499C29.0791 21.2208 30.6259 20.7978 32 20.0194C32.0708 19.96 32.1182 19.8775 32.1338 19.7864C32.1495 19.6954 32.1324 19.6018 32.0856 19.5222C32.0387 19.4425 31.9652 19.3821 31.878 19.3516C31.7909 19.321 31.6957 19.3224 31.6094 19.3553C30.3504 20.0548 28.9399 20.4369 27.5 20.4686C26.0657 20.4327 24.6613 20.0508 23.4063 19.3553C23.32 19.3224 23.2248 19.321 23.1376 19.3516C23.0505 19.3821 22.9769 19.4425 22.9301 19.5222C22.8833 19.6018 22.8662 19.6954 22.8818 19.7864C22.8975 19.8775 22.9449 19.96 23.0156 20.0194C24.3852 20.7953 25.9263 21.2182 27.5 21.2499Z" fill="black"/>
<path d="M38.0469 24.7656H37.543C37.7476 23.6908 37.6665 22.5811 37.3078 21.5474C36.949 20.5138 36.3252 19.5924 35.4987 18.8755C34.6722 18.1585 33.672 17.6711 32.598 17.4619C31.5241 17.2528 30.4141 17.3292 29.3789 17.6836C26.0703 18.8281 25.1562 16.539 21.7188 17.6328C21.6284 17.6702 21.5554 17.7401 21.5141 17.8287C21.4728 17.9173 21.4663 18.0181 21.4957 18.1113C21.5251 18.2045 21.5884 18.2833 21.6731 18.3321C21.7578 18.3809 21.8577 18.3962 21.9531 18.375C25.0312 17.4023 26.1133 19.6406 29.6367 18.4219C30.5543 18.1086 31.5386 18.0449 32.4889 18.2373C33.4392 18.4297 34.3212 18.8713 35.0446 19.5169C35.768 20.1624 36.3069 20.9886 36.6058 21.9109C36.9048 22.8332 36.9532 23.8184 36.7461 24.7656H31.4062V23.9844C31.4062 23.57 31.2416 23.1725 30.9486 22.8795C30.6556 22.5865 30.2582 22.4219 29.8438 22.4219H25.1562C24.7418 22.4219 24.3444 22.5865 24.0514 22.8795C23.7584 23.1725 23.5938 23.57 23.5938 23.9844V24.7656H18.2539C18.0741 23.9468 18.0864 23.0976 18.2897 22.2843C18.493 21.4711 18.8819 20.716 19.4258 20.0781C19.4658 20.0403 19.4973 19.9945 19.5183 19.9436C19.5394 19.8928 19.5494 19.838 19.5478 19.783C19.5463 19.728 19.5331 19.674 19.5091 19.6244C19.4852 19.5749 19.4511 19.5309 19.409 19.4955C19.3669 19.4601 19.3178 19.4339 19.2649 19.4188C19.212 19.4036 19.1565 19.3998 19.102 19.4076C19.0475 19.4154 18.9953 19.4346 18.9488 19.464C18.9023 19.4934 18.8625 19.5323 18.832 19.5781C18.2278 20.2839 17.7905 21.1168 17.5524 22.0149C17.3144 22.913 17.2818 23.8532 17.457 24.7656H16.9531C16.8495 24.7656 16.7502 24.8068 16.6769 24.88C16.6037 24.9533 16.5625 25.0526 16.5625 25.1562C16.5625 25.2598 16.6037 25.3592 16.6769 25.4324C16.7502 25.5057 16.8495 25.5469 16.9531 25.5469H17.6602C18.4023 27.7929 19.6914 27.8281 20.3398 30.9922C20.5703 32.1133 20.7305 32.8164 21.3281 35.789C21.4092 36.1797 21.5887 36.5432 21.8495 36.8451C22.1103 37.147 22.4439 37.3773 22.8187 37.5142C23.1934 37.6511 23.5969 37.6901 23.991 37.6274C24.385 37.5648 24.7565 37.4026 25.0703 37.1562C25.8242 36.5625 25.8867 35.914 26.1133 34.9883C26.1337 34.8894 26.1151 34.7864 26.0612 34.701C26.0074 34.6155 25.9226 34.5543 25.8246 34.53C25.7265 34.5058 25.6229 34.5204 25.5355 34.5709C25.448 34.6214 25.3835 34.7037 25.3555 34.8008C25.1445 35.6679 25.1133 36.1289 24.5742 36.5429C24.3651 36.7075 24.1174 36.8159 23.8546 36.8579C23.5919 36.8999 23.3227 36.8741 23.0727 36.783C22.8227 36.6918 22.6001 36.5383 22.4261 36.337C22.252 36.1357 22.1322 35.8933 22.0781 35.6328C21.457 32.6133 21.2969 31.9179 21.0898 30.8359C20.4375 27.5898 19.2148 27.4297 18.4922 25.5469H23.5938V26.3281C23.5938 26.7425 23.7584 27.1399 24.0514 27.433C24.3444 27.726 24.7418 27.8906 25.1562 27.8906H29.8438C30.2582 27.8906 30.6556 27.726 30.9486 27.433C31.2416 27.1399 31.4062 26.7425 31.4062 26.3281V25.5469H36.5078C35.7695 27.4765 34.6211 27.4492 33.8711 30.9375C33.8483 31.0411 33.8676 31.1495 33.9247 31.2389C33.9819 31.3282 34.0722 31.3912 34.1758 31.414C34.2794 31.4368 34.3878 31.4175 34.4772 31.3604C34.5665 31.3033 34.6296 31.213 34.6523 31.1094C35.4062 27.5937 36.5664 27.9453 37.3555 25.5469H38.0469C38.1505 25.5469 38.2498 25.5057 38.3231 25.4324C38.3963 25.3592 38.4375 25.2598 38.4375 25.1562C38.4375 25.0526 38.3963 24.9533 38.3231 24.88C38.2498 24.8068 38.1505 24.7656 38.0469 24.7656ZM30.625 26.3281C30.625 26.5353 30.5427 26.734 30.3962 26.8805C30.2497 27.027 30.051 27.1094 29.8438 27.1094H25.1562C24.949 27.1094 24.7503 27.027 24.6038 26.8805C24.4573 26.734 24.375 26.5353 24.375 26.3281V23.9844C24.375 23.7772 24.4573 23.5784 24.6038 23.4319C24.7503 23.2854 24.949 23.2031 25.1562 23.2031H29.8438C30.051 23.2031 30.2497 23.2854 30.3962 23.4319C30.5427 23.5784 30.625 23.7772 30.625 23.9844V26.3281Z" fill="black"/>
<path d="M29.4531 24.7656H29.0625V24.375C29.0625 24.2714 29.0213 24.172 28.9481 24.0988C28.8748 24.0255 28.7755 23.9844 28.6719 23.9844C28.5683 23.9844 28.4689 24.0255 28.3957 24.0988C28.3224 24.172 28.2812 24.2714 28.2812 24.375V24.7656H26.7188V24.375C26.7188 24.2714 26.6776 24.172 26.6043 24.0988C26.5311 24.0255 26.4317 23.9844 26.3281 23.9844C26.2245 23.9844 26.1252 24.0255 26.0519 24.0988C25.9787 24.172 25.9375 24.2714 25.9375 24.375V24.7656H25.5469C25.4433 24.7656 25.3439 24.8068 25.2707 24.88C25.1974 24.9533 25.1562 25.0526 25.1562 25.1562C25.1562 25.2599 25.1974 25.3592 25.2707 25.4325C25.3439 25.5057 25.4433 25.5469 25.5469 25.5469H25.9375V25.9375C25.9375 26.0411 25.9787 26.1405 26.0519 26.2137C26.1252 26.287 26.2245 26.3281 26.3281 26.3281C26.4317 26.3281 26.5311 26.287 26.6043 26.2137C26.6776 26.1405 26.7188 26.0411 26.7188 25.9375V25.5469H28.2812V25.9375C28.2812 26.0411 28.3224 26.1405 28.3957 26.2137C28.4689 26.287 28.5683 26.3281 28.6719 26.3281C28.7755 26.3281 28.8748 26.287 28.9481 26.2137C29.0213 26.1405 29.0625 26.0411 29.0625 25.9375V25.5469H29.4531C29.5567 25.5469 29.6561 25.5057 29.7293 25.4325C29.8026 25.3592 29.8438 25.2599 29.8438 25.1562C29.8438 25.0526 29.8026 24.9533 29.7293 24.88C29.6561 24.8068 29.5567 24.7656 29.4531 24.7656Z" fill="black"/>
</svg>
