<svg width="50" height="50" viewBox="0 0 50 50" fill="none" xmlns="http://www.w3.org/2000/svg">
<rect width="50" height="50" rx="10" fill="#C6AC88"/>
<path d="M25 20.1387C24.54 20.1459 24.0834 20.219 23.6441 20.3557C23.8473 20.7131 23.9555 21.1166 23.9583 21.5276C23.9583 21.8468 23.8954 22.1629 23.7733 22.4577C23.6511 22.7526 23.4721 23.0206 23.2464 23.2463C23.0207 23.472 22.7528 23.651 22.4579 23.7732C22.163 23.8953 21.8469 23.9582 21.5278 23.9582C21.1167 23.9553 20.7132 23.8471 20.3559 23.6439C20.0739 24.6217 20.1068 25.6634 20.4498 26.6215C20.7928 27.5795 21.4285 28.4054 22.267 28.9821C23.1054 29.5587 24.104 29.857 25.1214 29.8346C26.1388 29.8122 27.1233 29.4702 27.9355 28.8572C28.7477 28.2441 29.3465 27.3911 29.647 26.4188C29.9474 25.4466 29.9344 24.4045 29.6097 23.4401C29.2849 22.4756 28.665 21.6379 27.8377 21.0453C27.0104 20.4528 26.0176 20.1357 25 20.1387ZM37.3489 24.3662C34.9952 19.7737 30.3355 16.6665 25 16.6665C19.6645 16.6665 15.0034 19.7759 12.651 24.3666C12.5517 24.563 12.5 24.78 12.5 25.0001C12.5 25.2201 12.5517 25.4371 12.651 25.6335C15.0048 30.226 19.6645 33.3332 25 33.3332C30.3355 33.3332 34.9965 30.2238 37.3489 25.6331C37.4482 25.4367 37.5 25.2197 37.5 24.9996C37.5 24.7795 37.4482 24.5626 37.3489 24.3662ZM25 31.2498C20.7183 31.2498 16.7929 28.8627 14.6732 24.9998C16.7929 21.137 20.7179 18.7498 25 18.7498C29.2821 18.7498 33.207 21.137 35.3268 24.9998C33.2074 28.8627 29.2821 31.2498 25 31.2498Z" fill="white"/>
</svg>
