<svg width="30" height="30" viewBox="0 0 30 30" fill="none" xmlns="http://www.w3.org/2000/svg">
<rect width="30" height="30" rx="5" fill="#C6AC88"/>
<path d="M21.75 13.3125H16.6875V8.25C16.6875 7.62879 16.1837 7.125 15.5625 7.125H14.4375C13.8163 7.125 13.3125 7.62879 13.3125 8.25V13.3125H8.25C7.62879 13.3125 7.125 13.8163 7.125 14.4375V15.5625C7.125 16.1837 7.62879 16.6875 8.25 16.6875H13.3125V21.75C13.3125 22.3712 13.8163 22.875 14.4375 22.875H15.5625C16.1837 22.875 16.6875 22.3712 16.6875 21.75V16.6875H21.75C22.3712 16.6875 22.875 16.1837 22.875 15.5625V14.4375C22.875 13.8163 22.3712 13.3125 21.75 13.3125Z" fill="#262117"/>
</svg>
