<svg width="17" height="17" viewBox="0 0 17 17" fill="none" xmlns="http://www.w3.org/2000/svg">
<path d="M16.0556 1.88889H0.944444C0.422842 1.88889 0 2.24831 0 2.69167C0 3.13503 0.422842 3.49444 0.944444 3.49444H16.0556C16.5772 3.49444 17 3.13503 17 2.69167C17 2.24831 16.5772 1.88889 16.0556 1.88889Z" fill="#4D5D6D"/>
<path d="M16.0556 7.69722H0.944444C0.422842 7.69722 0 8.05664 0 8.5C0 8.94336 0.422842 9.30278 0.944444 9.30278H16.0556C16.5772 9.30278 17 8.94336 17 8.5C17 8.05664 16.5772 7.69722 16.0556 7.69722Z" fill="#4D5D6D"/>
<path d="M16.0556 13.5056H0.944444C0.422842 13.5056 0 13.865 0 14.3083C0 14.7517 0.422842 15.1111 0.944444 15.1111H16.0556C16.5772 15.1111 17 14.7517 17 14.3083C17 13.865 16.5772 13.5056 16.0556 13.5056Z" fill="#4D5D6D"/>
</svg>
