<svg width="75" height="75" viewBox="0 0 75 75" fill="none" xmlns="http://www.w3.org/2000/svg">
<g clip-path="url(#clip0_6_29)">
<g clip-path="url(#clip1_6_29)">
<g clip-path="url(#clip2_6_29)">
<path d="M52.7164 0H22.2836C9.9767 0 0 9.9767 0 22.2836V52.7164C0 65.0233 9.9767 75 22.2836 75H52.7164C65.0233 75 75 65.0233 75 52.7164V22.2836C75 9.9767 65.0233 0 52.7164 0Z" fill="#D5C2A8"/>
<path d="M61.6464 25.2924L61.2086 26.2886C60.5734 27.7344 60.4998 29.3524 60.9323 30.8717C61.7264 33.6609 62.0352 36.651 61.7525 39.7505C60.6769 51.54 51.0803 60.952 39.2721 61.792C25.0455 62.8042 13.1451 51.5155 13.1451 37.5C13.1451 33.4038 14.1658 29.5433 15.9598 26.1521H17.0995C18.3127 26.1521 19.4097 26.8752 19.8875 27.9904L31.1469 54.2587C32.2215 56.7657 34.6864 58.3907 37.4136 58.3907H37.4408C40.1643 58.3907 42.6292 56.7785 43.7209 54.2832L44.3421 52.8636C43.9086 52.9521 43.4606 53.0007 43.0014 53.0007H42.9625C40.3803 53.0007 38.0488 51.4568 37.0408 49.0799L34.7717 43.7294C34.7717 43.7294 34.7717 43.7283 34.7712 43.7283L33.7707 41.3685L28.0192 27.8064C27.0128 25.4338 24.6855 23.8925 22.1081 23.8925H17.3107C21.6922 17.4131 29.1071 13.1457 37.5005 13.1457C43.755 13.1457 49.4644 15.5172 53.7819 19.4054L43.2105 43.7993C42.4602 45.4882 40.8528 46.5329 39.0082 46.5329C38.9943 46.5329 38.981 46.5329 38.9671 46.5329C38.9452 46.5329 38.925 46.5281 38.9031 46.5276L39.5223 47.9877C40.2379 49.674 41.7759 50.2825 42.9775 50.2894H42.9977C44.1955 50.2894 45.7271 49.6959 46.4577 48.0283L51.5592 36.4174L53.0129 33.1084L57.3017 23.347C58.0947 21.5418 57.7112 19.4161 56.2932 18.0455C50.9027 12.8353 43.3636 9.83605 35.1487 10.5336C21.9098 11.6578 11.3485 22.4516 10.4909 35.7108C9.43714 52.0082 22.9006 65.5085 39.1863 64.516C52.5906 63.699 63.4788 52.966 64.4888 39.5751C64.8781 34.4165 63.8009 29.5374 61.6464 25.293V25.2924Z" fill="white"/>
</g>
</g>
</g>
<defs>
<clipPath id="clip0_6_29">
<rect width="75" height="75" fill="white"/>
</clipPath>
<clipPath id="clip1_6_29">
<rect width="75" height="75" fill="white"/>
</clipPath>
<clipPath id="clip2_6_29">
<rect width="75" height="75" fill="white"/>
</clipPath>
</defs>
</svg>
