<svg width="18" height="18" viewBox="0 0 18 18" fill="none" xmlns="http://www.w3.org/2000/svg">
<path d="M9 0C4.08 0 0 4.08 0 9C0 11.04 0.6 12.84 1.8 14.4C3.48 16.68 6.12 18 9 18C11.88 18 14.52 16.68 16.2 14.4C17.4 12.84 18 10.92 18 9C18 4.08 13.92 0 9 0ZM9 16.2C7.32 16.2 5.64 15.6 4.44 14.52C5.76 13.44 7.32 12.84 9 12.84C10.68 12.84 12.36 13.44 13.56 14.52C12.36 15.6 10.68 16.2 9 16.2ZM14.76 13.2C13.2 11.88 11.16 11.04 9 11.04C6.84 11.04 4.8 11.88 3.24 13.2C2.28 12 1.8 10.56 1.8 9C1.8 5.04 5.04 1.8 9 1.8C12.96 1.8 16.2 5.04 16.2 9C16.2 10.56 15.72 12 14.76 13.2ZM9 3.6C7.32 3.6 6 4.92 6 6.6C6 8.28 7.32 9.6 9 9.6C10.68 9.6 12 8.28 12 6.6C12 4.92 10.68 3.6 9 3.6ZM9 7.8C8.4 7.8 7.8 7.2 7.8 6.6C7.8 6 8.4 5.4 9 5.4C9.6 5.4 10.2 6 10.2 6.6C10.2 7.2 9.6 7.8 9 7.8Z" fill="#4D5D6D"/>
</svg>
