<svg width="24" height="24" viewBox="0 0 24 24" fill="none" xmlns="http://www.w3.org/2000/svg">
<path d="M19.0078 13.0078H4.99219C4.69531 13.0078 4.45703 12.9141 4.27734 12.7266C4.09766 12.5391 4.00781 12.2969 4.00781 12C4.00781 11.7031 4.09766 11.4609 4.27734 11.2734C4.45703 11.0859 4.69531 10.9922 4.99219 10.9922H19.0078C19.3047 10.9922 19.543 11.0859 19.7227 11.2734C19.9023 11.4609 19.9922 11.7031 19.9922 12C19.9922 12.2969 19.9023 12.5391 19.7227 12.7266C19.543 12.9141 19.3047 13.0078 19.0078 13.0078ZM12 19.9922C11.8438 19.9922 11.7148 19.9688 11.6133 19.9219C11.5117 19.875 11.4062 19.8047 11.2969 19.7109L4.28906 12.7031C4.10156 12.5 4.00781 12.2656 4.00781 12C4.00781 11.7344 4.10156 11.5 4.28906 11.2969L11.2969 4.28906C11.5 4.10156 11.7344 4.00781 12 4.00781C12.2656 4.00781 12.5 4.10156 12.7031 4.28906C12.9062 4.49219 13.0078 4.72656 13.0078 4.99219C13.0078 5.25781 12.9062 5.49219 12.7031 5.69531L6.39844 12L12.7031 18.3047C12.9062 18.5078 13.0078 18.7422 13.0078 19.0078C13.0078 19.2734 12.9062 19.5078 12.7031 19.7109C12.5938 19.8047 12.4883 19.875 12.3867 19.9219C12.2852 19.9688 12.1562 19.9922 12 19.9922Z" fill="#666666" fill-opacity="0.5"/>
</svg>
