<svg width="55" height="55" viewBox="0 0 55 55" fill="none" xmlns="http://www.w3.org/2000/svg">
<rect width="55" height="55" rx="15" fill="white"/>
<path d="M20.6946 22.9438V22.7984H19.8954V22.9438C19.8954 23.0568 19.8994 23.1698 19.9075 23.2828C19.9156 23.3958 19.9196 23.5089 19.9196 23.6219L20.7188 23.5734C20.7188 23.4766 20.7148 23.3716 20.7067 23.2586C20.6987 23.1456 20.6946 23.0406 20.6946 22.9438ZM20.7915 24.3484L19.9923 24.4453C20.1053 25.4464 20.3354 26.4313 20.6825 27.4C21.0297 28.3688 21.4777 29.281 22.0267 30.1367L22.6806 29.7008C22.1639 28.8935 21.7441 28.0378 21.4212 27.1336C21.0983 26.2294 20.8884 25.301 20.7915 24.3484ZM29.8493 18.875C29.4941 19.1172 29.1187 19.2988 28.7231 19.4199C28.3276 19.541 27.9199 19.6016 27.5001 19.6016C27.0803 19.6016 26.6726 19.541 26.2771 19.4199C25.8815 19.2988 25.5061 19.1172 25.1509 18.875L24.7149 19.5531C25.1186 19.8276 25.5586 20.0375 26.0349 20.1828C26.5112 20.3281 26.9996 20.4008 27.5001 20.4008C28.0006 20.4008 28.489 20.3281 28.9653 20.1828C29.4416 20.0375 29.8816 19.8276 30.2853 19.5531L29.8493 18.875ZM18.7087 30.4031H17.9095C17.9095 31.1781 17.635 31.8361 17.086 32.377C16.5371 32.9178 15.8751 33.1883 15.1001 33.1883V34.0117C15.8751 34.0117 16.5371 34.2822 17.086 34.823C17.635 35.3639 17.9095 36.0219 17.9095 36.7969H18.7087C18.7087 36.0219 18.9791 35.3639 19.52 34.823C20.0609 34.2822 20.7188 34.0117 21.4938 34.0117V33.1883C20.7188 33.1883 20.0609 32.9178 19.52 32.377C18.9791 31.8361 18.7087 31.1781 18.7087 30.4031ZM18.297 35.15C18.1194 34.8271 17.8974 34.5324 17.631 34.266C17.3646 33.9996 17.0699 33.7776 16.747 33.6C17.0699 33.4224 17.3646 33.2004 17.631 32.934C17.8974 32.6676 18.1194 32.3729 18.297 32.05C18.4746 32.3729 18.6966 32.6676 18.963 32.934C19.2294 33.2004 19.5241 33.4224 19.847 33.6C19.5241 33.7776 19.2294 33.9996 18.963 34.266C18.6966 34.5324 18.4746 34.8271 18.297 35.15ZM37.0907 19.9891H36.3399C35.9524 19.0526 35.3308 18.2857 34.4751 17.6883C33.6194 17.0909 32.6668 16.7922 31.6173 16.7922C31.1168 16.7922 30.6405 16.8608 30.1884 16.998C29.7363 17.1353 29.3165 17.325 28.929 17.5672C28.4931 17.8578 28.0168 18.0031 27.5001 18.0031C26.9834 18.0031 26.5071 17.8578 26.0712 17.5672C25.6837 17.325 25.2639 17.1353 24.8118 16.998C24.3597 16.8608 23.8834 16.7922 23.3829 16.7922C22.6725 16.7922 22.0105 16.9294 21.397 17.2039C20.7834 17.4622 20.2466 17.8215 19.7864 18.2816C19.3263 18.7418 18.967 19.2786 18.7087 19.8922C18.4342 20.5219 18.297 21.1839 18.297 21.8781V22.9438C18.297 23.6542 18.3454 24.3646 18.4423 25.075C18.5553 25.7693 18.7087 26.4555 18.9024 27.1336C19.0962 27.8117 19.3465 28.4737 19.6532 29.1195C19.9438 29.7654 20.2829 30.3951 20.6704 31.0086C21.0902 31.6544 21.4535 32.3285 21.7603 33.0309C22.067 33.7332 22.3092 34.4638 22.4868 35.2227L22.9228 36.9664C23.0035 37.2732 23.169 37.5234 23.4192 37.7172C23.6695 37.9109 23.948 38.0078 24.2548 38.0078C24.5938 38.0078 24.8925 37.8948 25.1509 37.6688C25.4092 37.4427 25.5626 37.1602 25.611 36.8211L26.5071 30.8391C26.5556 30.5969 26.6726 30.3951 26.8583 30.2336C27.044 30.0721 27.2579 29.9914 27.5001 29.9914C27.7423 29.9914 27.9562 30.0721 28.1419 30.2336C28.3276 30.3951 28.4446 30.5969 28.4931 30.8391L29.3892 36.8211C29.4376 37.1602 29.591 37.4427 29.8493 37.6688C30.1076 37.8948 30.4063 38.0078 30.7454 38.0078C31.0522 38.0078 31.3307 37.9109 31.581 37.7172C31.8312 37.5234 31.9967 37.2732 32.0774 36.9664L32.5134 35.2227C32.691 34.4638 32.9332 33.7332 33.2399 33.0309C33.5467 32.3285 33.91 31.6544 34.3298 31.0086C34.7819 30.2982 35.1734 29.5514 35.5044 28.7684C35.8354 27.9853 36.0978 27.182 36.2915 26.3586C36.2915 26.3586 36.2915 26.3626 36.2915 26.3707C36.2915 26.3788 36.2915 26.3909 36.2915 26.407H37.0907C37.0907 25.632 37.3652 24.9701 37.9142 24.4211C38.4631 23.8721 39.1251 23.5977 39.9001 23.5977V22.7984C39.1251 22.7984 38.4631 22.524 37.9142 21.975C37.3652 21.426 37.0907 20.7641 37.0907 19.9891ZM33.6517 30.5727C33.2157 31.2508 32.8363 31.9652 32.5134 32.716C32.1905 33.4668 31.9321 34.2378 31.7384 35.0289L31.3024 36.7727C31.2701 36.9018 31.2015 37.0068 31.0966 37.0875C30.9916 37.1682 30.8746 37.2086 30.7454 37.2086C30.6001 37.2086 30.475 37.1602 30.37 37.0633C30.2651 36.9664 30.1965 36.8453 30.1642 36.7L29.2681 30.718C29.2035 30.282 29.0057 29.9187 28.6747 29.6281C28.3437 29.3375 27.9522 29.1922 27.5001 29.1922C27.048 29.1922 26.6565 29.3375 26.3255 29.6281C25.9945 29.9187 25.7967 30.282 25.7321 30.718L24.836 36.7C24.8037 36.8453 24.7351 36.9664 24.6302 37.0633C24.5252 37.1602 24.4001 37.2086 24.2548 37.2086C24.1256 37.2086 24.0086 37.1682 23.9036 37.0875C23.7987 37.0068 23.73 36.9018 23.6978 36.7727L23.2618 35.0289C23.0681 34.2378 22.8097 33.4668 22.4868 32.716C22.1639 31.9652 21.7845 31.2508 21.3485 30.5727C20.9772 30.0076 20.6543 29.4182 20.3798 28.8047C20.0892 28.1911 19.851 27.5615 19.6653 26.9156C19.4797 26.2698 19.3384 25.6159 19.2415 24.9539C19.1446 24.2919 19.0962 23.6219 19.0962 22.9438V21.8781C19.0962 20.6995 19.516 19.6904 20.3556 18.8508C21.1951 18.0112 22.2043 17.5914 23.3829 17.5914C23.8027 17.5914 24.2023 17.6479 24.5817 17.7609C24.9612 17.874 25.3123 18.0354 25.6353 18.2453C25.9097 18.4229 26.2044 18.5602 26.5192 18.657C26.8341 18.7539 27.161 18.8023 27.5001 18.8023C27.8392 18.8023 28.1661 18.7539 28.481 18.657C28.7958 18.5602 29.0905 18.4229 29.3649 18.2453C29.6879 18.0354 30.039 17.874 30.4185 17.7609C30.7979 17.6479 31.1975 17.5914 31.6173 17.5914C32.6829 17.5914 33.6194 17.9385 34.4267 18.6328C35.234 19.3271 35.7103 20.1909 35.8556 21.2242L35.8798 21.4906C35.6215 21.8781 35.2864 22.193 34.8747 22.4352C34.463 22.6773 34.0069 22.7984 33.5063 22.7984V23.5977C33.9746 23.5977 34.4065 23.7066 34.802 23.9246C35.1976 24.1426 35.5246 24.4292 35.7829 24.7844C35.6376 25.8016 35.3873 26.8026 35.0321 27.7875C34.6769 28.7724 34.2168 29.7008 33.6517 30.5727ZM36.7032 24.7602C36.5256 24.4211 36.3036 24.1184 36.0372 23.852C35.7708 23.5855 35.4761 23.3716 35.1532 23.2102C35.4761 23.0326 35.7708 22.8105 36.0372 22.5441C36.3036 22.2777 36.5256 21.975 36.7032 21.6359C36.8808 21.975 37.1028 22.2777 37.3692 22.5441C37.6356 22.8105 37.9303 23.0326 38.2532 23.2102C37.9303 23.3716 37.6356 23.5855 37.3692 23.852C37.1028 24.1184 36.8808 24.4211 36.7032 24.7602Z" fill="#1F1B12"/>
</svg>
