<svg width="55" height="55" viewBox="0 0 55 55" fill="none" xmlns="http://www.w3.org/2000/svg">
<rect width="55" height="55" rx="15" fill="white"/>
<path d="M38.2413 19.6997C37.7037 17.4917 35.941 15.6928 33.7486 15.1235C32.1768 14.7153 30.6724 15.3725 29.3961 16.3115C29.2374 16.4282 29.0562 16.4936 28.8834 16.5791L30.2662 17.4682C30.6285 17.7011 30.734 18.1845 30.5006 18.5478C30.2828 18.8872 29.8038 19.0292 29.421 18.7822L24.5133 15.6269C23.5025 15.0971 22.3951 14.8261 21.251 15.1235C19.0587 15.6933 17.296 17.4917 16.7584 19.6997C16.2637 21.7319 16.7379 23.6455 17.8082 25.0917C18.9488 26.6333 19.4039 28.4443 19.5802 30.3334C19.795 32.6362 20.0845 34.9311 20.6026 37.185L20.9835 38.8427C21.1392 39.52 21.7398 40 22.4322 40C23.1143 40 23.7091 39.5336 23.8746 38.8691L25.5577 32.1103C25.7803 31.2158 26.5811 30.5888 27.4991 30.5888C28.4171 30.5888 29.2178 31.2163 29.4405 32.1103L31.1236 38.8691C31.2891 39.5336 31.8839 40 32.566 40C33.2584 40 33.859 39.52 34.0147 38.8427L34.3956 37.185C34.9136 34.9316 35.2027 32.6362 35.418 30.3334C35.5943 28.4438 36.0494 26.6333 37.19 25.0917C38.2618 23.6459 38.7359 21.7324 38.2413 19.6997Z" fill="#1F1B12"/>
</svg>
