<svg width="129" height="50" viewBox="0 0 129 50" fill="none" xmlns="http://www.w3.org/2000/svg">
<g clip-path="url(#clip0_6_1257)">
<g clip-path="url(#clip1_6_1257)">
<g clip-path="url(#clip2_6_1257)">
<path d="M62.1669 9.07438C62.1669 9.57475 62.7753 10.1831 63.2622 10.1831C63.749 10.1831 64.3574 9.57475 64.3574 9.07438C64.3574 8.574 63.749 7.95215 63.2622 7.95215C62.7753 7.95215 62.1669 8.5875 62.1669 9.07438Z" fill="#C6AC8A"/>
<path d="M60.3072 10.1841C60.7941 10.1841 61.4024 9.57573 61.4024 9.07535C61.4024 8.57498 60.7941 7.95312 60.3072 7.95312C59.8203 7.95312 59.212 8.58848 59.212 9.07535C59.212 9.56223 59.8203 10.1841 60.3072 10.1841Z" fill="#C6AC8A"/>
<path d="M61.7852 7.95215C62.272 7.95215 62.8804 7.34379 62.8804 6.84342C62.8804 6.34304 62.272 5.72119 61.7852 5.72119C61.2983 5.72119 60.6899 6.35654 60.6899 6.84342C60.6899 7.3303 61.2983 7.95215 61.7852 7.95215Z" fill="#C6AC8A"/>
<path d="M64.5946 11.5147C63.7664 11.0442 62.8823 10.7993 61.9414 10.7993C58.9873 10.7993 56.8422 12.474 56.8422 15.5601C56.8422 18.2857 58.511 18.5893 60.957 18.5893C62.2075 18.5893 63.1455 18.1941 63.6343 17.4228V17.6705C63.6343 19.1572 62.8631 19.4956 61.6772 19.4956H57.2683C56.0824 19.4956 55.3112 19.1572 55.3112 17.6705V14.4687V11.9852H52.6965C50.2505 11.9852 48.5759 13.6791 48.5759 16.0306V17.6705C48.5759 19.1572 47.8046 19.4956 46.6187 19.4956L45.7018 19.4995C45.4174 19.4995 45.133 19.4657 44.8602 19.3857C43.6936 19.0415 43.0592 18.0726 43.0592 16.5416C43.0592 15.5071 43.2665 14.6596 43.6618 13.8131H41.6294C41.2158 14.6413 41.0085 15.6382 41.0085 16.88C41.0085 19.9285 42.984 21.9792 45.9573 21.9792H46.9388C49.3848 21.9792 51.0594 20.2852 51.0594 17.9338V16.2938C51.0594 14.8881 51.7497 14.5092 52.8266 14.4716V17.9338C52.8266 20.2862 54.5013 21.9792 56.9473 21.9792H61.9963C64.4423 21.9792 66.1169 20.2852 66.1169 17.9338V14.2335C66.1169 13.1238 65.5394 12.0932 64.5927 11.5137L64.5946 11.5147ZM61.8305 16.5368C60.2561 16.5368 59.2881 16.4105 59.2881 15.3827C59.2881 13.7389 60.3043 12.9261 62.0166 12.9261C62.675 12.9261 63.2024 13.0582 63.6343 13.3214V15.993C63.6343 15.993 63.1677 16.5368 61.8305 16.5368Z" fill="#C6AC8A"/>
<path d="M48.1256 22.7446C47.5568 22.7446 46.8453 23.487 46.8453 24.0568C46.8453 24.6266 47.5568 25.3526 48.1256 25.3526C48.6944 25.3526 49.406 24.641 49.406 24.0568C49.406 23.4725 48.6944 22.7446 48.1256 22.7446Z" fill="#C6AC8A"/>
<path d="M44.7368 22.7446C44.1679 22.7446 43.4564 23.487 43.4564 24.0568C43.4564 24.6266 44.1679 25.3526 44.7368 25.3526C45.3056 25.3526 46.0171 24.641 46.0171 24.0568C46.0171 23.4725 45.3056 22.7446 44.7368 22.7446Z" fill="#C6AC8A"/>
<path d="M25.8189 11.4873C26.3877 11.4873 27.0993 10.7758 27.0993 10.1916C27.0993 9.6073 26.3877 8.87939 25.8189 8.87939C25.2501 8.87939 24.5386 9.62176 24.5386 10.1916C24.5386 10.7613 25.2501 11.4873 25.8189 11.4873Z" fill="#C6AC8A"/>
<path d="M19.0962 11.4873C19.665 11.4873 20.3765 10.7758 20.3765 10.1916C20.3765 9.6073 19.665 8.87939 19.0962 8.87939C18.5274 8.87939 17.8159 9.62176 17.8159 10.1916C17.8159 10.7613 18.5274 11.4873 19.0962 11.4873Z" fill="#C6AC8A"/>
<path d="M15.7064 11.4873C16.2752 11.4873 16.9867 10.7758 16.9867 10.1916C16.9867 9.6073 16.2752 8.87939 15.7064 8.87939C15.1375 8.87939 14.426 9.62176 14.426 10.1916C14.426 10.7613 15.1375 11.4873 15.7064 11.4873Z" fill="#C6AC8A"/>
<path d="M25.3591 17.6712C25.3591 19.1579 24.5878 19.4963 23.4019 19.4963H22.9006C22.1312 19.4963 21.4563 19.4433 20.9511 19.2659C21.0794 18.8542 21.1488 18.4078 21.1488 17.9344V12.572H18.6652V17.6712C18.6652 19.1579 17.8939 19.4963 16.7081 19.4963H16.2588C15.0729 19.4963 14.3016 19.1579 14.3016 17.6712V11.9858H11.6879C9.24199 11.9858 7.56732 13.6798 7.56732 16.0313V17.6712C7.56732 19.1579 6.79603 19.4963 5.61017 19.4963L4.6933 19.5001C4.40889 19.5001 4.12447 19.4664 3.85163 19.3864C2.68505 19.0422 2.05067 18.0732 2.05067 16.5422C2.05067 15.5077 2.25795 14.6603 2.65324 13.8138H0.620889C0.207284 14.642 0 15.6389 0 16.8806C0 19.9292 1.97547 21.9798 4.94879 21.9798H5.93026C8.37621 21.9798 10.0509 20.2859 10.0509 17.9344V16.2945C10.0509 14.8888 10.7412 14.5099 11.8181 14.4723V17.9344C11.8181 20.2869 13.4928 21.9798 15.9387 21.9798H17.0282C18.3249 21.9798 19.4057 21.5036 20.1336 20.7053C20.7275 21.4235 21.7369 21.9634 22.9102 21.974V21.9798H23.721C26.167 21.9798 27.8416 20.2859 27.8416 17.9344V12.572H25.3581V17.6712H25.3591Z" fill="#C6AC8A"/>
<path d="M37.9812 17.2499C37.9523 14.3123 35.9094 12.3647 32.883 12.3647C31.6412 12.3647 30.6443 12.572 29.8162 12.9856V15.018C30.6627 14.6227 31.5101 14.4154 32.5446 14.4154C34.0756 14.4154 35.0445 15.0498 35.3887 16.2164C35.4688 16.4892 35.4977 16.7736 35.4977 17.058V17.5391C35.4977 18.725 35.1593 19.4963 33.6726 19.4963H29.4758V21.9798H33.9358C36.2882 21.9798 37.9812 20.3052 37.9812 17.8592V17.2499Z" fill="#C6AC8A"/>
<path d="M7.1161 22.7446C6.54727 22.7446 5.83575 23.487 5.83575 24.0568C5.83575 24.6266 6.54727 25.3526 7.1161 25.3526C7.68492 25.3526 8.39644 24.641 8.39644 24.0568C8.39644 23.4725 7.68492 22.7446 7.1161 22.7446Z" fill="#C6AC8A"/>
<path d="M3.72724 22.7446C3.15841 22.7446 2.4469 23.487 2.4469 24.0568C2.4469 24.6266 3.15841 25.3526 3.72724 25.3526C4.29607 25.3526 5.00758 24.641 5.00758 24.0568C5.00758 23.4725 4.29607 22.7446 3.72724 22.7446Z" fill="#C6AC8A"/>
<path d="M13.2835 29.0854L7.78232 44.0109H5.47905L0 29.0854H3.0707L5.58703 36.2498C6.03438 37.5291 6.39689 38.6591 6.73818 39.8102C7.07948 38.6591 7.44199 37.4867 7.88933 36.2073L10.3835 29.0854H13.2835Z" fill="#C6AC8A"/>
<path d="M20.1702 29.0854C24.7121 29.0854 28.102 32.0279 28.102 36.5486C28.102 41.0694 24.7333 44.0118 20.1702 44.0118H15.3091V29.0864H20.1702V29.0854ZM20.0854 41.4521C23.0915 41.4521 25.1171 39.5335 25.1171 36.5477C25.1171 33.5618 23.049 31.6432 20.0854 31.6432H18.2516V41.4512H20.0854V41.4521Z" fill="#C6AC8A"/>
<path d="M39.8718 39.3406H32.8357C33.0488 41.0462 34.2858 41.9842 36.2689 41.9842C37.4413 41.9842 38.4016 41.75 39.3609 41.3016V43.6049C38.4228 44.0744 37.2928 44.3087 35.8852 44.3087C32.4308 44.3087 30.1073 42.07 30.1073 38.7005C30.1073 35.3309 32.3884 33.0498 35.3955 33.0498C38.0603 33.0498 39.8728 34.8199 39.8728 38.2097V39.3397L39.8718 39.3406ZM37.3777 37.4221C37.3777 35.9296 36.6315 35.1834 35.3521 35.1834C34.1585 35.1834 33.1134 36.0154 32.8569 37.4008L37.3777 37.4221Z" fill="#C6AC8A"/>
<path d="M51.876 36.8463V44.0106H49.0618V37.3794C49.0618 36.2283 48.5498 35.6527 47.3129 35.6527C46.5455 35.6527 45.9275 35.8234 45.1379 36.3989V44.0106H42.3236V33.3495H44.7966L44.9248 35.3538H45.0318C45.6498 33.7756 47.015 33.0728 48.4004 33.0728C50.4472 33.0728 51.876 34.2239 51.876 36.8463Z" fill="#C6AC8A"/>
<path d="M57.867 40.2576C57.867 41.43 58.2931 41.8359 59.4453 41.8359C59.9572 41.8359 60.3197 41.7722 60.661 41.6228V43.8615C60.1491 44.0745 59.5735 44.2028 58.7202 44.2028C56.3109 44.2028 55.0528 42.8173 55.0528 40.8766V35.6096H53.5179V33.3497H55.0528V30.4921L57.867 30.1084V33.3497H60.7025V35.6096H57.867V40.2576Z" fill="#C6AC8A"/>
<path d="M62.6644 29.8316C62.6644 29.0642 63.6237 28.0615 64.3912 28.0615C65.1586 28.0615 66.1179 29.0632 66.1179 29.8316C66.1179 30.6 65.1586 31.5805 64.3912 31.5805C63.6237 31.5805 62.6644 30.6212 62.6644 29.8316ZM62.9411 33.3497H65.7554V44.0108H62.9411V33.3497Z" fill="#C6AC8A"/>
<path d="M125.502 13.7251L125.098 14.6449C124.511 15.9802 124.444 17.4746 124.843 18.8773C125.576 21.4535 125.862 24.2156 125.601 27.0781C124.607 37.9668 115.744 46.6592 104.838 47.4353C91.6977 48.3696 80.7068 37.9436 80.7068 24.9995C80.7068 21.2163 81.6497 17.651 83.3071 14.5186H84.3599C85.4802 14.5186 86.4934 15.1867 86.935 16.2164L97.3339 40.4773C98.326 42.7922 100.603 44.2933 103.121 44.2933H103.147C105.662 44.2933 107.938 42.8047 108.947 40.4995L109.52 39.1883C109.12 39.2703 108.707 39.3146 108.282 39.3146H108.247C105.862 39.3146 103.709 37.8887 102.777 35.6934L100.681 30.7514C100.681 30.7514 100.681 30.7514 100.681 30.7504L99.7567 28.5715L94.4445 16.0457C93.5151 13.8543 91.3651 12.4313 88.9847 12.4313H84.5537C88.6 6.44704 95.4491 2.50574 103.202 2.50574C108.978 2.50574 114.251 4.69621 118.239 8.28753L108.475 30.8179C107.782 32.3778 106.297 33.3429 104.594 33.3429C104.581 33.3429 104.569 33.3429 104.555 33.3429C104.535 33.3429 104.517 33.339 104.496 33.3381L105.068 34.6869C105.728 36.2449 107.15 36.806 108.259 36.8127H108.279C109.385 36.8127 110.8 36.2642 111.474 34.7245L116.185 24.0006L117.528 20.9444L121.49 11.929C122.223 10.262 121.868 8.29813 120.558 7.03322C115.58 2.22133 108.617 -0.549529 101.029 0.0954629C88.8015 1.13381 79.0476 11.1027 78.2551 23.3489C77.2813 38.4016 89.7165 50.8705 104.758 49.9536C117.138 49.1987 127.194 39.2857 128.127 26.918C128.486 22.1534 127.491 17.6471 125.501 13.7271L125.502 13.7251Z" fill="#C6AC8A"/>
</g>
</g>
</g>
<defs>
<clipPath id="clip0_6_1257">
<rect width="128.2" height="50" fill="white"/>
</clipPath>
<clipPath id="clip1_6_1257">
<rect width="128.2" height="50" fill="white"/>
</clipPath>
<clipPath id="clip2_6_1257">
<rect width="128.2" height="49.9979" fill="white" transform="translate(0 0.000976562)"/>
</clipPath>
</defs>
</svg>
