<svg width="55" height="55" viewBox="0 0 55 55" fill="none" xmlns="http://www.w3.org/2000/svg">
<rect width="55" height="55" rx="15" fill="white"/>
<path fill-rule="evenodd" clip-rule="evenodd" d="M24.959 39.9853C23.6702 39.9853 22.0445 37.393 21.7662 35.4012C21.4001 32.765 22.0591 33.3655 20.7118 30.7C18.0023 25.369 21.9566 21.854 27.4927 24.5195C33.0287 21.854 36.9976 25.369 34.2882 30.7C32.9408 33.3508 33.5999 32.7504 33.2337 35.4012C32.9408 37.5395 31.0076 40.5564 29.6309 39.8974C28.9133 39.5605 28.6643 38.3596 28.6643 38.096V34.9325C28.6643 32.4574 26.3357 32.3989 26.3357 34.9325L26.321 38.1839C26.2624 38.6525 25.9402 39.9853 24.959 39.9853ZM23.9045 24.1827C20.6532 24.1827 19.4962 27.0386 21.2243 30.4217C22.645 33.219 21.9859 32.7211 22.3521 35.3133C22.6303 37.3198 24.3585 39.7216 25.1201 39.3702C25.3983 39.2383 25.6473 38.7404 25.7498 38.1253V34.9325C25.7498 31.6226 29.2501 31.6812 29.2501 34.9325V38.0813C29.2794 38.4768 29.587 39.7802 30.4071 39.2823C31.2859 38.755 32.4136 36.9976 32.6479 35.3133C33.014 32.7211 32.355 33.219 33.7756 30.4217C36.2654 25.5447 32.6918 22.5863 27.6391 25.1054C27.5512 25.1493 27.4487 25.1493 27.3755 25.1054C26.1453 24.4902 24.9443 24.1827 23.9045 24.1827Z" fill="#1F1B12"/>
<path fill-rule="evenodd" clip-rule="evenodd" d="M22.0737 28.5619C21.9126 28.5619 21.7808 28.4301 21.7808 28.269C21.7808 26.7752 22.9963 25.5596 24.5048 25.5596C24.8856 25.5596 24.8856 26.1454 24.5048 26.1454C23.3185 26.1454 22.3666 27.0974 22.3666 28.269C22.3666 28.4301 22.2348 28.5619 22.0737 28.5619Z" fill="#1F1B12"/>
<path fill-rule="evenodd" clip-rule="evenodd" d="M32.9262 28.5619C32.7651 28.5619 32.6333 28.4301 32.6333 28.269C32.6333 27.0974 31.6667 26.1454 30.4951 26.1454C30.1143 26.1454 30.1143 25.5596 30.4951 25.5596C31.9889 25.5596 33.2191 26.7752 33.2191 28.269C33.2191 28.4301 33.0873 28.5619 32.9262 28.5619Z" fill="#1F1B12"/>
<path fill-rule="evenodd" clip-rule="evenodd" d="M27.4926 26.9361C24.9882 26.9361 24.3585 24.1095 24.7978 23.758C25.12 23.4944 27.0093 24.2852 27.4926 24.5195C27.9759 24.2852 29.8799 23.4944 30.2021 23.758C30.6414 24.1095 29.997 26.9361 27.4926 26.9361ZM25.2811 24.3438C25.3837 25.4715 26.3356 26.3502 27.4926 26.3502C28.6496 26.3502 29.6016 25.4715 29.7188 24.3438C29.0451 24.4903 28.3421 24.7539 27.6244 25.1054C27.5512 25.1493 27.4487 25.1493 27.3608 25.1054C26.6578 24.7539 25.9548 24.4903 25.2811 24.3438Z" fill="#1F1B12"/>
<path fill-rule="evenodd" clip-rule="evenodd" d="M30.041 18.0609H24.959C24.6807 18.0609 24.461 17.8559 24.3878 17.5483L23.9777 15.6298C23.9045 15.2929 24.212 15 24.5342 15H30.4511C30.7879 15 31.0955 15.3076 31.0222 15.6298L30.5975 17.5483C30.5389 17.8559 30.3192 18.0609 30.041 18.0609ZM24.9883 17.4751H30.0117L30.4364 15.5858H24.5635L24.9883 17.4751Z" fill="#1F1B12"/>
<path fill-rule="evenodd" clip-rule="evenodd" d="M29.2208 20.4042H25.7645C25.3105 20.4042 24.9297 20.0234 24.9297 19.5548V17.768C24.9297 17.5923 25.0615 17.4751 25.2226 17.4751H29.7774C29.9385 17.4751 30.0703 17.5923 30.0703 17.768V19.5548C30.0703 20.0234 29.6895 20.4042 29.2208 20.4042ZM25.5155 18.0609V19.5548C25.5155 19.7012 25.6327 19.8184 25.7645 19.8184H29.2208C29.3673 19.8184 29.4845 19.7012 29.4845 19.5548V18.0609H25.5155Z" fill="#1F1B12"/>
<path fill-rule="evenodd" clip-rule="evenodd" d="M28.0052 22.9086H27.0093C26.526 22.9086 26.116 22.5131 26.116 22.0152V20.1113C26.116 19.9502 26.2478 19.8184 26.4089 19.8184H28.6057C28.7668 19.8184 28.8986 19.9502 28.8986 20.1113V22.0152C28.8986 22.5131 28.5032 22.9086 28.0052 22.9086ZM26.7018 20.4042V22.0152C26.7018 22.1909 26.8482 22.3228 27.0093 22.3228H28.0052C28.181 22.3228 28.3128 22.1909 28.3128 22.0152V20.4042H26.7018Z" fill="#1F1B12"/>
<path fill-rule="evenodd" clip-rule="evenodd" d="M30.5243 16.816H27.4926C27.1118 16.816 27.1118 16.2302 27.4926 16.2302H30.5243C30.905 16.2302 30.905 16.816 30.5243 16.816Z" fill="#1F1B12"/>
<path fill-rule="evenodd" clip-rule="evenodd" d="M27.5073 25.9402C27.3462 25.9402 27.2144 25.8084 27.2144 25.6473V22.6157C27.2144 22.2349 27.8002 22.2349 27.8002 22.6157V25.6473C27.8002 25.8084 27.6684 25.9402 27.5073 25.9402Z" fill="#1F1B12"/>
<path fill-rule="evenodd" clip-rule="evenodd" d="M29.3233 23.5677C29.0597 23.5677 28.9425 23.2455 29.1182 23.0551L30.0702 22.1031C30.3338 21.8395 30.7585 22.2496 30.4803 22.5278C30.202 22.8061 29.5576 23.5677 29.3233 23.5677Z" fill="#1F1B12"/>
<path fill-rule="evenodd" clip-rule="evenodd" d="M25.6913 23.5677C25.4716 23.5677 24.8272 22.8207 24.5343 22.5278C24.2706 22.2496 24.6807 21.8395 24.959 22.1031L25.911 23.0551C26.0867 23.2455 25.9549 23.5677 25.6913 23.5677Z" fill="#1F1B12"/>
</svg>
