<svg width="55" height="55" viewBox="0 0 55 55" fill="none" xmlns="http://www.w3.org/2000/svg">
<rect width="55" height="55" rx="15" fill="white"/>
<path d="M36.25 17.5H18.75C16.6789 17.5 15 19.1789 15 21.25V33.75C15 35.8211 16.6789 37.5 18.75 37.5H36.25C38.3211 37.5 40 35.8211 40 33.75V21.25C40 19.1789 38.3211 17.5 36.25 17.5ZM21.25 31.875C21.25 32.9105 20.4105 33.75 19.375 33.75C18.3395 33.75 17.5 32.9105 17.5 31.875V29.375C17.5 29.0297 17.7797 28.75 18.125 28.75H20.625C20.9703 28.75 21.25 29.0297 21.25 29.375V31.875ZM21.25 26.875C21.25 27.2203 20.9703 27.5 20.625 27.5H18.125C17.7797 27.5 17.5 27.2203 17.5 26.875V24.375C17.5 23.3395 18.3395 22.5 19.375 22.5C20.4105 22.5 21.25 23.3395 21.25 24.375V26.875ZM26.875 31.5625C26.875 32.7707 25.8957 33.75 24.6875 33.75C23.4793 33.75 22.5 32.7707 22.5 31.5625V29.375C22.5 29.0297 22.7797 28.75 23.125 28.75H26.25C26.5953 28.75 26.875 29.0297 26.875 29.375V31.5625ZM26.875 26.875C26.875 27.2203 26.5953 27.5 26.25 27.5H23.125C22.7797 27.5 22.5 27.2203 22.5 26.875V23.4375C22.5 22.2293 23.4793 21.25 24.6875 21.25C25.8957 21.25 26.875 22.2293 26.875 23.4375V26.875ZM32.5 31.5625C32.5 32.7707 31.5207 33.75 30.3125 33.75C29.1043 33.75 28.125 32.7707 28.125 31.5625V29.375C28.125 29.0297 28.4047 28.75 28.75 28.75H31.875C32.2203 28.75 32.5 29.0297 32.5 29.375V31.5625ZM32.5 26.875C32.5 27.2203 32.2203 27.5 31.875 27.5H28.75C28.4047 27.5 28.125 27.2203 28.125 26.875V23.4375C28.125 22.2293 29.1043 21.25 30.3125 21.25C31.5207 21.25 32.5 22.2293 32.5 23.4375V26.875ZM37.5 31.875C37.5 32.9105 36.6605 33.75 35.625 33.75C34.5895 33.75 33.75 32.9105 33.75 31.875V29.375C33.75 29.0297 34.0297 28.75 34.375 28.75H36.875C37.2203 28.75 37.5 29.0297 37.5 29.375V31.875ZM37.5 26.875C37.5 27.2203 37.2203 27.5 36.875 27.5H34.375C34.0297 27.5 33.75 27.2203 33.75 26.875V24.375C33.75 23.3395 34.5895 22.5 35.625 22.5C36.6605 22.5 37.5 23.3395 37.5 24.375V26.875Z" fill="#1F1B12"/>
</svg>
