<svg width="55" height="55" viewBox="0 0 55 55" fill="none" xmlns="http://www.w3.org/2000/svg">
<rect width="55" height="55" rx="15" fill="white"/>
<path d="M33.7969 17.2766C33.6677 17.2766 33.5547 17.3251 33.4578 17.4219C33.3609 17.5188 33.3125 17.6318 33.3125 17.761C33.3125 17.8902 33.3609 18.0032 33.4578 18.1C33.5547 18.1969 33.6677 18.2454 33.7969 18.2454C33.926 18.2454 34.0391 18.1969 34.1359 18.1C34.2328 18.0032 34.2812 17.8902 34.2812 17.761C34.2812 17.6318 34.2328 17.5188 34.1359 17.4219C34.0391 17.3251 33.926 17.2766 33.7969 17.2766ZM34.2328 15.3876C32.7151 14.9032 31.3589 14.8305 30.1641 15.1696C28.9693 15.5086 28.0812 15.8477 27.5 16.1868C26.9187 15.8477 26.0307 15.5086 24.8359 15.1696C23.6411 14.8305 22.2849 14.9032 20.7672 15.3876C19.75 15.7105 18.8862 16.2917 18.1758 17.1313C17.4815 17.9709 16.9891 18.9437 16.6984 20.0497C16.4078 21.1556 16.3674 22.3464 16.5773 23.6219C16.7711 24.8813 17.2716 26.1084 18.0789 27.3032C18.8378 28.4172 19.3262 29.4344 19.5441 30.3547C19.7621 31.275 19.9195 32.1954 20.0164 33.1157C20.0971 33.7777 20.2021 34.4639 20.3312 35.1743C20.4604 35.8847 20.6945 36.6435 21.0336 37.4508C21.2596 37.9998 21.5382 38.5286 21.8691 39.0372C22.2001 39.5458 22.6078 39.8 23.0922 39.8C23.0922 39.8 23.0962 39.8 23.1043 39.8C23.1124 39.8 23.1164 39.8 23.1164 39.8C23.5039 39.7839 23.8591 39.578 24.182 39.1825C24.5049 38.7869 24.8279 38.1612 25.1508 37.3055C25.3122 36.8696 25.4454 36.4054 25.5504 35.9129C25.6553 35.4205 25.7562 34.924 25.8531 34.4235C26.0307 33.5355 26.2366 32.712 26.4707 31.9532C26.7048 31.1943 27.0479 30.8149 27.5 30.8149C27.9521 30.8149 28.2952 31.1943 28.5293 31.9532C28.7634 32.712 28.9693 33.5355 29.1469 34.4235C29.2437 34.924 29.3447 35.4205 29.4496 35.9129C29.5546 36.4054 29.6878 36.8696 29.8492 37.3055C30.1721 38.1612 30.4951 38.7869 30.818 39.1825C31.1409 39.578 31.4961 39.7839 31.8836 39.8C31.8836 39.8 31.8917 39.8 31.9078 39.8C32.376 39.8 32.7797 39.5458 33.1187 39.0372C33.4578 38.5286 33.7404 37.9998 33.9664 37.4508C34.2893 36.6758 34.5154 35.9372 34.6445 35.2348C34.7737 34.5325 34.8786 33.8503 34.9594 33.1883C35.0724 32.2357 35.2379 31.2912 35.4559 30.3547C35.6738 29.4183 36.1622 28.393 36.9211 27.279C37.7445 26.0842 38.2531 24.849 38.4469 23.5735C38.6406 22.3141 38.5882 21.1274 38.2895 20.0133C37.9908 18.8993 37.4862 17.9305 36.7758 17.1071C36.0815 16.2836 35.2339 15.7105 34.2328 15.3876ZM36.1219 26.7461C35.2984 27.9571 34.7697 29.0752 34.5355 30.1004C34.3014 31.1257 34.1198 32.1146 33.9906 33.0672C33.9099 33.7292 33.813 34.3872 33.7 35.0411C33.587 35.695 33.3771 36.3771 33.0703 37.0875C32.7151 37.9271 32.4366 38.4277 32.2348 38.5891C32.0329 38.7506 31.924 38.8313 31.9078 38.8313C31.8917 38.8313 31.7786 38.7506 31.5687 38.5891C31.3589 38.4277 31.0924 37.8868 30.7695 36.9665C30.6242 36.579 30.4991 36.1471 30.3941 35.6708C30.2892 35.1944 30.1883 34.7141 30.0914 34.2297C29.9784 33.6969 29.8654 33.1843 29.7523 32.6918C29.6393 32.1994 29.5021 31.7594 29.3406 31.3719C29.1307 30.8553 28.8724 30.4718 28.5656 30.2215C28.2589 29.9713 27.9036 29.8461 27.5 29.8461C27.0964 29.8461 26.7411 29.9753 26.4344 30.2336C26.1276 30.492 25.8693 30.8714 25.6594 31.3719C25.4979 31.7756 25.3607 32.2196 25.2477 32.704C25.1346 33.1883 25.0216 33.705 24.9086 34.254C24.8117 34.7222 24.7108 35.1944 24.6059 35.6708C24.5009 36.1471 24.3758 36.579 24.2305 36.9665C23.8914 37.8868 23.621 38.4277 23.4191 38.5891C23.2173 38.7506 23.1083 38.8313 23.0922 38.8313C23.076 38.8313 22.9671 38.7546 22.7652 38.6012C22.5634 38.4478 22.2849 37.9433 21.9297 37.0875C21.6068 36.3287 21.3888 35.6223 21.2758 34.9684C21.1628 34.3145 21.0659 33.6566 20.9852 32.9946C20.8721 32.0581 20.6986 31.0894 20.4645 30.0883C20.2303 29.0873 19.7016 27.9732 18.8781 26.7461C18.1516 25.6805 17.6995 24.5907 17.5219 23.4766C17.3443 22.3464 17.3766 21.2969 17.6187 20.3282C17.8609 19.3594 18.2888 18.5118 18.9023 17.7852C19.4997 17.0748 20.2182 16.5823 21.0578 16.3079C22.5109 15.8396 23.7945 15.7912 24.9086 16.1625C26.0227 16.5339 26.7977 16.8649 27.2336 17.1555C27.3143 17.204 27.4031 17.2282 27.5 17.2282C27.5969 17.2282 27.6857 17.204 27.7664 17.1555C28.2023 16.8649 28.9773 16.5339 30.0914 16.1625C31.2055 15.7912 32.4891 15.8396 33.9422 16.3079C34.7979 16.5823 35.5245 17.0829 36.1219 17.8094C36.7193 18.536 37.1391 19.3877 37.3812 20.3645C37.6234 21.3413 37.6477 22.3868 37.4539 23.5008C37.2763 24.6149 36.8323 25.6967 36.1219 26.7461ZM36.2672 20.0133C36.1865 19.7873 36.0936 19.5693 35.9887 19.3594C35.8837 19.1495 35.7747 18.9477 35.6617 18.754C35.581 18.6571 35.476 18.5965 35.3469 18.5723C35.2177 18.5481 35.0966 18.5683 34.9836 18.6329C34.8706 18.7136 34.802 18.8185 34.7777 18.9477C34.7535 19.0769 34.7818 19.198 34.8625 19.311C34.9594 19.4563 35.0482 19.6137 35.1289 19.7833C35.2096 19.9528 35.2823 20.1344 35.3469 20.3282C35.5891 21.0224 35.6819 21.7611 35.6254 22.5442C35.5689 23.3273 35.363 24.0821 35.0078 24.8086C34.9432 24.9378 34.9352 25.0629 34.9836 25.184C35.032 25.3051 35.1128 25.398 35.2258 25.4625C35.3549 25.5271 35.4801 25.5352 35.6012 25.4868C35.7223 25.4383 35.8151 25.3576 35.8797 25.2446C36.2833 24.405 36.5215 23.5291 36.5941 22.6168C36.6668 21.7046 36.5578 20.8368 36.2672 20.0133ZM25.732 21.636L23.7945 20.9821L23.1406 19.0204C23.1083 18.9235 23.0478 18.8468 22.959 18.7903C22.8702 18.7338 22.7773 18.7055 22.6805 18.7055C22.5674 18.7055 22.4706 18.7338 22.3898 18.7903C22.3091 18.8468 22.2526 18.9235 22.2203 19.0204L21.5664 20.9821L19.6289 21.636C19.5159 21.6683 19.4311 21.7248 19.3746 21.8055C19.3181 21.8862 19.2898 21.9831 19.2898 22.0961C19.2898 22.193 19.3181 22.2818 19.3746 22.3625C19.4311 22.4433 19.5159 22.5079 19.6289 22.5563L21.5664 23.186L22.2203 25.1477C22.2526 25.2446 22.3091 25.3253 22.3898 25.3899C22.4706 25.4545 22.5674 25.4868 22.6805 25.4868C22.7773 25.4868 22.8702 25.4545 22.959 25.3899C23.0478 25.3253 23.1083 25.2446 23.1406 25.1477L23.7945 23.186L25.732 22.5563C25.8289 22.5079 25.9096 22.4433 25.9742 22.3625C26.0388 22.2818 26.0711 22.193 26.0711 22.0961C26.0711 21.9831 26.0388 21.8862 25.9742 21.8055C25.9096 21.7248 25.8289 21.6683 25.732 21.636ZM23.2617 22.3625C23.181 22.3787 23.1124 22.415 23.0559 22.4715C22.9993 22.528 22.963 22.5886 22.9469 22.6532L22.6805 23.4524L22.4141 22.6532C22.3818 22.5886 22.3414 22.528 22.293 22.4715C22.2445 22.415 22.1799 22.3787 22.0992 22.3625L21.3 22.0961L22.0992 21.8297C22.1799 21.7974 22.2445 21.753 22.293 21.6965C22.3414 21.64 22.3818 21.5795 22.4141 21.5149L22.6805 20.7157L22.9469 21.5149C22.963 21.5795 22.9993 21.64 23.0559 21.6965C23.1124 21.753 23.181 21.7974 23.2617 21.8297L24.0609 22.0961L23.2617 22.3625Z" fill="#1F1B12"/>
</svg>
