<svg width="55" height="55" viewBox="0 0 55 55" fill="none" xmlns="http://www.w3.org/2000/svg">
<rect width="55" height="55" rx="15" fill="white"/>
<path d="M35.8191 32.9139L34.2683 34.7656L33.5853 34.1676C32.4278 33.1539 30.893 34.9059 32.0511 35.9199L33.6298 37.3021C34.1287 37.7388 34.8771 37.6663 35.2898 37.1736L37.6047 34.4092C38.587 33.2363 36.8089 31.7318 35.8191 32.9139ZM37.0431 33.9389L34.7282 36.7033C34.5735 36.888 34.2954 36.9113 34.1124 36.751L32.5336 35.3688C32.1041 34.9926 32.6749 34.344 33.1028 34.7187L34.0675 35.5634C34.2225 35.6991 34.4581 35.6799 34.5896 35.523L36.3807 33.3842C36.7477 32.9461 37.4083 33.503 37.0431 33.9389ZM24.185 25.831C23.1258 25.831 22.2435 24.9275 22.2435 23.7811C22.2435 23.2971 21.511 23.2966 21.511 23.781C21.511 24.9114 20.64 25.831 19.5695 25.831C19.0855 25.831 19.085 26.5635 19.5695 26.5635C20.6288 26.5635 21.511 27.467 21.511 28.6135C21.511 29.0975 22.2435 29.098 22.2435 28.6135C22.2435 27.4831 23.1145 26.5635 24.185 26.5635C24.669 26.5635 24.6695 25.831 24.185 25.831ZM21.8782 27.2074C21.6492 26.8017 21.3118 26.444 20.8964 26.1962C21.3012 25.9544 21.6398 25.6057 21.8763 25.1872C22.1057 25.5937 22.4436 25.9511 22.8581 26.1984C22.4533 26.4402 22.1147 26.7889 21.8782 27.2074ZM34.6442 30.0898C35.6827 27.0696 36.4824 22.6084 35.2725 19.7299C35.7544 19.3931 36.3258 19.2098 36.9083 19.2098C37.3921 19.2098 37.3929 18.4773 36.9083 18.4773C35.2725 18.4773 33.9504 17.0833 33.9504 15.3632C33.9504 14.8792 33.2179 14.8787 33.2179 15.3632C33.2179 16.0247 33.0183 16.6657 32.6517 17.1956C31.5278 16.741 30.2729 16.6736 29.085 17.0111C25.9197 17.9111 25.6952 17.7821 22.9837 17.0111C21.198 16.5034 19.311 16.91 17.936 18.0986C15.5255 20.1818 15.8842 25.4055 17.3186 29.7356C16.8946 30.1861 16.2951 30.4651 15.642 30.4651C15.158 30.4651 15.1575 31.1976 15.642 31.1976C16.9533 31.1976 18.0202 32.3221 18.0202 33.7043C18.0202 34.1883 18.7527 34.1888 18.7527 33.7043C18.7527 33.5294 18.7708 33.3558 18.8048 33.1862C19.9568 35.2518 21.8388 37.3675 23.5867 35.9128C24.5627 35.1005 24.6165 34.2988 24.691 33.1892C24.7383 32.4845 24.7971 31.6073 25.1195 30.4491C25.3755 29.5296 26.6912 29.5228 26.9488 30.4491C27.2711 31.6071 27.3301 32.4841 27.3775 33.1889C27.4521 34.2986 27.506 35.1004 28.482 35.9128C28.914 36.2723 29.4246 36.4539 29.9911 36.3759C30.5814 38.4969 32.5311 40 34.7649 40C37.4978 40 39.7211 37.7767 39.7211 35.0438C39.7211 32.2791 37.4413 30.0228 34.6442 30.0898ZM33.5832 17.0365C33.9405 17.8063 34.5566 18.4624 35.3344 18.845C34.5673 19.2214 33.9489 19.8639 33.5844 20.6498C33.2298 19.8864 32.6168 19.2285 31.8361 18.8436C32.5845 18.4748 33.2112 17.8397 33.5832 17.0365ZM17.0801 30.8325C17.6204 30.5385 18.0852 30.071 18.3858 29.4843C18.6724 30.0415 19.1273 30.5245 19.6941 30.8329C19.1225 31.1434 18.6733 31.6202 18.3861 32.1797C18.0908 31.6057 17.6344 31.1347 17.0801 30.8325ZM28.9506 35.3498C28.2158 34.7382 28.1777 34.1704 28.1083 33.1397C28.0587 32.4016 27.9969 31.483 27.6545 30.2527C27.1993 28.6162 24.8702 28.6139 24.4138 30.2527C24.0713 31.4833 24.0096 32.402 23.9601 33.1402C23.8909 34.1706 23.8528 34.7383 23.1181 35.3498C21.7024 36.5282 19.99 33.9345 19.1623 32.299C19.1644 32.2957 19.1665 32.2926 19.1686 32.2894C19.6191 31.5977 20.3614 31.1976 21.1314 31.1976C21.6154 31.1976 21.6159 30.4651 21.1314 30.4651C19.8211 30.4651 18.7527 29.3468 18.7527 27.9575C18.7527 27.4735 18.0202 27.473 18.0202 27.9575C18.0202 28.293 17.9536 28.6312 17.833 28.9327C16.6648 25.0623 16.374 20.4167 18.415 18.6528C19.6028 17.626 21.2358 17.2758 22.7834 17.7157C25.6085 18.5189 25.9761 18.6566 29.2853 17.7157C30.2278 17.4479 31.2184 17.4729 32.1252 17.7802C31.5996 18.2313 30.9408 18.4773 30.2595 18.4773C29.7756 18.4773 29.7749 19.2098 30.2595 19.2098C31.8919 19.2098 33.2179 20.6009 33.2179 22.3245C33.2179 22.8084 33.9504 22.8089 33.9504 22.3245C33.9504 21.5658 34.2132 20.8308 34.6917 20.2621C34.6923 20.2614 34.6929 20.2605 34.6936 20.2598C34.6938 20.2595 34.6941 20.2592 34.6944 20.2589C35.643 22.8509 34.9868 26.9908 33.8385 30.1745C31.5369 30.6103 29.8088 32.6328 29.8088 35.0438C29.8088 35.2488 29.8237 35.4737 29.8463 35.6558C29.5295 35.6872 29.2341 35.5858 28.9506 35.3498ZM34.7649 39.2675C32.4646 39.2675 30.5413 37.4038 30.5413 35.0438C30.5413 32.7596 32.4036 30.8202 34.7649 30.8202C37.0939 30.8202 38.9886 32.7149 38.9886 35.0438C38.9886 37.3728 37.0939 39.2675 34.7649 39.2675Z" fill="#1F1B12"/>
</svg>
