<svg width="55" height="55" viewBox="0 0 55 55" fill="none" xmlns="http://www.w3.org/2000/svg">
<rect width="55" height="55" rx="15" fill="white"/>
<path d="M38.434 23.3578C38.3437 18.7539 34.9199 16.0703 31.2094 16.5961C29.8862 16.7294 28.6564 17.3381 27.748 18.3094C27.7229 18.3366 27.6974 18.3634 27.6715 18.3898C26.8639 17.552 25.8153 16.9867 24.6715 16.7727C19.3625 16.2121 17.4805 18.6648 16.8379 20.8195C16.3289 22.6304 16.5389 24.568 17.4242 26.2277C18.2621 28.0445 20.5008 31.5832 20.6461 33.4891L21.057 36.4695C21.4644 39.1488 25.3391 39.048 25.6101 36.3512L25.9621 32.2809C25.9925 31.9256 26.1533 31.5941 26.4135 31.3503C26.6736 31.1065 27.0148 30.9675 27.3713 30.9602C27.7278 30.9529 28.0744 31.0777 28.3444 31.3106C28.6144 31.5436 28.7886 31.8681 28.8336 32.2219L29.3695 36.4277C29.4394 36.975 29.7027 37.4793 30.1118 37.8495C30.5209 38.2196 31.0488 38.4314 31.6003 38.4464C32.1519 38.4615 32.6906 38.2788 33.1192 37.9315C33.5479 37.5842 33.8383 37.095 33.9379 36.5523L34.8383 31.6223C35.2601 29.2055 36.8305 27.2133 37.4867 26.4687C37.8464 26.041 38.1157 25.5448 38.2785 25.0102C38.4413 24.4755 38.4942 23.9134 38.434 23.3578ZM37.6394 24.191C37.5932 24.8435 37.3335 25.4626 36.9004 25.9527C36.2012 26.7465 34.5242 28.8754 34.0691 31.4848L33.1699 36.4113C33.1185 36.6766 32.9982 36.9237 32.8211 37.1277C32.644 37.3317 32.4163 37.4856 32.1608 37.5737C31.9054 37.6619 31.6313 37.6813 31.366 37.6299C31.1008 37.5786 30.8537 37.4583 30.6496 37.2812C30.3691 37.0382 30.1892 36.6994 30.1449 36.3309L29.6082 32.1219C29.5389 31.5768 29.2705 31.0766 28.8544 30.7177C28.4384 30.3587 27.9043 30.1664 27.355 30.1778C26.8056 30.1891 26.2799 30.4033 25.8791 30.7791C25.4782 31.155 25.2306 31.6658 25.184 32.2133L24.832 36.2852C24.8003 36.6555 24.6332 37.0011 24.3626 37.2559C24.0921 37.5108 23.7371 37.6569 23.3655 37.6664C22.9939 37.6759 22.6319 37.548 22.3487 37.3073C22.0655 37.0666 21.881 36.7299 21.8305 36.3617L21.4199 33.3824C21.2769 31.3695 18.959 27.684 18.1191 25.8711C17.326 24.3902 17.1352 22.6603 17.5867 21.0422C18.3992 18.3219 20.7547 17.1477 24.582 17.5484C25.5351 17.7411 26.4082 18.2159 27.0879 18.9113C26.1126 19.6575 24.967 20.1495 23.7543 20.343C23.6513 20.3544 23.5571 20.4062 23.4923 20.4871C23.4276 20.5679 23.3976 20.6712 23.409 20.7742C23.4204 20.8772 23.4722 20.9714 23.5531 21.0362C23.634 21.1009 23.7372 21.1309 23.8402 21.1195C25.3455 20.893 26.7552 20.2431 27.9051 19.2457C28.8019 18.2695 29.9223 17.4777 31.2883 17.3734C35.0476 16.8586 37.9473 19.8582 37.6394 24.191Z" fill="black"/>
<path d="M32.1953 27.5429C32.2715 26.5361 31.9988 25.5337 31.423 24.7043C30.9145 24.0819 30.3734 23.487 29.802 22.9218L31.8836 22.6125C31.9844 22.5954 32.0745 22.5395 32.1345 22.4568C32.1946 22.3741 32.2199 22.2712 32.2049 22.1701C32.1899 22.0689 32.1359 21.9777 32.0544 21.916C31.973 21.8542 31.8705 21.8269 31.7691 21.8398L27.9797 22.4027C26.9029 22.562 25.8971 23.0356 25.0883 23.764L22.8414 24.091C22.784 24.0993 22.7291 24.1204 22.6809 24.1526C22.6326 24.1848 22.5922 24.2274 22.5625 24.2773L21.6816 25.7515C21.6316 25.8403 21.6183 25.945 21.6444 26.0435C21.6706 26.1419 21.7341 26.2263 21.8215 26.2785C21.9089 26.3308 22.0133 26.3468 22.1124 26.3233C22.2115 26.2997 22.2974 26.2383 22.352 26.1523L23.1379 24.8375L24.2809 24.6707C23.4055 25.8906 23.1332 27.448 23.1379 28.9257L21.7059 30.8425C21.6456 30.9256 21.6204 31.0291 21.6358 31.1306C21.6512 31.2321 21.706 31.3234 21.7882 31.3849C21.8704 31.4463 21.9736 31.4729 22.0753 31.4589C22.1769 31.4449 22.2691 31.3915 22.3316 31.3101L23.1664 30.1929L23.2586 33.6746C23.2613 33.7782 23.3051 33.8764 23.3803 33.9477C23.4555 34.0191 23.556 34.0576 23.6596 34.0548C23.7632 34.0521 23.8614 34.0083 23.9328 33.9331C24.0041 33.8579 24.0426 33.7575 24.0398 33.6539C24.0527 32.2105 23.7348 28.4308 24.1039 27.0671L24.6652 28.2894C24.7084 28.3836 24.7873 28.4568 24.8845 28.4929C24.9816 28.529 25.0892 28.525 25.1834 28.4818C25.2776 28.4386 25.3508 28.3597 25.3869 28.2626C25.423 28.1654 25.419 28.0579 25.3758 27.9636L24.4496 25.9464C24.7744 25.2149 25.2788 24.5773 25.916 24.0929C26.5531 23.6086 27.3024 23.293 28.0941 23.1757L28.8559 23.0625C28.9563 23.1742 30.5852 24.8593 30.6141 24.9246L29.5223 26.4789C29.4928 26.5208 29.4718 26.5682 29.4606 26.6183C29.4495 26.6684 29.4483 26.7202 29.4571 26.7707C29.4659 26.8213 29.4846 26.8696 29.5121 26.9129C29.5396 26.9562 29.5754 26.9937 29.6174 27.0232C29.6594 27.0527 29.7068 27.0736 29.7568 27.0848C29.8069 27.096 29.8587 27.0972 29.9092 27.0884C29.9598 27.0795 30.0081 27.0608 30.0514 27.0333C30.0947 27.0058 30.1322 26.9701 30.1617 26.9281L31.0676 25.639C31.3047 26.1235 31.4245 26.6571 31.4172 27.1964L31.382 30.7316L30.2824 31.6402C30.2069 31.7075 30.1604 31.8014 30.1527 31.9022C30.1451 32.0031 30.1768 32.103 30.2412 32.1809C30.3057 32.2588 30.3979 32.3087 30.4984 32.32C30.5989 32.3314 30.6999 32.3033 30.7801 32.2418L31.3715 31.7531L31.3496 33.9203C31.3491 33.9716 31.3587 34.0225 31.3778 34.0701C31.397 34.1176 31.4253 34.161 31.4613 34.1976C31.4972 34.2343 31.5399 34.2635 31.5871 34.2836C31.6343 34.3037 31.685 34.3143 31.7363 34.3148C31.7876 34.3153 31.8385 34.3057 31.8861 34.2866C31.9337 34.2674 31.977 34.2391 32.0137 34.2032C32.0503 34.1672 32.0795 34.1245 32.0996 34.0773C32.1197 34.0301 32.1303 33.9794 32.1309 33.9281L32.182 28.8382L32.6691 29.4957C32.7308 29.579 32.8231 29.6343 32.9256 29.6496C33.0281 29.6649 33.1325 29.6388 33.2158 29.5771C33.2991 29.5154 33.3545 29.4232 33.3698 29.3206C33.385 29.2181 33.359 29.1137 33.2973 29.0304L32.1953 27.5429Z" fill="black"/>
</svg>
