<svg width="25" height="25" viewBox="0 0 25 25" fill="none" xmlns="http://www.w3.org/2000/svg">
<path d="M17.9063 20.6327C17.8431 20.9879 17.6589 21.3103 17.385 21.5451C17.1112 21.78 16.7645 21.9128 16.4038 21.9211C16.0431 21.9293 15.6907 21.8126 15.4063 21.5905C15.122 21.3685 14.9232 21.0549 14.8438 20.703L14 17.2577C13.9153 16.9198 13.7202 16.62 13.4456 16.4057C13.171 16.1914 12.8327 16.075 12.4844 16.075C12.1361 16.075 11.7978 16.1914 11.5232 16.4057C11.2486 16.62 11.0534 16.9198 10.9688 17.2577L10.711 18.3046C10.6905 18.4035 10.7092 18.5064 10.763 18.5919C10.8168 18.6773 10.9017 18.7386 10.9997 18.7628C11.0977 18.7871 11.2013 18.7724 11.2888 18.7219C11.3762 18.6715 11.4407 18.5891 11.4688 18.4921L11.7266 17.4452C11.7689 17.2763 11.8665 17.1263 12.0038 17.0192C12.1411 16.912 12.3102 16.8539 12.4844 16.8539C12.6586 16.8539 12.8277 16.912 12.965 17.0192C13.1023 17.1263 13.1999 17.2763 13.2422 17.4452L14.086 20.8905C14.2129 21.4065 14.5115 21.864 14.9327 22.188C15.3538 22.512 15.8726 22.6833 16.4039 22.6738C16.9352 22.6642 17.4474 22.4744 17.8567 22.1355C18.2659 21.7966 18.5479 21.3287 18.6563 20.8085C18.8399 19.9296 19.0742 18.7811 19.3047 17.6483L18.5235 17.496C18.3242 18.6053 18.0899 19.7499 17.9063 20.6327ZM5.26956 4.17175C5.43362 4.17175 5.4844 4.09753 5.68362 3.97253C5.75437 3.91314 5.80178 3.8306 5.81744 3.73957C5.8331 3.64854 5.816 3.5549 5.76916 3.47528C5.72233 3.39567 5.6488 3.33522 5.56162 3.30468C5.47445 3.27414 5.37927 3.27548 5.29299 3.30846C5.21096 3.35925 5.12502 3.41393 5.0469 3.47253C4.98356 3.52154 4.93682 3.58883 4.913 3.66529C4.88918 3.74175 4.88944 3.82368 4.91374 3.89999C4.93804 3.9763 4.98521 4.04329 5.04885 4.0919C5.11249 4.14051 5.18954 4.16839 5.26956 4.17175ZM12.5 6.24987C14.0791 6.22078 15.6259 5.79783 17 5.0194C17.0708 4.96001 17.1182 4.87748 17.1338 4.78645C17.1495 4.69541 17.1324 4.60178 17.0856 4.52216C17.0387 4.44254 16.9652 4.3821 16.878 4.35156C16.7909 4.32102 16.6957 4.32236 16.6094 4.35534C15.3504 5.0548 13.9399 5.43692 12.5 5.46862C11.0657 5.43269 9.66126 5.05077 8.40627 4.35534C8.31999 4.32236 8.22482 4.32102 8.13764 4.35156C8.05047 4.3821 7.97694 4.44254 7.9301 4.52216C7.88327 4.60178 7.86616 4.69541 7.88183 4.78645C7.89749 4.87748 7.9449 4.96001 8.01565 5.0194C9.38518 5.79532 10.9263 6.21819 12.5 6.24987Z" fill="black"/>
<path d="M23.0469 9.7656H22.543C22.7476 8.69078 22.6665 7.58107 22.3078 6.54742C21.949 5.51377 21.3252 4.59241 20.4987 3.87546C19.6722 3.1585 18.672 2.67108 17.598 2.46192C16.5241 2.25275 15.4141 2.32919 14.3789 2.68357C11.0703 3.8281 10.1562 1.53904 6.71875 2.63279C6.62844 2.67019 6.55544 2.74008 6.51414 2.82867C6.47285 2.91726 6.46627 3.01812 6.4957 3.11133C6.52514 3.20453 6.58844 3.28332 6.67313 3.33213C6.75781 3.38094 6.85772 3.39623 6.95312 3.37498C10.0312 2.40232 11.1133 4.6406 14.6367 3.42185C15.5543 3.1086 16.5386 3.04492 17.4889 3.23734C18.4392 3.42975 19.3212 3.87133 20.0446 4.51685C20.768 5.16237 21.3069 5.98861 21.6058 6.91091C21.9048 7.83322 21.9532 8.81843 21.7461 9.7656H16.4062V8.98435C16.4062 8.56995 16.2416 8.17252 15.9486 7.8795C15.6556 7.58647 15.2582 7.42185 14.8438 7.42185H10.1562C9.74185 7.42185 9.34442 7.58647 9.0514 7.8795C8.75837 8.17252 8.59375 8.56995 8.59375 8.98435V9.7656H3.25391C3.07414 8.94683 3.08639 8.09756 3.2897 7.28432C3.49301 6.47107 3.88186 5.71595 4.42578 5.0781C4.46576 5.04029 4.4973 4.99446 4.51833 4.94361C4.53937 4.89277 4.54942 4.83805 4.54784 4.78304C4.54625 4.72804 4.53306 4.67399 4.50913 4.62444C4.48521 4.57489 4.45108 4.53095 4.40899 4.4955C4.3669 4.46006 4.31779 4.43391 4.26489 4.41876C4.21199 4.40362 4.15649 4.39982 4.10202 4.40762C4.04754 4.41541 3.99533 4.43463 3.94881 4.46401C3.90228 4.49339 3.86249 4.53227 3.83203 4.5781C3.22785 5.28393 2.79048 6.11683 2.55244 7.01491C2.31439 7.913 2.28178 8.85318 2.45703 9.7656H1.95312C1.84952 9.7656 1.75017 9.80676 1.67691 9.88001C1.60366 9.95327 1.5625 10.0526 1.5625 10.1562C1.5625 10.2598 1.60366 10.3592 1.67691 10.4324C1.75017 10.5057 1.84952 10.5469 1.95312 10.5469H2.66016C3.40234 12.7929 4.69141 12.8281 5.33984 15.9922C5.57031 17.1133 5.73047 17.8164 6.32813 20.789C6.4092 21.1797 6.58866 21.5432 6.8495 21.8451C7.11035 22.147 7.44394 22.3773 7.81869 22.5142C8.19344 22.6511 8.59693 22.6901 8.99096 22.6274C9.38499 22.5648 9.7565 22.4026 10.0703 22.1562C10.8242 21.5625 10.8867 20.914 11.1133 19.9883C11.1337 19.8894 11.1151 19.7864 11.0612 19.701C11.0074 19.6155 10.9226 19.5543 10.8246 19.53C10.7265 19.5058 10.6229 19.5204 10.5355 19.5709C10.448 19.6214 10.3835 19.7037 10.3555 19.8008C10.1445 20.6679 10.1133 21.1289 9.57422 21.5429C9.36509 21.7075 9.1174 21.8159 8.85463 21.8579C8.59186 21.8999 8.32272 21.8741 8.07271 21.783C7.8227 21.6918 7.60012 21.5383 7.42606 21.337C7.25201 21.1357 7.13224 20.8933 7.07813 20.6328C6.45703 17.6133 6.29688 16.9179 6.08984 15.8359C5.4375 12.5898 4.21484 12.4297 3.49219 10.5469H8.59375V11.3281C8.59375 11.7425 8.75837 12.1399 9.0514 12.433C9.34442 12.726 9.74185 12.8906 10.1562 12.8906H14.8438C15.2582 12.8906 15.6556 12.726 15.9486 12.433C16.2416 12.1399 16.4062 11.7425 16.4062 11.3281V10.5469H21.5078C20.7695 12.4765 19.6211 12.4492 18.8711 15.9375C18.8483 16.0411 18.8676 16.1495 18.9247 16.2389C18.9819 16.3282 19.0722 16.3912 19.1758 16.414C19.2794 16.4368 19.3878 16.4175 19.4772 16.3604C19.5665 16.3033 19.6296 16.213 19.6523 16.1094C20.4062 12.5937 21.5664 12.9453 22.3555 10.5469H23.0469C23.1505 10.5469 23.2498 10.5057 23.3231 10.4324C23.3963 10.3592 23.4375 10.2598 23.4375 10.1562C23.4375 10.0526 23.3963 9.95327 23.3231 9.88001C23.2498 9.80676 23.1505 9.7656 23.0469 9.7656ZM15.625 11.3281C15.625 11.5353 15.5427 11.734 15.3962 11.8805C15.2497 12.027 15.051 12.1094 14.8438 12.1094H10.1562C9.94905 12.1094 9.75034 12.027 9.60382 11.8805C9.45731 11.734 9.375 11.5353 9.375 11.3281V8.98435C9.375 8.77715 9.45731 8.57844 9.60382 8.43193C9.75034 8.28541 9.94905 8.2031 10.1562 8.2031H14.8438C15.051 8.2031 15.2497 8.28541 15.3962 8.43193C15.5427 8.57844 15.625 8.77715 15.625 8.98435V11.3281Z" fill="black"/>
<path d="M14.4531 9.76562H14.0625V9.375C14.0625 9.2714 14.0213 9.17204 13.9481 9.09879C13.8748 9.02553 13.7755 8.98438 13.6719 8.98438C13.5683 8.98438 13.4689 9.02553 13.3957 9.09879C13.3224 9.17204 13.2812 9.2714 13.2812 9.375V9.76562H11.7188V9.375C11.7188 9.2714 11.6776 9.17204 11.6043 9.09879C11.5311 9.02553 11.4317 8.98438 11.3281 8.98438C11.2245 8.98438 11.1252 9.02553 11.0519 9.09879C10.9787 9.17204 10.9375 9.2714 10.9375 9.375V9.76562H10.5469C10.4433 9.76562 10.3439 9.80678 10.2707 9.88004C10.1974 9.95329 10.1562 10.0526 10.1562 10.1562C10.1562 10.2599 10.1974 10.3592 10.2707 10.4325C10.3439 10.5057 10.4433 10.5469 10.5469 10.5469H10.9375V10.9375C10.9375 11.0411 10.9787 11.1405 11.0519 11.2137C11.1252 11.287 11.2245 11.3281 11.3281 11.3281C11.4317 11.3281 11.5311 11.287 11.6043 11.2137C11.6776 11.1405 11.7188 11.0411 11.7188 10.9375V10.5469H13.2812V10.9375C13.2812 11.0411 13.3224 11.1405 13.3957 11.2137C13.4689 11.287 13.5683 11.3281 13.6719 11.3281C13.7755 11.3281 13.8748 11.287 13.9481 11.2137C14.0213 11.1405 14.0625 11.0411 14.0625 10.9375V10.5469H14.4531C14.5567 10.5469 14.6561 10.5057 14.7293 10.4325C14.8026 10.3592 14.8438 10.2599 14.8438 10.1562C14.8438 10.0526 14.8026 9.95329 14.7293 9.88004C14.6561 9.80678 14.5567 9.76562 14.4531 9.76562Z" fill="black"/>
</svg>
