<svg width="160" height="60" viewBox="0 0 160 60" fill="none" xmlns="http://www.w3.org/2000/svg">
<g clip-path="url(#clip0_6_493)">
<path d="M44.863 16.082L43.791 18.766L43.72 18.949L34.394 17.949L38.527 13.918H39.956C42.242 13.918 43.875 13.979 44.018 14.04C44.415 14.204 44.691 14.479 44.865 14.897C45.029 15.285 45.029 15.683 44.865 16.08H44.864L44.863 16.082Z" fill="white"/>
<path d="M42.006 23.255L40.598 26.806C40.323 27.479 39.843 27.806 39.119 27.806C38.395 27.806 37.915 27.48 37.64 26.806L37.304 25.949L38.405 25.316L42.007 23.255H42.006Z" fill="white"/>
<path d="M43.67 19.062L42.068 23.072L40.158 24.173L38.343 25.215L37.252 25.837L34.18 18.144L34.282 18.051L43.67 19.062Z" fill="white"/>
<path d="M50.894 45.3259C50.72 45.5909 50.486 45.7859 50.2 45.9079C49.996 45.9689 44.73 46.0109 38.19 45.9999L40.68 43.7849H43.425L50.894 45.3149V45.3249V45.3259Z" fill="white"/>
<path d="M30.567 33.8669L33.587 41.6629L27.312 40.3769V35.5609L27.353 35.4589L30.567 33.8669Z" fill="white"/>
<path d="M30.527 33.755L29.302 34.356L27.415 35.296L29.302 30.572L30.527 33.755Z" fill="white"/>
<path d="M33.894 42.1329L33.904 42.1529L33.934 42.2339L33.945 42.2549H35.894L34.108 41.8879L33.894 42.1329Z" fill="white"/>
<path d="M34.516 43.745L34.537 43.796L34.516 43.745Z" fill="white"/>
<path d="M40.496 43.796L38.006 46.011H35.394L34.537 43.807H40.496V43.797V43.796Z" fill="white"/>
<path d="M35.353 46.061H35.292V46.082M34.526 43.735V43.714H34.516V43.735L34.547 43.796L34.526 43.735Z" fill="white"/>
<path d="M33.812 42.255H27.312V40.5L27.934 40.623L33.639 41.795L33.761 42.102L33.772 42.142L33.802 42.234L33.812 42.245V42.255Z" fill="white"/>
<path d="M34.404 43.7639L34.415 43.7959L34.394 43.7639H34.404Z" fill="white"/>
<path d="M34.415 43.7959L35.272 45.9999C33.261 45.9999 31.557 45.9789 30.323 45.9689C28.476 45.9479 28.129 45.9179 28.089 45.9079C27.753 45.7649 27.497 45.5299 27.324 45.2039V43.7959H34.416H34.415Z" fill="white"/>
<path d="M35.292 46.0609H35.281L35.262 45.9999L35.292 46.0609Z" fill="white"/>
<path d="M35.302 46.0819V46.0609H35.363" fill="white"/>
<path d="M33.894 42.1329L33.904 42.1529L33.894 42.1329Z" fill="white"/>
<path d="M33.945 42.2549L33.934 42.2339L33.945 42.2549Z" fill="white"/>
<path d="M34.404 43.764L34.415 43.796L34.394 43.764H34.404Z" fill="white"/>
<path d="M35.262 46L35.292 46.061H35.281L35.262 46Z" fill="white"/>
<path d="M35.353 46.061H35.292V46.082H35.302" fill="white"/>
<path d="M34.537 43.796L34.516 43.745L34.506 43.714L34.516 43.745L34.537 43.796Z" fill="white"/>
<path d="M36.72 30.683L30.639 33.703L29.884 31.734L29.373 30.408L31.527 25.02C31.802 24.347 32.282 24.02 33.006 24.02C33.73 24.02 34.21 24.346 34.485 25.02L34.577 25.245C34.669 25.491 35.21 26.827 36.107 29.082L36.75 30.683H36.719H36.72Z" fill="white"/>
<path d="M29.874 31.734L30.629 33.703L29.864 31.734H29.874ZM29.874 31.734L30.629 33.703L29.864 31.734H29.874ZM29.874 31.734L30.629 33.703L29.864 31.734H29.874ZM29.874 31.734L30.629 33.703L29.864 31.734H29.874Z" fill="white"/>
<path d="M50.629 34.816L47.231 37.825L42.139 32.948L47.527 26.948L50.547 34.54C50.547 34.54 50.557 34.591 50.568 34.622C50.568 34.643 50.568 34.662 50.578 34.673V34.713C50.578 34.713 50.609 34.784 50.618 34.816H50.628H50.629Z" fill="white"/>
<path d="M42.241 42.255H36.496L34.211 41.785H34.201L42.068 33.03L47.149 37.908L42.241 42.255Z" fill="white"/>
<path d="M47.486 26.8269L42.068 32.8679L41.986 32.9599L34.068 41.7759L33.976 41.8789L33.844 42.0219L33.773 41.8389L33.733 41.7359V41.7049H33.723L32.855 39.4709L32.334 38.1239L30.671 33.8289L36.763 30.8089L37.589 32.8909C37.875 33.5949 38.396 33.9519 39.15 33.9629C39.823 33.9629 40.314 33.6459 40.619 33.0549L43.813 25.0449C44.088 24.3719 44.568 24.0449 45.292 24.0449C46.016 24.0449 46.496 24.3709 46.771 25.0449C46.863 25.2699 46.954 25.4939 47.036 25.7179L47.485 26.8509V26.8299L47.486 26.8269Z" fill="white"/>
<path d="M34.209 41.7949L42.066 33.0399L34.198 41.7949H34.208H34.209Z" fill="white"/>
<path d="M33.72 41.694L32.864 39.459L33.72 41.694Z" fill="white"/>
<path d="M50.905 41.49V42.255H42.426L47.242 37.989L47.334 37.907L50.671 34.948C50.824 35.898 50.917 38.1 50.926 41.479L50.905 41.489V41.49Z" fill="white"/>
<path d="M50.73 34.724C50.73 34.724 50.751 34.785 50.751 34.827L50.73 34.724Z" fill="white"/>
<path d="M50.905 43.796V45.204L44.038 43.796H50.916H50.906H50.905Z" fill="white"/>
<path d="M38.435 13.96L35.966 13.979L35.506 13.99L34.905 14.01L34.558 14.031L34.373 14.051L34.262 14.061L34.19 14.082L34.087 14.132L34.006 14.174L33.965 14.193L33.925 14.225L33.863 14.265L33.802 14.317L33.751 14.357L33.7 14.418L33.648 14.469L33.598 14.531L33.558 14.572L33.516 14.622L33.465 14.714L33.415 14.796L33.373 14.889L33.333 14.99L33.312 15.04L33.293 15.133L33.272 15.204L33.261 15.276L33.251 15.326L33.241 15.387L33.23 15.469V15.551V15.601L33.241 15.664L33.251 15.744L33.261 15.807L33.272 15.887L33.293 15.959L33.322 16.051L33.394 16.225L33.497 16.459L34.148 18.092L38.435 13.96Z" fill="white"/>
<path d="M65.343 26.9189C65.088 26.9189 64.975 27.0929 64.914 27.1939L61.455 33.7349L58.017 27.1939C57.946 27.0509 57.803 26.9189 57.588 26.9189C57.333 26.9189 57.119 27.1329 57.119 27.3979V36.3979C57.119 36.6529 57.333 36.8769 57.588 36.8769C57.843 36.8769 58.057 36.6629 58.057 36.3979V29.2949L61.026 34.9079C61.129 35.1119 61.312 35.1829 61.455 35.1829C61.629 35.1829 61.781 35.1009 61.884 34.9079L64.874 29.2949V36.3979C64.874 36.6529 65.088 36.8769 65.343 36.8769C65.598 36.8769 65.812 36.6629 65.812 36.3979V27.3979C65.812 27.1429 65.598 26.9189 65.343 26.9189Z" fill="white"/>
<path d="M74.852 26.8369C72.097 26.8369 70.414 28.4799 70.414 31.9079C70.414 35.3359 72.097 36.9599 74.852 36.9599C77.607 36.9599 79.29 35.2969 79.29 31.9079C79.29 28.5189 77.617 26.8369 74.852 26.8369ZM74.852 36.0619C72.679 36.0619 71.414 34.7149 71.414 31.9089C71.414 29.1029 72.679 27.7359 74.852 27.7359C77.025 27.7359 78.29 29.0829 78.29 31.9089C78.29 34.7349 77.025 36.0619 74.852 36.0619Z" fill="white"/>
<path d="M89.159 26.9189C88.985 26.9189 88.833 27.0109 88.751 27.1539L86.231 31.2559L83.711 27.1539C83.629 27.0109 83.465 26.9189 83.303 26.9189C83.038 26.9189 82.824 27.1329 82.824 27.4089C82.824 27.5119 82.855 27.5919 82.895 27.6639L85.753 32.2259V36.3679C85.753 36.6429 85.967 36.8579 86.232 36.8579C86.497 36.8579 86.711 36.6439 86.711 36.3679V32.2259L89.569 27.6639C89.609 27.5929 89.64 27.4999 89.64 27.4089C89.64 27.1339 89.426 26.9189 89.161 26.9189H89.158H89.159Z" fill="white"/>
<path d="M99.76 36.1629L96.291 27.2549C96.22 27.0809 96.066 26.9189 95.822 26.9189C95.578 26.9189 95.434 27.0829 95.362 27.2549L91.893 36.1629C91.862 36.2239 91.853 36.3269 91.853 36.3769C91.853 36.6319 92.067 36.8669 92.332 36.8669C92.578 36.8669 92.729 36.7029 92.801 36.5199L93.841 33.8769H97.81L98.84 36.5309C98.911 36.7139 99.065 36.8669 99.309 36.8669C99.605 36.8669 99.809 36.6319 99.809 36.3769C99.809 36.3369 99.799 36.2339 99.769 36.1629H99.759H99.761H99.76ZM94.148 32.9899L95.821 28.5709L97.515 32.9899H94.148Z" fill="white"/>
<path d="M104.965 29.306C104.965 28.48 105.537 27.734 107.026 27.734C108.22 27.734 108.903 28.335 109.331 28.877C109.443 29.02 109.577 29.06 109.699 29.06C109.954 29.06 110.159 28.856 110.159 28.6C110.159 28.497 110.128 28.417 110.077 28.325C109.476 27.417 108.383 26.835 107.036 26.835C104.954 26.835 104.006 27.978 104.006 29.304C104.006 32.723 109.383 31.458 109.383 34.152C109.383 35.417 108.505 36.06 106.935 36.06C105.68 36.06 104.863 35.438 104.405 34.692C104.323 34.549 104.18 34.457 104.008 34.457C103.753 34.457 103.548 34.661 103.548 34.917C103.548 34.999 103.558 35.06 103.619 35.172C104.098 36.111 105.313 36.948 106.935 36.948C109.129 36.948 110.343 35.948 110.343 34.153C110.343 30.673 104.966 31.694 104.966 29.305H104.965V29.306Z" fill="white"/>
<path d="M122.108 36.1629L118.639 27.2549C118.568 27.0809 118.414 26.9189 118.17 26.9189C117.926 26.9189 117.782 27.0829 117.71 27.2549L114.241 36.1629C114.21 36.2239 114.201 36.3269 114.201 36.3769C114.201 36.6319 114.415 36.8669 114.68 36.8669C114.926 36.8669 115.077 36.7029 115.149 36.5199L116.189 33.8769H120.158L121.179 36.5309C121.25 36.7139 121.404 36.8669 121.648 36.8669C121.944 36.8669 122.148 36.6319 122.148 36.3769C122.148 36.3369 122.138 36.2339 122.108 36.1629ZM116.496 32.9899L118.169 28.5709L119.863 32.9899H116.496Z" fill="white"/>
<path d="M132.597 36.071L129.995 32.551C131.535 32.48 132.536 31.286 132.536 29.796C132.536 28.306 131.393 27.041 129.821 27.041H126.995C126.72 27.041 126.516 27.255 126.516 27.531V36.378C126.516 36.653 126.73 36.868 126.995 36.868C127.26 36.868 127.474 36.654 127.474 36.378V32.551H128.913L131.8 36.632C131.912 36.806 132.065 36.867 132.208 36.867C132.483 36.867 132.687 36.653 132.687 36.377C132.687 36.274 132.656 36.163 132.584 36.07H132.596L132.597 36.071ZM127.474 31.652V27.928H129.811C130.832 27.928 131.555 28.724 131.555 29.785C131.555 30.846 130.841 31.642 129.851 31.642H127.474V31.652Z" fill="white"/>
</g>
<defs>
<clipPath id="clip0_6_493">
<rect width="160" height="60" fill="white"/>
</clipPath>
</defs>
</svg>
