<svg width="310" height="207" viewBox="0 0 310 207" fill="none" xmlns="http://www.w3.org/2000/svg">
<path d="M91.8669 69.831H89.815V51.7226H91.8669V69.831ZM108.576 64.9137V64.9798C108.576 68.0742 106.004 70.0932 102.387 70.0932C99.5215 70.0932 97.1764 69.1477 94.9944 67.1948L96.264 65.6961C98.1528 67.3889 99.9777 68.2683 102.484 68.2683C104.99 68.2683 106.522 66.9657 106.522 65.2069V65.1099C106.522 63.4171 105.609 62.4716 101.831 61.6583C97.6615 60.7459 95.7417 59.4102 95.7417 56.4479V56.3819C95.7417 53.5475 98.2499 51.4316 101.701 51.4316C104.34 51.4316 106.229 52.1809 108.053 53.6466L106.848 55.2093C105.155 53.8407 103.493 53.2544 101.637 53.2544C99.2924 53.2544 97.7936 54.557 97.7936 56.1857V56.2518C97.7936 57.9446 98.7391 58.923 102.711 59.7694C106.718 60.6819 108.574 62.1475 108.574 64.9158M126.783 51.3965C121.28 51.3965 117.533 55.7605 117.533 60.7438V60.8098C117.533 65.7931 121.247 70.1241 126.75 70.1241C132.254 70.1241 136 65.7601 136 60.7768V60.7108C135.967 55.7275 132.287 51.3965 126.783 51.3965ZM133.849 60.8098C133.849 64.9137 130.918 68.2353 126.781 68.2353C122.644 68.2353 119.649 64.8807 119.649 60.7768V60.7108C119.649 56.6069 122.613 53.2854 126.748 53.2854C130.883 53.2854 133.88 56.6399 133.88 60.7438V60.8098H133.847H133.849ZM111.963 51.7226H114.015V69.831H111.963V51.7226ZM77.4723 69.961L69.6877 51.7226H71.9668L73.0733 54.4269L78.4137 67.3249L78.9339 68.5635L78.7378 66.5776L84.8936 51.7268H87.0756L79.291 69.9652H77.4662L77.4723 69.961ZM152.643 51.7226H154.629V69.831H153L140.168 53.5455L141.308 56.1837V69.831H139.322V51.7226H141.244L153.489 67.2919L152.643 65.0768V51.7226Z" fill="#C7AC87"/>
<path d="M209.868 71.7195H211.79V73.6414H209.868V71.7195ZM213.679 71.7195H215.601V73.6414H213.679V71.7195ZM174.236 49.8334H172.314V47.9115H174.236V49.8334ZM221.104 63.2186C221.821 63.7388 222.667 64.131 223.646 64.3581C224.591 64.6182 225.632 64.7173 226.674 64.7173H227.194L227.847 63.3486V65.2375C227.847 66.2469 227.553 66.9633 227 67.3864C226.414 67.8096 225.632 68.0388 224.589 68.0388C224.003 68.0388 223.483 67.9727 222.993 67.8757C222.537 67.7787 221.984 67.5826 221.365 67.2894L220.778 69.1453C221.528 69.4054 222.147 69.6345 222.733 69.7646C223.286 69.8946 223.873 69.9607 224.459 69.9607C226.315 69.9607 227.684 69.5045 228.53 68.625C229.376 67.7456 229.799 66.5401 229.799 65.0414V51.6872H226.738C225.566 51.6872 224.49 51.8503 223.514 52.1764C222.537 52.5026 221.689 52.9588 221.005 53.5451C220.322 54.1314 219.767 54.8147 219.377 55.6301C218.986 56.4434 218.79 57.3228 218.79 58.2683C218.79 59.4078 218.986 60.3863 219.41 61.1666C219.8 62.046 220.355 62.6983 221.102 63.2186M221.104 56.4455C221.398 55.8592 221.788 55.37 222.277 54.9798C222.766 54.5566 223.32 54.2635 223.939 54.0343C224.558 53.8073 225.177 53.7082 225.828 53.7082H228.922L227.816 54.2614V62.8263H225.861C225.144 62.8263 224.461 62.7293 223.842 62.5332C223.223 62.3371 222.669 62.044 222.18 61.6538C221.691 61.2636 221.334 60.8074 221.041 60.2542C220.78 59.7009 220.617 59.0486 220.617 58.3323C220.65 57.649 220.813 56.9967 221.107 56.4434M178.08 49.8334H176.158V47.9115H178.08V49.8334ZM234.589 70.0267C234.069 70.0267 233.546 69.9607 233.026 69.7997L233.515 67.9438C233.742 68.0099 233.905 68.0408 234.035 68.0739C234.166 68.0739 234.329 68.1069 234.492 68.1069C234.851 68.1069 235.144 68.0408 235.404 67.9438C235.631 67.8468 235.827 67.6837 235.957 67.4546C236.087 67.2254 236.184 66.9344 236.251 66.5421C236.317 66.152 236.348 65.6958 236.348 65.1735V51.7553H238.269V65.1735C238.269 65.9228 238.203 66.6061 238.073 67.1924C237.943 67.7787 237.747 68.2989 237.454 68.7241C237.161 69.1473 236.802 69.4735 236.315 69.7006C235.858 69.8967 235.272 70.0267 234.589 70.0267ZM229.735 49.8334H225.535V48.2707C225.535 47.4243 225.731 46.805 226.121 46.4149C226.511 46.0247 227.066 45.8286 227.814 45.8286H229.182V47.1642H227.88C227.587 47.1642 227.39 47.2303 227.293 47.3273C227.196 47.4574 227.13 47.6535 227.13 47.8806V48.3368H229.769V49.8355H229.735V49.8334ZM172.836 69.7336H176.81V68.3009C176.843 68.367 176.876 68.431 176.94 68.4971C177.233 68.9202 177.592 69.2464 178.08 69.4735C178.536 69.7006 179.122 69.7997 179.805 69.7997H215.599V51.7244H213.677V67.8798H179.869C179.51 67.8798 179.217 67.8138 178.957 67.7167C178.73 67.6197 178.534 67.4566 178.404 67.2275C178.274 66.9984 178.177 66.7073 178.111 66.3151C178.045 65.9249 178.014 65.4687 178.014 64.9464V51.7223H172.834C167.525 51.7223 163.943 55.9232 163.943 60.7125V60.7785C163.976 65.5987 167.527 69.7357 172.834 69.7357M166.028 60.6794C166.028 56.7386 168.862 53.5472 172.834 53.5472H177.328L176.156 54.1334V64.9464C176.156 65.6958 176.222 66.3791 176.319 66.9653C176.385 67.3245 176.482 67.6177 176.612 67.9108H172.867C168.893 67.9108 165.995 64.6863 165.995 60.7125V60.6794H166.028Z" fill="#C7AC87"/>
<path d="M76.7561 160.474H75.3544L72.6191 156.857L71.2835 158.226V160.474H70.111V152.786H71.2835V156.923L75.1913 152.786H76.593L73.4325 156.077L76.7561 160.474Z" fill="#C7AC87"/>
<path d="M79.5244 152.786H78.3518V160.441H79.5244V152.786Z" fill="#C7AC87"/>
<path d="M88.5124 152.786V160.474H87.503L83.0089 154.644V160.474H81.8694V152.786H82.9759L87.3729 158.453V152.786H88.5124Z" fill="#C7AC87"/>
<path d="M97.5996 156.271V159.429C96.9473 159.982 95.8738 160.601 94.4082 160.601C92.0631 160.601 90.4343 158.973 90.4343 156.661V156.628C90.4343 154.413 92.1601 152.654 94.4082 152.654C95.6137 152.654 96.4271 152.947 97.2735 153.63L96.5241 154.51C95.9378 154.02 95.3185 153.696 94.3421 153.696C92.8764 153.696 91.6709 154.999 91.6709 156.595C91.6709 158.32 92.8104 159.526 94.4391 159.526C95.1555 159.526 95.8718 159.299 96.3941 158.907L96.4271 158.874V157.245H94.4082V156.235H97.5996V156.268V156.271Z" fill="#C7AC87"/>
<path d="M102.55 152.786H99.7156V160.441H102.55C104.928 160.441 106.621 158.845 106.621 156.597C106.654 154.382 104.928 152.786 102.55 152.786ZM102.55 159.398H100.888V153.829H102.55C104.212 153.829 105.384 154.968 105.384 156.597C105.417 158.259 104.245 159.398 102.55 159.398Z" fill="#C7AC87"/>
<path d="M112.19 152.656C109.878 152.656 108.152 154.349 108.152 156.63V156.663C108.152 158.911 109.878 160.603 112.159 160.603C114.44 160.603 116.197 158.911 116.197 156.63C116.197 154.349 114.471 152.656 112.19 152.656ZM114.959 156.663C114.959 158.324 113.753 159.561 112.19 159.561C110.628 159.561 109.389 158.291 109.389 156.663C109.389 155.034 110.595 153.764 112.157 153.764C113.72 153.731 114.959 155.003 114.959 156.663Z" fill="#C7AC87"/>
<path d="M125.642 152.786V160.474H124.469V154.578L121.864 158.486L119.259 154.578V160.474H118.119V152.786H119.422L121.897 156.597L124.339 152.786H125.642Z" fill="#C7AC87"/>
<path d="M135.478 152.656C133.199 152.656 131.44 154.349 131.44 156.63V156.663C131.44 158.911 133.166 160.603 135.447 160.603C137.728 160.603 139.485 158.911 139.485 156.63C139.485 154.349 137.759 152.656 135.478 152.656ZM138.246 156.663C138.246 158.324 137.041 159.561 135.478 159.561C133.915 159.561 132.71 158.291 132.71 156.663C132.71 155.034 133.882 153.764 135.478 153.764C137.01 153.731 138.246 155.003 138.246 156.663Z" fill="#C7AC87"/>
<path d="M142.579 153.829V156.207H146.584V157.249H142.579V160.474H141.407V152.786H147.073V153.829H142.579Z" fill="#C7AC87"/>
<path d="M158.31 158.322C158.31 159.691 157.234 160.57 155.605 160.57C154.433 160.57 153.357 160.18 152.478 159.398L153.161 158.585C153.975 159.268 154.724 159.561 155.636 159.561C156.549 159.561 157.135 159.138 157.135 158.455C157.135 157.771 156.712 157.478 155.279 157.152C153.617 156.762 152.738 156.273 152.738 154.873C152.738 153.603 153.814 152.691 155.31 152.691C156.353 152.691 157.232 152.984 158.014 153.603L157.395 154.483C156.679 153.963 155.996 153.7 155.277 153.7C154.464 153.7 153.878 154.124 153.878 154.776C153.878 155.459 154.301 155.752 155.832 156.112C157.624 156.535 158.308 157.154 158.308 158.327" fill="#C7AC87"/>
<path d="M163.846 152.722H162.707L159.319 160.441H160.525L161.338 158.552H165.215L166.028 160.441H167.267L163.846 152.722ZM161.763 157.542L163.262 154.025L164.794 157.542H161.765H161.763Z" fill="#C7AC87"/>
<path d="M174.855 152.786V157.15C174.855 159.332 173.65 160.571 171.565 160.571C169.48 160.571 168.307 159.332 168.307 157.216V152.786H169.48V157.15C169.48 158.649 170.262 159.495 171.565 159.495C172.867 159.495 173.65 158.649 173.65 157.183V152.753H174.855V152.786Z" fill="#C7AC87"/>
<path d="M179.936 152.786H177.101V160.441H179.936C182.314 160.441 184.006 158.845 184.006 156.597C184.006 154.349 182.281 152.786 179.936 152.786ZM179.936 159.398H178.274V153.829H179.936C181.597 153.829 182.77 154.968 182.77 156.597C182.77 158.226 181.597 159.398 179.936 159.398Z" fill="#C7AC87"/>
<path d="M187.134 152.786H185.961V160.441H187.134V152.786Z" fill="#C7AC87"/>
<path d="M197.491 152.722H196.351L192.964 160.441H194.169L194.983 158.552H198.859L199.642 160.441H200.88L197.493 152.722H197.491ZM195.375 157.542L196.873 154.025L198.405 157.542H195.377H195.375Z" fill="#C7AC87"/>
<path d="M206.708 157.509L206.838 157.476C208.011 157.15 208.63 156.337 208.63 155.197C208.63 154.545 208.403 153.959 208.011 153.535C207.521 153.046 206.741 152.786 205.795 152.786H202.375V160.441H203.547V157.705H205.403L205.469 157.738L207.391 160.443H208.76L206.708 157.511V157.509ZM203.616 156.694V153.829H205.734C206.84 153.829 207.459 154.349 207.459 155.228C207.459 156.108 206.776 156.661 205.734 156.661H203.616V156.694Z" fill="#C7AC87"/>
<path d="M214.722 152.722H213.582L210.195 160.474H211.367L212.18 158.585H216.057L216.871 160.474H218.109L214.722 152.722ZM212.604 157.542L214.102 154.025L215.634 157.542H212.606H212.604Z" fill="#C7AC87"/>
<path d="M224.525 156.564L224.298 156.498L224.525 156.401C225.241 156.041 225.601 155.488 225.601 154.739C225.601 154.219 225.438 153.826 225.111 153.469C224.688 153.046 224.005 152.817 223.126 152.817H219.705V160.471H223.223C224.981 160.471 226.024 159.689 226.024 158.419C226.024 157.474 225.568 156.921 224.525 156.564ZM220.811 153.795H222.896C223.842 153.795 224.395 154.219 224.395 154.902C224.395 155.684 223.809 156.107 222.799 156.107H220.814V153.795H220.811ZM223.223 159.431H220.811V157.053H223.123C224.622 157.053 224.849 157.769 224.849 158.225C224.849 159.008 224.263 159.431 223.22 159.431" fill="#C7AC87"/>
<path d="M229.116 152.786H227.944V160.441H229.116V152.786Z" fill="#C7AC87"/>
<path d="M235.239 152.722H234.099L230.712 160.474H231.917L232.731 158.585H236.575L237.388 160.474H238.627L235.239 152.722ZM233.123 157.542L234.622 154.025L236.153 157.542H233.125H233.123Z" fill="#C7AC87"/>
<path d="M191.531 135.524H190.391V136.664H191.531V135.524ZM177.723 145.427H178.829V135.526H177.723V145.427ZM81.3471 137.935H80.2407V144.318H75.8436V137.935H74.1179C73.4346 137.935 72.8153 138.032 72.229 138.228C71.6757 138.424 71.1865 138.685 70.7963 139.011C70.4062 139.337 70.08 139.76 69.8839 140.216C69.6568 140.672 69.5577 141.162 69.5577 141.715C69.5577 142.367 69.6878 142.921 69.9169 143.408C70.177 143.864 70.5032 144.254 70.8934 144.58C71.3166 144.873 71.8058 145.1 72.326 145.264C72.8792 145.427 73.4655 145.491 74.0518 145.491H81.2831V137.935H81.3492H81.3471ZM74.7681 144.318H73.6926C73.2694 144.318 72.8792 144.252 72.5201 144.155C72.1609 144.025 71.8368 143.862 71.5746 143.635C71.3145 143.408 71.0853 143.146 70.9223 142.821C70.7592 142.497 70.6952 142.138 70.6952 141.715C70.6952 141.325 70.7922 140.966 70.9553 140.639C71.1184 140.313 71.3454 140.02 71.6386 139.793C71.9317 139.566 72.2249 139.37 72.584 139.273C72.9432 139.143 73.3004 139.077 73.6905 139.077H74.766V144.32L74.7681 144.318ZM78.2857 147.869H79.4253V146.729H78.2857V147.869ZM75.8436 135.524H74.7041V136.664H75.8436V135.524ZM143.23 135.524H142.09V136.664H143.23V135.524ZM80.2076 147.869H81.3471V146.729H80.2076V147.869ZM145.152 135.524H144.012V136.664H145.152V135.524ZM189.609 135.524H188.47V136.664H189.609V135.524ZM73.9217 135.524H72.7822V136.664H73.9217V135.524ZM148.832 147.869H149.972V146.729H148.832V147.869ZM155.932 137.935H154.825V144.318H150.655V137.935H149.549V144.318H145.152V137.935H143.426C142.742 137.935 142.123 138.032 141.537 138.228C140.984 138.424 140.494 138.685 140.104 139.011C139.714 139.337 139.388 139.76 139.192 140.216C138.965 140.672 138.866 141.162 138.866 141.715C138.866 142.367 138.996 142.921 139.225 143.408C139.485 143.864 139.811 144.254 140.234 144.58C140.658 144.873 141.147 145.1 141.667 145.264C142.22 145.427 142.806 145.491 143.393 145.491H155.901V137.935H155.934H155.932ZM144.076 144.318H143.001C142.577 144.318 142.187 144.252 141.828 144.155C141.469 144.025 141.145 143.862 140.883 143.635C140.622 143.408 140.393 143.146 140.23 142.821C140.067 142.497 140.003 142.138 140.003 141.715C140.003 141.325 140.1 140.966 140.263 140.639C140.426 140.313 140.653 140.02 140.947 139.793C141.24 139.566 141.533 139.37 141.892 139.273C142.251 139.143 142.608 139.077 142.998 139.077H144.074V144.32L144.076 144.318ZM150.754 147.869H151.894V146.729H150.754V147.869ZM88.4484 138.912C88.1553 138.585 87.8292 138.358 87.472 138.195C87.1149 138.032 86.6587 137.968 86.1364 137.968H85.3231V139.075H86.2995C86.5596 139.075 86.8197 139.141 87.0488 139.238C87.2759 139.368 87.472 139.498 87.6351 139.694C87.7982 139.89 87.8952 140.084 87.9613 140.313C88.0273 140.542 88.0583 140.833 88.0583 141.127V144.318H82.8789V145.425H89.1648V141.094C89.1648 140.67 89.0987 140.247 89.0017 139.888C88.8716 139.498 88.7086 139.172 88.4484 138.912ZM173.423 144.318H168.732L170.654 139.694C170.361 139.434 170.035 139.205 169.709 138.978C169.383 138.751 169.026 138.554 168.699 138.391C168.34 138.228 167.983 138.098 167.624 138.001C167.265 137.904 166.908 137.871 166.548 137.871C166.189 137.871 165.832 137.904 165.473 138.001C165.114 138.098 164.757 138.228 164.397 138.391C164.038 138.554 163.714 138.751 163.388 138.978C163.062 139.205 162.769 139.467 162.475 139.694L164.43 144.318H160.326V137.935H159.22V145.654C159.22 145.98 159.22 146.24 159.187 146.436C159.154 146.663 159.09 146.826 159.024 146.956C158.958 147.086 158.828 147.183 158.698 147.249C158.568 147.315 158.405 147.346 158.177 147.346H157.917C157.851 147.346 157.754 147.313 157.624 147.28L157.331 148.356C157.624 148.453 157.95 148.486 158.244 148.486C158.634 148.486 158.96 148.42 159.253 148.29C159.513 148.16 159.742 147.964 159.905 147.737C160.068 147.51 160.198 147.183 160.265 146.857C160.331 146.498 160.362 146.108 160.362 145.685V145.458H174.562V135.557H173.456V144.318H173.423ZM165.574 144.318L163.848 140.084C164.271 139.725 164.695 139.465 165.151 139.302C165.607 139.139 166.063 139.042 166.55 139.042C167.038 139.042 167.527 139.139 168.016 139.335C168.505 139.531 168.929 139.791 169.255 140.084L167.529 144.318H165.574ZM154.792 147.869H155.932V146.729H154.792V147.869ZM237.064 145.427H238.17V135.526H237.064V145.427ZM232.733 144.318H228.955C229.182 143.798 229.314 143.276 229.314 142.689C229.314 142.136 229.217 141.583 228.988 141.094C228.792 140.604 228.499 140.181 228.142 139.824C227.783 139.465 227.359 139.172 226.872 138.978C226.385 138.784 225.863 138.685 225.277 138.685C224.723 138.685 224.201 138.782 223.745 139.011C223.256 139.207 222.865 139.5 222.506 139.857C222.147 140.214 221.887 140.639 221.66 141.127C221.464 141.616 221.367 142.136 221.367 142.689C221.367 142.982 221.4 143.276 221.464 143.536C221.528 143.796 221.594 144.056 221.691 144.318H218.27C218.497 143.798 218.629 143.276 218.629 142.689C218.629 142.136 218.532 141.583 218.303 141.094C218.107 140.604 217.814 140.181 217.457 139.824C217.098 139.465 216.675 139.172 216.187 138.978C215.7 138.784 215.178 138.685 214.592 138.685C214.038 138.685 213.516 138.782 213.06 139.011C212.571 139.207 212.18 139.5 211.821 139.857C211.462 140.214 211.202 140.639 210.975 141.127C210.779 141.616 210.682 142.136 210.682 142.689C210.682 142.982 210.715 143.276 210.779 143.536C210.843 143.796 210.909 144.056 211.006 144.318H207.488V135.524H206.382V144.318H202.864V142.625C202.864 142.202 202.798 141.812 202.701 141.42C202.604 141.028 202.408 140.703 202.181 140.443C201.888 140.117 201.562 139.89 201.204 139.727C200.847 139.564 200.391 139.5 199.836 139.5H194.949L197.034 135.526H195.829L193.711 139.5C193.744 139.727 193.808 139.956 193.874 140.119C193.94 140.282 194.07 140.445 194.2 140.608H199.834C200.193 140.608 200.486 140.675 200.746 140.772C201.006 140.869 201.202 141.032 201.365 141.195C201.529 141.391 201.626 141.585 201.692 141.814C201.758 142.043 201.789 142.334 201.789 142.627V144.32H191.595V137.937H189.869C189.186 137.937 188.567 138.034 187.98 138.23C187.427 138.426 186.938 138.687 186.548 139.013C186.157 139.339 185.831 139.762 185.635 140.218C185.408 140.675 185.309 141.164 185.309 141.717C185.309 142.369 185.439 142.923 185.668 143.41C185.928 143.866 186.255 144.256 186.645 144.582C187.068 144.875 187.557 145.103 188.077 145.266C188.631 145.429 189.217 145.493 189.803 145.493H211.689C212.048 145.883 212.472 146.176 212.959 146.405C213.446 146.634 214.001 146.731 214.554 146.731C215.141 146.731 215.694 146.634 216.216 146.405C216.739 146.176 217.162 145.885 217.519 145.493H222.372C222.731 145.883 223.154 146.176 223.642 146.405C224.129 146.634 224.684 146.731 225.237 146.731C225.824 146.731 226.377 146.634 226.899 146.405C227.421 146.176 227.845 145.885 228.202 145.493H233.804V135.592H232.698V144.32H232.731L232.733 144.318ZM190.424 144.318H189.349C188.926 144.318 188.536 144.252 188.176 144.155C187.817 144.025 187.493 143.862 187.231 143.635C186.971 143.408 186.742 143.146 186.579 142.821C186.416 142.497 186.352 142.138 186.352 141.715C186.352 141.325 186.449 140.966 186.612 140.639C186.775 140.313 187.002 140.02 187.295 139.793C187.588 139.566 187.881 139.37 188.24 139.273C188.6 139.143 188.957 139.077 189.347 139.077H190.422V144.32L190.424 144.318ZM217.261 143.829C217.098 144.188 216.902 144.481 216.641 144.741C216.381 145.001 216.055 145.197 215.729 145.328C215.37 145.458 214.98 145.555 214.59 145.555C214.199 145.555 213.807 145.489 213.483 145.328C213.124 145.164 212.831 144.968 212.571 144.708C212.311 144.448 212.114 144.155 211.984 143.796C211.854 143.437 211.757 143.079 211.757 142.689C211.757 142.299 211.823 141.907 211.984 141.55C212.114 141.191 212.311 140.897 212.571 140.637C212.831 140.377 213.124 140.181 213.45 140.018C213.809 139.855 214.166 139.791 214.59 139.791C215.013 139.791 215.403 139.857 215.762 140.018C216.121 140.179 216.414 140.377 216.675 140.637C216.935 140.897 217.131 141.191 217.294 141.55C217.457 141.909 217.521 142.299 217.521 142.722C217.488 143.113 217.424 143.505 217.261 143.829ZM227.977 143.829C227.814 144.188 227.618 144.481 227.357 144.741C227.097 145.001 226.804 145.197 226.445 145.328C226.086 145.458 225.696 145.555 225.305 145.555C224.915 145.555 224.523 145.489 224.166 145.328C223.809 145.167 223.514 144.968 223.254 144.708C222.993 144.448 222.797 144.155 222.667 143.796C222.537 143.437 222.44 143.079 222.44 142.689C222.44 142.299 222.506 141.907 222.667 141.55C222.797 141.191 222.993 140.897 223.254 140.637C223.514 140.377 223.807 140.181 224.133 140.018C224.492 139.855 224.849 139.791 225.272 139.791C225.696 139.791 226.086 139.857 226.445 140.018C226.804 140.179 227.097 140.377 227.357 140.637C227.618 140.897 227.814 141.191 227.977 141.55C228.14 141.909 228.204 142.299 228.204 142.722C228.204 143.113 228.107 143.505 227.977 143.829ZM126.814 144.318H125.022C124.37 144.318 123.883 144.221 123.491 144.058C123.131 143.862 122.838 143.602 122.611 143.245C122.677 142.951 122.708 142.625 122.708 142.202V138.651H121.602V142.396C121.602 143.015 121.439 143.536 121.081 143.928C120.755 144.318 120.235 144.514 119.55 144.514C119.224 144.514 118.93 144.448 118.67 144.351C118.41 144.254 118.181 144.124 117.987 143.928C117.791 143.765 117.628 143.538 117.531 143.309C117.434 143.079 117.368 142.819 117.368 142.559V138.651H116.261V142.462C116.261 142.788 116.195 143.082 116.098 143.309C116.001 143.536 115.871 143.732 115.675 143.895C115.512 144.058 115.316 144.155 115.089 144.221C114.862 144.287 114.632 144.318 114.372 144.318H112.223V138.618H111.117V144.318H105.32L107.242 139.694C106.949 139.434 106.623 139.205 106.297 138.978C105.971 138.751 105.613 138.554 105.287 138.391C104.928 138.228 104.571 138.098 104.212 138.001C103.853 137.904 103.495 137.871 103.136 137.871C102.777 137.871 102.42 137.904 102.061 138.001C101.701 138.098 101.344 138.228 100.985 138.391C100.626 138.554 100.302 138.751 99.9757 138.978C99.6495 139.205 99.3564 139.467 99.0633 139.694L101.018 144.318H97.2074V137.935H95.4486C94.7653 137.935 94.146 138.032 93.5928 138.228C93.0395 138.424 92.5503 138.685 92.1601 139.011C91.77 139.337 91.4438 139.76 91.2147 140.216C90.9876 140.672 90.8885 141.193 90.8885 141.715C90.8885 142.367 91.0185 142.921 91.2477 143.377C91.4748 143.833 91.834 144.223 92.2241 144.516C92.6473 144.809 93.1366 145.036 93.6898 145.169C94.243 145.299 94.8293 145.396 95.4486 145.396H96.1009V145.722C96.1009 146.308 95.9379 146.731 95.6117 146.96C95.2855 147.221 94.8293 147.32 94.2121 147.32C93.8859 147.32 93.5597 147.287 93.2996 147.223C93.0395 147.159 92.7134 147.06 92.3542 146.896L91.995 147.972C92.4182 148.135 92.7774 148.232 93.1345 148.331C93.4607 148.397 93.7868 148.461 94.1109 148.461C95.1864 148.461 95.9668 148.201 96.456 147.712C96.9452 147.192 97.1723 146.506 97.1723 145.66V145.464H114.304C114.824 145.464 115.314 145.334 115.737 145.105C116.16 144.878 116.486 144.551 116.746 144.192C117.006 144.648 117.366 144.975 117.822 145.235C118.278 145.495 118.831 145.594 119.451 145.594C120.103 145.594 120.689 145.464 121.143 145.235C121.6 145.008 121.957 144.648 122.219 144.159C122.316 144.322 122.415 144.485 122.545 144.615C122.675 144.778 122.838 144.908 123.065 145.006C123.261 145.136 123.521 145.233 123.848 145.299C124.075 145.365 124.337 145.396 124.63 145.396H127.821V135.495H126.812V144.322L126.814 144.318ZM96.134 144.318H95.0275C94.6043 144.318 94.2141 144.252 93.8549 144.155C93.4957 144.025 93.1716 143.862 92.9095 143.666C92.6494 143.439 92.4202 143.177 92.2571 142.852C92.0941 142.528 92.0301 142.169 92.0301 141.746C92.0301 141.356 92.1271 140.997 92.2902 140.67C92.4533 140.344 92.6803 140.051 92.9735 139.824C93.2666 139.597 93.5597 139.401 93.9189 139.271C94.2781 139.141 94.6353 139.075 95.0254 139.075H96.1319V144.318H96.134ZM102.226 144.318L100.5 140.084C100.923 139.725 101.346 139.465 101.803 139.302C102.259 139.139 102.715 139.042 103.202 139.042C103.689 139.042 104.179 139.139 104.668 139.335C105.157 139.531 105.58 139.791 105.907 140.084L104.181 144.318H102.226ZM131.147 145.427H132.254V135.526H131.147V145.427Z" fill="#C7AC87"/>
<path d="M216.871 79.5703C203.353 79.5703 193.519 89.764 193.519 102.239V102.369C193.519 114.811 203.225 124.907 216.741 124.907C230.256 124.907 240.092 114.714 240.092 102.239V102.109C240.092 89.6339 230.386 79.5703 216.871 79.5703ZM229.996 102.336C229.996 109.86 224.622 115.983 216.838 115.983C209.053 115.983 203.583 109.73 203.583 102.206V102.076C203.583 94.5512 208.956 88.4284 216.741 88.4284C224.525 88.4284 229.996 94.6812 229.996 102.206V102.336ZM85.288 115.787H101.997V124.125H69.5577V116.503L84.1484 104.518C89.588 100.024 91.7369 97.6456 91.7369 93.9979C91.7369 90.3503 89.2948 88.2983 85.8412 88.2983C82.3876 88.2983 80.1416 90.1872 76.8841 94.194L70.1419 88.7545C74.4729 82.8588 78.6429 79.6673 86.4915 79.6673C95.5787 79.6673 101.571 84.9768 101.571 93.1846V93.3146C101.571 100.643 97.8267 104.258 90.0421 110.283L80.4657 117.676L78.6098 119.108L85.2859 115.787H85.288ZM191.011 110.414V110.544C191.011 118.815 185.018 124.874 175.247 124.874C167.366 124.874 161.926 121.747 158.149 117.286L164.794 110.967C167.791 114.354 170.917 116.21 175.38 116.21C178.994 116.21 181.568 114.158 181.568 110.901V110.771C181.568 107.187 178.377 105.201 173.004 105.201H168.997L167.498 99.0783L181.568 84.9438L175.902 88.5584H160.725V80.2866H190.332V87.582L179.258 98.1679C185.218 99.1443 191.017 102.272 191.017 110.414" fill="#C7AC87"/>
<path d="M144.045 104.258C143.752 104.095 143.232 103.835 142.513 103.606C141.471 103.279 140.038 103.019 138.343 103.312C137.757 103.409 137.171 103.54 136.519 103.769C136.452 103.802 136.388 103.802 136.322 103.835C135.996 103.965 135.67 104.095 135.377 104.258C135.117 104.388 134.824 104.551 134.564 104.714C133.944 105.073 133.325 105.497 132.739 105.953C132.055 101.882 132.38 98.0711 132.543 96.2153H132.576C134.008 97.1277 133.618 99.6668 133.325 100.385C133.325 100.385 133.325 100.418 133.358 100.385C135.15 98.2672 134.27 95.8912 133.911 95.3049C133.911 95.3049 133.911 95.2719 133.944 95.3049C134.204 95.501 134.401 95.7281 134.597 95.9572C135.15 96.6735 135.346 97.4559 135.41 98.1062C135.443 98.4654 135.443 98.7895 135.41 99.0826C135.41 99.1487 135.41 99.2457 135.377 99.3097H135.41C135.899 98.3642 136.126 96.8986 135.41 95.4989C135.214 95.1088 134.954 94.7496 134.597 94.3925L134.27 94.0663V94.0333C134.367 94.0663 134.498 94.0993 134.597 94.1303C134.89 94.2273 135.183 94.3904 135.41 94.5535C135.963 94.9436 136.322 95.4989 136.549 96.0852C136.746 96.5745 136.81 97.0616 136.81 97.4848C136.81 97.4848 136.843 97.5179 136.843 97.4848C137.169 96.2462 136.973 95.3028 136.549 94.6195C136.256 94.1303 135.833 93.7732 135.41 93.513C135.117 93.35 134.857 93.2199 134.597 93.1539C134.467 93.1208 134.303 93.0878 134.206 93.0568C134.173 93.0568 134.206 93.0238 134.206 93.0238C134.337 93.0238 134.467 92.9908 134.597 92.9908C134.89 92.9908 135.183 93.0238 135.41 93.0568C135.899 93.1539 136.256 93.3169 136.549 93.513C137.006 93.8392 137.233 94.1963 137.332 94.3264H137.365C137.299 93.6741 137.006 93.1539 136.583 92.7947C136.256 92.5015 135.866 92.3054 135.443 92.2084C135.183 92.1423 134.89 92.1114 134.63 92.0783C134.27 92.0783 133.913 92.1444 133.62 92.2744C133.62 92.2744 133.587 92.2744 133.62 92.2414C133.88 91.8513 134.273 91.6221 134.663 91.4921C134.923 91.395 135.216 91.395 135.476 91.395C135.736 91.395 135.965 91.4611 136.159 91.5581C136.159 91.5581 136.192 91.5581 136.159 91.5251C135.963 91.298 135.736 91.1019 135.476 90.9719C135.216 90.8418 134.923 90.7448 134.663 90.7117C133.946 90.6147 133.197 90.9388 132.708 91.6882H132.675C132.578 91.5251 132.479 91.329 132.415 91.1349C132.219 90.6787 132.055 90.1585 131.958 89.6362H131.925C131.828 90.1564 131.665 90.6787 131.469 91.1349C131.372 91.3311 131.306 91.5251 131.209 91.6882H131.176C130.297 90.3856 128.701 90.4186 127.691 91.5251V91.5581C128.344 91.232 129.58 91.331 130.2 92.2414V92.2744C129.223 91.8843 127.757 92.1444 126.975 93.0878C126.682 93.414 126.486 93.8371 126.455 94.3574C126.455 94.3574 126.488 94.3904 126.488 94.3574C126.554 94.2273 126.715 93.9982 126.977 93.7381C127.433 93.3149 128.247 92.9247 129.582 93.0548C129.615 93.0548 129.615 93.0878 129.582 93.0878C128.899 93.1848 127.497 93.7711 126.977 95.1728C126.75 95.7921 126.684 96.5724 126.944 97.5179H126.977V97.4518C126.977 96.1822 127.727 94.4874 129.518 94.0642C129.518 94.0642 129.551 94.0642 129.518 94.0973C127.499 95.8561 127.693 98.0381 128.379 99.3407H128.412C128.315 98.3642 128.249 96.6364 129.878 95.3338H129.911C129.551 95.9201 128.672 98.2651 130.464 100.414H130.497C130.204 99.6978 129.781 97.1566 131.246 96.2442H131.279C131.442 98.1 131.768 101.911 131.083 105.982C129.911 105.102 128.705 104.32 127.468 103.833C127.305 103.767 127.175 103.736 127.012 103.67C125.774 103.246 124.601 103.149 123.625 103.18C122.029 103.246 120.79 103.734 120.107 104.06C119.977 104.126 119.847 104.19 119.781 104.256C119.748 104.289 119.781 104.322 119.814 104.322C119.911 104.289 120.01 104.256 120.14 104.225C121.379 103.866 122.551 103.769 123.658 103.866C124.863 103.963 126.003 104.289 127.045 104.778C128.544 105.461 129.88 106.407 131.083 107.416C129.357 108.915 127.925 110.381 127.045 110.868C127.012 110.901 126.948 110.934 126.915 110.934C126.719 110.641 126.329 110.478 125.939 110.575C125.58 110.641 125.319 110.934 125.222 111.291C125.156 111.617 125.222 111.943 125.419 112.104C125.875 112.561 126.428 112.594 127.047 112.332C128.22 111.842 129.719 110.247 131.541 108.587C131.704 108.457 131.835 108.294 131.998 108.164C132.161 108.294 132.291 108.457 132.454 108.587C133.267 109.336 134.017 110.086 134.702 110.705C134.995 110.965 135.255 111.194 135.515 111.421C135.905 111.747 136.298 112.04 136.655 112.204C137.338 112.563 137.957 112.627 138.48 112.17C138.513 112.137 138.546 112.137 138.577 112.104C138.707 111.974 138.837 111.584 138.773 111.291C138.74 111.128 138.643 110.965 138.513 110.835C138.383 110.705 138.253 110.639 138.056 110.608C137.666 110.511 137.307 110.674 137.08 110.967C136.95 110.901 136.82 110.837 136.69 110.74C136.364 110.513 135.974 110.187 135.55 109.827C135.29 109.6 135.03 109.371 134.737 109.078C134.184 108.558 133.564 108.003 132.912 107.449C133.498 106.96 134.085 106.504 134.737 106.081C134.997 105.885 135.29 105.722 135.55 105.56C135.91 105.333 136.3 105.137 136.69 104.941C137.276 104.648 137.862 104.421 138.515 104.258C139.817 103.899 141.186 103.769 142.685 103.998C143.174 104.064 143.661 104.194 144.183 104.357C144.086 104.324 144.086 104.291 144.053 104.26" fill="#C7AC87"/>
<path d="M131.841 126.339L129.101 129.079L131.841 131.818L134.581 129.079L131.841 126.339Z" fill="#C7AC87"/>
<path d="M109.792 110.623L108.795 113.69L111.862 114.687L112.858 111.62L109.792 110.623Z" fill="#C7AC87"/>
<path d="M118.693 83.7689L118.275 86.4072L120.913 86.8251L121.331 84.1867L118.693 83.7689Z" fill="#C7AC87"/>
<path d="M152.417 100.019L150.528 101.908L152.417 103.797L154.306 101.908L152.417 100.019Z" fill="#C7AC87"/>
<path d="M150.827 93.7711L149.615 96.1514L151.995 97.3637L153.207 94.9834L150.827 93.7711Z" fill="#C7AC87"/>
<path d="M120.894 117.004L118.255 117.421L118.673 120.06L121.312 119.642L120.894 117.004Z" fill="#C7AC87"/>
<path d="M145.063 83.7774L142.425 84.1953L142.843 86.8337L145.481 86.4158L145.063 83.7774Z" fill="#C7AC87"/>
<path d="M126.106 119.651L123.725 120.863L124.938 123.244L127.318 122.031L126.106 119.651Z" fill="#C7AC87"/>
<path d="M131.86 79.4744L129.971 81.3633L131.86 83.2521L133.749 81.3633L131.86 79.4744Z" fill="#C7AC87"/>
<path d="M128.824 82.7185L127.522 84.5103L129.313 85.8125L130.616 84.0208L128.824 82.7185Z" fill="#C7AC87"/>
<path d="M134.437 118.003L133.135 119.795L134.927 121.097L136.229 119.305L134.437 118.003Z" fill="#C7AC87"/>
<path d="M116.677 92.3969L114.57 93.0811L115.254 95.1878L117.361 94.5037L116.677 92.3969Z" fill="#C7AC87"/>
<path d="M148.498 108.618L146.391 109.302L147.075 111.409L149.182 110.725L148.498 108.618Z" fill="#C7AC87"/>
<path d="M113.996 103.138L112.694 104.93L114.486 106.232L115.788 104.44L113.996 103.138Z" fill="#C7AC87"/>
<path d="M158.556 107.687L155.102 109.447L156.862 112.902L160.316 111.141L158.556 107.687Z" fill="#C7AC87"/>
<path d="M117.505 121.662L113.676 122.268L114.282 126.097L118.111 125.491L117.505 121.662Z" fill="#C7AC87"/>
<path d="M149.453 77.6875L145.624 78.2939L146.23 82.123L150.059 81.5166L149.453 77.6875Z" fill="#C7AC87"/>
<path d="M108.171 103.358L106.277 105.967L108.886 107.862L110.78 105.253L108.171 103.358Z" fill="#C7AC87"/>
<path d="M124.936 80.5865L123.724 82.9668L126.104 84.1791L127.316 81.7988L124.936 80.5865Z" fill="#C7AC87"/>
<path d="M112.91 93.7584L110.53 94.9707L111.742 97.351L114.122 96.1387L112.91 93.7584Z" fill="#C7AC87"/>
<path d="M131.875 120.569L129.986 122.458L131.875 124.347L133.763 122.458L131.875 120.569Z" fill="#C7AC87"/>
<path d="M147.079 92.3952L146.395 94.502L148.502 95.1861L149.186 93.0793L147.079 92.3952Z" fill="#C7AC87"/>
<path d="M120.334 113.442H118.119V115.657H120.334V113.442Z" fill="#C7AC87"/>
<path d="M106.861 90.8908L103.406 92.6509L105.166 96.1051L108.621 94.3451L106.861 90.8908Z" fill="#C7AC87"/>
<path d="M105.178 107.708L103.418 111.162L106.872 112.922L108.632 109.468L105.178 107.708Z" fill="#C7AC87"/>
<path d="M120.108 78.8347L119.112 81.9014L122.178 82.8978L123.175 79.8311L120.108 78.8347Z" fill="#C7AC87"/>
<path d="M141.58 120.923L140.583 123.989L143.65 124.986L144.646 121.919L141.58 120.923Z" fill="#C7AC87"/>
<path d="M153.968 110.612L150.901 111.609L151.897 114.676L154.964 113.679L153.968 110.612Z" fill="#C7AC87"/>
<path d="M155.552 103.35L152.943 105.245L154.838 107.854L157.447 105.959L155.552 103.35Z" fill="#C7AC87"/>
<path d="M151.888 89.1384L150.891 92.2051L153.958 93.2015L154.954 90.1348L151.888 89.1384Z" fill="#C7AC87"/>
<path d="M150.201 83.6084H146.976V86.8329H150.201V83.6084Z" fill="#C7AC87"/>
<path d="M122.178 120.944L119.111 121.941L120.107 125.008L123.174 124.011L122.178 120.944Z" fill="#C7AC87"/>
<path d="M135.205 122.995L133.31 125.604L135.919 127.499L137.814 124.89L135.205 122.995Z" fill="#C7AC87"/>
<path d="M111.753 106.478L110.541 108.858L112.921 110.07L114.133 107.69L111.753 106.478Z" fill="#C7AC87"/>
<path d="M120.334 88.1685H118.119V90.3835H120.334V88.1685Z" fill="#C7AC87"/>
<path d="M114.492 97.5595L112.7 98.8618L114.002 100.654L115.794 99.3513L114.492 97.5595Z" fill="#C7AC87"/>
<path d="M140.688 84.5927L138.581 85.2769L139.265 87.3836L141.372 86.6995L140.688 84.5927Z" fill="#C7AC87"/>
<path d="M134.899 82.7143L133.107 84.0166L134.41 85.8084L136.201 84.5061L134.899 82.7143Z" fill="#C7AC87"/>
<path d="M145.189 109.969L143.389 110.254L143.674 112.055L145.475 111.769L145.189 109.969Z" fill="#C7AC87"/>
<path d="M147.402 100.615L146.112 101.906L147.402 103.196L148.693 101.906L147.402 100.615Z" fill="#C7AC87"/>
<path d="M156.845 90.8958L155.085 94.3501L158.539 96.1101L160.299 92.6559L156.845 90.8958Z" fill="#C7AC87"/>
<path d="M150.201 116.993H146.976V120.217H150.201V116.993Z" fill="#C7AC87"/>
<path d="M111.848 89.1549L108.781 90.1514L109.777 93.218L112.844 92.2216L111.848 89.1549Z" fill="#C7AC87"/>
<path d="M143.626 78.8102L140.559 79.8071L141.556 82.8736L144.623 81.8767L143.626 78.8102Z" fill="#C7AC87"/>
<path d="M127.806 76.328L125.911 78.937L128.52 80.8319L130.415 78.2229L127.806 76.328Z" fill="#C7AC87"/>
<path d="M151.996 106.452L149.615 107.665L150.828 110.045L153.208 108.833L151.996 106.452Z" fill="#C7AC87"/>
<path d="M111.341 100.009L109.452 101.897L111.341 103.786L113.23 101.897L111.341 100.009Z" fill="#C7AC87"/>
<path d="M149.776 103.165L147.984 104.467L149.286 106.259L151.078 104.957L149.776 103.165Z" fill="#C7AC87"/>
<path d="M124.474 116.443L122.367 117.127L123.051 119.234L125.158 118.55L124.474 116.443Z" fill="#C7AC87"/>
<path d="M131.871 116.159L130.58 117.45L131.871 118.74L133.161 117.45L131.871 116.159Z" fill="#C7AC87"/>
<path d="M121.971 88.2928L121.687 90.0933L123.487 90.3778L123.772 88.5773L121.971 88.2928Z" fill="#C7AC87"/>
<path d="M116.694 105.493L115.865 107.119L117.491 107.948L118.32 106.322L116.694 105.493Z" fill="#C7AC87"/>
<path d="M116.783 83.6084H113.559V86.8329H116.783V83.6084Z" fill="#C7AC87"/>
<path d="M135.908 76.3229L133.299 78.2178L135.194 80.8268L137.803 78.9319L135.908 76.3229Z" fill="#C7AC87"/>
<path d="M137.643 119.661L136.43 122.041L138.811 123.253L140.023 120.873L137.643 119.661Z" fill="#C7AC87"/>
<path d="M114.155 112.445L113.737 115.083L116.375 115.501L116.793 112.863L114.155 112.445Z" fill="#C7AC87"/>
<path d="M147.37 88.3109L146.952 90.9492L149.591 91.3671L150.008 88.7287L147.37 88.3109Z" fill="#C7AC87"/>
<path d="M145.608 113.442H143.393V115.657H145.608V113.442Z" fill="#C7AC87"/>
<path d="M149.263 97.5525L147.96 99.3442L149.752 100.647L151.054 98.8547L149.263 97.5525Z" fill="#C7AC87"/>
<path d="M129.321 118.035L127.529 119.336L128.83 121.129L130.623 119.827L129.321 118.035Z" fill="#C7AC87"/>
<path d="M126.677 85.8958L125.848 87.5215L127.473 88.3505L128.302 86.7249L126.677 85.8958Z" fill="#C7AC87"/>
<path d="M136.263 115.459L135.434 117.085L137.059 117.914L137.888 116.288L136.263 115.459Z" fill="#C7AC87"/>
<path d="M140.238 113.448L139.954 115.248L141.754 115.533L142.039 113.732L140.238 113.448Z" fill="#C7AC87"/>
<path d="M117.481 95.876L115.856 96.7051L116.685 98.3308L118.31 97.5017L117.481 95.876Z" fill="#C7AC87"/>
<path d="M147.056 105.467L145.43 106.296L146.259 107.922L147.885 107.093L147.056 105.467Z" fill="#C7AC87"/>
<path d="M118.527 110.004L118.243 111.804L120.043 112.089L120.328 110.288L118.527 110.004Z" fill="#C7AC87"/>
<path d="M141.732 88.2951L139.932 88.5796L140.216 90.3801L142.017 90.0955L141.732 88.2951Z" fill="#C7AC87"/>
<path d="M127.481 115.434L125.855 116.263L126.684 117.888L128.31 117.059L127.481 115.434Z" fill="#C7AC87"/>
<path d="M114.274 77.7217L113.667 81.5508L117.497 82.1572L118.103 78.3282L114.274 77.7217Z" fill="#C7AC87"/>
<path d="M146.228 121.666L145.622 125.495L149.451 126.102L150.057 122.272L146.228 121.666Z" fill="#C7AC87"/>
<path d="M131.846 72.0101L129.106 74.75L131.846 77.4899L134.586 74.75L131.846 72.0101Z" fill="#C7AC87"/>
<path d="M108.881 95.9616L106.272 97.8564L108.166 100.465L110.775 98.5706L108.881 95.9616Z" fill="#C7AC87"/>
<path d="M154.837 95.9618L152.942 98.5708L155.551 100.466L157.446 97.8566L154.837 95.9618Z" fill="#C7AC87"/>
<path d="M116.783 116.993H113.559V120.217H116.783V116.993Z" fill="#C7AC87"/>
<path d="M128.521 122.996L125.912 124.891L127.806 127.5L130.415 125.605L128.521 122.996Z" fill="#C7AC87"/>
<path d="M142.828 116.984L142.411 119.622L145.049 120.04L145.467 117.402L142.828 116.984Z" fill="#C7AC87"/>
<path d="M116.361 88.3038L113.723 88.7217L114.141 91.36L116.779 90.9422L116.361 88.3038Z" fill="#C7AC87"/>
<path d="M149.583 112.473L146.945 112.891L147.363 115.529L150.001 115.112L149.583 112.473Z" fill="#C7AC87"/>
<path d="M138.8 80.5655L136.42 81.7778L137.632 84.1581L140.012 82.9458L138.8 80.5655Z" fill="#C7AC87"/>
<path d="M123.037 84.5979L122.353 86.7046L124.46 87.3887L125.144 85.282L123.037 84.5979Z" fill="#C7AC87"/>
<path d="M139.276 116.438L138.592 118.544L140.699 119.229L141.383 117.122L139.276 116.438Z" fill="#C7AC87"/>
<path d="M115.253 108.608L114.569 110.714L116.676 111.398L117.36 109.292L115.253 108.608Z" fill="#C7AC87"/>
<path d="M145.608 88.1685H143.393V90.3835H145.608V88.1685Z" fill="#C7AC87"/>
<path d="M131.866 85.0885L130.576 86.3789L131.866 87.6693L133.157 86.3789L131.866 85.0885Z" fill="#C7AC87"/>
<path d="M120.039 91.7135L118.238 91.998L118.523 93.7985L120.323 93.514L120.039 91.7135Z" fill="#C7AC87"/>
<path d="M116.334 100.622L115.044 101.912L116.334 103.202L117.625 101.912L116.334 100.622Z" fill="#C7AC87"/>
<path d="M146.246 95.8641L145.417 97.4897L147.043 98.3188L147.872 96.6931L146.246 95.8641Z" fill="#C7AC87"/>
<path d="M143.65 91.7337L143.365 93.5342L145.166 93.8187L145.45 92.0182L143.65 91.7337Z" fill="#C7AC87"/>
<path d="M123.496 113.436L121.696 113.72L121.98 115.521L123.781 115.236L123.496 113.436Z" fill="#C7AC87"/>
<path d="M137.058 85.9024L135.432 86.7314L136.261 88.3571L137.887 87.5281L137.058 85.9024Z" fill="#C7AC87"/>
</svg>
