<svg width="77" height="30" viewBox="0 0 77 30" fill="none" xmlns="http://www.w3.org/2000/svg">
<g clip-path="url(#clip0_6_1656)">
<g clip-path="url(#clip1_6_1656)">
<g clip-path="url(#clip2_6_1656)">
<path d="M37.2954 5.44582C37.2954 5.74601 37.6604 6.11098 37.9525 6.11098C38.2446 6.11098 38.6095 5.74601 38.6095 5.44582C38.6095 5.14564 38.2446 4.77258 37.9525 4.77258C37.6604 4.77258 37.2954 5.15374 37.2954 5.44582Z" fill="#C6AC8A"/>
<path d="M36.1795 6.11155C36.4716 6.11155 36.8366 5.74659 36.8366 5.4464C36.8366 5.14622 36.4716 4.77315 36.1795 4.77315C35.8874 4.77315 35.5225 5.15431 35.5225 5.4464C35.5225 5.73849 35.8874 6.11155 36.1795 6.11155Z" fill="#C6AC8A"/>
<path d="M37.0662 4.77258C37.3583 4.77258 37.7233 4.40761 37.7233 4.10742C37.7233 3.80724 37.3583 3.43418 37.0662 3.43418C36.7741 3.43418 36.4092 3.81534 36.4092 4.10742C36.4092 4.39951 36.7741 4.77258 37.0662 4.77258Z" fill="#C6AC8A"/>
<path d="M38.7516 6.90974C38.2548 6.62748 37.7244 6.48057 37.1599 6.48057C35.3877 6.48057 34.1007 7.48524 34.1007 9.33667C34.1007 10.9718 35.1019 11.154 36.5693 11.154C37.3195 11.154 37.8823 10.9168 38.1755 10.4541V10.6028C38.1755 11.4947 37.7128 11.6977 37.0014 11.6977H34.3564C33.645 11.6977 33.1823 11.4947 33.1823 10.6028V8.68193V7.19199H31.6137C30.1463 7.19199 29.1416 8.20823 29.1416 9.61893V10.6028C29.1416 11.4947 28.6789 11.6977 27.9675 11.6977L27.4174 11.7C27.2468 11.7 27.0762 11.6797 26.9125 11.6317C26.2126 11.4252 25.832 10.844 25.832 9.92547C25.832 9.30486 25.9564 8.79645 26.1935 8.28862H24.9743C24.7262 8.78546 24.6018 9.38352 24.6018 10.1285C24.6018 11.9574 25.7869 13.1876 27.5707 13.1876H28.1595C29.6269 13.1876 30.6315 12.1714 30.6315 10.7607V9.77683C30.6315 8.93353 31.0457 8.70622 31.6917 8.68366V10.7607C31.6917 12.1719 32.6964 13.1876 34.1638 13.1876H37.1928C38.6602 13.1876 39.6649 12.1714 39.6649 10.7607V8.5408C39.6649 7.87507 39.3184 7.25677 38.7504 6.90916L38.7516 6.90974ZM37.0933 9.92258C36.1488 9.92258 35.5681 9.84681 35.5681 9.23025C35.5681 8.24409 36.1778 7.7565 37.205 7.7565C37.6 7.7565 37.9164 7.83574 38.1755 7.99364V9.59637C38.1755 9.59637 37.8956 9.92258 37.0933 9.92258Z" fill="#C6AC8A"/>
<path d="M28.8716 13.6469C28.5304 13.6469 28.1035 14.0922 28.1035 14.434C28.1035 14.7759 28.5304 15.2114 28.8716 15.2114C29.2129 15.2114 29.6397 14.7845 29.6397 14.434C29.6397 14.0835 29.2129 13.6469 28.8716 13.6469Z" fill="#C6AC8A"/>
<path d="M26.8387 13.6469C26.4974 13.6469 26.0706 14.0922 26.0706 14.434C26.0706 14.7759 26.4974 15.2114 26.8387 15.2114C27.1799 15.2114 27.6068 14.7845 27.6068 14.434C27.6068 14.0835 27.1799 13.6469 26.8387 13.6469Z" fill="#C6AC8A"/>
<path d="M15.4893 6.89354C15.8305 6.89354 16.2574 6.46669 16.2574 6.11618C16.2574 5.76568 15.8305 5.32899 15.4893 5.32899C15.148 5.32899 14.7212 5.77435 14.7212 6.11618C14.7212 6.45801 15.148 6.89354 15.4893 6.89354Z" fill="#C6AC8A"/>
<path d="M11.4563 6.89354C11.7976 6.89354 12.2244 6.46669 12.2244 6.11618C12.2244 5.76568 11.7976 5.32899 11.4563 5.32899C11.1151 5.32899 10.6882 5.77435 10.6882 6.11618C10.6882 6.45801 11.1151 6.89354 11.4563 6.89354Z" fill="#C6AC8A"/>
<path d="M9.42265 6.89354C9.7639 6.89354 10.1908 6.46669 10.1908 6.11618C10.1908 5.76568 9.7639 5.32899 9.42265 5.32899C9.08139 5.32899 8.65454 5.77435 8.65454 6.11618C8.65454 6.45801 9.08139 6.89354 9.42265 6.89354Z" fill="#C6AC8A"/>
<path d="M15.2135 10.6034C15.2135 11.4952 14.7507 11.6982 14.0393 11.6982H13.7386C13.277 11.6982 12.8721 11.6664 12.569 11.56C12.646 11.313 12.6876 11.0452 12.6876 10.7613V7.54423H11.1977V10.6034C11.1977 11.4952 10.735 11.6982 10.0235 11.6982H9.75401C9.04259 11.6982 8.57987 11.4952 8.57987 10.6034V7.19257H7.01185C5.54447 7.19257 4.5398 8.20881 4.5398 9.6195V10.6034C4.5398 11.4952 4.07709 11.6982 3.36567 11.6982L2.81561 11.7006C2.64499 11.7006 2.47436 11.6803 2.31068 11.6323C1.61082 11.4258 1.23024 10.8445 1.23024 9.92605C1.23024 9.30544 1.3546 8.79703 1.59174 8.2892H0.372485C0.124354 8.78604 0 9.3841 0 10.1291C0 11.9579 1.18513 13.1882 2.96889 13.1882H3.55769C5.02507 13.1882 6.02974 12.1719 6.02974 10.7613V9.77741C6.02974 8.93411 6.44387 8.7068 7.08994 8.68424V10.7613C7.08994 12.1725 8.0946 13.1882 9.56199 13.1882H10.2156C10.9935 13.1882 11.6419 12.9025 12.0786 12.4236C12.4349 12.8545 13.0404 13.1784 13.7443 13.1847V13.1882H14.2308C15.6981 13.1882 16.7028 12.1719 16.7028 10.7613V7.54423H15.2129V10.6034H15.2135Z" fill="#C6AC8A"/>
<path d="M22.7857 10.3506C22.7683 8.58823 21.5427 7.41988 19.7271 7.41988C18.9822 7.41988 18.3841 7.54423 17.8873 7.79236V9.01161C18.3951 8.77447 18.9035 8.65012 19.5241 8.65012C20.4426 8.65012 21.0239 9.0307 21.2304 9.73056C21.2784 9.89424 21.2957 10.0649 21.2957 10.2355V10.5241C21.2957 11.2355 21.0927 11.6982 20.2008 11.6982H17.6831V13.1882H20.3587C21.77 13.1882 22.7857 12.1835 22.7857 10.7161V10.3506Z" fill="#C6AC8A"/>
<path d="M4.26908 13.6469C3.92783 13.6469 3.50098 14.0922 3.50098 14.434C3.50098 14.7759 3.92783 15.2114 4.26908 15.2114C4.61033 15.2114 5.03719 14.7845 5.03719 14.434C5.03719 14.0835 4.61033 13.6469 4.26908 13.6469Z" fill="#C6AC8A"/>
<path d="M2.23612 13.6469C1.89487 13.6469 1.46802 14.0922 1.46802 14.434C1.46802 14.7759 1.89487 15.2114 2.23612 15.2114C2.57737 15.2114 3.00423 14.7845 3.00423 14.434C3.00423 14.0835 2.57737 13.6469 2.23612 13.6469Z" fill="#C6AC8A"/>
<path d="M7.96909 17.4509L4.66878 26.405H3.287L0 17.4509H1.84218L3.35178 21.749C3.62016 22.5165 3.83763 23.1944 4.04239 23.885C4.24714 23.1944 4.46461 22.4911 4.73299 21.7235L6.22929 17.4509H7.96909Z" fill="#C6AC8A"/>
<path d="M12.1006 17.4509C14.8254 17.4509 16.859 19.2162 16.859 21.9283C16.859 24.6404 14.8381 26.4056 12.1006 26.4056H9.18433V17.4515H12.1006V17.4509ZM12.0497 24.87C13.8531 24.87 15.0683 23.719 15.0683 21.9277C15.0683 20.1364 13.8277 18.9854 12.0497 18.9854H10.9496V24.8694H12.0497V24.87Z" fill="#C6AC8A"/>
<path d="M23.92 23.6033H19.6989C19.8267 24.6265 20.5688 25.1893 21.7585 25.1893C22.4618 25.1893 23.0379 25.0487 23.6134 24.7797V26.1615C23.0506 26.4432 22.3728 26.5838 21.5283 26.5838C19.4559 26.5838 18.062 25.2407 18.062 23.2192C18.062 21.1978 19.4305 19.8293 21.2345 19.8293C22.8332 19.8293 23.9205 20.8912 23.9205 22.9248V23.6027L23.92 23.6033ZM22.4237 22.4523C22.4237 21.5569 21.976 21.1093 21.2085 21.1093C20.4924 21.1093 19.8654 21.6084 19.7116 22.4396L22.4237 22.4523Z" fill="#C6AC8A"/>
<path d="M31.1216 22.107V26.405H29.4333V22.4269C29.4333 21.7362 29.1261 21.3909 28.3841 21.3909C27.9236 21.3909 27.5529 21.4933 27.0792 21.8386V26.405H25.3909V20.0092H26.8744L26.9514 21.2116H27.0156C27.3863 20.2648 28.2053 19.8432 29.0365 19.8432C30.2644 19.8432 31.1216 20.5338 31.1216 22.107Z" fill="#C6AC8A"/>
<path d="M34.7156 24.1534C34.7156 24.8567 34.9712 25.1002 35.6624 25.1002C35.9695 25.1002 36.187 25.062 36.3918 24.9724V26.3154C36.0846 26.4432 35.7393 26.5201 35.2275 26.5201C33.782 26.5201 33.0272 25.689 33.0272 24.5247V21.3649H32.1064V20.0092H33.0272V18.2948L34.7156 18.0646V20.0092H36.4166V21.3649H34.7156V24.1534Z" fill="#C6AC8A"/>
<path d="M37.5938 17.8986C37.5938 17.4382 38.1693 16.8367 38.6297 16.8367C39.0901 16.8367 39.6656 17.4376 39.6656 17.8986C39.6656 18.3596 39.0901 18.9478 38.6297 18.9478C38.1693 18.9478 37.5938 18.3723 37.5938 17.8986ZM37.7598 20.0092H39.4481V26.405H37.7598V20.0092Z" fill="#C6AC8A"/>
<path d="M75.2916 8.23599L75.0493 8.78778C74.697 9.58885 74.6566 10.4854 74.896 11.3269C75.3356 12.8724 75.5074 14.5295 75.3506 16.2467C74.7543 22.7791 69.4371 27.9939 62.8944 28.4595C55.0115 29.0199 48.4178 22.7652 48.4178 14.9997C48.4178 12.7301 48.9835 10.5912 49.9777 8.71201H50.6093C51.2814 8.71201 51.8893 9.11283 52.1542 9.73056L58.3927 24.2852C58.9879 25.6739 60.3541 26.5745 61.8648 26.5745H61.8799C63.3889 26.5745 64.7545 25.6815 65.3595 24.2985L65.7036 23.5119C65.4636 23.5611 65.2155 23.5877 64.961 23.5877H64.9396C63.5086 23.5877 62.2171 22.7322 61.6583 21.4152L60.4009 18.4504C60.4009 18.4504 60.4009 18.4504 60.4009 18.4498L59.8462 17.1427L56.6593 9.62818C56.1017 8.31349 54.8119 7.45979 53.3839 7.45979H50.7256C53.1531 3.8697 57.262 1.50524 61.9128 1.50524C65.378 1.50524 68.5418 2.81934 70.934 4.97386L65.0766 18.4903C64.6608 19.4261 63.7701 20.0051 62.748 20.0051C62.7405 20.0051 62.733 20.0051 62.7249 20.0051C62.7127 20.0051 62.7018 20.0028 62.6896 20.0022L63.0326 20.8114C63.4288 21.7461 64.2814 22.0827 64.9471 22.0868H64.9586C65.6226 22.0868 66.4711 21.7576 66.8754 20.834L69.702 14.4005L70.5077 12.567L72.8844 7.15844C73.3239 6.1584 73.1111 4.98022 72.3256 4.22137C69.3388 1.33461 65.1617 -0.32769 60.6097 0.0592549C53.274 0.682184 47.4224 6.66276 46.9469 14.0095C46.3628 23.0399 53.8229 30.5203 62.8464 29.9702C70.2735 29.5174 76.3067 23.5703 76.866 16.1507C77.0818 13.2923 76.4849 10.5889 75.291 8.23715L75.2916 8.23599Z" fill="#C6AC8A"/>
</g>
</g>
</g>
<defs>
<clipPath id="clip0_6_1656">
<rect width="76.91" height="30" fill="white"/>
</clipPath>
<clipPath id="clip1_6_1656">
<rect width="76.91" height="30" fill="white"/>
</clipPath>
<clipPath id="clip2_6_1656">
<rect width="76.91" height="29.9949" fill="white" transform="translate(0 0.00257301)"/>
</clipPath>
</defs>
</svg>
