<svg width="17" height="17" viewBox="0 0 17 17" fill="none" xmlns="http://www.w3.org/2000/svg">
<mask id="mask0_6_1681" style="mask-type:luminance" maskUnits="userSpaceOnUse" x="0" y="-6" width="23" height="23">
<path d="M0 -5.84375H13.2812C12.3654 -4.64613 11.9629 -3.13375 12.1621 -1.63932C12.3614 -0.144894 13.1461 1.20917 14.3438 2.125C15.5414 3.04083 17.0537 3.44339 18.5482 3.24413C20.0426 3.04488 21.3967 2.26012 22.3125 1.0625V17H0V-5.84375Z" fill="white"/>
</mask>
<g mask="url(#mask0_6_1681)">
<path d="M8.49985 12.9625C10.9644 12.9625 12.9624 10.9646 12.9624 8.5C12.9624 6.03543 10.9644 4.0375 8.49985 4.0375C6.03528 4.0375 4.03735 6.03543 4.03735 8.5C4.03735 10.9646 6.03528 12.9625 8.49985 12.9625Z" fill="#4D5D6D"/>
<path d="M9.72178 1.7C9.72178 2.39062 9.19053 2.92187 8.4999 2.92187C7.80928 2.92187 7.27803 2.39062 7.27803 1.7C7.27803 1.00937 7.80928 0.478125 8.4999 0.478125C9.19053 0.478125 9.72178 1.00937 9.72178 1.7ZM7.27803 15.3C7.27803 14.6094 7.80928 14.0781 8.4999 14.0781C9.19053 14.0781 9.72178 14.6094 9.72178 15.3C9.72178 15.9906 9.19053 16.5219 8.4999 16.5219C7.80928 16.5219 7.27803 15.9906 7.27803 15.3ZM15.2999 9.72187C14.6093 9.72187 14.078 9.19063 14.078 8.5C14.078 7.80937 14.6093 7.27812 15.2999 7.27812C15.9905 7.27812 16.5218 7.80937 16.5218 8.5C16.5218 9.19063 15.9905 9.72187 15.2999 9.72187ZM1.6999 7.27812C2.39053 7.27812 2.92178 7.80937 2.92178 8.5C2.92178 9.19063 2.39053 9.72187 1.6999 9.72187C1.00928 9.72187 0.478027 9.19063 0.478027 8.5C0.478027 7.80937 1.00928 7.27812 1.6999 7.27812ZM4.78115 3.55937C4.78115 4.19687 4.19678 4.78125 3.55928 4.78125C2.92178 4.78125 2.3374 4.25 2.3374 3.55937C2.3374 2.86875 2.86865 2.3375 3.55928 2.3375C4.2499 2.3375 4.78115 2.86875 4.78115 3.55937ZM13.4405 14.7156C12.7499 14.7156 12.2187 14.1844 12.2187 13.4937C12.2187 12.8031 12.7499 12.2719 13.4405 12.2719C14.1312 12.2719 14.6624 12.8031 14.6624 13.4937C14.6624 14.1844 14.1312 14.7156 13.4405 14.7156ZM14.7155 3.55937C14.7155 4.25 14.1843 4.78125 13.4937 4.78125C12.803 4.78125 12.2187 4.19687 12.2187 3.55937C12.2187 2.92187 12.7499 2.3375 13.4405 2.3375C14.1312 2.3375 14.7155 2.86875 14.7155 3.55937ZM3.55928 12.2188C4.2499 12.2188 4.78115 12.75 4.78115 13.4406C4.78115 14.1312 4.2499 14.6625 3.55928 14.6625C2.86865 14.6625 2.3374 14.1312 2.3374 13.4406C2.3374 12.75 2.86865 12.2188 3.55928 12.2188Z" fill="#4D5D6D"/>
</g>
</svg>
