<svg width="106" height="15" viewBox="0 0 106 15" fill="none" xmlns="http://www.w3.org/2000/svg">
<path d="M92.175 0C90.975 0 90 0.975 90 2.175V12.9C90 14.025 90.975 15 92.175 15H102.9C104.1 15 105.075 14.025 105.075 12.825V2.175C105 0.975 104.025 0 102.825 0H92.175ZM102.075 2.85L98.625 6.75L102.75 12.15H99.525L97.05 8.85L94.2 12.15H92.55L96.3 7.875L92.325 2.85H95.625L97.875 5.85L100.5 2.85H102.075ZM100.8 11.25L95.1 3.75H94.2L99.975 11.25H100.8Z" fill="#D5C2A8"/>
<path d="M67.5 9.9749C68.8669 9.9749 69.975 8.86681 69.975 7.4999C69.975 6.133 68.8669 5.0249 67.5 5.0249C66.1331 5.0249 65.025 6.133 65.025 7.4999C65.025 8.86681 66.1331 9.9749 67.5 9.9749Z" fill="#D5C2A8"/>
<path d="M70.65 0H64.35C61.95 0 60 1.95 60 4.35V10.575C60 13.05 61.95 15 64.35 15H70.575C72.975 15 74.925 13.05 74.925 10.65V4.35C75 1.95 73.05 0 70.65 0ZM67.5 11.25C65.4 11.25 63.75 9.6 63.75 7.5C63.75 5.4 65.4 3.75 67.5 3.75C69.6 3.75 71.25 5.4 71.25 7.5C71.25 9.6 69.6 11.25 67.5 11.25ZM71.85 3.75C71.55 3.75 71.25 3.45 71.25 3.15C71.25 2.85 71.55 2.55 71.85 2.55C72.15 2.55 72.45 2.85 72.45 3.15C72.45 3.45 72.225 3.75 71.85 3.75Z" fill="#D5C2A8"/>
<path d="M37.5 0.375C33 0.375 33 4.875 33 4.875V5.625C33 5.625 33 5.625 32.925 5.625C32.7 5.625 31.5 5.7 31.5 6.675C31.5 7.8 32.775 7.875 33 7.875C33 8.625 31.725 9.525 30.975 9.675C30.225 9.975 30 10.5 30 10.875C30 11.1 30.075 11.25 30.075 11.325C30.375 12 31.2 12.3 32.025 12.3C32.025 13.35 32.85 13.8 33.375 13.8C33.975 13.8 34.575 13.5 34.575 13.5C34.575 13.5 35.55 14.55 37.5 14.55C39.45 14.55 40.425 13.5 40.425 13.5C40.425 13.5 41.025 13.8 41.625 13.8C42.15 13.8 42.9 13.35 42.975 12.3C43.8 12.3 44.625 11.925 44.925 11.325C44.925 11.25 45 11.1 45 10.875C45 10.5 44.775 9.975 44.025 9.675C43.2 9.45 42 8.625 42 7.875C42.225 7.875 43.5 7.8 43.5 6.675C43.5 5.7 42.3 5.625 42.075 5.625H42V4.875C42 4.875 42 0.375 37.5 0.375Z" fill="#D5C2A8"/>
<path d="M13.65 3.375C11.925 3.225 10.575 1.95 10.35 0.225V0H7.79999V10.35C7.79999 11.4 6.89999 12.3 5.69999 12.3C4.64999 12.3 3.74999 11.475 3.74999 10.35C3.74999 9.225 4.57499 8.4 5.69999 8.4H5.84999L6.22499 8.475V5.625H5.69999C3.14999 5.625 1.04999 7.725 1.04999 10.275C1.04999 12.825 3.14999 15 5.77499 15C8.39999 15 10.425 12.9 10.425 10.35V5.1C11.25 5.925 12.225 6.3 13.35 6.3H13.95V3.45L13.65 3.375Z" fill="#D5C2A8"/>
</svg>
