<svg width="24" height="24" viewBox="0 0 24 24" fill="none" xmlns="http://www.w3.org/2000/svg">
<path d="M18.3009 9.60001H12.6009V11.7C12.6009 13.1888 11.3896 14.4 9.90086 14.4C8.41211 14.4 7.20086 13.1888 7.20086 11.7V7.14001L4.76711 8.60251C4.04336 9.03376 3.60086 9.81751 3.60086 10.6575V12.4313L0.600855 14.1638C0.0271053 14.4938 -0.171645 15.2288 0.162105 15.8025L3.16211 21C3.49211 21.5738 4.22711 21.7688 4.80086 21.4388L8.67836 19.2H13.8009C15.1246 19.2 16.2009 18.1238 16.2009 16.8H16.8009C17.4646 16.8 18.0009 16.2638 18.0009 15.6V13.2H18.3009C18.7996 13.2 19.2009 12.7988 19.2009 12.3V10.5C19.2009 10.0013 18.7996 9.60001 18.3009 9.60001ZM23.8396 8.19751L20.8396 3.00001C20.5096 2.42626 19.7746 2.23126 19.2009 2.56126L15.3234 4.80001H11.4909C11.0409 4.80001 10.6021 4.92751 10.2196 5.16376L8.96336 5.94751C8.61086 6.16501 8.40086 6.55126 8.40086 6.96376V11.7C8.40086 12.5288 9.07211 13.2 9.90086 13.2C10.7296 13.2 11.4009 12.5288 11.4009 11.7V8.40001H18.3009C19.4596 8.40001 20.4009 9.34126 20.4009 10.5V11.5688L23.4009 9.83626C23.9746 9.50251 24.1696 8.77126 23.8396 8.19751Z" fill="white"/>
</svg>
