<svg width="19" height="18" viewBox="0 0 19 18" fill="none" xmlns="http://www.w3.org/2000/svg">
<path d="M9.01514 16.68L8.53514 16.32C8.29514 16.08 3.01514 12.12 1.57514 10.56C0.495142 9.24 -0.104858 7.68 0.0151419 6.12C0.135142 4.68 0.855142 3.48 1.93514 2.52C3.01514 1.56 4.69514 1.32 6.25514 1.56C7.33514 1.8 8.29514 2.4 9.01514 3.12C9.73514 2.4 10.6951 1.8 11.8951 1.56C13.4551 1.32 15.0151 1.56 16.0951 2.52C17.1751 3.36 17.8951 4.68 18.0151 6.12C18.1351 7.68 17.6551 9.24 16.4551 10.56C15.0151 12.24 9.73514 16.2 9.61514 16.32L9.01514 16.68ZM5.05514 3.24C4.33514 3.24 3.61514 3.48 3.01514 3.96C2.29514 4.56 1.93514 5.4 1.81514 6.24C1.69514 7.32 2.17514 8.4 2.89514 9.36C3.97514 10.56 7.57514 13.44 9.01514 14.52C10.4551 13.44 14.0551 10.56 15.1351 9.36C15.9751 8.4 16.3351 7.32 16.2151 6.24C16.0951 5.28 15.7351 4.56 15.0151 3.96C14.2951 3.36 13.2151 3.12 12.2551 3.36C11.1751 3.6 10.3351 4.2 9.85514 5.04L9.01514 6.48L8.17514 5.04C7.69514 4.2 6.85514 3.6 5.89514 3.36C5.65514 3.36 5.29514 3.24 5.05514 3.24Z" fill="#4D5D6D"/>
</svg>
