<svg width="17" height="17" viewBox="0 0 17 17" fill="none" xmlns="http://www.w3.org/2000/svg">
<path d="M8.5 0C3.85333 0 0 3.85333 0 8.5C0 10.4267 0.566667 12.1267 1.7 13.6C3.28667 15.7533 5.78 17 8.5 17C11.22 17 13.7133 15.7533 15.3 13.6C16.4333 12.1267 17 10.3133 17 8.5C17 3.85333 13.1467 0 8.5 0ZM8.5 15.3C6.91333 15.3 5.32667 14.7333 4.19333 13.7133C5.44 12.6933 6.91333 12.1267 8.5 12.1267C10.0867 12.1267 11.6733 12.6933 12.8067 13.7133C11.6733 14.7333 10.0867 15.3 8.5 15.3ZM13.94 12.4667C12.4667 11.22 10.54 10.4267 8.5 10.4267C6.46 10.4267 4.53333 11.22 3.06 12.4667C2.15333 11.3333 1.7 9.97333 1.7 8.5C1.7 4.76 4.76 1.7 8.5 1.7C12.24 1.7 15.3 4.76 15.3 8.5C15.3 9.97333 14.8467 11.3333 13.94 12.4667ZM8.5 3.4C6.91333 3.4 5.66667 4.64667 5.66667 6.23333C5.66667 7.82 6.91333 9.06667 8.5 9.06667C10.0867 9.06667 11.3333 7.82 11.3333 6.23333C11.3333 4.64667 10.0867 3.4 8.5 3.4ZM8.5 7.36667C7.93333 7.36667 7.36667 6.8 7.36667 6.23333C7.36667 5.66667 7.93333 5.1 8.5 5.1C9.06667 5.1 9.63333 5.66667 9.63333 6.23333C9.63333 6.8 9.06667 7.36667 8.5 7.36667Z" fill="#4D5D6D"/>
</svg>
