<svg width="60" height="60" viewBox="0 0 60 60" fill="none" xmlns="http://www.w3.org/2000/svg">
<rect width="60" height="60" rx="30" fill="#C6AC88"/>
<path d="M36.665 24.6479C36.4111 24.1401 36.0938 23.6665 35.7129 23.2271C35.332 22.7876 34.9121 22.397 34.4531 22.0552C34.3848 22.0063 34.3091 21.9868 34.2261 21.9966C34.1431 22.0063 34.0771 22.0454 34.0283 22.1138C33.9795 22.1821 33.96 22.2578 33.9697 22.3408C33.9795 22.4238 34.0186 22.4897 34.0869 22.5386C34.5166 22.8511 34.9048 23.2124 35.2515 23.6226C35.5981 24.0327 35.8887 24.4722 36.123 24.9409C36.377 25.4292 36.5674 25.937 36.6943 26.4644C36.8213 26.9917 36.8848 27.5337 36.8848 28.0903C36.8848 29.0376 36.7041 29.9312 36.3428 30.771C35.9814 31.6011 35.4907 32.3286 34.8706 32.9536C34.2505 33.5786 33.5205 34.0718 32.6807 34.4331C31.8408 34.7944 30.9473 34.9751 30 34.9751C29.0527 34.9751 28.1592 34.7944 27.3193 34.4331C26.4795 34.0718 25.7495 33.5786 25.1294 32.9536C24.5093 32.3286 24.0186 31.6011 23.6572 30.771C23.2959 29.9312 23.1152 29.0376 23.1152 28.0903C23.1152 27.1431 23.2959 26.2495 23.6572 25.4097C24.0186 24.5698 24.5093 23.8374 25.1294 23.2124C25.7495 22.5874 26.4795 22.0942 27.3193 21.7329C28.1592 21.3716 29.0527 21.1909 30 21.1909C30.0879 21.1909 30.1611 21.1616 30.2197 21.103C30.2783 21.0444 30.3076 20.9761 30.3076 20.8979C30.3076 20.8101 30.2783 20.7368 30.2197 20.6782C30.1611 20.6196 30.0879 20.5903 30 20.5903C28.9648 20.5903 27.9932 20.7856 27.085 21.1763C26.1768 21.5669 25.3833 22.1016 24.7046 22.7803C24.0259 23.459 23.4863 24.2573 23.0859 25.1753C22.6953 26.0835 22.5 27.0552 22.5 28.0903C22.5 29.1255 22.6953 30.0972 23.0859 31.0054C23.4863 31.9136 24.0259 32.707 24.7046 33.3857C25.3833 34.0645 26.1768 34.604 27.085 35.0044C27.9932 35.395 28.9648 35.5903 30 35.5903C31.0352 35.5903 32.0068 35.395 32.915 35.0044C33.8232 34.604 34.6167 34.0645 35.2954 33.3857C35.9741 32.707 36.5137 31.9136 36.9141 31.0054C37.3047 30.0972 37.5 29.1255 37.5 28.0903C37.5 27.4946 37.4292 26.9038 37.2876 26.3179C37.146 25.7319 36.9385 25.1753 36.665 24.6479ZM28.0811 24.604C28.0322 24.6333 27.9932 24.6699 27.9639 24.7139C27.9346 24.7578 27.9199 24.8091 27.9199 24.8677V31.5767C27.9199 31.6548 27.9517 31.7231 28.0151 31.7817C28.0786 31.8403 28.1494 31.8696 28.2275 31.8696C28.3154 31.8696 28.3887 31.8403 28.4473 31.7817C28.5059 31.7231 28.5352 31.6548 28.5352 31.5767V25.4097L33.0615 28.0903L29.7363 30.2437C29.668 30.2827 29.624 30.3438 29.6045 30.4268C29.585 30.5098 29.5996 30.5854 29.6484 30.6538C29.6875 30.7319 29.7485 30.7783 29.8315 30.793C29.9146 30.8076 29.9902 30.7954 30.0586 30.7563L33.8086 28.3394C33.8477 28.3101 33.8794 28.2734 33.9038 28.2295C33.9282 28.1855 33.9404 28.1343 33.9404 28.0757C33.9404 28.0269 33.9282 27.9805 33.9038 27.9365C33.8794 27.8926 33.8428 27.856 33.7939 27.8267L28.3887 24.604C28.3398 24.5747 28.2886 24.5601 28.2349 24.5601C28.1812 24.5601 28.1299 24.5747 28.0811 24.604Z" fill="white"/>
</svg>
