<svg width="55" height="55" viewBox="0 0 55 55" fill="none" xmlns="http://www.w3.org/2000/svg">
<rect width="55" height="55" rx="15" fill="white"/>
<path d="M36.25 17.5H18.75C16.6789 17.5 15 19.1789 15 21.25V23.75C15 25.1309 16.1195 26.25 17.5 26.25H37.5C38.8805 26.25 40 25.1309 40 23.75V21.25C40 19.1789 38.3211 17.5 36.25 17.5ZM21.25 24.375C21.25 24.7203 20.9703 25 20.625 25H18.125C17.7797 25 17.5 24.7203 17.5 24.375V23.125C17.5 22.0895 18.3395 21.25 19.375 21.25C20.4105 21.25 21.25 22.0895 21.25 23.125V24.375ZM26.875 24.375C26.875 24.7203 26.5953 25 26.25 25H23.125C22.7797 25 22.5 24.7203 22.5 24.375V22.1875C22.5 20.9793 23.4793 20 24.6875 20C25.8957 20 26.875 20.9793 26.875 22.1875V24.375ZM32.5 24.375C32.5 24.7203 32.2203 25 31.875 25H28.75C28.4047 25 28.125 24.7203 28.125 24.375V22.1875C28.125 20.9793 29.1043 20 30.3125 20C31.5207 20 32.5 20.9793 32.5 22.1875V24.375ZM37.5 24.375C37.5 24.7203 37.2203 25 36.875 25H34.375C34.0297 25 33.75 24.7203 33.75 24.375V23.125C33.75 22.0895 34.5895 21.25 35.625 21.25C36.6605 21.25 37.5 22.0895 37.5 23.125V24.375ZM37.5 30H17.5C16.1195 30 15 31.1191 15 32.5V33.75C15 35.8211 16.6789 37.5 18.75 37.5H36.25C38.3211 37.5 40 35.8211 40 33.75V32.5C40 31.1191 38.8805 30 37.5 30ZM21.25 33.125C21.25 34.1605 20.4105 35 19.375 35C18.3395 35 17.5 34.1605 17.5 33.125V31.875C17.5 31.5297 17.7797 31.25 18.125 31.25H20.625C20.9703 31.25 21.25 31.5297 21.25 31.875V33.125ZM26.875 32.8125C26.875 34.0207 25.8957 35 24.6875 35C23.4793 35 22.5 34.0207 22.5 32.8125V31.875C22.5 31.5297 22.7797 31.25 23.125 31.25H26.25C26.5953 31.25 26.875 31.5297 26.875 31.875V32.8125ZM32.5 32.8125C32.5 34.0207 31.5207 35 30.3125 35C29.1043 35 28.125 34.0207 28.125 32.8125V31.875C28.125 31.5297 28.4047 31.25 28.75 31.25H31.875C32.2203 31.25 32.5 31.5297 32.5 31.875V32.8125ZM37.5 33.125C37.5 34.1605 36.6605 35 35.625 35C34.5895 35 33.75 34.1605 33.75 33.125V31.875C33.75 31.5297 34.0297 31.25 34.375 31.25H36.875C37.2203 31.25 37.5 31.5297 37.5 31.875V33.125Z" fill="#1F1B12"/>
</svg>
