<svg width="55" height="55" viewBox="0 0 55 55" fill="none" xmlns="http://www.w3.org/2000/svg">
<rect width="55" height="55" rx="15" fill="white"/>
<path d="M19.7812 27.8907C19.7714 27.8394 19.7517 27.7905 19.723 27.7468C19.6944 27.7032 19.6574 27.6656 19.6143 27.6362C19.5271 27.5768 19.4199 27.5546 19.3163 27.5743C19.2127 27.5939 19.1212 27.654 19.0618 27.7411C19.0025 27.8283 18.9802 27.9355 18.9999 28.0391C19.0196 28.1427 19.0796 28.2342 19.1668 28.2936C19.254 28.3529 19.3612 28.3752 19.4648 28.3555C19.5684 28.3358 19.6599 28.2758 19.7192 28.1886C19.7786 28.1014 19.8008 27.9943 19.7812 27.8907ZM28.9921 34.8321L28.8358 34.1993C28.7629 33.8999 28.5916 33.6338 28.3494 33.4434C28.1071 33.2531 27.808 33.1497 27.4999 33.1497C27.1918 33.1497 26.8927 33.2531 26.6504 33.4434C26.4082 33.6338 26.2369 33.8999 26.164 34.1993L25.4569 37.0938C25.3893 37.369 25.2301 37.613 25.0056 37.7859C24.781 37.9588 24.5044 38.0502 24.221 38.0452C23.9377 38.0402 23.6644 37.9391 23.4461 37.7584C23.2278 37.5777 23.0773 37.3282 23.0194 37.0508C22.789 35.9414 22.4569 34.3164 22.1913 33.0196C21.7069 30.7149 20.7421 30 20.2929 29.211C20.2411 29.1208 20.1556 29.055 20.0552 29.0279C19.9549 29.0008 19.8479 29.0146 19.7577 29.0664C19.6676 29.1182 19.6017 29.2037 19.5746 29.3041C19.5475 29.4044 19.5614 29.5115 19.6132 29.6016C20.1093 30.4649 20.9804 31.0547 21.4257 33.1797C21.6913 34.4805 22.0312 36.0938 22.2538 37.2071C22.3493 37.6575 22.5949 38.0622 22.9505 38.3547C23.3061 38.6472 23.7505 38.8102 24.2109 38.817C24.6713 38.8238 25.1203 38.674 25.4844 38.3922C25.8485 38.1103 26.106 37.7131 26.2148 37.2657L26.9218 34.3711C26.9525 34.2425 27.0269 34.1285 27.1324 34.0487C27.2378 33.9689 27.3678 33.9282 27.4999 33.9336C28.0702 33.9336 28.0976 34.4649 28.2343 35.0196C28.2623 35.1166 28.3268 35.199 28.4143 35.2494C28.5017 35.2999 28.6054 35.3146 28.7034 35.2903C28.8014 35.2661 28.8862 35.2048 28.9401 35.1194C28.9939 35.0339 29.0125 34.931 28.9921 34.8321Z" fill="black"/>
<path d="M35.961 25.8008C36.3349 25.5119 36.7933 25.3541 37.2657 25.3516C37.3693 25.3516 37.4687 25.3104 37.5419 25.2372C37.6152 25.1639 37.6564 25.0646 37.6564 24.961C37.6564 24.8574 37.6152 24.758 37.5419 24.6847C37.4687 24.6115 37.3693 24.5703 37.2657 24.5703C36.9835 24.5709 36.7038 24.5156 36.443 24.4078C36.1821 24.3001 35.945 24.1418 35.7454 23.9422C35.5458 23.7426 35.3876 23.5056 35.2798 23.2447C35.172 22.9838 35.1168 22.7042 35.1173 22.4219C35.1173 22.3183 35.0761 22.2189 35.0029 22.1457C34.9296 22.0724 34.8303 22.0313 34.7267 22.0313C34.6231 22.0313 34.5237 22.0724 34.4505 22.1457C34.3772 22.2189 34.336 22.3183 34.336 22.4219C34.3356 22.6036 34.3134 22.7846 34.2696 22.961C33.4305 22.2168 32.375 21.7609 31.2579 21.6602C28.9142 21.4571 28.4103 22.7813 25.9415 21.9297C25.1956 21.6763 24.4027 21.5915 23.62 21.6816C22.8373 21.7717 22.0844 22.0343 21.4155 22.4506C20.7466 22.8669 20.1785 23.4264 19.752 24.0888C19.3255 24.7513 19.0514 25.5001 18.9493 26.2813C18.9364 26.3849 18.9651 26.4894 19.0292 26.5718C19.0933 26.6542 19.1875 26.7078 19.2911 26.7207C19.3947 26.7337 19.4992 26.7049 19.5816 26.6408C19.6641 26.5767 19.7176 26.4825 19.7306 26.3789C19.8174 25.7128 20.051 25.0743 20.4146 24.5095C20.7781 23.9446 21.2624 23.4675 21.8327 23.1125C22.4029 22.7575 23.0448 22.5335 23.7121 22.4566C24.3794 22.3797 25.0555 22.4519 25.6915 22.668C26.8681 23.0761 28.1478 23.0761 29.3243 22.668C30.1117 22.3978 30.9586 22.3512 31.7709 22.5333C32.5832 22.7153 33.3291 23.1189 33.9259 23.6992C33.7257 23.9716 33.4638 24.1925 33.1616 24.344C32.8594 24.4954 32.5256 24.573 32.1876 24.5703C32.084 24.5703 31.9847 24.6115 31.9114 24.6847C31.8381 24.758 31.797 24.8574 31.797 24.961C31.797 25.0646 31.8381 25.1639 31.9114 25.2372C31.9847 25.3104 32.084 25.3516 32.1876 25.3516C32.7571 25.3526 33.303 25.5793 33.7056 25.982C34.1083 26.3847 34.335 26.9305 34.336 27.5C34.336 27.6036 34.3772 27.703 34.4505 27.7762C34.5237 27.8495 34.6231 27.8906 34.7267 27.8906C34.8303 27.8906 34.9296 27.8495 35.0029 27.7762C35.0761 27.703 35.1173 27.6036 35.1173 27.5C35.1184 27.2127 35.1769 26.9285 35.2892 26.6641C35.3833 27.8151 35.0214 28.9571 34.2814 29.8438C33.5364 30.7738 33.0307 31.8722 32.8087 33.043C31.9181 37.4102 31.9962 37.4219 31.547 37.7852C31.3834 37.9185 31.1888 38.0082 30.9813 38.046C30.7737 38.0838 30.5599 38.0685 30.3599 38.0014C30.1599 37.9343 29.9801 37.8177 29.8372 37.6624C29.6944 37.5071 29.5932 37.3182 29.5431 37.1133L29.3556 36.3321C29.3275 36.235 29.263 36.1527 29.1756 36.1022C29.0881 36.0517 28.9845 36.037 28.8865 36.0613C28.7885 36.0856 28.7036 36.1468 28.6498 36.2323C28.596 36.3177 28.5773 36.4207 28.5978 36.5196L28.7853 37.3008C28.8676 37.6329 29.0324 37.939 29.2643 38.1906C29.4962 38.4422 29.7878 38.6312 30.1122 38.7402C30.4366 38.8493 30.7832 38.8747 31.12 38.8143C31.4568 38.7539 31.7729 38.6095 32.0392 38.3946C32.7775 37.7969 32.711 37.4219 33.5743 33.1992C33.7702 32.1547 34.2196 31.1741 34.8829 30.3438C35.4007 29.7209 35.7674 28.9867 35.9544 28.1986C36.1414 27.4106 36.1437 26.5899 35.961 25.8008ZM34.7267 26.0391C34.4683 25.5912 34.0964 25.2193 33.6485 24.961C33.8685 24.8277 34.0741 24.6719 34.2618 24.4961C35.0431 23.7149 34.3868 23.6836 35.1954 24.4961C36.004 25.3086 35.9767 24.6289 35.1954 25.4297C35.0119 25.6103 34.8542 25.8154 34.7267 26.0391Z" fill="black"/>
<path d="M27.5 25.0469C28.8378 25.0219 30.1483 24.6634 31.3125 24.0039C31.3832 23.9445 31.4307 23.862 31.4463 23.7709C31.462 23.6799 31.4449 23.5863 31.398 23.5067C31.3512 23.427 31.2777 23.3666 31.1905 23.3361C31.1033 23.3055 31.0082 23.3069 30.9219 23.3398C29.8728 23.9203 28.6987 24.238 27.5 24.2656C26.3067 24.2355 25.1382 23.9179 24.0938 23.3398C24.0075 23.3069 23.9123 23.3055 23.8251 23.3361C23.7379 23.3666 23.6644 23.427 23.6176 23.5067C23.5707 23.5863 23.5536 23.6799 23.5693 23.7709C23.585 23.862 23.6324 23.9445 23.7031 24.0039C24.8627 24.6609 26.1675 25.0193 27.5 25.0469ZM17.3438 27.1094H16.1719C16.0683 27.1094 15.9689 27.1505 15.8957 27.2238C15.8224 27.297 15.7812 27.3964 15.7812 27.5C15.7812 27.6036 15.8224 27.703 15.8957 27.7762C15.9689 27.8495 16.0683 27.8906 16.1719 27.8906H17.3438C17.4474 27.8906 17.5467 27.8495 17.62 27.7762C17.6932 27.703 17.7344 27.6036 17.7344 27.5C17.7344 27.3964 17.6932 27.297 17.62 27.2238C17.5467 27.1505 17.4474 27.1094 17.3438 27.1094ZM38.8281 27.1094H37.6562C37.5527 27.1094 37.4533 27.1505 37.38 27.2238C37.3068 27.297 37.2656 27.3964 37.2656 27.5C37.2656 27.6036 37.3068 27.703 37.38 27.7762C37.4533 27.8495 37.5527 27.8906 37.6562 27.8906H38.8281C38.9317 27.8906 39.0311 27.8495 39.1043 27.7762C39.1776 27.703 39.2188 27.6036 39.2188 27.5C39.2188 27.3964 39.1776 27.297 39.1043 27.2238C39.0311 27.1505 38.9317 27.1094 38.8281 27.1094ZM27.8906 17.3438V16.1719C27.8906 16.0683 27.8495 15.9689 27.7762 15.8957C27.703 15.8224 27.6036 15.7812 27.5 15.7812C27.3964 15.7812 27.297 15.8224 27.2238 15.8957C27.1505 15.9689 27.1094 16.0683 27.1094 16.1719V17.3438C27.1094 17.4474 27.1505 17.5467 27.2238 17.62C27.297 17.6932 27.3964 17.7344 27.5 17.7344C27.6036 17.7344 27.703 17.6932 27.7762 17.62C27.8495 17.5467 27.8906 17.4474 27.8906 17.3438ZM18.5156 32.2383L17.5039 32.8242C17.4138 32.876 17.3479 32.9615 17.3208 33.0619C17.2937 33.1622 17.3076 33.2692 17.3594 33.3594C17.4112 33.4495 17.4967 33.5154 17.597 33.5425C17.6974 33.5696 17.8044 33.5557 17.8945 33.5039L18.9062 32.918C18.9964 32.8662 19.0622 32.7807 19.0894 32.6803C19.1165 32.58 19.1026 32.4729 19.0508 32.3828C18.999 32.2927 18.9135 32.2268 18.8131 32.1997C18.7128 32.1726 18.6058 32.1865 18.5156 32.2383ZM36.2969 22.8125C36.4375 22.8125 36.3906 22.8125 37.5039 22.1758C37.594 22.124 37.6599 22.0385 37.687 21.9381C37.7141 21.8378 37.7002 21.7308 37.6484 21.6406C37.6228 21.596 37.5886 21.5569 37.5478 21.5254C37.5071 21.494 37.4605 21.4709 37.4108 21.4575C37.3104 21.4304 37.2034 21.4443 37.1133 21.4961L36.0938 22.082C36.0178 22.125 35.9585 22.1921 35.9251 22.2727C35.8918 22.3532 35.8864 22.4427 35.9097 22.5267C35.9331 22.6107 35.9839 22.6845 36.0541 22.7363C36.1242 22.7881 36.2097 22.8149 36.2969 22.8125ZM22.082 18.9063C22.1338 18.9964 22.2193 19.0622 22.3197 19.0894C22.42 19.1165 22.5271 19.1026 22.6172 19.0508C22.7073 18.999 22.7732 18.9135 22.8003 18.8131C22.8274 18.7128 22.8135 18.6058 22.7617 18.5156L22.1758 17.5039C22.1501 17.4593 22.1159 17.4201 22.0752 17.3887C22.0344 17.3573 21.9878 17.3342 21.9381 17.3208C21.8378 17.2937 21.7308 17.3076 21.6406 17.3594C21.5505 17.4112 21.4846 17.4967 21.4575 17.597C21.4304 17.6974 21.4443 17.8044 21.4961 17.8945L22.082 18.9063ZM32.918 18.9063L33.5039 17.8945C33.5296 17.8499 33.5462 17.8007 33.5528 17.7496C33.5594 17.6986 33.5559 17.6467 33.5425 17.597C33.5291 17.5473 33.506 17.5008 33.4746 17.46C33.4431 17.4192 33.404 17.385 33.3594 17.3594C33.3147 17.3337 33.2655 17.3171 33.2145 17.3105C33.1634 17.3039 33.1116 17.3074 33.0619 17.3208C33.0122 17.3342 32.9656 17.3573 32.9248 17.3887C32.8841 17.4201 32.8499 17.4593 32.8242 17.5039L32.2383 18.5156C32.1865 18.6058 32.1726 18.7128 32.1997 18.8131C32.2268 18.9135 32.2927 18.999 32.3828 19.0508C32.4729 19.1026 32.58 19.1165 32.6803 19.0894C32.7807 19.0622 32.8662 18.9964 32.918 18.9063ZM17.4961 22.1758C18.6094 22.8125 18.5664 22.8125 18.7031 22.8125C18.7896 22.8131 18.8739 22.785 18.9427 22.7326C19.0114 22.6801 19.0609 22.6063 19.0832 22.5228C19.1056 22.4392 19.0995 22.3506 19.0661 22.2709C19.0327 22.1911 18.9737 22.1247 18.8984 22.082L17.8867 21.4961C17.7966 21.4443 17.6896 21.4304 17.5892 21.4575C17.4888 21.4846 17.4034 21.5505 17.3516 21.6406C17.2998 21.7308 17.2859 21.8378 17.313 21.9381C17.3401 22.0385 17.406 22.124 17.4961 22.1758ZM37.5039 32.8242L36.4844 32.2383C36.3942 32.1865 36.2872 32.1726 36.1869 32.1997C36.0865 32.2268 36.001 32.2927 35.9492 32.3828C35.8974 32.4729 35.8835 32.58 35.9107 32.6803C35.9378 32.7807 36.0036 32.8662 36.0938 32.918L37.1055 33.5039C37.1956 33.5567 37.303 33.5716 37.4041 33.5452C37.5052 33.5189 37.5917 33.4534 37.6445 33.3633C37.6974 33.2731 37.7122 33.1657 37.6859 33.0646C37.6595 32.9635 37.594 32.8771 37.5039 32.8242Z" fill="black"/>
</svg>
