<svg width="55" height="55" viewBox="0 0 55 55" fill="none" xmlns="http://www.w3.org/2000/svg">
<rect width="55" height="55" rx="15" fill="white"/>
<path d="M38.434 23.3578C38.3437 18.7539 34.9199 16.0703 31.2094 16.5961C29.8862 16.7294 28.6564 17.3381 27.748 18.3094C27.7229 18.3366 27.6974 18.3634 27.6715 18.3898C26.8639 17.552 25.8153 16.9867 24.6715 16.7727C19.3625 16.2121 17.4805 18.6648 16.8379 20.8195C16.3289 22.6304 16.5389 24.568 17.4242 26.2277C18.2621 28.0445 20.5008 31.5832 20.6461 33.4891L21.057 36.4695C21.4644 39.1488 25.3391 39.048 25.6101 36.3512L25.9621 32.2809C25.9925 31.9256 26.1533 31.5941 26.4135 31.3503C26.6736 31.1065 27.0148 30.9675 27.3713 30.9602C27.7278 30.9529 28.0744 31.0777 28.3444 31.3106C28.6144 31.5436 28.7886 31.8681 28.8336 32.2219L29.3695 36.4277C29.4394 36.975 29.7027 37.4793 30.1118 37.8495C30.5209 38.2196 31.0488 38.4314 31.6003 38.4464C32.1519 38.4615 32.6906 38.2788 33.1192 37.9315C33.5479 37.5842 33.8383 37.095 33.9379 36.5523L34.8383 31.6223C35.2601 29.2055 36.8305 27.2133 37.4867 26.4687C37.8464 26.041 38.1157 25.5448 38.2785 25.0102C38.4413 24.4755 38.4942 23.9134 38.434 23.3578ZM37.6394 24.191C37.5932 24.8435 37.3335 25.4626 36.9004 25.9527C36.2012 26.7465 34.5242 28.8754 34.0691 31.4848L33.1699 36.4113C33.1185 36.6766 32.9982 36.9237 32.8211 37.1277C32.644 37.3317 32.4163 37.4856 32.1608 37.5737C31.9054 37.6619 31.6313 37.6813 31.366 37.6299C31.1008 37.5786 30.8537 37.4583 30.6496 37.2812C30.3691 37.0382 30.1892 36.6994 30.1449 36.3309L29.6082 32.1219C29.5389 31.5768 29.2705 31.0766 28.8544 30.7177C28.4384 30.3587 27.9043 30.1664 27.355 30.1778C26.8056 30.1891 26.2799 30.4033 25.8791 30.7791C25.4782 31.155 25.2306 31.6658 25.184 32.2133L24.832 36.2852C24.8003 36.6555 24.6332 37.0011 24.3626 37.2559C24.0921 37.5108 23.7371 37.6569 23.3655 37.6664C22.9939 37.6759 22.6319 37.548 22.3487 37.3073C22.0655 37.0666 21.881 36.7299 21.8305 36.3617L21.4199 33.3824C21.2769 31.3695 18.959 27.684 18.1191 25.8711C17.326 24.3902 17.1352 22.6603 17.5867 21.0422C18.3992 18.3219 20.7547 17.1477 24.582 17.5484C25.5351 17.7411 26.4082 18.2159 27.0879 18.9113C26.1126 19.6575 24.967 20.1495 23.7543 20.343C23.6513 20.3544 23.5571 20.4062 23.4923 20.4871C23.4276 20.5679 23.3976 20.6712 23.409 20.7742C23.4204 20.8772 23.4722 20.9714 23.5531 21.0362C23.634 21.1009 23.7372 21.1309 23.8402 21.1195C25.3455 20.893 26.7552 20.2431 27.9051 19.2457C28.8019 18.2695 29.9223 17.4777 31.2883 17.3734C35.0476 16.8586 37.9473 19.8582 37.6394 24.191Z" fill="black"/>
<path d="M32.1953 27.5432C32.2715 26.5363 31.9988 25.534 31.423 24.7045C30.9145 24.0822 30.3734 23.4872 29.802 22.9221L31.8836 22.6127C31.9844 22.5957 32.0745 22.5398 32.1345 22.4571C32.1946 22.3744 32.2199 22.2714 32.2049 22.1703C32.1899 22.0692 32.1359 21.978 32.0544 21.9162C31.973 21.8545 31.8705 21.8271 31.7691 21.84L27.9797 22.4029C26.9029 22.5623 25.8971 23.0358 25.0883 23.7643L22.8414 24.0912C22.784 24.0996 22.7291 24.1206 22.6809 24.1529C22.6326 24.1851 22.5922 24.2277 22.5625 24.2775L21.6816 25.7518C21.6316 25.8405 21.6183 25.9453 21.6444 26.0437C21.6706 26.1421 21.7341 26.2265 21.8215 26.2788C21.9089 26.331 22.0133 26.3471 22.1124 26.3235C22.2115 26.2999 22.2974 26.2386 22.352 26.1525L23.1379 24.8377L24.2809 24.6709C23.4055 25.8908 23.1332 27.4482 23.1379 28.926L21.7059 30.8428C21.6456 30.9259 21.6204 31.0293 21.6358 31.1308C21.6512 31.2323 21.706 31.3237 21.7882 31.3851C21.8704 31.4465 21.9736 31.4731 22.0753 31.4592C22.1769 31.4452 22.2691 31.3917 22.3316 31.3104L23.1664 30.1932L23.2586 33.6748C23.2613 33.7784 23.3051 33.8767 23.3803 33.948C23.4555 34.0193 23.556 34.0578 23.6596 34.0551C23.7632 34.0523 23.8614 34.0086 23.9328 33.9334C24.0041 33.8582 24.0426 33.7577 24.0398 33.6541C24.0527 32.2107 23.7348 28.4311 24.1039 27.0674L24.6652 28.2897C24.7084 28.3839 24.7873 28.4571 24.8845 28.4932C24.9816 28.5292 25.0892 28.5252 25.1834 28.482C25.2776 28.4388 25.3508 28.36 25.3869 28.2628C25.423 28.1656 25.419 28.0581 25.3758 27.9639L24.4496 25.9467C24.7744 25.2152 25.2788 24.5776 25.916 24.0932C26.5531 23.6088 27.3024 23.2933 28.0941 23.176L28.8559 23.0627C28.9563 23.1744 30.5852 24.8596 30.6141 24.9248L29.5223 26.4791C29.4928 26.5211 29.4718 26.5685 29.4606 26.6186C29.4495 26.6686 29.4483 26.7204 29.4571 26.771C29.4659 26.8215 29.4846 26.8698 29.5121 26.9132C29.5396 26.9565 29.5754 26.9939 29.6174 27.0234C29.6594 27.0529 29.7068 27.0739 29.7568 27.0851C29.8069 27.0962 29.8587 27.0975 29.9092 27.0886C29.9598 27.0798 30.0081 27.0611 30.0514 27.0336C30.0947 27.0061 30.1322 26.9703 30.1617 26.9283L31.0676 25.6393C31.3047 26.1238 31.4245 26.6573 31.4172 27.1967L31.382 30.7318L30.2824 31.6404C30.2069 31.7077 30.1604 31.8016 30.1527 31.9025C30.1451 32.0033 30.1768 32.1032 30.2412 32.1811C30.3057 32.2591 30.3979 32.3089 30.4984 32.3203C30.5989 32.3316 30.6999 32.3036 30.7801 32.242L31.3715 31.7533L31.3496 33.9205C31.3491 33.9718 31.3587 34.0227 31.3778 34.0703C31.397 34.1179 31.4253 34.1612 31.4613 34.1979C31.4972 34.2345 31.5399 34.2637 31.5871 34.2838C31.6343 34.3039 31.685 34.3145 31.7363 34.315C31.7876 34.3156 31.8385 34.306 31.8861 34.2868C31.9337 34.2676 31.977 34.2393 32.0137 34.2034C32.0503 34.1675 32.0795 34.1247 32.0996 34.0775C32.1197 34.0303 32.1303 33.9796 32.1309 33.9283L32.182 28.8385L32.6691 29.4959C32.7308 29.5792 32.8231 29.6346 32.9256 29.6498C33.0281 29.6651 33.1325 29.639 33.2158 29.5773C33.2991 29.5157 33.3545 29.4234 33.3698 29.3209C33.385 29.2184 33.359 29.114 33.2973 29.0307L32.1953 27.5432Z" fill="black"/>
</svg>
