<svg width="15" height="15" viewBox="0 0 15 15" fill="none" xmlns="http://www.w3.org/2000/svg">
<mask id="mask0_6_1402" style="mask-type:luminance" maskUnits="userSpaceOnUse" x="0" y="-6" width="20" height="21">
<path d="M0 -5.15625H11.7188C10.9107 -4.09953 10.5555 -2.76508 10.7313 -1.44646C10.9071 -0.127847 11.5995 1.06692 12.6562 1.875C13.713 2.68308 15.0474 3.03829 16.366 2.86247C17.6847 2.68665 18.8794 1.99422 19.6875 0.9375V15H0V-5.15625Z" fill="white"/>
</mask>
<g mask="url(#mask0_6_1402)">
<path d="M7.5 11.4375C9.67462 11.4375 11.4375 9.67462 11.4375 7.5C11.4375 5.32538 9.67462 3.5625 7.5 3.5625C5.32538 3.5625 3.5625 5.32538 3.5625 7.5C3.5625 9.67462 5.32538 11.4375 7.5 11.4375Z" fill="#4D5D6D"/>
<path d="M8.57812 1.5C8.57812 2.10938 8.10938 2.57812 7.5 2.57812C6.89062 2.57812 6.42188 2.10938 6.42188 1.5C6.42188 0.890625 6.89062 0.421875 7.5 0.421875C8.10938 0.421875 8.57812 0.890625 8.57812 1.5ZM6.42188 13.5C6.42188 12.8906 6.89062 12.4219 7.5 12.4219C8.10938 12.4219 8.57812 12.8906 8.57812 13.5C8.57812 14.1094 8.10938 14.5781 7.5 14.5781C6.89062 14.5781 6.42188 14.1094 6.42188 13.5ZM13.5 8.57812C12.8906 8.57812 12.4219 8.10938 12.4219 7.5C12.4219 6.89062 12.8906 6.42188 13.5 6.42188C14.1094 6.42188 14.5781 6.89062 14.5781 7.5C14.5781 8.10938 14.1094 8.57812 13.5 8.57812ZM1.5 6.42188C2.10938 6.42188 2.57812 6.89062 2.57812 7.5C2.57812 8.10938 2.10938 8.57812 1.5 8.57812C0.890625 8.57812 0.421875 8.10938 0.421875 7.5C0.421875 6.89062 0.890625 6.42188 1.5 6.42188ZM4.21875 3.14062C4.21875 3.70312 3.70312 4.21875 3.14062 4.21875C2.57812 4.21875 2.0625 3.75 2.0625 3.14062C2.0625 2.53125 2.53125 2.0625 3.14062 2.0625C3.75 2.0625 4.21875 2.53125 4.21875 3.14062ZM11.8594 12.9844C11.25 12.9844 10.7812 12.5156 10.7812 11.9062C10.7812 11.2969 11.25 10.8281 11.8594 10.8281C12.4688 10.8281 12.9375 11.2969 12.9375 11.9062C12.9375 12.5156 12.4688 12.9844 11.8594 12.9844ZM12.9844 3.14062C12.9844 3.75 12.5156 4.21875 11.9062 4.21875C11.2969 4.21875 10.7812 3.70312 10.7812 3.14062C10.7812 2.57812 11.25 2.0625 11.8594 2.0625C12.4688 2.0625 12.9844 2.53125 12.9844 3.14062ZM3.14062 10.7812C3.75 10.7812 4.21875 11.25 4.21875 11.8594C4.21875 12.4688 3.75 12.9375 3.14062 12.9375C2.53125 12.9375 2.0625 12.4688 2.0625 11.8594C2.0625 11.25 2.53125 10.7812 3.14062 10.7812Z" fill="#4D5D6D"/>
</g>
</svg>
