<svg width="75" height="28" viewBox="0 0 75 28" fill="none" xmlns="http://www.w3.org/2000/svg">
<path d="M38.9111 4.7068C38.6299 4.7068 38.3884 4.60736 38.1867 4.4085C37.9878 4.2068 37.8884 3.96532 37.8884 3.68407C37.8884 3.40566 37.9878 3.16702 38.1867 2.96816C38.3884 2.7693 38.6299 2.66986 38.9111 2.66986C39.1839 2.66986 39.4225 2.7693 39.627 2.96816C39.8316 3.16702 39.9339 3.40566 39.9339 3.68407C39.9339 3.87157 39.8856 4.04344 39.789 4.19969C39.6952 4.3531 39.5716 4.47668 39.4182 4.57043C39.2648 4.66134 39.0958 4.7068 38.9111 4.7068ZM40.8918 7.356L40.2798 5.82C40.9678 5.58 41.5238 5.316 41.9478 5.028C42.3798 4.74 42.6958 4.432 42.8958 4.104C43.1038 3.776 43.2078 3.436 43.2078 3.084C43.2078 2.86 43.1758 2.628 43.1118 2.388C43.0478 2.14 42.9558 1.88 42.8358 1.608C42.7238 1.336 42.5878 1.052 42.4278 0.756L43.9998 4.76837e-07C44.2798 0.536 44.4958 1.048 44.6478 1.536C44.8078 2.024 44.8878 2.48 44.8878 2.904C44.8878 3.296 44.8358 3.672 44.7318 4.032C44.6358 4.392 44.4838 4.728 44.2758 5.04C44.0758 5.36 43.8158 5.66 43.4958 5.94C43.1758 6.22 42.7998 6.476 42.3678 6.708C41.9358 6.948 41.4438 7.164 40.8918 7.356ZM33.2846 27.38C32.7086 27.38 32.1886 27.312 31.7246 27.176C31.2606 27.048 30.8606 26.852 30.5246 26.588C30.1886 26.324 29.9286 25.996 29.7446 25.604C29.5686 25.22 29.4806 24.772 29.4806 24.26C29.4806 24.076 29.4966 23.86 29.5286 23.612C29.5606 23.364 29.6206 23.084 29.7086 22.772C29.7966 22.452 29.9286 22.096 30.1046 21.704L31.5806 22.22C31.4926 22.468 31.4166 22.696 31.3526 22.904C31.2886 23.104 31.2406 23.292 31.2086 23.468C31.1766 23.636 31.1606 23.804 31.1606 23.972C31.1606 24.284 31.2326 24.572 31.3766 24.836C31.5206 25.1 31.7526 25.308 32.0726 25.46C32.3926 25.62 32.8126 25.7 33.3326 25.7C33.8126 25.7 34.2126 25.644 34.5326 25.532C34.8526 25.428 35.1046 25.28 35.2886 25.088C35.4726 24.904 35.6046 24.688 35.6846 24.44C35.7646 24.192 35.8046 23.924 35.8046 23.636C35.8046 23.412 35.7766 23.16 35.7206 22.88C35.6726 22.6 35.6006 22.296 35.5046 21.968C35.4086 21.632 35.3006 21.28 35.1806 20.912L36.8606 20.48C36.9406 20.784 37.0046 21.044 37.0526 21.26C37.1086 21.476 37.1566 21.656 37.1966 21.8C37.2366 21.936 37.2686 22.048 37.2926 22.136C37.3726 22.376 37.4686 22.56 37.5806 22.688C37.7006 22.808 37.8326 22.888 37.9766 22.928C38.1286 22.968 38.2966 22.988 38.4806 22.988C38.6326 22.988 38.7726 22.964 38.9006 22.916C39.0286 22.868 39.1446 22.768 39.2486 22.616C39.3606 22.456 39.4606 22.212 39.5486 21.884C39.6366 21.556 39.7166 21.104 39.7886 20.528L41.3726 20.78C41.3406 20.964 41.3086 21.16 41.2766 21.368C41.2446 21.576 41.2166 21.772 41.1926 21.956C41.1686 22.132 41.1566 22.276 41.1566 22.388C41.1566 22.492 41.1846 22.588 41.2406 22.676C41.3046 22.764 41.4166 22.836 41.5766 22.892C41.7366 22.948 41.9646 22.976 42.2606 22.976C42.4766 22.976 42.6646 22.956 42.8246 22.916C42.9846 22.868 43.1086 22.784 43.1966 22.664C43.2846 22.536 43.3286 22.356 43.3286 22.124C43.3286 21.924 43.2966 21.684 43.2326 21.404C43.1686 21.116 43.0846 20.804 42.9806 20.468C42.8846 20.132 42.7726 19.788 42.6446 19.436L44.3366 18.932C44.4646 19.276 44.5766 19.644 44.6726 20.036C44.7766 20.42 44.8566 20.796 44.9126 21.164C44.9766 21.524 45.0086 21.84 45.0086 22.112C45.0086 22.536 44.9446 22.908 44.8166 23.228C44.6966 23.548 44.5166 23.816 44.2766 24.032C44.0446 24.24 43.7606 24.396 43.4246 24.5C43.0886 24.604 42.7126 24.656 42.2966 24.656C41.9926 24.656 41.7126 24.624 41.4566 24.56C41.2086 24.488 40.9926 24.388 40.8086 24.26C40.6326 24.132 40.4966 23.976 40.4006 23.792C40.3046 23.6 40.2606 23.384 40.2686 23.144H40.6766C40.5566 23.584 40.3926 23.912 40.1846 24.128C39.9766 24.344 39.7446 24.488 39.4886 24.56C39.2326 24.624 38.9726 24.656 38.7086 24.656C38.5006 24.656 38.3006 24.636 38.1086 24.596C37.9166 24.556 37.7406 24.492 37.5806 24.404C37.4286 24.308 37.2966 24.184 37.1846 24.032C37.0726 23.872 36.9966 23.68 36.9566 23.456L37.4006 23.936C37.3846 24.48 37.2766 24.964 37.0766 25.388C36.8766 25.812 36.5966 26.172 36.2366 26.468C35.8846 26.764 35.4566 26.988 34.9526 27.14C34.4566 27.3 33.9006 27.38 33.2846 27.38Z" fill="#4D5D6D"/>
<path d="M15.04 5.00267C14.9333 4.04267 14.1867 3.29601 13.2267 3.29601H2.87999C1.81333 3.29601 1.06666 4.04267 0.959992 5.00267L0.106659 17.2693C0.106659 17.8027 0.213326 18.336 0.639992 18.656C0.959992 19.0827 1.38666 19.296 1.91999 19.296H14.08C14.6133 19.296 15.04 19.0827 15.4667 18.656C15.7867 18.2293 16 17.8027 16 17.2693L15.04 5.00267ZM14.2933 17.5893C14.2933 17.5893 14.1867 17.696 14.08 17.696H1.91999C1.81333 17.696 1.70666 17.5893 1.70666 17.5893C1.70666 17.5893 1.59999 17.4827 1.59999 17.376L2.55999 5.10934C2.55999 5.00267 2.66666 4.89601 2.77333 4.89601H13.12C13.2267 4.89601 13.3333 5.00267 13.3333 5.10934L14.1867 17.376C14.2933 17.4827 14.2933 17.5893 14.2933 17.5893ZM10.6667 6.70934C10.24 6.70934 9.81333 7.13601 9.81333 7.56267V9.16267C9.81333 10.2293 8.95999 11.0827 7.89333 11.0827C6.82666 11.0827 6.18666 10.2293 6.18666 9.16267V7.56267C6.18666 7.13601 5.86666 6.70934 5.33333 6.70934C4.79999 6.70934 4.47999 7.13601 4.47999 7.56267V9.16267C4.47999 11.0827 6.07999 12.576 7.89333 12.576C9.70666 12.576 11.3067 10.976 11.3067 9.16267V7.56267C11.52 7.13601 11.0933 6.70934 10.6667 6.70934Z" fill="#4D5D6D"/>
</svg>
