<svg width="310" height="207" viewBox="0 0 310 207" fill="none" xmlns="http://www.w3.org/2000/svg">
<path d="M149.227 114.899C146.77 114.899 144.373 113.642 143.027 111.45L136.799 101.188C136.04 99.9309 136.448 98.3228 137.677 97.5631C138.934 96.8034 140.542 97.2121 141.302 98.4404L147.559 108.702C148.085 109.551 149.196 109.873 150.102 109.433L173.493 97.5321C174.779 96.8591 176.387 97.3856 177.031 98.7026C177.704 99.9887 177.178 101.597 175.861 102.241L152.47 114.142C151.446 114.668 150.335 114.901 149.224 114.901" fill="#C7AC87"/>
<path d="M189.838 83.9941C188.814 82.5903 187.266 81.6552 185.569 81.4219L179.312 80.5735C178.844 80.5157 178.435 80.2804 178.142 79.9294L167.322 67.0356C166.183 65.6896 164.604 64.8144 162.849 64.5501L155.246 63.4684C154.953 63.4395 154.662 63.3219 154.398 63.1175L144.602 55.9542C143.843 55.3989 142.994 55.0191 142.088 54.7838L135.012 53.0291C132.322 52.3561 129.485 53.3222 127.731 55.4856L120.216 64.93C118.346 67.2689 118.111 70.5739 119.69 73.1171L131.707 92.8542C131.707 92.8831 131.735 92.8831 131.735 92.8831C131.764 92.912 131.793 92.9698 131.822 93.0008L131.909 93.0875L131.996 93.1742C132.024 93.2031 132.053 93.232 132.082 93.2918L132.169 93.3785C132.198 93.4074 132.256 93.4363 132.287 93.4652C132.316 93.4941 132.344 93.4941 132.373 93.523C132.402 93.5519 132.46 93.5809 132.491 93.6098C132.52 93.6387 132.549 93.6387 132.578 93.6676C132.607 93.6965 132.664 93.7254 132.695 93.7254C132.724 93.7543 132.782 93.7543 132.813 93.7832C132.844 93.8121 132.871 93.8121 132.931 93.841C132.988 93.8699 133.017 93.8699 133.077 93.8988C133.106 93.8988 133.135 93.9277 133.164 93.9277C133.222 93.9566 133.251 93.9566 133.311 93.9566C133.339 93.9566 133.368 93.9855 133.428 93.9855C133.488 93.9855 133.515 94.0144 133.575 94.0144C133.604 94.0144 133.661 94.0144 133.692 94.0433H141.704C142.932 94.0433 144.014 93.1659 144.276 91.9665L146.002 84.0725L150.329 98.5745C150.651 99.6562 151.644 100.416 152.785 100.476H152.872C153.983 100.476 154.978 99.7739 155.358 98.721L158.281 90.6227L158.689 91.9376C159.04 93.0483 160.064 93.8079 161.204 93.8079H169.975C171.437 93.8079 172.607 92.6375 172.607 91.1759C172.607 89.7144 171.437 88.5439 169.975 88.5439H163.163L161.028 81.4673C160.706 80.3856 159.713 79.626 158.572 79.5971C157.432 79.5682 156.408 80.27 156.029 81.3517L153.134 89.3923L148.192 72.7559C147.841 71.5854 146.76 70.8257 145.56 70.8546C144.361 70.9124 143.339 71.7608 143.075 72.9313L139.625 88.7503H135.561L124.304 70.3014C123.895 69.6284 123.953 68.78 124.45 68.1668L132.022 58.7803C132.46 58.225 133.222 57.9608 133.924 58.1363L141 59.8909C141.233 59.9487 141.469 60.0375 141.644 60.1841L151.439 67.3473C152.375 68.0492 153.485 68.4868 154.656 68.6623L162.259 69.744C162.727 69.8018 163.136 70.0371 163.429 70.3881L174.248 83.2819C175.388 84.6278 176.996 85.5341 178.751 85.7674L185.008 86.6158C185.387 86.6736 185.621 86.9089 185.71 87.0534C185.796 87.2 185.972 87.4911 185.885 87.873L185.212 91.469C185.183 91.5557 185.125 91.6445 185.037 91.7023L181.645 93.4281C180.359 94.1011 179.832 95.6803 180.474 96.9664C180.943 97.8726 181.878 98.399 182.842 98.399C183.251 98.399 183.662 98.3123 184.042 98.1059L187.433 96.3801C188.984 95.5915 190.094 94.099 190.416 92.4042L191.089 88.8081C191.236 87.1422 190.856 85.3875 189.832 83.9838" fill="#C7AC87"/>
<path d="M37.8557 148.465H38.7042L38.8219 149.605C39.3483 149.751 40.079 149.838 40.6343 149.838C42.067 149.838 42.8865 149.254 42.8865 147.968C42.8865 146.682 42.1557 146.388 40.752 145.922C39.3194 145.453 37.8867 144.927 37.8867 143.057C37.8867 141.186 39.1728 140.338 41.2206 140.338C42.0979 140.338 43.0331 140.513 43.735 140.718L43.7061 142.588H42.8576L42.74 141.418C42.3312 141.331 41.6871 141.242 41.1896 141.242C39.7859 141.242 39.084 141.886 39.084 142.997C39.084 144.196 39.9036 144.518 41.1896 144.956C42.6801 145.453 44.0838 145.951 44.0838 147.91C44.0838 149.665 42.9443 150.746 40.6632 150.746C39.6682 150.746 38.5576 150.542 37.8268 150.309L37.8557 148.467" fill="#C7AC87"/>
<path d="M49.3458 150.045C48.7616 150.425 48.1175 150.747 47.2691 150.747C46.0119 150.747 45.1346 150.045 45.1346 148.701C45.1346 147.093 46.3051 146.624 47.8533 146.624C48.3219 146.624 48.935 146.682 49.2282 146.711V145.951C49.2282 144.987 48.966 144.49 47.6778 144.49C47.0936 144.49 46.4496 144.607 45.8365 144.723L45.6899 143.903C46.3918 143.757 47.0647 143.641 47.7955 143.641C49.5213 143.641 50.281 144.225 50.281 145.805V149.84L51.0117 149.987V150.631H49.4036L49.3458 150.047M49.2591 147.47C48.966 147.442 48.3529 147.413 48.0019 147.413C46.7737 147.413 46.2473 147.764 46.2473 148.67C46.2473 149.458 46.7159 149.927 47.5622 149.927C48.1464 149.927 48.7327 149.694 49.2571 149.372V147.47H49.2591Z" fill="#C7AC87"/>
<path d="M52.562 144.576L51.8024 144.43V143.786H53.6438V148.348C53.6438 149.196 53.8481 149.898 54.8142 149.898C55.3695 149.898 56.0425 149.636 56.7733 149.254V144.547L56.0136 144.401V143.757H57.855V149.809L58.6147 149.956V150.6H56.9488L56.8311 150.016C56.0714 150.425 55.3406 150.747 54.4922 150.747C53.0306 150.747 52.562 149.812 52.562 148.466V144.576Z" fill="#C7AC87"/>
<path d="M64.2297 150.102C63.5856 150.482 62.9147 150.746 62.124 150.746C60.1072 150.746 59.7852 148.934 59.7852 147.297C59.7852 145.309 60.2827 143.612 62.3284 143.612C62.8837 143.612 63.5567 143.759 64.1409 144.081V141.273L63.3812 141.126V140.482H65.2226V149.809L65.9823 149.956V150.6H64.3164L64.2297 150.102ZM64.1409 144.84C63.5278 144.578 62.9704 144.46 62.5328 144.46C61.3045 144.46 60.8669 145.338 60.8669 147.239C60.8669 148.729 61.129 149.9 62.3883 149.9C62.9147 149.9 63.5278 149.696 64.1141 149.345V144.842H64.143L64.1409 144.84Z" fill="#C7AC87"/>
<path d="M66.8906 149.985L67.6503 149.838V144.576L66.8906 144.43V143.786H68.732V149.838L69.4916 149.985V150.629H66.8885V149.985M67.6503 140.512H68.732V142.12H67.6503V140.512Z" fill="#C7AC87"/>
<path d="M80.6329 150.453C79.7844 150.658 78.8782 150.775 78.0008 150.775C74.5802 150.775 73.996 148.698 73.996 145.658C73.996 142.617 74.6091 140.365 78.0318 140.365C78.938 140.365 79.8732 140.511 80.604 140.716L80.5462 142.646H79.6977L79.5801 141.418C79.1424 141.331 78.585 141.271 78.0896 141.271C75.4865 141.271 75.1665 142.792 75.1665 145.627C75.1665 148.17 75.4287 149.807 78.1495 149.807C78.9091 149.807 79.6998 149.66 80.4306 149.545L80.6349 150.451" fill="#C7AC87"/>
<path d="M81.9767 147.266C81.9767 144.985 82.5032 143.67 84.8131 143.67C87.1231 143.67 87.6495 145.045 87.6495 147.179C87.6495 149.46 87.1231 150.775 84.8131 150.775C82.5032 150.775 81.9767 149.372 81.9767 147.266ZM86.5389 147.179C86.5389 145.542 86.3924 144.489 84.7842 144.489C83.1761 144.489 83.0296 145.513 83.0296 147.237C83.0296 148.961 83.1761 149.927 84.7842 149.927C86.3924 149.927 86.5389 148.903 86.5389 147.179Z" fill="#C7AC87"/>
<path d="M88.9067 149.985L89.6664 149.838V144.576L88.9067 144.43V143.786H90.5437L90.6304 144.254C91.2146 143.932 91.9165 143.641 92.7071 143.641C93.4978 143.641 93.9643 143.934 94.2285 144.343C94.8417 143.992 95.6323 143.641 96.5096 143.641C97.9712 143.641 98.351 144.605 98.351 145.776V149.84L99.1995 149.987V150.631H97.2982V146.069C97.2982 145.191 97.1227 144.518 96.1876 144.518C95.6034 144.518 95.0171 144.752 94.4618 145.016C94.5196 145.249 94.5485 145.542 94.5485 145.805V149.869L95.3681 150.016V150.66H93.4668V146.098C93.4668 145.22 93.2913 144.547 92.3562 144.547C91.8298 144.547 91.2456 144.752 90.7192 144.985V149.898L91.4789 150.045V150.689H88.8757V149.987" fill="#C7AC87"/>
<path d="M100.017 149.985L100.777 149.838V144.576L100.017 144.43V143.786H101.654L101.741 144.254C102.325 143.932 103.027 143.641 103.817 143.641C104.608 143.641 105.075 143.934 105.339 144.343C105.952 143.992 106.743 143.641 107.62 143.641C109.081 143.641 109.461 144.605 109.461 145.776V149.84L110.31 149.987V150.631H108.408V146.069C108.408 145.191 108.233 144.518 107.298 144.518C106.714 144.518 106.127 144.752 105.572 145.016C105.63 145.249 105.659 145.542 105.659 145.805V149.869L106.478 150.016V150.66H104.577V146.098C104.577 145.22 104.402 144.547 103.466 144.547C102.94 144.547 102.356 144.752 101.829 144.985V149.898L102.589 150.045V150.689H99.986V149.987" fill="#C7AC87"/>
<path d="M111.127 149.985L111.887 149.838V144.576L111.127 144.43V143.786H112.969V149.838L113.728 149.985V150.629H111.125V149.985M111.889 140.512H112.971V142.12H111.889V140.512Z" fill="#C7AC87"/>
<path d="M114.93 148.845H115.689L115.807 149.809C116.187 149.896 116.627 149.956 117.064 149.956C118.117 149.956 118.701 149.634 118.701 148.845C118.701 148.057 118.117 147.881 117.18 147.617C116.009 147.266 114.899 146.944 114.899 145.6C114.899 144.256 115.98 143.67 117.502 143.67C118.204 143.67 118.963 143.816 119.49 143.963L119.432 145.571H118.643L118.557 144.576C118.235 144.518 117.855 144.489 117.533 144.489C116.451 144.489 115.982 144.869 115.982 145.542C115.982 146.215 116.538 146.449 117.533 146.742C118.615 147.064 119.754 147.386 119.754 148.787C119.754 150.073 118.79 150.804 117.064 150.804C116.276 150.804 115.485 150.658 114.872 150.482L114.93 148.845Z" fill="#C7AC87"/>
<path d="M121.127 148.845H121.887L122.004 149.809C122.384 149.896 122.824 149.956 123.261 149.956C124.314 149.956 124.898 149.634 124.898 148.845C124.898 148.057 124.314 147.881 123.377 147.617C122.206 147.266 121.096 146.944 121.096 145.6C121.096 144.256 122.178 143.67 123.699 143.67C124.401 143.67 125.161 143.816 125.687 143.963L125.629 145.571H124.841L124.754 144.576C124.432 144.518 124.052 144.489 123.73 144.489C122.648 144.489 122.18 144.869 122.18 145.542C122.18 146.215 122.735 146.449 123.73 146.742C124.812 147.064 125.951 147.386 125.951 148.787C125.951 150.073 124.987 150.804 123.261 150.804C122.473 150.804 121.682 150.658 121.069 150.482L121.127 148.845Z" fill="#C7AC87"/>
<path d="M127.064 149.985L127.824 149.838V144.576L127.064 144.43V143.786H128.905V149.838L129.665 149.985V150.629H127.062V149.985M127.824 140.512H128.905V142.12H127.824V140.512Z" fill="#C7AC87"/>
<path d="M130.835 147.266C130.835 144.985 131.362 143.67 133.672 143.67C135.982 143.67 136.508 145.045 136.508 147.179C136.508 149.46 135.982 150.775 133.672 150.775C131.362 150.775 130.835 149.372 130.835 147.266ZM135.424 147.179C135.424 145.542 135.278 144.489 133.67 144.489C132.062 144.489 131.915 145.513 131.915 147.237C131.915 148.961 132.062 149.927 133.67 149.927C135.278 149.927 135.424 148.903 135.424 147.179Z" fill="#C7AC87"/>
<path d="M137.763 149.985L138.523 149.838V144.576L137.763 144.43V143.786H139.4L139.518 144.399C140.162 144.048 140.98 143.639 141.946 143.639C143.407 143.639 143.787 144.603 143.787 145.774V149.838L144.635 149.985V150.629H142.734V146.067C142.734 145.189 142.559 144.517 141.624 144.517C140.951 144.517 140.249 144.839 139.636 145.13V149.836L140.395 149.983V150.627H137.792V149.983" fill="#C7AC87"/>
<path d="M148.787 149.985L149.546 149.838V144.634H148.523V143.99L149.546 143.785V142.264C149.546 140.918 150.248 140.363 151.623 140.363C151.945 140.363 152.325 140.392 152.676 140.449L152.589 141.269C152.327 141.211 151.976 141.182 151.741 141.182C150.806 141.182 150.63 141.591 150.63 142.264V143.785H152.209V144.634H150.63V149.838L151.594 149.985V150.629H148.787V149.985Z" fill="#C7AC87"/>
<path d="M153.145 147.266C153.145 144.985 153.671 143.67 155.981 143.67C158.291 143.67 158.817 145.045 158.817 147.179C158.817 149.46 158.291 150.775 155.981 150.775C153.671 150.775 153.145 149.372 153.145 147.266ZM157.734 147.179C157.734 145.542 157.587 144.489 155.979 144.489C154.371 144.489 154.224 145.513 154.224 147.237C154.224 148.961 154.371 149.927 155.979 149.927C157.587 149.927 157.734 148.903 157.734 147.179Z" fill="#C7AC87"/>
<path d="M160.073 149.985L160.832 149.838V144.576L160.073 144.43V143.786H161.71L161.856 144.721C162.529 144.019 163.113 143.668 163.844 143.668C164.02 143.668 164.166 143.697 164.313 143.726L164.255 144.69C164.079 144.632 163.933 144.632 163.786 144.632C163.113 144.632 162.5 144.954 161.916 145.48V149.836L162.88 149.983V150.627H160.073V149.983" fill="#C7AC87"/>
<path d="M168.377 149.985L169.255 149.84V141.302L168.377 141.156V140.512H171.272V141.156L170.423 141.302V144.956H175.103V141.302L174.255 141.156V140.512H177.149V141.156L176.271 141.302V149.84L177.149 149.985V150.629H174.255V149.985L175.103 149.84V145.862H170.423V149.84L171.272 149.985V150.629H168.377V149.985Z" fill="#C7AC87"/>
<path d="M183.552 150.424C182.879 150.629 182.031 150.775 181.271 150.775C179.225 150.775 178.493 149.518 178.493 147.355C178.493 145.191 179.019 143.67 181.24 143.67C183.141 143.67 183.726 144.723 183.726 146.653V147.559H179.574C179.603 149.138 180.043 149.927 181.476 149.927C182.06 149.927 182.762 149.78 183.406 149.605L183.552 150.424ZM182.646 146.768C182.646 145.394 182.499 144.487 181.156 144.487C180.016 144.487 179.605 145.131 179.519 146.768H182.648H182.646Z" fill="#C7AC87"/>
<path d="M189.136 150.045C188.552 150.425 187.908 150.747 187.06 150.747C185.802 150.747 184.925 150.045 184.925 148.701C184.925 147.093 186.096 146.624 187.644 146.624C188.112 146.624 188.725 146.682 189.019 146.711V145.951C189.019 144.987 188.756 144.49 187.468 144.49C186.884 144.49 186.24 144.607 185.627 144.723L185.48 143.903C186.182 143.757 186.855 143.641 187.586 143.641C189.312 143.641 190.071 144.225 190.071 145.805V149.84L190.802 149.987V150.631H189.194L189.136 150.047M189.021 147.47C188.728 147.442 188.114 147.413 187.764 147.413C186.535 147.413 186.009 147.764 186.009 148.67C186.009 149.458 186.477 149.927 187.324 149.927C187.908 149.927 188.494 149.694 189.019 149.372V147.47H189.021Z" fill="#C7AC87"/>
<path d="M191.68 149.985L192.441 149.84V141.302L191.68 141.156V140.512H193.494V149.84L194.254 149.985V150.629H191.68V149.985Z" fill="#C7AC87"/>
<path d="M196.008 144.634H194.985V143.99L196.066 143.786L196.3 141.973H197.088V143.786H198.843V144.634H197.088V148.845C197.088 149.518 197.321 149.956 198.052 149.956C198.285 149.956 198.521 149.898 198.754 149.869L198.872 150.658C198.521 150.744 198.228 150.804 197.819 150.804C196.591 150.804 195.978 150.307 195.978 148.992V144.636" fill="#C7AC87"/>
<path d="M199.576 149.985L200.335 149.838V141.3L199.576 141.153V140.509H201.417V144.339C202.061 143.988 202.85 143.637 203.756 143.637C205.217 143.637 205.597 144.601 205.597 145.771V149.836L206.446 149.983V150.627H204.544V146.064C204.544 145.187 204.369 144.514 203.434 144.514C202.761 144.514 202.059 144.836 201.446 145.127V149.834L202.206 149.98V150.625H199.574V149.98" fill="#C7AC87"/>
<path d="M210.657 148.465H211.505L211.623 149.605C212.149 149.751 212.88 149.838 213.436 149.838C214.868 149.838 215.688 149.254 215.688 147.968C215.688 146.682 214.957 146.388 213.553 145.922C212.121 145.453 210.688 144.927 210.688 143.057C210.688 141.186 211.974 140.338 214.022 140.338C214.899 140.338 215.834 140.513 216.536 140.718L216.507 142.588H215.659L215.541 141.418C215.132 141.331 214.488 141.242 213.991 141.242C212.587 141.242 211.885 141.886 211.885 142.997C211.885 144.196 212.705 144.518 213.991 144.956C215.481 145.453 216.885 145.951 216.885 147.91C216.885 149.665 215.746 150.746 213.464 150.746C212.469 150.746 211.359 150.542 210.628 150.309L210.657 148.467" fill="#C7AC87"/>
<path d="M217.849 152.968L218.609 152.821V144.576L217.849 144.43V143.786H219.486L219.573 144.312C220.217 143.903 220.919 143.639 221.707 143.639C223.666 143.639 224.017 145.394 224.017 147.089C224.017 149.048 223.549 150.743 221.474 150.743C220.919 150.743 220.246 150.596 219.69 150.305V152.819L220.479 152.966V153.61H217.847V152.966M219.662 149.576C220.275 149.838 220.801 149.956 221.27 149.956C222.527 149.956 222.907 149.079 222.907 147.177C222.907 145.716 222.673 144.517 221.385 144.517C220.888 144.517 220.246 144.721 219.66 145.043V149.574L219.662 149.576Z" fill="#C7AC87"/>
<path d="M230.627 150.424C229.954 150.629 229.106 150.775 228.346 150.775C226.3 150.775 225.568 149.518 225.568 147.355C225.568 145.191 226.094 143.67 228.315 143.67C230.217 143.67 230.801 144.723 230.801 146.653V147.559H226.649C226.678 149.138 227.118 149.927 228.551 149.927C229.135 149.927 229.837 149.78 230.481 149.605L230.627 150.424ZM229.75 146.768C229.75 145.394 229.603 144.487 228.26 144.487C227.12 144.487 226.709 145.131 226.623 146.768H229.752H229.75Z" fill="#C7AC87"/>
<path d="M237.146 150.453C236.62 150.629 235.714 150.775 234.954 150.775C232.762 150.775 232.235 149.429 232.235 147.266C232.235 145.103 232.762 143.67 235.072 143.67C235.774 143.67 236.622 143.816 237.089 143.932L237.031 145.598H236.182L236.096 144.603C235.774 144.545 235.423 144.485 235.072 144.485C233.521 144.485 233.259 145.449 233.259 147.175C233.259 148.901 233.521 149.923 235.13 149.923C235.714 149.923 236.387 149.776 236.942 149.63L237.146 150.449" fill="#C7AC87"/>
<path d="M238.257 149.985L239.017 149.838V144.576L238.257 144.43V143.786H240.099V149.838L240.858 149.985V150.629H238.255V149.985M239.017 140.512H240.099V142.12H239.017V140.512Z" fill="#C7AC87"/>
<path d="M246.036 150.045C245.451 150.425 244.807 150.747 243.959 150.747C242.702 150.747 241.824 150.045 241.824 148.701C241.824 147.093 242.995 146.624 244.543 146.624C245.012 146.624 245.625 146.682 245.918 146.711V145.951C245.918 144.987 245.656 144.49 244.368 144.49C243.783 144.49 243.139 144.607 242.526 144.723L242.38 143.903C243.081 143.757 243.754 143.641 244.485 143.641C246.211 143.641 246.971 144.225 246.971 145.805V149.84L247.701 149.987V150.631H246.093L246.036 150.047M245.947 147.47C245.654 147.442 245.041 147.413 244.69 147.413C243.461 147.413 242.935 147.764 242.935 148.67C242.935 149.458 243.403 149.927 244.25 149.927C244.834 149.927 245.42 149.694 245.945 149.372V147.47H245.947Z" fill="#C7AC87"/>
<path d="M248.579 149.985L249.338 149.84V141.302L248.579 141.156V140.512H250.42V149.84L251.182 149.985V150.629H248.579V149.985Z" fill="#C7AC87"/>
<path d="M252.934 144.634H251.911V143.99L252.992 143.786L253.226 141.973H254.014V143.786H255.769V144.634H254.014V148.845C254.014 149.518 254.247 149.956 254.978 149.956C255.211 149.956 255.447 149.898 255.68 149.869L255.798 150.658C255.447 150.744 255.154 150.804 254.745 150.804C253.517 150.804 252.904 150.307 252.904 148.992V144.636" fill="#C7AC87"/>
<path d="M256.533 149.985L257.292 149.838V144.576L256.533 144.43V143.786H258.374V149.838L259.134 149.985V150.629H256.531V149.985M257.292 140.512H258.374V142.12H257.292V140.512Z" fill="#C7AC87"/>
<path d="M265.391 150.424C264.718 150.629 263.869 150.775 263.11 150.775C261.064 150.775 260.331 149.518 260.331 147.355C260.331 145.191 260.857 143.67 263.079 143.67C264.98 143.67 265.564 144.723 265.564 146.653V147.559H261.413C261.442 149.138 261.881 149.927 263.314 149.927C263.898 149.927 264.6 149.78 265.244 149.605L265.391 150.424ZM264.513 146.768C264.513 145.394 264.367 144.487 263.023 144.487C261.883 144.487 261.473 145.131 261.386 146.768H264.515H264.513Z" fill="#C7AC87"/>
<path d="M266.999 148.845H267.758L267.876 149.809C268.256 149.896 268.696 149.956 269.133 149.956C270.186 149.956 270.77 149.634 270.77 148.845C270.77 148.057 270.186 147.881 269.249 147.617C268.078 147.266 266.968 146.944 266.968 145.6C266.968 144.256 268.05 143.67 269.571 143.67C270.273 143.67 271.032 143.816 271.559 143.963L271.501 145.571H270.713L270.626 144.576C270.304 144.518 269.924 144.489 269.602 144.489C268.52 144.489 268.052 144.869 268.052 145.542C268.052 146.215 268.607 146.449 269.602 146.742C270.684 147.064 271.823 147.386 271.823 148.787C271.823 150.073 270.859 150.804 269.133 150.804C268.345 150.804 267.525 150.658 266.941 150.482L266.999 148.845Z" fill="#C7AC87"/>
<path d="M64.3453 128.671V132.706H65.8068V133.759H60.1939C59.0833 133.73 58.4991 133.233 58.4392 132.238C58.4392 132.062 58.4103 131.858 58.4103 131.625V130.894C58.4103 130.661 58.4392 130.396 58.4392 130.163C58.4392 129.93 58.4681 129.725 58.497 129.55C58.5548 129.081 58.7303 128.673 59.0234 128.38C59.2856 128.058 59.6675 127.824 60.134 127.707C60.6893 127.56 61.2446 127.531 61.771 127.62C62.2974 127.738 62.795 127.971 63.2615 128.351V127.62H64.8118V128.673H64.3432M63.2925 129.87C63.2925 129.783 63.2347 129.666 63.117 129.519C62.9993 129.372 62.8239 129.257 62.6484 129.139C62.444 129.022 62.2396 128.906 62.0043 128.817C61.769 128.728 61.5357 128.671 61.3024 128.642C60.7182 128.613 60.2785 128.728 59.9875 128.993C59.6964 129.257 59.5498 129.723 59.5189 130.367V131.742C59.5189 131.947 59.5189 132.093 59.5478 132.24C59.5767 132.358 59.6056 132.473 59.6943 132.533C59.7521 132.591 59.8698 132.651 59.9875 132.68C60.1051 132.708 60.2806 132.708 60.4561 132.708H63.3214V129.872H63.2925V129.87ZM60.0184 125.368H61.1001V126.449H60.0184V125.368ZM61.6554 125.368H62.7371V126.449H61.6554V125.368Z" fill="#C7AC87"/>
<path d="M70.3979 133.728H69.1985C68.7609 133.728 68.4099 133.61 68.1168 133.406C67.8546 133.61 67.5037 133.728 67.0351 133.728H65.6891V132.675H66.6842C66.8596 132.675 67.0062 132.675 67.0929 132.646C67.2106 132.617 67.2973 132.589 67.3551 132.529C67.4129 132.469 67.4727 132.382 67.5016 132.267C67.5305 132.151 67.5305 132.033 67.5594 131.858V128.262H68.6411V131.858C68.6411 132.033 68.67 132.18 68.6989 132.267C68.7279 132.384 68.7567 132.471 68.8455 132.529C68.9033 132.586 68.9921 132.646 69.1077 132.646C69.2254 132.675 69.341 132.675 69.5164 132.675H70.3938V133.728M66.8906 134.781H67.9723V135.863H66.8906V134.781ZM68.5276 134.781H69.6093V135.863H68.5276V134.781Z" fill="#C7AC87"/>
<path d="M70.3401 132.706H76.0418V130.425C76.0418 130.103 75.984 129.841 75.8663 129.606C75.7487 129.37 75.6042 129.197 75.3977 129.05C75.1934 128.904 74.989 128.817 74.6958 128.788C74.4337 128.759 74.1405 128.759 73.8474 128.817C73.643 128.875 73.4098 128.935 73.1744 128.992C72.9412 129.079 72.6769 129.168 72.4726 129.255C72.2393 129.341 72.0349 129.43 71.8595 129.517C71.684 129.603 71.5374 129.663 71.4507 129.721L71.0131 128.668C71.4218 128.435 71.8904 128.2 72.359 128.024C72.8565 127.849 73.354 127.731 73.8495 127.644C74.3181 127.587 74.7557 127.587 75.1644 127.702C75.5732 127.789 75.9241 127.964 76.2173 128.171C76.5104 128.404 76.7437 128.697 76.9191 129.048C77.0946 129.399 77.1813 129.808 77.1813 130.248V132.675H78.6429V133.728H70.338V132.704" fill="#C7AC87"/>
<path d="M78.5562 132.706H79.6379V129.812H79.1404V128.759H80.6907V129.548C80.8372 129.372 81.0127 129.226 81.2171 129.079C81.4214 128.932 81.6258 128.786 81.8611 128.67C82.0965 128.555 82.2988 128.437 82.5341 128.319C82.7695 128.202 83.0027 128.115 83.2071 128.057C83.4115 127.97 83.6158 127.911 83.7913 127.853C83.9668 127.795 84.1422 127.766 84.2599 127.735C84.5819 127.677 84.904 127.648 85.2239 127.677C85.546 127.677 85.868 127.735 86.188 127.795C86.4502 127.853 86.7144 127.942 86.9477 128.088C87.1809 128.235 87.3853 128.41 87.5319 128.615C87.7073 128.819 87.825 129.083 87.9117 129.345C87.9984 129.608 88.0583 129.901 88.0583 130.194V132.153C88.0583 132.357 88.0294 132.562 88.0005 132.737H89.5508V133.79H78.4984V132.708M85.7772 128.759C85.3973 128.672 85.0175 128.672 84.6377 128.759C84.2289 128.846 83.8491 128.963 83.4672 129.11C83.0874 129.285 82.7364 129.461 82.3855 129.665C82.0346 129.87 81.7414 130.074 81.5081 130.278C81.246 130.483 81.0395 130.658 80.895 130.805C80.7505 130.951 80.6618 131.038 80.6618 131.038V132.646H86.3924C86.5967 132.646 86.7433 132.588 86.861 132.471C86.9477 132.353 87.0075 132.209 87.0075 132.002V130.305C86.9786 129.868 86.861 129.517 86.6566 129.281C86.51 129.019 86.219 128.844 85.7793 128.755L85.7772 128.759Z" fill="#C7AC87"/>
<path d="M89.5198 132.706H90.1329C90.3084 132.706 90.455 132.706 90.5417 132.678C90.6593 132.649 90.746 132.62 90.8038 132.56C90.8616 132.502 90.9215 132.413 90.9504 132.298C90.9793 132.182 90.9793 132.064 91.0082 131.889V125.223H90.5107V124.17H92.061V132.153C92.061 132.68 91.9144 133.088 91.6234 133.353C91.3612 133.615 90.9504 133.761 90.4529 133.79H89.5178V132.708" fill="#C7AC87"/>
<path d="M95.046 133.728H94.0242V125.161H93.5267V124.139H95.046V133.728Z" fill="#C7AC87"/>
<path d="M101.683 128.291C101.45 128.584 101.274 128.935 101.128 129.255C100.981 129.606 100.894 129.986 100.834 130.425C100.777 131.127 100.892 131.683 101.214 132.091C101.536 132.5 102.063 132.704 102.765 132.704H109.666C109.841 132.704 109.988 132.704 110.074 132.675C110.161 132.647 110.279 132.618 110.337 132.558C110.394 132.5 110.454 132.411 110.483 132.296C110.512 132.18 110.512 132.062 110.541 131.887V128.728H110.043V127.676H111.594V132.149C111.594 132.675 111.447 133.084 111.156 133.348C110.894 133.611 110.483 133.757 109.986 133.786H102.5C102.149 133.786 101.798 133.728 101.505 133.611C101.212 133.493 100.95 133.348 100.717 133.142C100.483 132.938 100.308 132.704 100.161 132.411C100.015 132.118 99.9282 131.798 99.8683 131.416C99.8394 131.154 99.8105 130.861 99.8105 130.568C99.8105 130.275 99.8394 130.012 99.8972 129.719C99.9839 129.34 100.073 128.96 100.248 128.609C100.395 128.258 100.599 127.936 100.832 127.645L101.681 128.289M104.579 126.536H105.661V127.618H104.579V126.536ZM106.216 126.536H107.298V127.618H106.216V126.536Z" fill="#C7AC87"/>
<path d="M116.187 133.728H114.696C114.199 133.728 113.79 133.582 113.526 133.291C113.264 133.028 113.117 132.618 113.088 132.091V124.108H114.639V125.161H114.141V131.827C114.141 132.002 114.17 132.149 114.199 132.236C114.228 132.353 114.257 132.44 114.345 132.498C114.403 132.556 114.492 132.616 114.608 132.616C114.725 132.644 114.841 132.644 115.016 132.644H116.187V133.726" fill="#C7AC87"/>
<path d="M116.098 132.706H117.18V129.812H116.682V128.759H118.233V129.548C118.379 129.372 118.555 129.226 118.759 129.079C118.963 128.932 119.168 128.786 119.403 128.67C119.636 128.553 119.841 128.437 120.076 128.319C120.311 128.202 120.545 128.115 120.749 128.057C120.953 127.97 121.158 127.911 121.333 127.853C121.509 127.795 121.684 127.766 121.802 127.735C122.124 127.677 122.446 127.648 122.766 127.677C123.088 127.677 123.41 127.735 123.73 127.795C123.992 127.853 124.256 127.942 124.49 128.088C124.723 128.235 124.927 128.41 125.074 128.615C125.249 128.819 125.367 129.083 125.454 129.345C125.54 129.608 125.6 129.901 125.6 130.194V132.153C125.6 132.357 125.571 132.562 125.542 132.737H127.093V133.79H116.04V132.708M123.35 128.759C122.97 128.672 122.59 128.672 122.211 128.759C121.802 128.846 121.422 128.963 121.04 129.11C120.66 129.285 120.309 129.461 119.958 129.665C119.607 129.87 119.314 130.074 119.081 130.278C118.819 130.483 118.612 130.658 118.468 130.805L118.235 131.038V132.646H123.965C124.17 132.646 124.316 132.588 124.434 132.471C124.521 132.353 124.58 132.209 124.58 132.002V130.305C124.552 129.868 124.434 129.517 124.23 129.281C124.054 129.019 123.761 128.844 123.352 128.755L123.35 128.759Z" fill="#C7AC87"/>
<path d="M127.064 132.706H128.146V129.812H127.648V128.759H129.198V129.548C129.345 129.372 129.52 129.226 129.725 129.079C129.929 128.932 130.134 128.786 130.369 128.67C130.602 128.553 130.806 128.437 131.042 128.319C131.277 128.202 131.51 128.115 131.715 128.057C131.919 127.97 132.124 127.911 132.299 127.853C132.474 127.795 132.65 127.766 132.768 127.735C133.09 127.677 133.412 127.648 133.732 127.677C134.054 127.677 134.376 127.735 134.696 127.795C134.958 127.853 135.222 127.942 135.455 128.088C135.689 128.235 135.893 128.41 136.04 128.615C136.215 128.819 136.333 129.083 136.419 129.345C136.506 129.608 136.566 129.901 136.566 130.194V132.153C136.566 132.357 136.537 132.562 136.508 132.737H138.058V133.79H127.064V132.708M134.314 128.759C133.934 128.672 133.554 128.672 133.174 128.759C132.766 128.846 132.386 128.963 132.004 129.11C131.624 129.285 131.273 129.461 130.922 129.665C130.571 129.87 130.278 130.074 130.045 130.278C129.783 130.483 129.576 130.658 129.432 130.805L129.198 131.038V132.646H134.958C135.162 132.646 135.309 132.588 135.426 132.471C135.513 132.353 135.573 132.209 135.573 132.002V130.305C135.544 129.868 135.426 129.517 135.222 129.281C135.018 129.019 134.725 128.844 134.316 128.755L134.314 128.759Z" fill="#C7AC87"/>
<path d="M138.056 132.706H143.729V130.425C143.729 130.103 143.671 129.841 143.554 129.606C143.436 129.37 143.292 129.197 143.085 129.05C142.879 128.904 142.676 128.817 142.383 128.788C142.121 128.759 141.828 128.759 141.535 128.817C141.33 128.875 141.097 128.935 140.862 128.993C140.629 129.079 140.364 129.168 140.16 129.255C139.927 129.342 139.722 129.43 139.547 129.517C139.371 129.604 139.225 129.664 139.138 129.721L138.7 128.669C139.109 128.435 139.578 128.2 140.046 128.024C140.544 127.849 141.041 127.731 141.537 127.645C142.005 127.587 142.443 127.587 142.852 127.702C143.261 127.789 143.612 127.965 143.905 128.171C144.198 128.404 144.431 128.697 144.607 129.048C144.782 129.399 144.869 129.808 144.869 130.248V132.675H146.33V133.728H138.056V132.704M140.22 125.368H141.302V126.449H140.22V125.368Z" fill="#C7AC87"/>
<path d="M150.95 133.728H149.751C149.313 133.728 148.962 133.611 148.669 133.406C148.407 133.611 148.056 133.728 147.587 133.728H146.272V132.675H147.267C147.443 132.675 147.59 132.675 147.676 132.647C147.794 132.618 147.881 132.589 147.938 132.529C147.996 132.471 148.056 132.382 148.085 132.267C148.114 132.151 148.114 132.033 148.143 131.858V128.262H149.224V131.858C149.224 132.033 149.253 132.18 149.282 132.267C149.311 132.384 149.34 132.471 149.429 132.529C149.487 132.587 149.575 132.647 149.691 132.647C149.807 132.647 149.924 132.675 150.1 132.675H150.977V133.728M147.354 125.368H148.436V126.449H147.354V125.368ZM148.991 125.368H150.073V126.449H148.991V125.368Z" fill="#C7AC87"/>
<path d="M155.015 133.728H154.02C153.582 133.728 153.231 133.61 152.938 133.406C152.676 133.61 152.325 133.728 151.856 133.728H150.861V132.675H151.534C151.71 132.675 151.856 132.675 151.943 132.646C152.061 132.617 152.148 132.588 152.205 132.529C152.263 132.471 152.323 132.382 152.352 132.266C152.381 132.151 152.381 132.033 152.41 131.858V124.139H153.491V131.858C153.491 132.033 153.52 132.18 153.549 132.266C153.578 132.384 153.607 132.471 153.696 132.529C153.754 132.586 153.842 132.646 153.958 132.646C154.076 132.675 154.191 132.675 154.367 132.675H155.04V133.728" fill="#C7AC87"/>
<path d="M154.928 132.706H155.541C155.717 132.706 155.863 132.706 155.95 132.678C156.068 132.649 156.154 132.62 156.212 132.56C156.27 132.502 156.33 132.413 156.359 132.298C156.388 132.182 156.388 132.064 156.417 131.889V125.223H155.919V124.17H157.469V132.153C157.469 132.68 157.323 133.088 157.032 133.353C156.77 133.615 156.359 133.761 155.861 133.79H154.926V132.708" fill="#C7AC87"/>
<path d="M168.144 128.671V132.706H169.606V133.759H163.993C162.882 133.73 162.298 133.233 162.238 132.238C162.238 132.062 162.209 131.858 162.209 131.625V130.894C162.209 130.661 162.238 130.396 162.238 130.163C162.238 129.93 162.267 129.725 162.296 129.55C162.354 129.081 162.529 128.673 162.822 128.38C163.084 128.058 163.466 127.824 163.933 127.707C164.488 127.56 165.043 127.531 165.57 127.62C166.096 127.738 166.594 127.971 167.06 128.351V127.62H168.611V128.673H168.142M167.091 129.87C167.091 129.783 167.033 129.666 166.916 129.519C166.798 129.372 166.623 129.257 166.447 129.139C166.243 129.022 166.038 128.906 165.803 128.817C165.568 128.728 165.335 128.671 165.101 128.642C164.517 128.613 164.077 128.728 163.786 128.993C163.495 129.257 163.349 129.723 163.318 130.367V131.742C163.318 131.947 163.318 132.093 163.347 132.24C163.375 132.358 163.404 132.473 163.493 132.533C163.551 132.591 163.669 132.651 163.786 132.68C163.904 132.708 164.079 132.708 164.255 132.708H167.12V129.872H167.091V129.87ZM163.815 125.368H164.897V126.449H163.815V125.368ZM165.454 125.368H166.536V126.449H165.454V125.368Z" fill="#C7AC87"/>
<path d="M169.517 132.706H171.534C171.709 132.706 171.856 132.706 171.942 132.678C172.06 132.649 172.147 132.62 172.205 132.56C172.262 132.5 172.322 132.413 172.351 132.298C172.38 132.182 172.38 132.064 172.409 131.889V128.731H171.911V127.678H173.462V132.151C173.462 132.678 173.315 133.086 173.024 133.351C172.762 133.613 172.351 133.759 171.854 133.788H169.515V132.706M170.336 134.781H171.418V135.863H170.336V134.781ZM171.973 134.781H173.055V135.863H171.973V134.781Z" fill="#C7AC87"/>
<path d="M175.219 129.021V127.618H179.43C180.074 127.618 180.54 127.764 180.862 128.055C181.156 128.348 181.3 128.815 181.3 129.459V133.699H174.897V132.646H180.218V129.635C180.218 129.43 180.189 129.284 180.161 129.137C180.132 129.019 180.074 128.904 180.014 128.844C179.954 128.784 179.839 128.726 179.721 128.697C179.603 128.668 179.428 128.668 179.252 128.668H176.298V128.99H175.216" fill="#C7AC87"/>
<path d="M187.646 133.728H184.547C183.437 133.699 182.852 133.202 182.793 132.207C182.793 132.031 182.764 131.827 182.764 131.594V130.863C182.764 130.63 182.793 130.365 182.793 130.132C182.793 129.899 182.821 129.694 182.85 129.519C182.908 129.05 183.084 128.642 183.377 128.348C183.639 128.026 184.021 127.793 184.487 127.675C185.043 127.529 185.598 127.5 186.124 127.589C186.651 127.706 187.148 127.94 187.615 128.32V127.589H189.165V128.642H188.668V132.677H190.129V133.73H188.668V134.665C188.668 135.103 188.581 135.514 188.405 135.865C188.23 136.216 188.026 136.509 187.733 136.713C187.439 136.946 187.088 137.122 186.709 137.211C186.3 137.297 185.889 137.328 185.394 137.297C185.189 137.268 184.985 137.24 184.781 137.211C184.576 137.182 184.401 137.124 184.196 137.035L184.314 135.953C184.372 135.982 184.489 136.011 184.636 136.04C184.783 136.069 184.929 136.098 185.105 136.127C185.251 136.156 185.427 136.185 185.573 136.214C185.72 136.242 185.835 136.242 185.895 136.242C186.479 136.242 186.89 136.096 187.181 135.834C187.472 135.572 187.619 135.161 187.679 134.577V133.728M187.646 129.87C187.646 129.783 187.588 129.666 187.47 129.519C187.353 129.372 187.177 129.257 187.002 129.139C186.797 129.021 186.593 128.906 186.358 128.817C186.122 128.728 185.889 128.671 185.656 128.642C185.072 128.613 184.632 128.728 184.341 128.993C184.05 129.257 183.903 129.723 183.872 130.367V131.742C183.872 131.947 183.872 132.093 183.901 132.24C183.93 132.357 183.959 132.473 184.048 132.533C184.105 132.591 184.223 132.651 184.341 132.679C184.458 132.708 184.634 132.708 184.809 132.708H187.675V129.872H187.646V129.87Z" fill="#C7AC87"/>
<path d="M197.528 132.706V133.759H190.071V132.706H192.235C191.271 131.361 190.744 130.485 190.685 130.103C190.656 129.87 190.627 129.666 190.627 129.49C190.627 129.315 190.656 129.139 190.685 128.993C190.713 128.846 190.771 128.731 190.86 128.613C190.918 128.495 191.007 128.38 191.122 128.291C191.531 127.882 192.233 127.678 193.199 127.678H194.163C195.127 127.678 195.829 127.882 196.24 128.291C196.326 128.378 196.444 128.495 196.502 128.642C196.589 128.759 196.648 128.904 196.677 129.051C196.706 129.197 196.735 129.373 196.735 129.548C196.735 129.723 196.706 129.928 196.648 130.132C196.591 130.308 196.444 130.63 196.211 131.067C195.977 131.505 195.598 132.062 195.129 132.733H197.526M195.598 129.81C195.627 129.577 195.569 129.373 195.422 129.197C195.276 129.022 195.071 128.904 194.778 128.817C194.72 128.788 194.66 128.788 194.574 128.759C194.516 128.731 194.427 128.731 194.312 128.731C194.196 128.731 194.078 128.702 193.932 128.702H193.348C193.085 128.702 192.821 128.731 192.588 128.819C192.326 128.906 192.119 129.024 191.915 129.199C191.828 129.286 191.768 129.375 191.768 129.461C191.739 129.548 191.768 129.666 191.768 129.812C191.797 129.93 191.944 130.221 192.266 130.718C192.559 131.187 193.025 131.858 193.641 132.706H193.698C194.927 131.01 195.569 130.046 195.6 129.812L195.598 129.81Z" fill="#C7AC87"/>
<path d="M208.434 133.728H207.527C207.059 133.728 206.708 133.611 206.417 133.377C206.27 133.495 206.066 133.582 205.833 133.64C205.599 133.697 205.306 133.726 204.984 133.726H197.47V132.673H198.581V129.779H198.083V128.726H199.633V132.673H202.206V128.2H203.316V132.673H205.362C205.48 132.673 205.595 132.645 205.655 132.556C205.713 132.498 205.773 132.409 205.802 132.294C205.831 132.207 205.859 132.089 205.859 131.943V127.587H206.941V131.827C206.941 132.003 206.97 132.149 206.999 132.236C207.028 132.353 207.057 132.44 207.146 132.498C207.203 132.556 207.292 132.616 207.408 132.616C207.525 132.645 207.641 132.645 207.816 132.645H208.401V133.726" fill="#C7AC87"/>
<path d="M208.347 132.706H208.96C209.136 132.706 209.282 132.706 209.369 132.678C209.486 132.649 209.573 132.62 209.631 132.56C209.689 132.5 209.749 132.413 209.778 132.298C209.806 132.182 209.806 132.064 209.835 131.889V125.223H209.338V124.17H210.888V132.153C210.888 132.68 210.742 133.088 210.451 133.353C210.188 133.615 209.778 133.761 209.28 133.79H208.345V132.708" fill="#C7AC87"/>
<path d="M213.873 133.728H212.82V125.161H212.352V124.139H213.873V133.728Z" fill="#C7AC87"/>
<path d="M224.544 128.671V132.706H226.005V133.759H220.392C219.282 133.73 218.698 133.233 218.638 132.238C218.638 132.062 218.609 131.858 218.609 131.625V130.894C218.609 130.661 218.638 130.396 218.638 130.163C218.638 129.93 218.667 129.725 218.695 129.55C218.753 129.081 218.929 128.673 219.222 128.38C219.484 128.058 219.866 127.824 220.332 127.707C220.888 127.56 221.443 127.531 221.97 127.62C222.496 127.738 222.993 127.971 223.46 128.351V127.62H225.01V128.673H224.542M223.493 129.87C223.493 129.783 223.435 129.666 223.318 129.519C223.2 129.372 223.024 129.257 222.849 129.139C222.645 129.022 222.44 128.906 222.205 128.817C221.97 128.728 221.736 128.671 221.503 128.642C220.919 128.613 220.479 128.728 220.188 128.993C219.897 129.257 219.75 129.723 219.719 130.367V131.742C219.719 131.947 219.719 132.093 219.748 132.24C219.777 132.358 219.806 132.473 219.895 132.533C219.953 132.591 220.07 132.651 220.188 132.68C220.306 132.708 220.481 132.708 220.657 132.708H223.522V129.872H223.493V129.87ZM220.217 125.368H221.299V126.449H220.217V125.368ZM221.854 125.368H222.936V126.449H221.854V125.368Z" fill="#C7AC87"/>
<path d="M230.041 133.728H229.046C228.608 133.728 228.258 133.61 227.964 133.406C227.702 133.61 227.351 133.728 226.883 133.728H225.888V132.675H226.561C226.736 132.675 226.883 132.675 226.969 132.646C227.087 132.618 227.174 132.589 227.232 132.529C227.289 132.469 227.349 132.382 227.378 132.267C227.407 132.151 227.407 132.033 227.436 131.858V128.262H228.518V131.858C228.518 132.033 228.546 132.18 228.575 132.267C228.604 132.384 228.633 132.471 228.722 132.529C228.78 132.587 228.869 132.646 228.984 132.646C229.102 132.675 229.246 132.675 229.393 132.675H230.066V133.728M227.585 125.337C227.585 125.541 227.671 125.688 227.789 125.805C227.907 125.923 228.051 125.981 228.227 125.981H229.162V126.418H226.881V125.981H227.318C227.201 125.805 227.143 125.572 227.143 125.308V125.103C227.143 124.928 227.172 124.781 227.229 124.635C227.287 124.488 227.376 124.373 227.492 124.284C227.607 124.195 227.725 124.108 227.871 124.051C228.018 123.993 228.193 123.964 228.369 123.964C228.487 123.964 228.631 123.964 228.749 123.993C228.866 124.022 229.011 124.051 229.129 124.079V124.724H228.66V124.49C228.602 124.461 228.542 124.461 228.485 124.461H228.338C228.134 124.461 227.958 124.519 227.812 124.637C227.694 124.755 227.607 124.93 227.607 125.192V125.339H227.578L227.585 125.337Z" fill="#C7AC87"/>
<path d="M234.661 133.728H233.462C233.024 133.728 232.673 133.61 232.38 133.406C232.118 133.61 231.767 133.728 231.298 133.728H229.983V132.675H230.978C231.154 132.675 231.3 132.675 231.387 132.646C231.505 132.617 231.591 132.589 231.649 132.529C231.707 132.469 231.767 132.382 231.796 132.267C231.825 132.151 231.825 132.033 231.854 131.858V128.262H232.935V131.858C232.935 132.033 232.964 132.18 232.993 132.267C233.022 132.384 233.051 132.471 233.14 132.529C233.197 132.586 233.286 132.646 233.402 132.646C233.519 132.675 233.635 132.675 233.81 132.675H234.688V133.728M231.123 134.781H232.204V135.863H231.123V134.781ZM232.791 134.781H233.872V135.863H232.791V134.781Z" fill="#C7AC87"/>
<path d="M241.036 126.625C241.504 126.567 241.942 126.567 242.351 126.654C242.759 126.74 243.11 126.916 243.403 127.122C243.697 127.356 243.93 127.649 244.105 128C244.281 128.351 244.368 128.759 244.368 129.199V132.677H245.771V133.73H234.543V132.677H235.421C235.363 132.531 235.334 132.355 235.334 132.18C235.334 131.829 235.305 131.507 235.334 131.156C235.334 130.805 235.363 130.454 235.421 130.132C235.479 129.663 235.654 129.255 235.947 128.962C236.209 128.64 236.591 128.406 237.058 128.289C237.526 128.171 237.964 128.113 238.404 128.171L238.17 127.616C238.579 127.382 239.019 127.147 239.516 126.972C240.043 126.796 240.54 126.678 241.038 126.621M240.245 130.483C240.245 130.396 240.187 130.279 240.07 130.132C239.952 129.985 239.776 129.87 239.601 129.752C239.397 129.635 239.192 129.519 238.957 129.43C238.722 129.341 238.488 129.284 238.255 129.255C237.671 129.226 237.231 129.341 236.94 129.606C236.649 129.87 236.502 130.336 236.471 130.98V131.74C236.471 131.945 236.471 132.091 236.5 132.238C236.529 132.355 236.558 132.471 236.618 132.531C236.678 132.591 236.765 132.648 236.88 132.677C236.996 132.706 237.142 132.706 237.318 132.735H240.241V130.483H240.245ZM241.298 132.706H243.257V129.372C243.257 129.05 243.199 128.788 243.081 128.553C242.964 128.32 242.819 128.144 242.613 127.998C242.408 127.851 242.204 127.764 241.911 127.735C241.649 127.706 241.356 127.706 241.063 127.764C240.916 127.793 240.769 127.822 240.625 127.882C240.48 127.942 240.303 127.969 240.156 128.029C240.01 128.088 239.834 128.146 239.688 128.204C239.541 128.262 239.395 128.322 239.25 128.379C239.601 128.526 239.923 128.73 240.245 128.964C240.363 129.05 240.507 129.168 240.625 129.257L240.976 129.608C241.063 129.725 241.151 129.87 241.209 129.988C241.267 130.134 241.296 130.281 241.296 130.425V132.706H241.298Z" fill="#C7AC87"/>
<path d="M245.742 132.706H246.355C246.531 132.706 246.677 132.706 246.764 132.678C246.882 132.649 246.969 132.62 247.026 132.56C247.084 132.5 247.144 132.413 247.173 132.298C247.202 132.182 247.202 132.064 247.231 131.889V125.223H246.733V124.17H248.284V132.153C248.284 132.68 248.137 133.088 247.846 133.353C247.584 133.615 247.173 133.761 246.675 133.79H245.74V132.708" fill="#C7AC87"/>
<path d="M251.269 133.728H250.216V125.161H249.718V124.139H251.269V133.728Z" fill="#C7AC87"/>
</svg>
