<svg width="310" height="207" viewBox="0 0 310 207" fill="none" xmlns="http://www.w3.org/2000/svg">
<path d="M236.073 105.911C235.745 105.707 235.13 105.42 234.31 105.172C233.121 104.803 231.48 104.516 229.51 104.803C228.854 104.927 228.156 105.09 227.419 105.335C227.337 105.377 227.295 105.377 227.215 105.418C226.845 105.542 226.476 105.705 226.106 105.909C225.778 106.072 225.491 106.238 225.163 106.442C224.465 106.853 223.767 107.344 223.072 107.879C222.291 103.203 222.661 98.8121 222.867 96.6796H222.909C224.55 97.7056 224.098 100.66 223.77 101.479C223.77 101.479 223.77 101.521 223.811 101.479C225.863 99.0185 224.878 96.3514 224.426 95.6537C224.426 95.6537 224.426 95.6124 224.467 95.6537C224.754 95.8993 225 96.145 225.206 96.434C225.863 97.2535 226.067 98.1164 226.15 98.8947C226.191 99.3055 226.191 99.675 226.15 100.003C226.15 100.086 226.15 100.166 226.108 100.249H226.15C226.724 99.1403 226.969 97.5012 226.15 95.8601C225.904 95.408 225.617 94.9993 225.206 94.5885C225.082 94.4646 224.961 94.3428 224.837 94.219V94.1777C224.961 94.219 225.082 94.2602 225.206 94.3015C225.576 94.4254 225.863 94.5885 226.15 94.7928C226.765 95.2449 227.217 95.9014 227.463 96.5558C227.667 97.0884 227.75 97.6643 227.75 98.1556C227.75 98.1556 227.791 98.1969 227.791 98.1556C228.16 96.7189 227.954 95.6537 227.463 94.8734C227.134 94.2995 226.643 93.8887 226.15 93.6017C225.822 93.3974 225.493 93.2735 225.206 93.1909C225.043 93.1496 224.878 93.1084 224.754 93.1084V93.0671C224.917 93.0671 225.041 93.0258 225.206 93.0258C225.535 93.0258 225.863 93.0671 226.15 93.1084C226.682 93.2322 227.134 93.3953 227.463 93.6409C227.995 94.0105 228.243 94.4213 228.323 94.5843H228.365C228.282 93.8453 227.954 93.2301 227.463 92.8214C227.093 92.4932 226.643 92.2475 226.15 92.1237C225.822 92.0411 225.535 91.9998 225.206 91.9998C224.796 91.9998 224.387 92.0824 224.017 92.2042C224.017 92.2042 223.976 92.2042 224.017 92.1629C224.304 91.7108 224.756 91.4651 225.206 91.3021C225.535 91.2195 225.863 91.1782 226.15 91.1782C226.437 91.1782 226.724 91.2608 226.93 91.3413C226.93 91.3413 226.971 91.3413 226.93 91.3C226.684 91.0131 226.439 90.8087 226.15 90.6435C225.861 90.4784 225.535 90.3566 225.206 90.3566C224.387 90.274 223.524 90.6022 222.95 91.4651H222.909C222.785 91.2608 222.704 91.0543 222.581 90.8087C222.335 90.2761 222.17 89.7001 222.089 89.085H222.048C221.965 89.6588 221.761 90.274 221.515 90.8087C221.433 91.013 221.311 91.2608 221.187 91.4239H221.146C220.161 89.9066 218.274 89.9479 217.166 91.2608V91.3021C217.905 90.9325 219.34 91.0564 220.079 92.0824V92.1237C218.97 91.6716 217.29 91.9606 216.346 93.0671C216.018 93.4366 215.814 93.9279 215.731 94.5431C215.731 94.5431 215.772 94.5843 215.772 94.5431C215.855 94.4192 216.018 94.1323 216.346 93.8453C216.879 93.3932 217.822 92.9019 219.342 93.0258C219.342 93.0258 219.383 93.0671 219.342 93.0671C218.561 93.1496 216.922 93.8474 216.346 95.4865C216.101 96.1842 216.018 97.0863 216.305 98.1536H216.346V98.071C216.346 96.595 217.207 94.6669 219.259 94.1735C219.259 94.1735 219.3 94.1735 219.259 94.2148C216.961 96.2255 217.168 98.7275 217.946 100.245H217.987C217.905 99.1362 217.824 97.1276 219.67 95.6103H219.711C219.3 96.3081 218.274 98.9731 220.326 101.436H220.368C220.039 100.616 219.548 97.6623 221.228 96.6363H221.27C221.433 98.7688 221.844 103.118 221.065 107.835C219.711 106.809 218.318 105.907 216.922 105.375C216.759 105.292 216.594 105.251 216.431 105.212C214.994 104.72 213.683 104.596 212.533 104.638C210.688 104.72 209.292 105.253 208.514 105.664C208.351 105.746 208.227 105.827 208.103 105.868C208.062 105.909 208.103 105.951 208.145 105.951C208.268 105.909 208.39 105.868 208.514 105.827C209.951 105.416 211.262 105.335 212.533 105.416C213.929 105.54 215.201 105.907 216.431 106.483C218.155 107.263 219.672 108.37 221.065 109.518C219.096 111.241 217.413 112.922 216.431 113.498C216.39 113.539 216.348 113.539 216.268 113.58C216.022 113.252 215.611 113.048 215.159 113.17C214.748 113.252 214.42 113.58 214.34 113.989C214.257 114.359 214.34 114.728 214.544 114.932C215.077 115.465 215.692 115.506 216.431 115.219C217.785 114.646 219.507 112.839 221.559 110.911C221.722 110.748 221.887 110.583 222.091 110.42C222.254 110.583 222.461 110.748 222.624 110.911C223.567 111.772 224.428 112.635 225.208 113.331C225.537 113.618 225.865 113.904 226.152 114.15C226.604 114.52 227.054 114.848 227.465 115.052C228.245 115.463 228.941 115.544 229.556 115.011C229.597 114.97 229.638 114.97 229.638 114.928C229.762 114.804 229.925 114.354 229.843 113.985C229.802 113.781 229.68 113.574 229.515 113.452C229.391 113.328 229.186 113.207 229.023 113.165C228.571 113.083 228.162 113.248 227.915 113.576C227.791 113.494 227.628 113.413 227.463 113.289C227.093 113.044 226.643 112.674 226.15 112.222C225.863 111.976 225.535 111.689 225.206 111.361C224.55 110.787 223.852 110.131 223.115 109.474C223.772 108.9 224.469 108.366 225.206 107.875C225.493 107.67 225.822 107.464 226.15 107.259C226.561 107.014 227.011 106.768 227.463 106.562C228.119 106.233 228.817 105.988 229.554 105.781C231.03 105.37 232.63 105.207 234.353 105.494C234.927 105.577 235.462 105.699 236.077 105.905C236.077 105.988 236.118 105.905 236.077 105.905" fill="#C7AC87"/>
<path d="M222.065 131.269L218.902 134.429L222.063 137.592L225.226 134.431L222.065 131.269Z" fill="#C7AC87"/>
<path d="M196.722 113.219L195.58 116.729L199.09 117.871L200.232 114.361L196.722 113.219Z" fill="#C7AC87"/>
<path d="M206.922 82.3634L206.441 85.4014L209.479 85.8825L209.96 82.8446L206.922 82.3634Z" fill="#C7AC87"/>
<path d="M245.663 101.047L243.488 103.222L245.663 105.397L247.838 103.222L245.663 101.047Z" fill="#C7AC87"/>
<path d="M243.837 93.8446L242.441 96.5854L245.182 97.9814L246.578 95.2405L243.837 93.8446Z" fill="#C7AC87"/>
<path d="M209.483 120.533L206.445 121.014L206.927 124.052L209.965 123.57L209.483 120.533Z" fill="#C7AC87"/>
<path d="M237.209 82.3416L234.171 82.8228L234.652 85.8607L237.69 85.3796L237.209 82.3416Z" fill="#C7AC87"/>
<path d="M215.479 123.58L212.738 124.976L214.134 127.717L216.875 126.321L215.479 123.58Z" fill="#C7AC87"/>
<path d="M222.078 77.4549L219.903 79.6299L222.078 81.8048L224.253 79.6299L222.078 77.4549Z" fill="#C7AC87"/>
<path d="M218.584 81.1204L217.089 83.1782L219.147 84.6728L220.642 82.6149L218.584 81.1204Z" fill="#C7AC87"/>
<path d="M224.997 121.659L223.502 123.717L225.56 125.211L227.055 123.154L224.997 121.659Z" fill="#C7AC87"/>
<path d="M204.606 92.3019L202.187 93.0874L202.973 95.5063L205.392 94.7208L204.606 92.3019Z" fill="#C7AC87"/>
<path d="M241.155 110.928L238.736 111.713L239.522 114.132L241.941 113.347L241.155 110.928Z" fill="#C7AC87"/>
<path d="M201.521 104.597L200.027 106.655L202.085 108.149L203.579 106.092L201.521 104.597Z" fill="#C7AC87"/>
<path d="M252.708 109.872L248.724 111.902L250.754 115.886L254.738 113.856L252.708 109.872Z" fill="#C7AC87"/>
<path d="M205.595 125.904L201.179 126.604L201.879 131.021L206.296 130.32L205.595 125.904Z" fill="#C7AC87"/>
<path d="M242.266 75.4062L237.85 76.1064L238.55 80.5226L242.966 79.8224L242.266 75.4062Z" fill="#C7AC87"/>
<path d="M194.837 104.852L192.668 107.839L195.655 110.008L197.824 107.021L194.837 104.852Z" fill="#C7AC87"/>
<path d="M214.133 78.6844L212.737 81.4253L215.478 82.8212L216.874 80.0804L214.133 78.6844Z" fill="#C7AC87"/>
<path d="M200.3 93.8604L197.559 95.2563L198.955 97.9972L201.696 96.6013L200.3 93.8604Z" fill="#C7AC87"/>
<path d="M222.072 124.633L219.898 126.808L222.072 128.983L224.247 126.808L222.072 124.633Z" fill="#C7AC87"/>
<path d="M239.516 92.2813L238.731 94.7002L241.15 95.4857L241.935 93.0667L239.516 92.2813Z" fill="#C7AC87"/>
<path d="M208.834 116.454H206.291V118.997H208.834V116.454Z" fill="#C7AC87"/>
<path d="M193.389 90.5828L189.405 92.6128L191.435 96.5968L195.419 94.5668L193.389 90.5828Z" fill="#C7AC87"/>
<path d="M191.449 109.827L189.42 113.811L193.404 115.84L195.433 111.856L191.449 109.827Z" fill="#C7AC87"/>
<path d="M208.6 76.7312L207.458 80.2412L210.968 81.383L212.11 77.873L208.6 76.7312Z" fill="#C7AC87"/>
<path d="M233.216 125.053L232.074 128.562L235.584 129.704L236.726 126.194L233.216 125.053Z" fill="#C7AC87"/>
<path d="M247.442 113.162L243.932 114.304L245.074 117.814L248.583 116.672L247.442 113.162Z" fill="#C7AC87"/>
<path d="M249.276 104.873L246.29 107.042L248.459 110.029L251.445 107.86L249.276 104.873Z" fill="#C7AC87"/>
<path d="M245.064 88.5645L243.922 92.0747L247.433 93.2159L248.574 89.7057L245.064 88.5645Z" fill="#C7AC87"/>
<path d="M243.085 82.1592H239.394V85.8502H243.085V82.1592Z" fill="#C7AC87"/>
<path d="M210.91 125.03L207.4 126.171L208.541 129.681L212.051 128.54L210.91 125.03Z" fill="#C7AC87"/>
<path d="M225.89 127.391L223.721 130.378L226.707 132.547L228.876 129.56L225.89 127.391Z" fill="#C7AC87"/>
<path d="M198.95 108.427L197.554 111.167L200.294 112.563L201.69 109.823L198.95 108.427Z" fill="#C7AC87"/>
<path d="M208.834 87.4521H206.291V89.9954H208.834V87.4521Z" fill="#C7AC87"/>
<path d="M202.11 98.2457L200.052 99.7402L201.547 101.798L203.605 100.304L202.11 98.2457Z" fill="#C7AC87"/>
<path d="M232.223 83.3522L229.804 84.1377L230.589 86.5566L233.008 85.7711L232.223 83.3522Z" fill="#C7AC87"/>
<path d="M225.571 81.1798L223.513 82.6743L225.008 84.7321L227.065 83.2376L225.571 81.1798Z" fill="#C7AC87"/>
<path d="M237.363 112.498L235.297 112.825L235.624 114.89L237.69 114.563L237.363 112.498Z" fill="#C7AC87"/>
<path d="M239.89 101.708L238.412 103.188L239.892 104.665L241.37 103.186L239.89 101.708Z" fill="#C7AC87"/>
<path d="M250.775 90.5596L248.746 94.5439L252.73 96.5732L254.76 92.5888L250.775 90.5596Z" fill="#C7AC87"/>
<path d="M243.085 120.556H239.394V124.247H243.085V120.556Z" fill="#C7AC87"/>
<path d="M199.083 88.5598L195.573 89.7017L196.714 93.2116L200.224 92.0698L199.083 88.5598Z" fill="#C7AC87"/>
<path d="M235.592 76.6897L232.082 77.8315L233.224 81.3415L236.734 80.1997L235.592 76.6897Z" fill="#C7AC87"/>
<path d="M217.414 73.8182L215.245 76.8047L218.231 78.9737L220.4 75.9872L217.414 73.8182Z" fill="#C7AC87"/>
<path d="M245.166 108.419L242.426 109.815L243.822 112.556L246.562 111.16L245.166 108.419Z" fill="#C7AC87"/>
<path d="M198.489 101.045L196.314 103.22L198.489 105.395L200.664 103.22L198.489 101.045Z" fill="#C7AC87"/>
<path d="M242.628 104.645L240.57 106.139L242.065 108.197L244.123 106.702L242.628 104.645Z" fill="#C7AC87"/>
<path d="M213.593 119.903L211.174 120.689L211.96 123.108L214.379 122.322L213.593 119.903Z" fill="#C7AC87"/>
<path d="M222.05 119.559L220.571 121.037L222.049 122.516L223.528 121.038L222.05 119.559Z" fill="#C7AC87"/>
<path d="M210.716 87.5991L210.389 89.6646L212.455 89.9913L212.781 87.9258L210.716 87.5991Z" fill="#C7AC87"/>
<path d="M204.669 107.293L203.72 109.157L205.583 110.106L206.532 108.242L204.669 107.293Z" fill="#C7AC87"/>
<path d="M204.732 82.1592H201.041V85.8502H204.732V82.1592Z" fill="#C7AC87"/>
<path d="M226.733 73.8603L223.747 76.0293L225.916 79.0158L228.903 76.8468L226.733 73.8603Z" fill="#C7AC87"/>
<path d="M228.707 123.574L227.311 126.314L230.052 127.71L231.448 124.97L228.707 123.574Z" fill="#C7AC87"/>
<path d="M201.731 115.312L201.25 118.35L204.288 118.831L204.769 115.793L201.731 115.312Z" fill="#C7AC87"/>
<path d="M239.903 87.5528L239.422 90.5908L242.46 91.072L242.941 88.034L239.903 87.5528Z" fill="#C7AC87"/>
<path d="M237.836 116.454H235.293V118.997H237.836V116.454Z" fill="#C7AC87"/>
<path d="M242.059 98.1776L240.564 100.235L242.622 101.73L244.117 99.6721L242.059 98.1776Z" fill="#C7AC87"/>
<path d="M219.169 121.701L217.112 123.195L218.606 125.253L220.664 123.759L219.169 121.701Z" fill="#C7AC87"/>
<path d="M216.105 84.8197L215.156 86.6831L217.019 87.6322L217.968 85.7687L216.105 84.8197Z" fill="#C7AC87"/>
<path d="M227.108 118.774L226.159 120.637L228.022 121.586L228.971 119.723L227.108 118.774Z" fill="#C7AC87"/>
<path d="M231.659 116.422L231.332 118.487L233.397 118.814L233.724 116.749L231.659 116.422Z" fill="#C7AC87"/>
<path d="M205.571 96.2804L203.707 97.2295L204.656 99.0929L206.52 98.1439L205.571 96.2804Z" fill="#C7AC87"/>
<path d="M239.498 107.316L237.635 108.265L238.584 110.128L240.447 109.179L239.498 107.316Z" fill="#C7AC87"/>
<path d="M206.75 112.502L206.423 114.567L208.489 114.894L208.815 112.829L206.75 112.502Z" fill="#C7AC87"/>
<path d="M233.432 87.5897L231.367 87.9165L231.694 89.982L233.759 89.6552L233.432 87.5897Z" fill="#C7AC87"/>
<path d="M217.017 118.758L215.154 119.707L216.103 121.57L217.966 120.621L217.017 118.758Z" fill="#C7AC87"/>
<path d="M201.866 75.3919L201.165 79.8081L205.582 80.5083L206.282 76.0922L201.866 75.3919Z" fill="#C7AC87"/>
<path d="M238.554 125.869L237.854 130.286L242.27 130.986L242.971 126.57L238.554 125.869Z" fill="#C7AC87"/>
<path d="M222.075 68.8687L218.912 72.0293L222.072 75.1921L225.235 72.0315L222.075 68.8687Z" fill="#C7AC87"/>
<path d="M195.685 96.4286L192.698 98.5977L194.867 101.584L197.854 99.4151L195.685 96.4286Z" fill="#C7AC87"/>
<path d="M248.465 96.3563L246.296 99.3428L249.282 101.512L251.451 98.5253L248.465 96.3563Z" fill="#C7AC87"/>
<path d="M204.732 120.556H201.041V124.247H204.732V120.556Z" fill="#C7AC87"/>
<path d="M218.228 127.442L215.241 129.611L217.41 132.598L220.397 130.429L218.228 127.442Z" fill="#C7AC87"/>
<path d="M234.669 120.537L234.188 123.575L237.226 124.056L237.707 121.018L234.669 120.537Z" fill="#C7AC87"/>
<path d="M204.273 87.5965L201.235 88.0776L201.717 91.1156L204.755 90.6345L204.273 87.5965Z" fill="#C7AC87"/>
<path d="M242.462 115.322L239.424 115.803L239.905 118.841L242.943 118.36L242.462 115.322Z" fill="#C7AC87"/>
<path d="M230.041 78.709L227.3 80.105L228.696 82.8458L231.437 81.4499L230.041 78.709Z" fill="#C7AC87"/>
<path d="M211.961 83.3081L211.176 85.7271L213.595 86.5125L214.38 84.0936L211.961 83.3081Z" fill="#C7AC87"/>
<path d="M230.577 119.863L229.791 122.282L232.21 123.067L232.996 120.648L230.577 119.863Z" fill="#C7AC87"/>
<path d="M202.963 110.905L202.178 113.324L204.597 114.11L205.382 111.691L202.963 110.905Z" fill="#C7AC87"/>
<path d="M237.836 87.4521H235.293V89.9954H237.836V87.4521Z" fill="#C7AC87"/>
<path d="M222.07 83.9049L220.591 85.3828L222.069 86.8623L223.548 85.3844L222.07 83.9049Z" fill="#C7AC87"/>
<path d="M208.488 91.538L206.422 91.8647L206.749 93.9302L208.814 93.6035L208.488 91.538Z" fill="#C7AC87"/>
<path d="M204.207 101.72L202.729 103.2L204.208 104.678L205.686 103.198L204.207 101.72Z" fill="#C7AC87"/>
<path d="M238.585 96.2626L237.636 98.126L239.499 99.075L240.448 97.2116L238.585 96.2626Z" fill="#C7AC87"/>
<path d="M235.62 91.5117L235.293 93.5771L237.359 93.9039L237.686 91.8384L235.62 91.5117Z" fill="#C7AC87"/>
<path d="M212.426 116.433L210.361 116.76L210.688 118.825L212.753 118.498L212.426 116.433Z" fill="#C7AC87"/>
<path d="M228.016 84.8449L226.153 85.7939L227.102 87.6574L228.965 86.7083L228.016 84.8449Z" fill="#C7AC87"/>
<path d="M62.8817 84.8262H65.5488V97.4599C65.5488 101.686 63.5794 103.614 60.1341 103.614C56.9343 103.614 54.965 101.931 54.965 97.912C54.965 96.7642 55.128 95.4926 55.4171 94.3015L58.1647 93.8101C57.7952 95.0818 57.5908 96.436 57.5908 97.6663C57.5908 100.742 58.9037 101.522 60.3384 101.522C61.7731 101.522 62.8817 100.579 62.8817 97.6663V84.8262Z" fill="#C7AC87"/>
<path d="M75.1046 91.7168C75.1046 91.7168 74.3243 91.3473 73.2178 91.3473C71.7005 91.3473 70.8376 92.495 70.8376 94.0557C70.8376 95.8599 71.7397 96.8446 73.833 96.8446H75.1046V91.7168ZM68.3356 103.777L68.4987 101.603C68.4987 101.603 70.0573 101.931 71.6159 101.931C73.707 101.931 75.1025 101.151 75.1025 99.264V98.977H73.5027C69.6052 98.977 68.1292 97.1728 68.1292 94.3426C68.1292 91.7168 69.7704 89.2974 73.4201 89.2974C75.8003 89.2974 77.6458 89.9951 77.6458 89.9951V96.8859H79.6977V98.977H77.6458V99.0183C77.6458 101.807 75.8416 104.022 71.3702 104.022C69.8942 104.022 68.3356 103.777 68.3356 103.777Z" fill="#C7AC87"/>
<path d="M81.8736 96.8862H79.4542V98.9774H81.8736V96.8862Z" fill="#C7AC87"/>
<path d="M84.006 96.8862H81.5866V98.9774H84.006V96.8862Z" fill="#C7AC87"/>
<path d="M86.1385 96.8862H83.7191V98.9774H86.1385V96.8862Z" fill="#C7AC87"/>
<path d="M88.2317 96.8862H85.8123V98.9774H88.2317V96.8862Z" fill="#C7AC87"/>
<path d="M90.3642 96.8862H87.9448V98.9774H90.3642V96.8862Z" fill="#C7AC87"/>
<path d="M92.4966 96.8862H90.0772V98.9774H92.4966V96.8862Z" fill="#C7AC87"/>
<path d="M94.6311 96.8862H92.2117V98.9774H94.6311V96.8862Z" fill="#C7AC87"/>
<path d="M96.7636 96.8862H94.3442V98.9774H96.7636V96.8862Z" fill="#C7AC87"/>
<path d="M98.896 96.8862H96.4766V98.9774H98.896V96.8862Z" fill="#C7AC87"/>
<path d="M101.031 96.8862H98.6111V98.9774H101.031V96.8862Z" fill="#C7AC87"/>
<path d="M99.5132 97.9118C99.5132 97.2967 100.333 96.8859 100.702 96.8859H107.717C107.758 96.3945 107.799 95.8599 107.799 95.3686C107.799 92.8253 106.773 91.5124 103.902 91.5124C103.122 91.5124 102.385 91.595 101.646 91.7168V89.6648C102.426 89.541 103.287 89.4604 104.148 89.4604C108.66 89.4604 110.465 91.4298 110.465 95.286C110.465 95.7773 110.423 96.312 110.382 96.9271H111.654V99.0183H100.742C100.331 98.977 99.5112 98.5662 99.5112 97.9098" fill="#C7AC87"/>
<path d="M116.536 85.563C117.233 85.563 117.849 86.1369 117.849 86.8759C117.849 87.5737 117.275 88.1888 116.536 88.1888C115.797 88.1888 115.223 87.5737 115.223 86.8759C115.223 86.1369 115.797 85.563 116.536 85.563ZM113.336 85.563C114.075 85.563 114.649 86.1369 114.649 86.8759C114.649 87.6149 114.075 88.1888 113.336 88.1888C112.556 88.1888 112.023 87.5737 112.023 86.8759C112.023 86.1369 112.597 85.563 113.336 85.563ZM111.327 98.977C110.917 98.977 110.138 98.5662 110.138 97.9511C110.138 97.3359 110.958 96.9251 111.327 96.9251H113.708V89.5822H116.375V99.0163H111.329V98.975L111.327 98.977Z" fill="#C7AC87"/>
<path d="M130.648 100.29C131.428 100.29 132.002 100.864 132.002 101.644C132.002 102.425 131.387 102.998 130.648 102.998C129.867 102.998 129.293 102.383 129.293 101.644C129.293 100.905 129.867 100.29 130.648 100.29ZM129.335 98.9771C126.381 98.9771 125.561 99.9618 125.561 101.192C125.561 102.301 126.546 103.325 128.885 103.325L128.722 105.416C124.783 105.416 122.979 103.692 122.979 101.355C122.979 98.812 124.865 96.8839 129.461 96.8839H130.815C130.856 96.3926 130.897 95.8579 130.897 95.3666C130.897 92.8234 129.871 91.5104 126.959 91.5104C126.139 91.5104 125.4 91.5517 124.661 91.6735V89.6216C125.441 89.539 126.385 89.4585 127.246 89.4585C131.758 89.4585 133.562 91.4279 133.562 95.284C133.562 95.7754 133.562 96.31 133.48 96.9252H134.751V99.0164H129.337V98.9751L129.335 98.9771Z" fill="#C7AC87"/>
<path d="M143.118 94.2188C143.118 92.2082 142.299 91.3886 140.986 91.3886C139.468 91.3886 138.605 92.5364 138.605 94.097C138.605 95.9838 139.508 96.886 141.601 96.886H143.118V94.2188ZM134.38 98.9771C133.969 98.9771 133.191 98.5663 133.191 97.9512C133.191 97.336 134.01 96.9252 134.38 96.9252H135.938C136.636 96.9252 137.047 97.049 137.047 97.049C136.308 96.5164 135.938 95.6123 135.938 94.1776C135.938 91.6343 137.701 89.2954 141.149 89.2954C144.266 89.2954 145.703 91.0996 145.703 93.9298V99.0164H134.38V98.9751V98.9771Z" fill="#C7AC87"/>
<path d="M148.574 84.8262H151.241V96.886H153.291V98.9772H148.574V84.8262Z" fill="#C7AC87"/>
<path d="M156.697 85.5239C157.436 85.5239 158.093 86.1391 158.093 86.9194C158.093 87.6997 157.436 88.3149 156.697 88.3149C155.917 88.3149 155.302 87.6584 155.302 86.9194C155.302 86.1804 155.958 85.5239 156.697 85.5239ZM153.004 98.9772C152.594 98.9772 151.815 98.5664 151.815 97.9512C151.815 97.336 152.635 96.9252 153.004 96.9252H155.384V89.5824H158.052V99.0164H153.006V98.9751L153.004 98.9772Z" fill="#C7AC87"/>
<path d="M158.336 103.859L158.541 101.768C159.032 101.892 159.526 102.014 160.182 102.014C161.536 102.014 162.356 101.357 162.356 99.1834V89.543H165.023V96.8858H167.075V98.977H165.023V99.0595C165.023 101.644 164.121 104.063 160.06 104.063C159.404 104.063 158.83 103.981 158.336 103.859Z" fill="#C7AC87"/>
<path d="M169.822 100.29C170.603 100.29 171.177 100.864 171.177 101.644C171.177 102.425 170.561 102.999 169.822 102.999C169.042 102.999 168.468 102.383 168.468 101.644C168.468 100.905 169.042 100.29 169.822 100.29ZM166.255 98.9773C165.844 98.9773 165.066 98.5665 165.066 97.9513C165.066 97.3362 165.886 96.9254 166.255 96.9254H168.635V89.5825H171.303V99.0165H166.257V98.9752L166.255 98.9773Z" fill="#C7AC87"/>
<path d="M63.2904 126.053C63.9881 126.053 64.6033 126.627 64.6033 127.366C64.6033 128.063 64.0294 128.679 63.2904 128.679C62.5514 128.679 61.9775 128.063 61.9775 127.366C61.9775 126.627 62.5514 126.053 63.2904 126.053ZM60.0494 126.053C60.7471 126.053 61.3623 126.627 61.3623 127.366C61.3623 128.063 60.7884 128.679 60.0494 128.679C59.3104 128.679 58.7365 128.063 58.7365 127.366C58.7365 126.627 59.3517 126.053 60.0494 126.053ZM62.2644 124.575C56.8084 124.575 54.8803 122.318 54.8803 118.627C54.8803 117.56 55.0847 116.288 55.4129 115.469L58.2431 115.017C57.791 115.96 57.5454 117.273 57.5454 118.34C57.5454 121.171 58.7757 122.484 62.5493 122.484H63.9035V115.265C63.9035 115.265 65.7903 114.895 67.9641 114.895C71.492 114.895 72.5593 116.577 72.5593 119.325V122.484H74.2004V124.575H70.016V119.612C70.016 117.684 69.4421 116.986 67.801 116.986C67.1445 116.986 66.4881 117.11 66.4881 117.11V124.616H62.2624V124.575H62.2644Z" fill="#C7AC87"/>
<path d="M72.6852 123.549C72.6852 122.934 73.5048 122.523 73.8743 122.523H80.8889C80.9302 122.032 80.9715 121.497 80.9715 121.006C80.9715 118.463 79.9455 117.15 77.074 117.15C76.2937 117.15 75.5567 117.232 74.8177 117.354V115.302C75.598 115.178 76.4588 115.098 77.3197 115.098C81.8323 115.098 83.6365 117.067 83.6365 120.923C83.6365 121.415 83.5952 121.949 83.5539 122.564H84.8256V124.656H73.9135C73.5027 124.573 72.6832 124.203 72.6832 123.547" fill="#C7AC87"/>
<path d="M92.7444 122.525C95.2463 122.525 95.9441 121.253 95.9441 119.653C95.9441 118.054 95.2876 117.028 93.8921 117.028C91.7184 117.028 89.9534 119.695 89.5446 122.525H92.7444ZM84.4994 124.575C84.0886 124.575 83.3104 124.164 83.3104 123.549C83.3104 122.934 84.1299 122.523 84.4994 122.523H86.8796V115.18H89.5467V115.671C89.5467 116.573 89.5054 117.682 89.3011 118.625H89.3423C90.2445 116.206 92.2964 114.893 94.4289 114.893C97.2178 114.893 98.6546 116.617 98.6546 119.447C98.6546 120.595 98.4089 121.662 97.7937 122.482H99.9675V124.573H84.5015L84.4994 124.575Z" fill="#C7AC87"/>
<path d="M99.635 124.575C99.2242 124.575 98.446 124.164 98.446 123.549C98.446 122.934 99.2655 122.523 99.635 122.523H102.015V110.463H104.682V124.616H99.6371V124.575H99.635Z" fill="#C7AC87"/>
<path d="M110.549 110.424H107.882V124.577H110.549V110.424Z" fill="#C7AC87"/>
<path d="M117.192 126.216C117.192 124.533 118.423 123.181 121.007 121.99C119.407 121.949 118.012 120.801 118.012 118.956C118.012 116.575 119.775 114.895 123.14 114.895C124.124 114.895 125.068 115.099 125.068 115.099L124.739 117.191C124.739 117.191 123.92 116.945 123.057 116.945C121.62 116.945 120.718 117.806 120.718 118.914C120.718 120.76 122.605 121.212 124.205 120.432L125.189 119.94L126.05 121.786L122.522 123.509C120.718 124.412 119.896 125.068 119.896 125.929C119.896 126.914 120.716 127.611 123.179 127.611C124.737 127.611 126.174 127.366 126.174 127.366L126.337 129.376C126.337 129.376 124.574 129.705 122.892 129.705C118.831 129.705 117.19 128.146 117.19 126.218" fill="#C7AC87"/>
<path d="M128.598 110.424H131.263V122.525H133.315V124.575H128.598V110.424Z" fill="#C7AC87"/>
<path d="M141.273 122.525C143.775 122.525 144.472 121.253 144.472 119.653C144.472 118.053 143.816 117.027 142.42 117.027C140.247 117.027 138.482 119.695 138.073 122.525H141.273ZM133.028 124.575C132.617 124.575 131.839 124.164 131.839 123.549C131.839 122.934 132.658 122.523 133.028 122.523H135.408V110.463H138.075V115.673C138.075 116.575 138.034 117.684 137.829 118.627H137.871C138.773 116.208 140.825 114.895 142.957 114.895C145.746 114.895 147.183 116.619 147.183 119.449C147.183 120.597 146.937 121.664 146.322 122.484H148.496V124.575H133.03H133.028Z" fill="#C7AC87"/>
<path d="M156.204 111.202C156.902 111.202 157.517 111.776 157.517 112.515C157.517 113.213 156.943 113.828 156.204 113.828C155.465 113.828 154.891 113.213 154.891 112.515C154.891 111.776 155.506 111.202 156.204 111.202ZM156.778 119.734C156.778 117.971 156.08 116.986 154.563 116.986C153.415 116.986 152.306 117.806 152.306 119.695C152.306 121.584 153.046 122.525 154.522 122.525C155.793 122.525 156.778 121.582 156.778 119.736M153.004 111.202C153.743 111.202 154.317 111.776 154.317 112.515C154.317 113.254 153.743 113.828 153.004 113.828C152.224 113.828 151.691 113.213 151.691 112.515C151.691 111.776 152.265 111.202 153.004 111.202ZM148.163 124.575C147.753 124.575 146.974 124.164 146.974 123.549C146.974 122.934 147.794 122.523 148.163 122.523H149.352C149.968 122.523 150.583 122.606 150.583 122.606C149.968 121.99 149.639 121.047 149.639 119.897C149.639 117.026 151.691 114.893 154.767 114.893C157.597 114.893 159.402 116.369 159.402 119.569C159.402 120.717 158.991 121.949 158.254 122.603C158.254 122.603 159.115 122.521 159.812 122.521H160.673V124.612H148.161V124.571L148.163 124.575Z" fill="#C7AC87"/>
<path d="M160.388 124.575C159.978 124.575 159.199 124.164 159.199 123.549C159.199 122.934 160.019 122.523 160.388 122.523H162.769V110.463H165.436V124.616H160.39V124.575H160.388Z" fill="#C7AC87"/>
<path d="M171.259 110.424H168.592V124.577H171.259V110.424Z" fill="#C7AC87"/>
</svg>
