<svg width="310" height="207" viewBox="0 0 310 207" fill="none" xmlns="http://www.w3.org/2000/svg">
<path d="M190.889 139.399L190.168 139.55L187.258 142.46C196.56 140.481 210.001 139.25 224.913 139.25C239.826 139.25 253.267 140.51 262.569 142.46L265.69 139.339C256.12 137.328 242.557 136.189 228.425 136.189C214.204 136.189 200.492 137.359 190.891 139.399H190.889Z" fill="#C7AC87"/>
<path d="M190.199 139.55L190.35 138.829C192.39 129.228 193.56 115.517 193.56 101.236C193.56 86.9545 192.421 73.5425 190.439 63.9702L187.318 67.0915C189.297 76.4223 190.528 89.8342 190.528 104.776C190.528 119.718 189.297 133.13 187.318 142.46L190.197 139.55H190.199Z" fill="#C7AC87"/>
<path d="M265.508 64.1807C255.876 66.1315 242.435 67.271 228.454 67.271C214.472 67.271 201.031 66.1604 191.399 64.1807C193.35 73.8108 194.489 87.2537 194.489 101.235C194.489 115.217 193.381 128.689 191.399 138.319C201.031 136.368 214.472 135.229 228.454 135.229C242.435 135.229 255.876 136.339 265.508 138.319C263.558 128.718 262.418 115.246 262.418 101.235C262.418 87.2248 263.558 73.8108 265.508 64.1807ZM240.747 82.322C240.747 82.322 240.753 82.3282 240.755 82.3323C240.767 82.3406 240.778 82.3489 240.786 82.3592C240.852 82.4314 240.875 82.5697 240.875 82.7535L240.846 82.9021L240.994 82.9331C241.025 82.9331 242.016 83.0528 241.956 84.312V84.4338L242.045 84.4937C242.045 84.4937 242.076 84.5123 242.126 84.5453C242.142 84.5536 242.159 84.566 242.179 84.5804C242.212 84.6031 242.25 84.6279 242.289 84.6588C242.314 84.6774 242.342 84.6981 242.369 84.7208C242.631 84.9293 242.966 85.2596 243.036 85.6332C243.065 85.7179 243.071 85.8004 243.063 85.8851C243.057 85.9222 243.055 85.9614 243.042 85.9986C243.028 86.0564 243.005 86.1142 242.976 86.1741C242.856 86.1741 242.586 86.203 242.285 86.203C242.134 86.203 241.996 86.1968 241.87 86.1844C241.839 86.1844 241.808 86.1803 241.777 86.1761C241.746 86.172 241.717 86.1679 241.688 86.1637C241.387 86.1245 241.174 86.0399 241.056 85.9036L241.025 85.8727H240.994C240.994 85.8727 239.975 85.5733 239.046 84.8219L238.955 84.7621L238.866 84.8219C238.866 84.8219 238.771 84.8756 238.6 84.9169C238.581 84.921 238.561 84.9272 238.54 84.9313C238.503 84.9396 238.466 84.9479 238.424 84.9541C238.387 84.9602 238.348 84.9644 238.307 84.9664C238.28 84.9685 238.255 84.9706 238.228 84.9706C238.212 84.9726 238.193 84.9726 238.175 84.9726C238.063 84.9726 237.95 84.9623 237.838 84.9396C237.493 84.8818 237.151 84.7105 236.824 84.4338L236.723 84.3554H236.721L236.705 84.343L236.614 84.4627C236.614 84.4627 236.525 84.5825 236.346 84.6423L236.195 84.6733L236.044 84.7022H236.015C235.98 84.7022 235.943 84.7001 235.906 84.696C235.898 84.696 235.889 84.696 235.881 84.6939C235.865 84.6919 235.848 84.6898 235.832 84.6878C235.805 84.6836 235.778 84.6795 235.751 84.6733C235.718 84.6671 235.683 84.6588 235.646 84.6485C235.615 84.6403 235.584 84.63 235.551 84.6196C235.328 84.5433 235.084 84.4132 234.845 84.2233L234.694 84.1324L234.605 84.312C234.605 84.312 234.364 84.8529 233.255 84.8529C233.074 84.8529 232.894 84.8219 232.683 84.8219C232.504 84.7621 231.034 84.1923 229.804 83.9219L229.488 83.8765L229.385 83.862L229.413 83.8331C229.804 83.6824 230.254 83.5338 230.675 83.412C231.364 83.2324 231.934 83.0838 231.934 83.0838H231.965C233.045 82.5718 233.284 81.9732 233.344 81.6429C233.794 81.6429 234.124 81.5231 234.364 81.4034L234.424 81.3724C234.455 81.3724 235.204 81.0731 235.805 81.0731C236.075 81.0731 236.255 81.133 236.346 81.2217C236.374 81.2651 236.395 81.3126 236.405 81.3704C236.42 81.4344 236.42 81.5045 236.405 81.583L236.374 81.8534L236.447 81.8266L236.614 81.7626C236.614 81.7626 237.636 81.3435 238.294 81.3435C238.505 81.3435 238.656 81.4034 238.715 81.4922C238.72 81.5004 238.724 81.5107 238.728 81.5211C238.753 81.5892 238.767 81.6945 238.715 81.8225L238.656 82.0619L238.771 82.0475L238.895 82.033C238.895 82.033 239.194 81.9732 239.584 81.9732C240.146 81.9732 240.563 82.0888 240.747 82.322ZM239.285 92.204C239.285 92.204 238.445 91.3948 237.755 90.0426L237.7 89.9291L237.696 89.9229L237.576 89.9539H237.485C237.469 89.958 237.452 89.9601 237.433 89.9621C237.372 89.9662 237.297 89.9621 237.215 89.9435C237.19 89.9394 237.161 89.9332 237.132 89.9229C237.099 89.9126 237.064 89.9002 237.027 89.8857C236.705 89.7619 236.286 89.4357 235.918 88.7091C235.902 88.676 235.883 88.6409 235.865 88.6038L235.774 88.4531L235.625 88.5728C235.625 88.5728 235.534 88.6327 235.386 88.6327C235.237 88.6327 234.995 88.5728 234.694 88.2735L234.545 88.1228C234.395 87.9432 234.215 87.7326 234.064 87.4333L233.945 87.2228L233.885 87.3425L233.825 87.4333H233.823C233.798 87.4395 233.724 87.553 233.555 87.6108C233.495 87.6315 233.425 87.6439 233.344 87.6439C233.315 87.6439 233.286 87.6418 233.255 87.6397C233.226 87.6377 233.195 87.6336 233.164 87.6294C233.14 87.6253 233.117 87.6212 233.092 87.615C233.053 87.6088 233.014 87.5985 232.972 87.5861C232.69 87.5076 232.372 87.3404 232.025 87.0741C232.015 87.0638 232.002 87.0473 231.984 87.0266C231.967 87.006 231.946 86.9833 231.922 86.9544C231.887 86.9172 231.847 86.8739 231.804 86.8243C231.373 86.3516 230.425 85.3566 229.593 84.6423C229.575 84.6238 229.556 84.6052 229.535 84.5887C229.405 84.4689 229.275 84.3864 229.143 84.2831L228.844 84.1035H228.875L229.114 84.1324C230.464 84.2831 232.564 85.1233 232.595 85.1233H232.624C232.834 85.1522 233.045 85.1522 233.255 85.1522C234.215 85.1522 234.634 84.793 234.814 84.5536C235.264 84.8219 235.654 84.9726 236.075 84.9726H236.135L236.075 85.2121L236.015 85.4227H236.224C236.676 85.4227 237.875 85.5424 238.146 86.0234C238.156 86.0399 238.164 86.0585 238.172 86.077C238.226 86.2154 238.195 86.3764 238.115 86.5622L238.026 86.7438L238.206 86.8037C238.206 86.8037 239.405 87.1629 239.766 87.9143C239.886 88.1538 239.915 88.3932 239.826 88.6637L239.795 88.7834L239.886 88.8433C239.915 88.8742 240.815 89.5038 240.456 90.9427V91.0046L240.485 91.0645C240.485 91.0934 241.56 92.6437 240.972 93.455C240.97 93.457 240.968 93.4612 240.966 93.4632C240.515 93.3146 239.556 92.8336 239.316 92.2639V92.2329L239.285 92.204ZM235.955 92.4146C235.984 92.4435 236.434 93.1949 235.654 93.8245L235.594 93.8844L235.625 94.0041C235.648 94.2002 235.714 94.7183 235.606 95.0982C235.59 95.1519 235.571 95.2035 235.547 95.2509C235.534 95.2757 235.52 95.3005 235.505 95.3232L235.175 95.5647C234.785 95.1746 234.275 94.4851 234.304 94.0949V94.064L234.275 94.0041C234.275 94.0041 234.273 94 234.271 93.9938C234.271 93.9876 234.265 93.9773 234.259 93.9649C234.25 93.9442 234.24 93.9194 234.228 93.8844C234.133 93.6201 233.918 92.9472 233.86 92.1462C233.858 92.1379 233.858 92.1297 233.858 92.1214C233.858 92.0987 233.858 92.076 233.854 92.0533L233.825 91.9336L233.734 91.9047C233.705 91.8737 232.894 91.5434 232.865 90.2842V90.1335H232.714C232.683 90.1335 232.025 90.1046 231.874 88.7524L231.843 88.5728L231.664 88.6327C231.664 88.6327 231.094 88.8144 230.345 87.584C230.285 87.3734 229.744 85.8128 229.143 84.7621C229.188 84.7972 229.236 84.8343 229.281 84.8735C230.402 85.7942 231.785 87.3446 231.814 87.3735L231.843 87.4023C232.415 87.8235 232.925 88.034 233.344 88.034C233.614 88.034 233.825 87.9432 233.945 87.8524C234.079 88.0382 234.188 88.2012 234.294 88.3396C234.308 88.3581 234.32 88.3767 234.335 88.3932L234.275 88.4531L234.164 88.5336L234.064 88.6038L234.275 88.7524C234.803 89.0579 235.512 89.6236 235.588 89.9663C235.594 89.9931 235.596 90.0179 235.594 90.0426L235.415 90.2532L235.301 90.3193L235.204 90.3729L235.386 90.5546C235.613 90.7817 236.195 91.4175 236.224 91.8923C236.226 91.9191 236.226 91.9418 236.224 91.9645L236.015 92.3237L235.947 92.3753L235.896 92.4146H235.955ZM216.381 90.1995C216.383 90.1665 216.388 90.1335 216.392 90.1025C216.396 90.0674 216.4 90.0323 216.404 89.9972C216.412 89.9435 216.423 89.894 216.435 89.8445C216.588 89.1942 217.001 88.8949 217.023 88.8742L217.112 88.8144L217.083 88.6926C216.992 88.4242 217.023 88.1827 217.112 87.9432C217.473 87.1938 218.673 86.8326 218.673 86.8326L218.852 86.7727L218.764 86.5931C218.673 86.3826 218.642 86.203 218.733 86.0523C218.939 85.6869 219.688 85.53 220.231 85.4784C220.254 85.4743 220.277 85.4722 220.297 85.4722C220.341 85.4701 220.384 85.466 220.423 85.4639C220.465 85.4598 220.504 85.4578 220.539 85.4578C220.593 85.4557 220.642 85.4536 220.683 85.4536H220.863L220.803 85.2431L220.772 85.0036H220.863C220.863 85.0036 220.877 85.0036 220.886 85.0015H220.888C221.241 84.9974 221.654 84.8467 222.093 84.5825C222.106 84.599 222.12 84.6176 222.137 84.6361C222.182 84.6919 222.246 84.7559 222.329 84.8178C222.343 84.8302 222.36 84.8426 222.378 84.8529C222.399 84.8694 222.422 84.8839 222.446 84.8983C222.471 84.9128 222.496 84.9272 222.523 84.9417C222.55 84.9561 222.578 84.9706 222.607 84.983C222.626 84.9912 222.645 84.9995 222.663 85.0077C222.686 85.016 222.709 85.0263 222.731 85.0325C222.756 85.0428 222.781 85.0511 222.806 85.0614C222.834 85.0697 222.861 85.0779 222.89 85.0862C222.929 85.0986 222.971 85.1089 223.014 85.1192C223.194 85.1584 223.404 85.1832 223.654 85.1832C223.788 85.1832 223.941 85.1832 224.096 85.1708C224.156 85.1667 224.22 85.1605 224.284 85.1522H224.313C224.344 85.1522 226.443 84.312 227.793 84.1634L228.008 84.1366L228.035 84.1324H228.063L228.026 84.1552L227.764 84.312L227.314 84.6733C227.236 84.7373 227.157 84.8054 227.079 84.8756C226.994 84.9499 226.907 85.0263 226.823 85.1047C226.703 85.2121 226.583 85.3236 226.466 85.4371C226.398 85.499 226.331 85.5651 226.265 85.6291C226.119 85.7715 225.978 85.9119 225.844 86.0481C225.772 86.1225 225.702 86.1947 225.632 86.2649C225.63 86.269 225.628 86.2732 225.623 86.2752C225.572 86.3289 225.522 86.3826 225.475 86.4321C225.392 86.5168 225.316 86.5973 225.248 86.6695C225.198 86.7211 225.153 86.7707 225.111 86.814C224.979 86.9585 224.888 87.0617 224.853 87.103C224.405 87.4189 224.005 87.6191 223.671 87.6645C223.623 87.6707 223.578 87.6728 223.532 87.6728C223.487 87.6728 223.446 87.6728 223.408 87.6645C223.165 87.6274 223.068 87.487 223.055 87.4663H223.053L222.993 87.3735L222.921 87.2764L222.903 87.2537L222.783 87.4643C222.603 87.7636 222.453 88.0031 222.273 88.1538L222.153 88.3024C222.017 88.4386 221.893 88.5253 221.786 88.5811C221.782 88.5831 221.778 88.5831 221.773 88.5852C221.647 88.6471 221.544 88.6637 221.464 88.6637L221.222 88.6038L221.105 88.5088L221.074 88.4841L220.983 88.6637C220.652 89.3717 220.279 89.7268 219.965 89.9023C219.942 89.9146 219.918 89.927 219.895 89.9373C219.666 90.055 219.474 90.0736 219.362 90.0736H219.273L219.21 90.0571L219.152 90.0426L219.123 90.1644C218.433 91.5145 217.593 92.2948 217.593 92.3237L217.533 92.3836C217.389 92.7758 216.889 93.1247 216.445 93.3538C216.385 93.3848 216.328 93.4116 216.272 93.4364C216.136 93.5025 216.012 93.552 215.913 93.585C215.312 92.8047 216.392 91.2131 216.392 91.1842L216.423 91.1243L216.452 90.9736C216.386 90.6826 216.367 90.4245 216.381 90.1995ZM221.342 93.8844V93.7646L221.253 93.8245C220.504 93.1949 220.954 92.4435 220.954 92.4146L221.043 92.2639L220.892 92.173L220.683 91.8138C220.652 91.3328 221.282 90.6145 221.524 90.4039L221.703 90.2243L221.505 90.1108H221.503L221.493 90.1046L221.313 89.894C221.313 89.5637 222.093 88.9341 222.632 88.6038L222.865 88.4572L222.874 88.4531L222.663 88.3024L222.632 88.2735L222.603 88.2425C222.754 88.0939 222.874 87.9143 222.993 87.7037C223.113 87.7925 223.293 87.8833 223.594 87.8833C224.013 87.8833 224.523 87.6728 225.093 87.2537L225.124 87.2228C225.153 87.1939 226.625 85.5424 227.793 84.6134C227.768 84.6609 227.743 84.7084 227.717 84.7559C227.176 85.8004 226.68 87.2331 226.594 87.4333C225.844 88.6926 225.272 88.4841 225.272 88.4841L225.093 88.4242L225.064 88.6327C224.913 89.9828 224.253 90.0137 224.224 90.0137H224.073V90.1644C224.044 91.4237 223.233 91.7829 223.204 91.7829L223.113 91.8138V91.9336C223.053 93.0132 222.663 93.8844 222.663 93.8844V93.9731C222.694 94.3633 222.182 95.0548 221.792 95.445L221.464 95.2035C221.416 95.1333 221.381 95.0528 221.354 94.9661C221.354 94.964 221.354 94.9619 221.352 94.9599C221.216 94.4954 221.342 93.8844 221.342 93.8844ZM225.993 110.717C225.873 110.866 225.873 111.677 225.694 111.797C225.679 111.807 225.652 111.801 225.615 111.782C225.603 111.778 225.59 111.772 225.578 111.764C225.473 111.706 225.312 111.578 225.12 111.411C225.095 111.39 225.07 111.367 225.045 111.344C224.843 111.165 224.614 110.948 224.387 110.721C224.352 110.686 224.317 110.651 224.279 110.614C224.244 110.577 224.211 110.544 224.176 110.508H224.174C224.174 110.508 224.158 110.492 224.152 110.484C224.143 110.471 224.131 110.461 224.121 110.451C224.081 110.409 224.042 110.366 224.005 110.327C223.968 110.288 223.931 110.246 223.893 110.207C223.774 110.079 223.664 109.957 223.571 109.846C223.547 109.817 223.524 109.79 223.501 109.763C223.481 109.738 223.462 109.716 223.443 109.693C223.425 109.67 223.408 109.65 223.392 109.629C223.353 109.577 223.318 109.532 223.293 109.491C223.276 109.47 223.264 109.449 223.254 109.431C223.245 109.421 223.239 109.41 223.235 109.4C223.229 109.388 223.223 109.377 223.218 109.367C223.212 109.357 223.208 109.346 223.204 109.336C223.163 109.247 223.159 109.169 223.177 109.098C223.179 109.088 223.183 109.078 223.187 109.068C223.19 109.059 223.192 109.053 223.196 109.047C223.202 109.035 223.208 109.02 223.216 109.008C223.218 109.001 223.225 108.993 223.229 108.987C223.239 108.971 223.249 108.958 223.262 108.946C223.264 108.942 223.266 108.937 223.27 108.933C223.278 108.923 223.289 108.915 223.297 108.907C223.307 108.896 223.318 108.886 223.328 108.878C223.34 108.867 223.353 108.859 223.365 108.849C223.377 108.838 223.39 108.83 223.402 108.822C223.489 108.764 223.563 108.735 223.563 108.735H227.764L226.864 104.865L227.554 104.175L226.66 100.69L226.653 100.666L227.343 100.335L226.414 96.5246L227.254 95.9239L226.503 92.654L227.343 92.204L226.833 89.2933L227.525 88.8433L227.403 85.724L227.413 85.6931L227.45 85.5816C227.459 85.5589 227.469 85.5321 227.479 85.5052L227.558 85.3194C227.572 85.2864 227.589 85.2513 227.607 85.2142L227.663 85.1006C227.824 84.793 228.063 84.4338 228.394 84.1634C229.114 84.7621 229.385 85.724 229.385 85.724L229.265 88.8433L229.954 89.2933L229.444 92.204L230.285 92.654L229.564 95.9239L230.404 96.5246L229.504 100.335L230.194 100.666L230.188 100.69L229.294 104.175L229.983 104.865L229.203 108.706H233.375C233.375 108.706 233.914 108.946 233.734 109.336C233.555 109.755 231.393 111.885 231.214 111.797C231.143 111.761 231.102 111.617 231.071 111.442C231.046 111.314 231.028 111.171 231.007 111.045C230.995 110.977 230.982 110.915 230.97 110.861C230.96 110.818 230.949 110.781 230.935 110.752C230.929 110.738 230.923 110.725 230.914 110.717C230.823 110.626 229.923 111.586 229.504 111.797C229.504 111.797 229.054 111.287 228.425 110.897C227.793 111.316 227.104 111.797 227.104 111.797C226.684 111.557 226.053 110.626 225.993 110.717ZM236.932 77.2458C236.959 77.2851 236.981 77.3284 237.004 77.3821L237.064 77.5328L237.215 77.4729C237.215 77.4729 237.365 77.3821 237.605 77.3821C237.964 77.3821 238.234 77.5926 238.445 78.0117L238.505 78.1025H238.656C238.835 78.1025 239.465 78.1314 239.766 78.4617C239.855 78.5526 239.915 78.7012 239.915 78.8519C239.745 79.0026 239.409 79.2503 239.085 79.4072C238.965 79.4691 238.85 79.5166 238.744 79.5455C238.736 79.5476 238.726 79.5496 238.717 79.5517C238.691 79.5579 238.666 79.5641 238.641 79.5661C238.614 79.5703 238.589 79.5723 238.565 79.5723L238.476 79.5414H238.414C238.371 79.5558 237.815 79.723 237.095 79.723C236.915 79.723 236.736 79.723 236.585 79.6921L236.465 79.6632L236.447 79.7189V79.7251L236.434 79.7519C236.434 79.7684 236.31 79.9852 236.042 80.171C236.038 80.1731 236.036 80.1772 236.032 80.1772C235.825 80.3196 235.532 80.4414 235.144 80.4414L234.814 80.4125L234.665 80.3816L234.653 80.4414L234.634 80.5322C234.634 80.5322 234.624 80.5942 234.578 80.6809C234.576 80.6871 234.574 80.6912 234.57 80.6974C234.537 80.7573 234.492 80.8233 234.424 80.8914L234.275 80.9823L233.914 81.133L233.765 81.1619C233.614 81.1928 233.435 81.1928 233.224 81.1928H233.045V81.2217L233.057 81.2816L233.074 81.3724V81.4034C233.074 81.4488 233.069 81.5582 233.001 81.7089C233.001 81.713 233.001 81.7172 232.997 81.7192C232.884 81.9628 232.601 82.3034 231.905 82.6317C231.754 82.6626 230.644 82.9021 229.684 83.2634C229.438 83.3625 229.213 83.4388 228.988 83.5317H228.986C228.939 83.5524 228.891 83.573 228.844 83.5937L228.875 83.5627L228.904 83.5338L229.265 83.1436C229.923 82.4521 230.764 81.7626 230.795 81.7626L230.823 81.7316C231.135 81.3497 231.3 81.0215 231.381 80.7531C231.383 80.749 231.385 80.7428 231.385 80.7387C231.453 80.5013 231.457 80.3134 231.441 80.1751C231.437 80.14 231.43 80.1091 231.424 80.0822C231.909 79.8221 232.128 79.5269 232.223 79.2751V79.2709C232.268 79.1533 232.287 79.048 232.291 78.9592C232.295 78.9324 232.295 78.9056 232.295 78.8828C232.624 78.7322 232.865 78.5526 233.045 78.342H233.074C233.164 78.342 233.255 78.373 233.344 78.5526L233.464 78.792L233.614 78.5815C233.945 78.1025 234.605 77.3511 234.936 77.3511C234.964 77.3511 235.055 77.3511 235.115 77.5926L235.175 77.8631L235.355 77.6814C235.565 77.5018 236.195 76.9919 236.645 76.9919C236.758 77.06 236.853 77.1261 236.932 77.2458ZM230.165 77.8321L230.254 77.9518L230.437 78.1087L230.464 78.1314L230.524 77.8631C230.669 77.1963 230.951 76.449 231.187 76.3953C231.195 76.3953 231.205 76.3912 231.214 76.3912L231.333 76.5109L231.445 76.6678L231.484 76.7215L231.575 76.482C231.69 76.1951 232.079 75.4664 232.454 75.4065C232.471 75.4044 232.487 75.4024 232.504 75.4024L232.714 75.4911L232.797 75.5737L232.834 75.6109L232.925 75.4622C232.925 75.4622 233.123 75.1774 233.466 75.1629H233.468C233.478 75.1608 233.484 75.1609 233.495 75.1609C233.674 75.1609 233.854 75.2517 234.033 75.3714L234.079 75.4024L234.124 75.4313L234.184 75.3714C234.184 75.3714 234.576 75.1485 234.927 75.134H234.929C234.929 75.134 234.931 75.132 234.934 75.134H234.936C234.936 75.134 234.938 75.132 234.94 75.134C234.94 75.134 234.941 75.134 234.944 75.134C234.944 75.134 234.956 75.132 234.964 75.132C235.175 75.132 235.324 75.2228 235.415 75.4024C235.204 75.8214 234.845 76.4511 234.545 76.482H234.514L234.486 76.513C234.486 76.513 233.914 77.0518 233.133 77.3511L233.045 77.3821V77.5018C233.045 77.5018 233.014 77.7722 232.834 78.0716C232.683 78.2821 232.444 78.5216 232.054 78.6413L232.025 78.6723L231.934 78.7033L231.965 78.7631L231.994 78.8828V78.9716C231.994 79.0913 231.934 79.3019 231.723 79.5125C231.575 79.6322 231.424 79.7829 231.154 79.9026L231.034 79.9625H231.005V79.9914L231.094 80.1421C231.094 80.1421 231.333 80.6231 230.615 81.552C230.524 81.6119 229.983 82.0619 229.444 82.5718L229.083 82.9331L228.753 83.2923L228.815 83.1127C228.831 83.0569 228.848 82.9991 228.866 82.9393C229.259 81.5974 229.901 79.3432 230.163 77.8486C230.163 77.8424 230.165 77.8383 230.165 77.8321ZM227.013 76.7215H227.134L227.104 76.5419C226.984 75.3714 227.075 74.4115 227.314 74.1411L227.434 74.0812L227.554 74.1122L227.733 74.2009L227.764 73.9924C227.776 73.9346 227.787 73.8789 227.799 73.8232C227.985 72.9995 228.284 72.535 228.454 72.2811C228.652 72.535 228.953 72.9995 229.139 73.8232C229.151 73.8789 229.162 73.9346 229.174 73.9924L229.203 74.2009L229.385 74.1122L229.504 74.0812L229.624 74.1411C229.835 74.4115 229.923 75.4024 229.804 76.5419V76.7215H229.923C229.954 76.8412 229.923 77.1715 229.835 77.6215L229.804 77.892L229.715 78.3131C229.473 79.4216 229.083 80.9224 228.633 82.4521L228.604 82.5429L228.485 82.9929L228.454 83.0528V82.9929L228.334 82.5429L228.303 82.4521C227.853 80.9224 227.494 79.3927 227.254 78.3131L227.163 77.892L227.134 77.6215C227.056 77.3078 227.015 77.0745 227.004 76.9135C227 76.8288 227.002 76.7628 227.013 76.7215ZM221.974 75.1918C222.333 75.1918 222.754 75.4313 222.754 75.4313L222.843 75.4911L222.934 75.4313C223.002 75.3755 223.068 75.3322 223.136 75.2992C223.181 75.2765 223.227 75.2599 223.27 75.2496C223.27 75.2496 223.271 75.2489 223.274 75.2476C223.32 75.2352 223.363 75.2269 223.404 75.2248C223.427 75.2228 223.45 75.2228 223.472 75.2228C223.489 75.2228 223.503 75.2228 223.518 75.2269C223.809 75.2661 224.013 75.5221 224.013 75.5221L224.104 75.6728L224.123 75.6542L224.224 75.551L224.434 75.4622C224.434 75.4622 224.451 75.4622 224.459 75.4643C224.812 75.4994 225.215 76.2488 225.334 76.5419L225.454 76.7814L225.471 76.7566L225.603 76.5729L225.753 76.4511C225.753 76.4511 225.77 76.4531 225.78 76.4552C225.989 76.513 226.27 77.2314 226.414 77.9229L226.474 78.1913L226.653 78.0117L226.833 77.9229C226.833 77.9229 226.835 77.9333 226.835 77.9374C227.108 79.496 227.795 81.8864 228.154 83.2035L228.212 83.3769L227.915 83.0528L227.554 82.6936L227.525 82.6626C227.037 82.1775 226.528 81.7461 226.4 81.6532C226.393 81.649 226.387 81.6449 226.383 81.6429C225.634 80.7118 225.904 80.2329 225.904 80.2329L225.993 80.0822V80.0533H225.964L225.813 79.9914C225.611 79.9006 225.458 79.7953 225.345 79.6983C225.326 79.6817 225.308 79.6652 225.291 79.6487C225.285 79.6446 225.279 79.6384 225.272 79.6322L225.262 79.6219C225.262 79.6219 225.25 79.6095 225.244 79.6033C225.033 79.3927 224.973 79.1822 224.973 79.0624V78.9117L225.004 78.792V78.7321L224.913 78.7012L224.884 78.6723C224.494 78.5525 224.253 78.3131 224.104 78.1025C223.922 77.8321 223.893 77.5617 223.893 77.5328V77.413L223.803 77.3821C222.993 77.0827 222.453 76.5419 222.453 76.5419L222.424 76.5109H222.393C222.093 76.4511 221.732 75.8524 221.524 75.4313C221.583 75.2517 221.732 75.1918 221.974 75.1918ZM217.015 78.6743C217.025 78.6393 217.04 78.6062 217.056 78.5773C217.063 78.5629 217.071 78.5484 217.081 78.536C217.089 78.5237 217.1 78.5092 217.11 78.4968C217.12 78.4844 217.131 78.472 217.143 78.4617C217.442 78.1314 218.072 78.1025 218.252 78.1025H218.402L218.433 78.0117C218.636 77.605 218.896 77.3945 219.24 77.3841C219.261 77.3821 219.282 77.3821 219.302 77.3821C219.499 77.3903 219.664 77.4729 219.664 77.4729L219.812 77.5328L219.816 77.5225L219.872 77.3821C219.963 77.2025 220.083 77.0827 220.262 77.0827C220.269 77.0827 220.271 77.0828 220.275 77.0848C220.275 77.0848 220.277 77.0828 220.279 77.0848C220.818 77.0972 221.553 77.7722 221.553 77.7722L221.732 77.9518L221.738 77.9271L221.794 77.6814C221.854 77.4419 221.943 77.4419 221.974 77.4419C221.978 77.4419 221.984 77.4419 221.988 77.444C221.988 77.444 221.989 77.444 221.992 77.444H221.994C222.331 77.4729 222.969 78.2016 223.293 78.6723L223.443 78.8828L223.456 78.8581L223.563 78.6413C223.596 78.5691 223.627 78.5195 223.66 78.4906C223.662 78.4886 223.664 78.4865 223.666 78.4844C223.72 78.4328 223.778 78.4328 223.834 78.4328H223.863C224.013 78.6413 224.253 78.823 224.614 78.9716C224.614 79.242 224.703 79.7519 225.483 80.1731C225.423 80.4414 225.423 80.9823 226.084 81.8225L226.113 81.8534C226.113 81.8534 226.984 82.5429 227.644 83.2324L228.004 83.6226L228.035 83.6535V83.6824C227.793 83.5627 227.525 83.443 227.223 83.3521C226.263 82.9929 225.153 82.7535 225.004 82.7225C223.863 82.1528 223.834 81.583 223.834 81.4922V81.4633L223.863 81.3126V81.2527H223.654C223.472 81.2527 223.293 81.2527 223.144 81.2217L222.993 81.1928L222.632 81.0421L222.484 80.9534C222.304 80.7717 222.273 80.5921 222.273 80.5921L222.244 80.4414L222.093 80.4724L221.763 80.5033C220.863 80.5033 220.473 79.8428 220.473 79.8118L220.413 79.723L220.322 79.7519C220.174 79.7519 219.992 79.7829 219.812 79.7829C219.063 79.7829 218.493 79.6033 218.493 79.6033H218.433L218.314 79.6322C217.892 79.6322 217.232 79.1533 216.961 78.9117C216.974 78.8147 216.99 78.7383 217.015 78.6743ZM213.834 85.6745C213.836 85.6497 213.838 85.627 213.842 85.6022C213.993 84.9726 214.862 84.4627 214.862 84.4627L214.953 84.4029V84.312C214.893 83.0528 215.882 82.9331 215.913 82.9331L216.061 82.9021V82.7535C216.033 82.5718 216.061 82.4232 216.183 82.3034C216.34 82.0929 216.681 81.9732 217.145 81.9484C217.211 81.9443 217.279 81.9422 217.352 81.9422C217.713 81.9422 218.043 82.0021 218.043 82.0021L218.283 82.033L218.223 81.7936C218.21 81.7296 218.202 81.6738 218.202 81.6222C218.202 81.5541 218.217 81.4984 218.252 81.4633C218.305 81.3828 218.427 81.327 218.596 81.3146C218.611 81.3126 218.625 81.3126 218.642 81.3126C218.683 81.3126 218.726 81.3146 218.77 81.3167C219.428 81.3518 220.353 81.7316 220.353 81.7316L220.562 81.8101L220.593 81.8225L220.564 81.552C220.533 81.4034 220.564 81.2816 220.624 81.1928C220.712 81.0731 220.892 81.0421 221.162 81.0421C221.763 81.0421 222.543 81.3435 222.543 81.3435L222.603 81.3724C222.81 81.5211 223.132 81.6078 223.569 81.6119H223.594C223.631 81.7936 223.732 82.0867 224.048 82.4087C224.065 82.4232 224.081 82.4418 224.1 82.4603C224.104 82.4645 224.11 82.4686 224.114 82.4727C224.315 82.6626 224.591 82.8608 224.973 83.0528H225.004C225.004 83.0528 225.574 83.2035 226.263 83.3831C226.684 83.5028 227.134 83.6535 227.525 83.8022L227.554 83.8331L227.134 83.893C225.873 84.1634 224.434 84.7332 224.224 84.793C224.108 84.8095 224.001 84.8157 223.898 84.8178C223.803 84.8219 223.712 84.8219 223.623 84.8219C223.598 84.8219 223.574 84.8219 223.551 84.8219C223.483 84.8199 223.421 84.8178 223.359 84.8116C223.33 84.8095 223.299 84.8075 223.272 84.8034C223.245 84.7992 223.22 84.7951 223.196 84.791C223.163 84.7848 223.13 84.7786 223.101 84.7724C223.07 84.7662 223.039 84.76 223.01 84.7517C222.952 84.7373 222.901 84.7228 222.851 84.7043C222.822 84.6939 222.795 84.6836 222.768 84.6712C222.742 84.6609 222.717 84.6506 222.692 84.6382C222.659 84.6238 222.63 84.6072 222.603 84.5907C222.581 84.5763 222.56 84.5618 222.539 84.5474C222.519 84.535 222.5 84.5205 222.481 84.5061C222.463 84.4916 222.446 84.4772 222.432 84.4627C222.415 84.4483 222.401 84.4359 222.389 84.4215C222.376 84.4091 222.366 84.3967 222.356 84.3843C222.337 84.3637 222.323 84.3471 222.312 84.3327C222.29 84.3038 222.279 84.2852 222.273 84.2852L222.213 84.1056L222.188 84.1242L222.062 84.2253C221.612 84.5556 221.222 84.7043 220.892 84.7043H220.863L220.712 84.6754L220.564 84.6444C220.427 84.599 220.343 84.5205 220.31 84.4854C220.306 84.4834 220.304 84.4793 220.302 84.4772C220.297 84.4689 220.293 84.4648 220.293 84.4648L220.202 84.3451H220.198L220.083 84.4359C219.68 84.7806 219.249 84.9602 218.817 84.9726C218.788 84.9747 218.762 84.9747 218.733 84.9747C218.718 84.9747 218.702 84.9747 218.687 84.9726C218.66 84.9726 218.638 84.9706 218.613 84.9685C218.565 84.9644 218.52 84.9582 218.477 84.952C218.456 84.952 218.437 84.9458 218.417 84.9396C218.396 84.9355 218.378 84.9313 218.359 84.9272C218.305 84.9148 218.258 84.8983 218.217 84.8839C218.214 84.8839 218.21 84.8818 218.208 84.8818C218.19 84.8756 218.171 84.8694 218.157 84.8612C218.136 84.8529 218.117 84.8446 218.101 84.8384C218.099 84.8384 218.097 84.8384 218.095 84.8364C218.087 84.8323 218.08 84.8302 218.074 84.8261H218.072L217.983 84.7641L217.975 84.7703L217.892 84.824C216.961 85.6043 215.942 85.8747 215.942 85.8747H215.913L215.882 85.9057C215.702 86.1142 215.283 86.205 214.682 86.205C214.352 86.205 214.082 86.1761 213.962 86.1761C213.956 86.1658 213.952 86.1576 213.948 86.1472C213.933 86.1204 213.919 86.0936 213.908 86.0688C213.896 86.044 213.886 86.0192 213.877 85.9945C213.875 85.9924 213.875 85.9903 213.875 85.9903C213.867 85.9676 213.861 85.9449 213.855 85.9222C213.848 85.8995 213.844 85.8747 213.84 85.85C213.838 85.8149 213.83 85.7798 213.832 85.7426C213.832 85.722 213.832 85.6993 213.832 85.6766L213.834 85.6745ZM253.57 109.08C253.506 109.084 253.436 109.086 253.366 109.092C253.294 109.096 253.219 109.101 253.143 109.107C253.073 109.111 253.003 109.117 252.93 109.123C252.864 109.129 252.798 109.136 252.73 109.142C252.662 109.148 252.594 109.156 252.522 109.162C252.46 109.171 252.396 109.177 252.33 109.185C252.259 109.193 252.187 109.202 252.113 109.212C251.993 109.226 251.871 109.245 251.745 109.262C251.681 109.272 251.617 109.28 251.553 109.29C251.423 109.311 251.291 109.334 251.155 109.357C251.058 109.373 250.959 109.392 250.86 109.408C250.759 109.429 250.655 109.447 250.552 109.468C250.321 109.513 250.082 109.563 249.832 109.621C249.753 109.637 249.675 109.656 249.594 109.677C249.545 109.687 249.495 109.699 249.444 109.714C249.394 109.726 249.343 109.738 249.291 109.751C249.19 109.776 249.085 109.802 248.981 109.829C248.876 109.858 248.769 109.885 248.661 109.916C248.554 109.945 248.447 109.976 248.337 110.007C248.201 110.044 248.063 110.085 247.922 110.129C247.91 110.133 247.898 110.137 247.885 110.141C247.768 110.176 247.648 110.213 247.528 110.252C247.342 110.31 247.156 110.372 246.967 110.438C246.797 110.496 246.626 110.556 246.45 110.62L246.246 110.694C246.139 110.733 246.031 110.773 245.922 110.816C245.78 110.87 245.637 110.925 245.493 110.983C245.29 111.064 245.086 111.146 244.877 111.235C244.797 111.268 244.716 111.303 244.634 111.34C244.551 111.375 244.469 111.411 244.386 111.448C244.24 111.512 244.091 111.58 243.94 111.648C243.536 111.832 243.125 112.03 242.704 112.245C242.59 112.3 242.477 112.358 242.363 112.418C242.107 112.55 241.851 112.688 241.591 112.831C241.411 112.93 241.23 113.031 241.048 113.134C240.984 113.171 240.918 113.211 240.852 113.248C240.443 113.483 240.028 113.735 239.607 113.999C239.537 114.045 239.465 114.09 239.393 114.135C239.3 114.195 239.205 114.255 239.11 114.317C238.988 114.396 238.866 114.476 238.744 114.557C235.836 116.507 232.954 118.786 230.524 120.857C231.874 122.118 233.255 123.468 234.634 124.938L234.754 124.818H235.024L235.084 124.998L235.105 124.969L235.295 124.699C235.175 124.368 235.264 123.978 235.565 123.737C235.734 123.582 235.943 123.501 236.147 123.495C236.168 123.493 236.187 123.491 236.207 123.493C236.418 123.497 236.618 123.58 236.765 123.737C237.064 124.067 236.975 124.608 236.614 124.907C236.374 125.118 236.075 125.209 235.805 125.118C235.677 125.332 235.701 125.547 235.726 125.65C235.726 125.652 235.726 125.654 235.726 125.657C235.735 125.696 235.743 125.718 235.743 125.718C236.102 126.528 237.663 127.248 238.924 127.217C239.853 127.217 240.513 126.918 241.473 125.958C242.113 125.299 242.712 125.434 243.094 125.652C243.098 125.654 243.102 125.657 243.108 125.661C243.36 125.807 243.513 125.989 243.513 125.989C245.045 128.179 241.923 130.188 239.733 130.219C239.613 130.221 239.496 130.221 239.378 130.217C236.847 130.134 234.605 128.596 234.003 127.878C233.829 127.682 233.701 127.58 233.565 127.576C233.557 127.574 233.548 127.576 233.542 127.576C233.499 127.576 233.451 127.587 233.402 127.607C233.282 127.667 233.222 127.849 233.193 128.028C233.222 128.328 233.102 128.629 232.863 128.809C232.69 128.966 232.479 129.048 232.271 129.056H232.256C232.033 129.061 231.816 128.978 231.662 128.809C231.362 128.478 231.422 127.938 231.812 127.607C231.899 127.521 232.006 127.463 232.118 127.426C232.128 127.422 232.138 127.417 232.149 127.415C232.26 127.382 232.374 127.368 232.473 127.368H232.479L232.562 127.339L232.473 127.277V127.009L232.772 126.707C232.204 126.171 230.619 124.614 228.437 122.641C228.433 122.636 228.427 122.632 228.423 122.628C226.232 124.577 224.641 126.138 224.071 126.707L224.37 127.009V127.277L224.282 127.339L224.341 127.368H224.37C224.391 127.368 224.41 127.368 224.43 127.37C224.641 127.384 224.843 127.45 225.002 127.607C225.392 127.938 225.452 128.478 225.151 128.809C225.01 128.966 224.812 129.048 224.604 129.056H224.589C224.366 129.061 224.135 128.978 223.951 128.809C223.712 128.598 223.592 128.299 223.621 128.028C223.592 127.849 223.501 127.667 223.41 127.607C223.202 127.488 223.051 127.607 222.812 127.878C222.18 128.629 219.75 130.279 217.081 130.219C214.891 130.188 211.77 128.179 213.299 125.989C213.299 125.989 213.314 125.972 213.343 125.943C213.351 125.933 213.363 125.923 213.376 125.912C213.407 125.884 213.444 125.851 213.491 125.813C213.52 125.789 213.553 125.764 213.59 125.741C213.59 125.741 213.592 125.741 213.595 125.737C213.962 125.489 214.633 125.242 215.37 125.958C216.33 126.918 216.99 127.217 217.921 127.217C219.152 127.248 220.71 126.528 221.072 125.718C221.072 125.718 221.183 125.44 221.001 125.151C220.995 125.14 220.989 125.128 220.981 125.118C220.71 125.178 220.411 125.118 220.171 124.907C220.155 124.893 220.141 124.878 220.126 124.864C220.124 124.86 220.122 124.856 220.118 124.853C219.804 124.521 219.765 124.024 220.021 123.737C220.174 123.567 220.384 123.487 220.603 123.491H220.617C220.822 123.499 221.034 123.582 221.22 123.737C221.522 124.007 221.61 124.397 221.491 124.699L221.701 124.998L221.711 124.971L221.761 124.818H222.031L222.151 124.938C222.151 124.938 222.161 124.928 222.166 124.922C223.543 123.458 224.915 122.114 226.261 120.857C223.832 118.786 220.952 116.507 218.041 114.557C211.943 110.506 206.854 109.416 204.148 109.138C204.14 109.136 204.132 109.136 204.121 109.136C203.946 109.119 203.783 109.105 203.628 109.092C203.576 109.09 203.527 109.086 203.477 109.082C203.438 109.08 203.399 109.078 203.362 109.076C202.66 109.035 202.228 109.055 202.111 109.063H202.086C202.061 109.063 202.049 109.065 202.049 109.065C202.738 108.809 203.45 108.62 204.175 108.494C204.278 108.475 204.383 108.459 204.487 108.442C204.588 108.423 204.689 108.409 204.792 108.397H204.796C204.85 108.388 204.908 108.38 204.964 108.376C204.992 108.37 205.021 108.366 205.052 108.364C205.081 108.359 205.106 108.355 205.137 108.353C205.319 108.333 205.502 108.314 205.686 108.302C205.754 108.295 205.822 108.291 205.892 108.287C206.02 108.277 206.151 108.271 206.279 108.267C206.363 108.262 206.45 108.26 206.534 108.258C206.609 108.256 206.681 108.254 206.755 108.254C207.061 108.248 207.364 108.252 207.666 108.267C207.777 108.271 207.891 108.277 208.002 108.283C211.477 108.483 214.765 109.621 216.631 110.686C218.731 111.856 223.231 114.647 228.332 118.997C228.336 118.993 228.342 118.989 228.346 118.985C233.41 114.641 237.904 111.854 240.032 110.686C242.153 109.474 246.114 108.17 250.092 108.258C250.265 108.262 250.439 108.269 250.612 108.277C250.682 108.281 250.753 108.285 250.821 108.289C250.835 108.289 250.847 108.289 250.86 108.291C251 108.302 251.139 108.312 251.277 108.324C252.418 108.432 253.546 108.669 254.615 109.065V109.068C254.508 109.063 254.148 109.051 253.57 109.08Z" fill="#C7AC87"/>
<path d="M51.0117 94.0349C50.8321 93.8532 50.4131 93.5229 49.7215 93.044C49.0919 92.563 48.6728 92.2038 48.4313 91.9045L46.3629 94.6047C44.7713 96.7041 43.962 98.2647 43.962 99.2845C43.962 99.9451 44.3212 100.424 44.9818 100.725C45.5516 100.965 46.1812 101.056 46.8727 100.965C47.9813 100.814 48.9433 100.455 49.7215 99.8253C50.1426 99.524 50.5617 99.0739 50.9828 98.5042C51.5836 97.2449 51.8829 96.3738 51.8829 95.835C51.8829 95.1145 51.6125 94.4849 51.0117 94.0349ZM49.6617 98.0851C48.7616 98.4443 47.9524 98.6239 47.1721 98.6239C46.303 98.6239 45.8819 98.2647 45.8819 97.5443C45.8819 97.3337 45.9128 97.0942 46.0326 96.8548C46.6622 95.8949 47.2319 95.1434 47.7418 94.5448C49.3314 95.5336 50.1426 96.4048 50.1715 97.1851C50.2025 97.5133 50.0229 97.8436 49.6617 98.0851ZM48.5221 86.5021L47.682 87.8832L45.2811 86.3535L44.2015 88.2135L46.8418 89.7431L47.5911 88.3332L50.0828 89.834L51.1335 88.0937L48.5221 86.5021Z" fill="#C7AC87"/>
<path d="M61.994 99.7945C61.994 101.384 61.3644 103.095 60.0742 104.895C58.9037 106.576 57.7043 107.385 56.4141 107.385C55.7845 107.385 54.7337 107.115 53.233 106.545C51.6434 105.944 50.8322 105.434 50.8322 105.015L51.0117 104.836C51.0716 104.836 51.5526 105.015 52.4217 105.376C53.2908 105.736 53.9823 105.917 54.5211 105.917C55.6916 105.917 57.0706 105.137 58.6911 103.547C60.3116 101.987 61.1208 100.608 61.1208 99.4662C61.1208 98.6261 60.1299 97.5155 58.1502 96.0766C58.2699 95.5956 58.4495 94.6956 58.7509 93.3765C59.8017 94.1857 60.551 94.966 60.9722 95.6576C61.6616 96.7682 61.9919 98.1471 61.9919 99.7986L61.994 99.7945Z" fill="#C7AC87"/>
<path d="M70.3958 100.934H66.0751C65.7758 95.5629 65.4146 90.433 64.9645 85.5715C65.2948 85.1524 65.7738 84.4918 66.4343 83.5918L67.1548 92.0225C67.514 95.8023 67.7555 97.844 67.8752 98.1123L68.0858 98.3229C68.2964 98.5623 68.6865 98.6821 69.2852 98.6821H70.4247V100.932H70.3937L70.3958 100.934Z" fill="#C7AC87"/>
<path d="M73.9651 98.6841H69.6155V100.934H73.9651V98.6841Z" fill="#C7AC87"/>
<path d="M77.7758 98.6841H73.3953V100.934H77.7758V98.6841Z" fill="#C7AC87"/>
<path d="M89.8377 98.6553L89.5962 98.5046C89.2081 98.2342 89.0265 97.875 89.0265 97.425C89.8976 97.0038 91.097 96.7953 92.6576 96.7953C92.9879 96.7953 93.2274 96.7953 93.4379 96.8242C93.8859 95.8065 94.2162 95.0283 94.3958 94.5184C94.2781 94.5204 94.0159 94.5266 93.6175 94.5452H92.8682C91.7576 94.5452 89.9575 94.184 87.4968 93.4635C85.8763 92.9846 84.6769 92.7451 83.9255 92.7451C82.6064 92.7451 81.6155 93.5543 80.8971 95.2347C80.7464 95.6538 80.6556 95.9552 80.6556 96.2256L80.6865 96.3144C81.7063 95.534 82.5465 95.1439 83.1761 95.1439L84.4065 95.4143C86.0868 95.7735 87.3771 96.0439 88.2461 96.2256C86.2375 97.844 84.4065 98.6553 82.786 98.6553H77.235V100.905H82.7261C83.7769 100.905 84.6459 100.544 85.3375 99.8856C85.6059 99.6441 86.0559 99.3159 86.7165 98.8948C87.3461 98.4757 87.7961 98.1454 88.0665 97.875C88.1863 98.8349 88.306 99.4356 88.3679 99.704C88.5764 100.515 88.9666 100.934 89.4765 100.934H95.5374V98.6553H89.8377ZM94.3979 94.5143C94.3979 94.5143 94.3978 94.5163 94.3958 94.5184C94.4907 94.5143 94.4928 94.5143 94.3979 94.5143ZM86.1467 103.816L85.0671 105.556L87.4968 107.086L88.5764 105.286L86.1467 103.816Z" fill="#C7AC87"/>
<path d="M102.86 98.6841C102.589 98.6841 102.438 98.5954 102.41 98.4158C102.41 98.3848 102.438 98.1742 102.498 97.7552C102.829 95.9241 103.008 94.5142 103.008 93.5543L102.979 93.2838C102.108 94.2437 101.419 95.055 100.938 95.7445L100.878 98.6841H95.0275V100.934H99.5587C99.7094 100.934 99.889 100.726 100.159 100.276C100.428 99.7947 100.578 99.5842 100.669 99.5842C100.729 99.6151 100.818 99.7658 100.969 100.065C101.119 100.364 101.239 100.544 101.359 100.635C101.658 100.845 101.959 100.934 102.259 100.934H103.549V98.6841H102.86ZM100.097 87.4025L99.2593 88.7836L96.8276 87.2539L95.7479 89.1139L98.2974 90.6146L99.0777 89.2336L101.569 90.7344L102.649 88.9632L100.097 87.4025Z" fill="#C7AC87"/>
<path d="M110.63 86.7131L109.339 89.2336L109.009 89.1428L109.759 96.6446C109.759 97.2143 109.668 98.0545 109.459 99.1342C109.249 100.305 109.009 100.905 108.799 100.905H102.917V98.6552H108.437C108.497 98.6552 108.528 98.4756 108.528 98.1144C108.528 96.6136 108.078 93.2529 107.207 88.0632L107.056 88.0033C106.786 87.8237 106.637 87.6131 106.637 87.3427C106.637 87.1631 106.697 86.9835 106.788 86.8018L107.958 84.7623C108.169 84.3721 108.349 84.2214 108.439 84.3123L108.65 84.5228L108.53 84.913L108.411 85.2722C108.411 85.3919 108.501 85.5116 108.681 85.6314C109.342 86.0504 110.002 86.3807 110.632 86.711L110.63 86.7131Z" fill="#C7AC87"/>
<path d="M116.269 97.9656C116.269 98.746 115.91 100.036 115.219 101.805C114.888 97.8438 114.409 93.0752 113.809 87.4644C113.749 86.8348 114.29 85.5445 115.489 83.5938C115.58 83.7444 115.729 86.1432 115.97 90.8251L116.269 97.9656Z" fill="#C7AC87"/>
<path d="M133.073 94.0349C132.891 93.8532 132.472 93.5229 131.783 93.044C131.182 92.563 130.732 92.2038 130.493 91.9045L128.422 94.6047C126.833 96.7041 126.021 98.2647 126.021 99.2845C126.021 99.9451 126.383 100.424 127.041 100.725C127.611 100.965 128.243 101.056 128.932 100.965C130.043 100.814 131.003 100.455 131.783 99.8253C132.202 99.524 132.623 99.0739 133.042 98.5042C133.612 97.2449 133.913 96.3738 133.913 95.835C133.913 95.1145 133.643 94.4849 133.073 94.0349ZM131.723 98.0851C130.823 98.4443 130.012 98.6239 129.231 98.6239C128.362 98.6239 127.941 98.2647 127.941 97.5443C127.941 97.3337 127.972 97.0942 128.092 96.8548C128.722 95.8949 129.291 95.1434 129.801 94.5448C131.362 95.5336 132.173 96.4048 132.233 97.1851C132.233 97.5133 132.051 97.8436 131.723 98.0851ZM130.553 86.5021L129.712 87.8832L127.312 86.3535L126.232 88.2135L128.872 89.7431L129.622 88.3332L132.113 89.834L133.162 88.0937L130.553 86.5021Z" fill="#C7AC87"/>
<path d="M144.053 99.7945C144.053 101.384 143.424 103.095 142.134 104.895C140.963 106.576 139.764 107.385 138.473 107.385C137.844 107.385 136.793 107.115 135.292 106.545C133.703 105.944 132.891 105.434 132.891 105.015L133.071 104.836C133.131 104.836 133.612 105.015 134.481 105.376C135.35 105.736 136.042 105.917 136.58 105.917C137.751 105.917 139.13 105.137 140.75 103.547C142.371 101.987 143.18 100.608 143.18 99.4662C143.18 98.6261 142.189 97.5155 140.21 96.0766C140.329 95.5956 140.509 94.6956 140.81 93.3765C141.861 94.1857 142.61 94.966 143.031 95.6576C143.721 96.7682 144.051 98.1471 144.051 99.7986L144.053 99.7945Z" fill="#C7AC87"/>
<path d="M149.875 97.9656C149.875 98.746 149.516 100.036 148.824 101.805C148.494 97.8438 148.015 93.0752 147.414 87.4644C147.354 86.8348 147.895 85.5445 149.094 83.5938C149.185 83.7444 149.334 86.1432 149.575 90.8251L149.875 97.9656Z" fill="#C7AC87"/>
<path d="M160.376 95.6538C159.955 94.9643 159.206 94.184 158.155 93.3748C157.855 94.6939 157.676 95.5939 157.556 96.0749C159.536 97.5137 160.527 98.6244 160.527 99.4645C160.527 100.606 159.715 101.985 158.095 103.546C156.474 105.135 155.095 105.916 153.925 105.916C153.384 105.916 152.695 105.736 151.826 105.375C150.954 105.016 150.475 104.836 150.414 104.836L150.234 105.016C150.234 105.437 151.045 105.947 152.635 106.545C154.136 107.115 155.184 107.385 155.816 107.385C157.106 107.385 158.305 106.576 159.476 104.896C160.766 103.096 161.396 101.384 161.396 99.7948C161.396 98.2053 161.066 96.7644 160.376 95.6538ZM156.084 87.1343L154.976 88.9344L157.525 90.464L158.605 88.633L156.084 87.1343Z" fill="#C7AC87"/>
<path d="M171.177 94.124C170.576 92.9535 170.066 92.3838 169.616 92.3838C168.986 92.3838 168.237 93.0733 167.366 94.4543C166.586 95.7445 166.195 96.7643 166.195 97.4848C166.195 98.1453 166.346 98.744 166.586 99.2539C166.916 99.8856 167.366 100.245 167.967 100.305C168.656 100.365 169.197 100.305 169.527 100.125C170.066 99.8257 170.547 99.1651 171.026 98.0855C171.148 98.4447 171.208 98.8947 171.208 99.4645C171.236 100.635 170.547 101.925 169.106 103.306C167.756 104.596 166.377 105.496 164.967 106.035C164.666 106.126 164.335 106.186 163.976 106.186C163.646 106.186 163.136 106.126 162.475 105.946C161.815 105.796 161.305 105.705 161.006 105.705C160.795 105.705 160.675 105.796 160.675 105.946C160.675 106.246 161.546 106.576 163.227 106.935C164.546 107.206 165.597 107.385 166.346 107.445C167.217 107.505 168.086 107.086 169.017 106.186C169.738 105.437 170.336 104.596 170.786 103.665C171.658 101.834 172.108 99.8856 172.108 97.7841C172.108 96.5248 171.777 95.2945 171.177 94.124ZM169.077 97.9657C168.656 97.9657 168.266 97.8749 167.847 97.7242C167.337 97.5137 167.067 97.2453 167.036 96.884C167.007 96.5537 167.217 96.1636 167.667 95.7136C168.086 95.2635 168.476 95.0241 168.807 95.055C169.257 95.0839 169.647 95.3853 170.006 95.984C170.308 96.5248 170.456 97.0347 170.456 97.5137C170.248 97.8151 169.798 97.9348 169.077 97.9657Z" fill="#C7AC87"/>
<path d="M45.9417 111.945L48.6728 119.148L51.4329 111.945H53.2619V121.518H51.6723V114.916L49.1518 121.518H48.1031L45.7023 114.916V121.518H44.1127V111.945H45.9417Z" fill="#C7AC87"/>
<path d="M54.5232 111.945V113.326H56.0838V111.945H54.5232ZM54.5232 114.617V121.518H56.0838V114.617H54.5232Z" fill="#C7AC87"/>
<path d="M57.1923 114.616H58.7819V115.186C59.0812 114.947 59.4115 114.796 59.7727 114.676C60.134 114.556 60.4622 114.497 60.8524 114.497C61.2116 114.497 61.5419 114.556 61.8433 114.647C62.1137 114.738 62.3532 114.887 62.5637 115.066C62.7743 115.246 62.9229 115.456 63.0137 115.727C63.1335 115.997 63.1644 116.268 63.1644 116.596V121.517H61.6038V116.718C61.6038 116.299 61.513 115.997 61.3643 115.849C61.2136 115.669 60.9742 115.578 60.6749 115.578C60.4044 115.578 60.165 115.638 59.9544 115.729C59.7438 115.849 59.5353 115.968 59.3537 116.148C59.1741 116.299 59.0544 116.507 58.9635 116.718C58.8727 116.928 58.8128 117.168 58.8128 117.378V121.519H57.2233V114.618H57.1923V114.616Z" fill="#C7AC87"/>
<path d="M64.3638 111.945V113.326H65.9245V111.945H64.3638ZM64.3638 114.617V121.518H65.9245V114.617H64.3638Z" fill="#C7AC87"/>
<path d="M68.6556 119.237C68.6556 119.476 68.6866 119.687 68.7754 119.837C68.8352 120.017 68.926 120.137 69.0458 120.256L69.4359 120.496C69.5866 120.556 69.7353 120.556 69.9169 120.556C70.0676 120.556 70.2163 120.525 70.367 120.525C70.5176 120.494 70.6663 120.434 70.817 120.374L71.1473 120.104C71.2381 119.984 71.267 119.833 71.267 119.654C71.267 119.503 71.236 119.354 71.1473 119.235L70.817 118.935C70.6972 118.844 70.5176 118.784 70.336 118.696C70.1564 118.636 69.9768 118.545 69.7662 118.485C69.4669 118.365 69.1655 118.275 68.8662 118.155C68.5669 118.035 68.3253 117.915 68.0859 117.736C67.8464 117.585 67.6668 117.377 67.5161 117.166C67.3654 116.927 67.3055 116.685 67.3055 116.357C67.3055 116.058 67.3654 115.787 67.5161 115.548C67.6668 115.308 67.8464 115.129 68.0859 114.978C68.3253 114.827 68.5958 114.707 68.9261 114.648C69.2254 114.557 69.5557 114.528 69.9169 114.528C70.3071 114.528 70.6663 114.559 70.9966 114.648C71.3269 114.738 71.6262 114.858 71.8657 115.007C72.1051 115.157 72.3157 115.397 72.4664 115.636C72.6171 115.907 72.6769 116.206 72.7058 116.567H71.0853C71.0544 116.388 71.0255 116.237 70.9346 116.117L70.6642 115.818L70.305 115.667L69.886 115.636C69.5557 115.636 69.3162 115.696 69.1366 115.847C68.957 115.998 68.8662 116.177 68.8662 116.388L68.9859 116.778L69.3162 117.077C69.4669 117.168 69.6155 117.257 69.7972 117.317C69.9789 117.377 70.1564 117.467 70.367 117.527C70.6663 117.647 70.9367 117.738 71.236 117.858C71.5354 117.977 71.8058 118.128 72.0453 118.277C72.2847 118.425 72.4643 118.607 72.615 118.818C72.7657 119.028 72.8256 119.268 72.8256 119.538C72.8256 119.928 72.7347 120.258 72.5861 120.529C72.4354 120.799 72.196 121.01 71.9255 121.189C71.6551 121.369 71.3558 121.489 70.9945 121.58C70.6353 121.67 70.2741 121.699 69.8839 121.699C69.4937 121.699 69.1345 121.639 68.8042 121.549C68.474 121.458 68.1746 121.278 67.9042 121.099C67.6338 120.888 67.4542 120.649 67.2746 120.349C67.1239 120.05 67.0351 119.689 67.0042 119.299H68.6536V119.239L68.6556 119.237Z" fill="#C7AC87"/>
<path d="M76.0046 112.637V114.616H77.0244V115.696H76.0046V119.897C76.0046 120.167 76.0356 120.316 76.1244 120.407L76.4547 120.558L76.6941 120.527C76.8139 120.527 76.9646 120.496 77.204 120.436V121.487C77.0244 121.546 76.8139 121.577 76.6033 121.606C76.3927 121.637 76.2131 121.637 76.0624 121.637C75.8519 121.637 75.6434 121.606 75.4328 121.546C75.2223 121.487 75.0427 121.427 74.892 121.307C74.7413 121.187 74.6215 121.036 74.5328 120.888C74.4419 120.708 74.413 120.498 74.413 120.227V115.667H73.3623V114.616H74.413V112.637H76.0026H76.0046Z" fill="#C7AC87"/>
<path d="M78.1061 114.617H79.5161L79.6069 115.246C79.7865 115.007 80.026 114.827 80.2675 114.705C80.5379 114.586 80.8083 114.526 81.0767 114.526L81.407 114.557L81.8261 114.677V115.967C81.407 115.816 81.1366 115.727 81.0457 115.727C80.8352 115.727 80.6556 115.758 80.476 115.878C80.2964 115.969 80.1767 116.089 80.0569 116.237C79.9372 116.386 79.8464 116.568 79.7865 116.778C79.7266 116.989 79.6957 117.197 79.6957 117.408V121.518H78.135V114.617H78.1041H78.1061Z" fill="#C7AC87"/>
<path d="M85.2776 119.328L86.8981 114.617H88.5186L85.6079 122.928C85.517 123.198 85.3973 123.438 85.2487 123.617C85.129 123.797 84.9494 123.947 84.7987 124.067C84.648 124.187 84.4684 124.278 84.2888 124.338C84.1092 124.398 83.9585 124.428 83.7789 124.428C83.6282 124.428 83.4796 124.428 83.3289 124.398C83.1782 124.367 82.9986 124.307 82.7591 124.247V123.076L82.9986 123.167L83.238 123.258L83.4775 123.318L83.6282 123.349L83.8078 123.258L83.9585 123.019L84.0782 122.719L84.169 122.449L84.4684 121.518L81.9478 114.648H83.6282L85.2776 119.328Z" fill="#C7AC87"/>
<path d="M98.2974 116.687C98.1487 116.266 97.9072 115.876 97.6389 115.547C97.3684 115.246 97.0072 114.975 96.5881 114.796C96.198 114.585 95.717 114.497 95.1782 114.497C94.6683 114.497 94.1873 114.616 93.7682 114.796C93.3781 114.975 93.0168 115.217 92.7484 115.547C92.478 115.876 92.2675 116.266 92.1168 116.687C91.9681 117.106 91.9083 117.587 91.9083 118.066C91.9083 118.578 91.997 119.028 92.1168 119.447C92.2365 119.897 92.4471 120.256 92.7484 120.586C93.0168 120.888 93.3471 121.158 93.7682 121.338C94.1584 121.546 94.6373 121.637 95.1782 121.637C95.6881 121.637 96.167 121.517 96.5881 121.338C97.0072 121.158 97.3375 120.917 97.6389 120.586C97.9382 120.256 98.1487 119.868 98.2974 119.447C98.4481 119.028 98.5079 118.547 98.5079 118.066C98.5079 117.585 98.4481 117.106 98.2974 116.687ZM96.8276 119.028C96.7388 119.327 96.617 119.598 96.4684 119.806C96.3486 120.048 96.1381 120.227 95.9275 120.347C95.717 120.467 95.4775 120.526 95.2071 120.526C94.9366 120.526 94.6972 120.467 94.4887 120.347C94.2781 120.196 94.0985 120.048 93.9478 119.806C93.7682 119.598 93.6774 119.327 93.5886 119.028C93.4978 118.726 93.4668 118.427 93.4668 118.066C93.4668 117.738 93.5267 117.407 93.5886 117.106C93.6774 116.807 93.7971 116.536 93.9478 116.326C94.0985 116.086 94.2781 115.907 94.4887 115.787C94.6972 115.636 94.9387 115.576 95.2071 115.576C95.4754 115.576 95.717 115.667 95.9275 115.787C96.1381 115.907 96.3177 116.086 96.4684 116.326C96.617 116.536 96.7388 116.807 96.8276 117.106C96.9184 117.407 96.9473 117.738 96.9473 118.066C96.9473 118.427 96.9184 118.726 96.8276 119.028Z" fill="#C7AC87"/>
<path d="M100.399 114.616V113.087C100.399 112.876 100.43 112.697 100.519 112.546C100.609 112.366 100.698 112.216 100.849 112.096C101 111.976 101.179 111.856 101.39 111.796C101.6 111.706 101.84 111.677 102.11 111.677C102.261 111.677 102.44 111.708 102.651 111.768C102.862 111.827 103.041 111.918 103.252 112.038V113.089C103.012 112.998 102.833 112.938 102.682 112.878L102.443 112.787L102.112 112.907C102.021 112.967 101.962 113.118 101.962 113.297V114.647H103.132V115.758H101.962V121.519H100.372V115.729H99.2614V114.618H100.401L100.399 114.616Z" fill="#C7AC87"/>
<path d="M108.559 116.596C108.559 117.286 108.65 117.887 108.799 118.396C108.978 118.906 109.189 119.327 109.459 119.656C109.73 119.986 110.029 120.225 110.39 120.405C110.721 120.556 111.08 120.645 111.441 120.645C111.802 120.645 112.13 120.585 112.432 120.434C112.733 120.283 112.973 120.104 113.212 119.864C113.452 119.625 113.631 119.354 113.782 119.024C113.933 118.725 114.021 118.394 114.112 118.064H115.702C115.611 118.574 115.431 119.055 115.221 119.505C114.981 119.955 114.711 120.345 114.352 120.676C113.992 121.006 113.571 121.276 113.092 121.456C112.614 121.635 112.073 121.755 111.472 121.755C110.782 121.755 110.182 121.635 109.641 121.396C109.1 121.156 108.621 120.826 108.231 120.376C107.841 119.926 107.541 119.385 107.331 118.756C107.12 118.126 107.032 117.375 107.032 116.565C107.032 116.146 107.063 115.725 107.151 115.335C107.242 114.916 107.391 114.555 107.541 114.165C107.721 113.805 107.932 113.475 108.171 113.174C108.441 112.874 108.712 112.604 109.04 112.364C109.37 112.154 109.73 111.974 110.151 111.824C110.57 111.704 110.991 111.644 111.472 111.644C112.073 111.644 112.611 111.735 113.092 111.884C113.573 112.032 113.962 112.274 114.323 112.544C114.684 112.815 114.983 113.174 115.192 113.535C115.431 113.925 115.611 114.344 115.733 114.794H114.112C113.873 114.105 113.542 113.564 113.092 113.234C112.673 112.903 112.133 112.724 111.472 112.724C111.053 112.724 110.663 112.815 110.301 113.023C109.942 113.234 109.641 113.504 109.401 113.863C109.131 114.222 108.951 114.613 108.801 115.094C108.65 115.603 108.561 116.084 108.561 116.594L108.559 116.596Z" fill="#C7AC87"/>
<path d="M123.142 116.687C122.991 116.266 122.751 115.876 122.481 115.547C122.182 115.246 121.851 114.975 121.43 114.796C121.011 114.585 120.53 114.497 119.991 114.497C119.482 114.497 119.001 114.616 118.582 114.796C118.191 114.975 117.83 115.217 117.56 115.547C117.291 115.876 117.081 116.266 116.93 116.687C116.781 117.106 116.719 117.587 116.719 118.066C116.719 118.578 116.781 119.028 116.93 119.447C117.05 119.897 117.291 120.256 117.56 120.586C117.83 120.888 118.16 121.158 118.582 121.338C118.972 121.546 119.451 121.637 119.991 121.637C120.532 121.637 121.011 121.517 121.43 121.338C121.851 121.158 122.211 120.917 122.481 120.586C122.78 120.256 122.991 119.868 123.142 119.447C123.29 119.028 123.352 118.547 123.352 118.066C123.352 117.585 123.29 117.106 123.142 116.687ZM121.641 119.028C121.55 119.327 121.43 119.598 121.282 119.806C121.162 120.048 120.951 120.227 120.741 120.347C120.53 120.467 120.291 120.526 120.02 120.526C119.75 120.526 119.51 120.467 119.3 120.347C119.091 120.196 118.91 120.048 118.761 119.806C118.61 119.598 118.491 119.327 118.4 119.028C118.311 118.726 118.28 118.427 118.28 118.066C118.28 117.738 118.311 117.407 118.4 117.106C118.491 116.807 118.61 116.536 118.761 116.326C118.91 116.086 119.091 115.907 119.3 115.787C119.51 115.636 119.75 115.576 120.02 115.576C120.291 115.576 120.53 115.667 120.741 115.787C120.951 115.907 121.131 116.086 121.282 116.326C121.43 116.536 121.55 116.807 121.641 117.106C121.732 117.407 121.761 117.738 121.761 118.066C121.761 118.427 121.732 118.726 121.641 119.028Z" fill="#C7AC87"/>
<path d="M124.432 114.617H125.992V115.126C126.263 114.887 126.562 114.736 126.892 114.645C127.223 114.555 127.522 114.495 127.793 114.495C128.123 114.495 128.453 114.555 128.752 114.705C129.052 114.825 129.322 115.064 129.562 115.395C129.712 115.244 129.861 115.095 130.012 114.976C130.191 114.856 130.371 114.765 130.553 114.676C130.732 114.617 130.943 114.557 131.122 114.526C131.302 114.495 131.512 114.466 131.692 114.466C132.051 114.466 132.353 114.526 132.652 114.617C132.951 114.736 133.193 114.887 133.401 115.067C133.61 115.246 133.761 115.486 133.882 115.756C134.002 116.026 134.062 116.297 134.062 116.596V121.518H132.561V116.898C132.561 116.627 132.53 116.417 132.47 116.268C132.41 116.088 132.32 115.969 132.231 115.849L131.901 115.638L131.541 115.578C131.362 115.578 131.182 115.609 131.031 115.698C130.852 115.789 130.701 115.909 130.581 116.057C130.431 116.208 130.342 116.388 130.251 116.598C130.16 116.809 130.131 117.017 130.131 117.259V121.52H128.571V116.9C128.571 116.629 128.54 116.419 128.48 116.27C128.42 116.09 128.36 115.971 128.24 115.851L127.941 115.64L127.611 115.581C127.4 115.581 127.192 115.64 127.01 115.76C126.831 115.88 126.651 116.031 126.529 116.179C126.378 116.359 126.259 116.538 126.199 116.749C126.108 116.96 126.079 117.168 126.079 117.35V121.52H124.519V114.619H124.428L124.432 114.617Z" fill="#C7AC87"/>
<path d="M135.323 114.617H136.884V115.126C137.154 114.887 137.454 114.736 137.784 114.645C138.114 114.555 138.414 114.495 138.684 114.495C139.014 114.495 139.345 114.555 139.644 114.705C139.943 114.825 140.214 115.064 140.453 115.395C140.573 115.244 140.752 115.095 140.903 114.976C141.083 114.856 141.262 114.765 141.444 114.676C141.624 114.617 141.834 114.557 142.014 114.526C142.193 114.495 142.404 114.466 142.584 114.466C142.943 114.466 143.244 114.526 143.543 114.617C143.843 114.736 144.084 114.887 144.293 115.067C144.501 115.246 144.652 115.486 144.774 115.756C144.894 116.026 144.953 116.297 144.953 116.596V121.518H143.393V116.898C143.393 116.627 143.362 116.417 143.302 116.268C143.242 116.088 143.151 115.969 143.062 115.849L142.732 115.638L142.373 115.578C142.193 115.578 142.014 115.609 141.863 115.698C141.683 115.789 141.533 115.909 141.413 116.057C141.262 116.208 141.174 116.388 141.083 116.598C140.992 116.809 140.963 117.017 140.963 117.259V121.52H139.402V116.9C139.402 116.629 139.371 116.419 139.312 116.27C139.252 116.09 139.161 115.971 139.072 115.851L138.773 115.64L138.442 115.581C138.232 115.581 138.023 115.64 137.842 115.76C137.662 115.88 137.483 116.031 137.361 116.179C137.21 116.359 137.09 116.538 137.03 116.749C136.94 116.96 136.911 117.168 136.911 117.35V121.52H135.35V114.619H135.319L135.323 114.617Z" fill="#C7AC87"/>
<path d="M152.754 117.886C152.754 117.376 152.666 116.957 152.515 116.536C152.364 116.117 152.125 115.756 151.854 115.456C151.584 115.157 151.225 114.916 150.835 114.767C150.444 114.585 149.994 114.497 149.485 114.497C148.975 114.497 148.525 114.585 148.104 114.767C147.684 114.947 147.323 115.186 147.055 115.516C146.784 115.847 146.545 116.206 146.394 116.627C146.244 117.046 146.155 117.496 146.155 117.946C146.155 118.456 146.244 118.906 146.394 119.356C146.545 119.806 146.784 120.196 147.055 120.526C147.323 120.888 147.684 121.127 148.104 121.338C148.494 121.546 148.975 121.637 149.485 121.637C149.844 121.637 150.205 121.608 150.535 121.486C150.864 121.367 151.194 121.218 151.464 121.007C151.766 120.797 151.974 120.557 152.185 120.256C152.395 119.957 152.515 119.626 152.604 119.236H151.134C150.835 120.107 150.265 120.557 149.485 120.557C149.245 120.557 149.035 120.498 148.824 120.378C148.613 120.256 148.434 120.107 148.285 119.897C148.134 119.717 148.015 119.478 147.924 119.207C147.837 118.945 147.777 118.683 147.773 118.396H152.754V117.886ZM151.134 117.376C151.134 117.376 151.132 117.356 151.132 117.347H147.773C147.773 117.106 147.835 116.866 147.924 116.656C148.015 116.447 148.134 116.237 148.285 116.086C148.436 115.935 148.613 115.787 148.795 115.696C148.975 115.607 149.185 115.547 149.425 115.547C149.695 115.547 149.904 115.607 150.114 115.696C150.294 115.787 150.475 115.937 150.624 116.086C150.775 116.237 150.894 116.447 150.985 116.656C151.07 116.858 151.103 117.089 151.132 117.347H151.134V117.376Z" fill="#C7AC87"/>
<path d="M153.745 114.617H155.155L155.246 115.246C155.426 115.007 155.665 114.827 155.907 114.705C156.177 114.586 156.448 114.526 156.716 114.526L157.046 114.557L157.465 114.677V115.967C157.046 115.816 156.776 115.727 156.685 115.727C156.474 115.727 156.295 115.758 156.115 115.878C155.936 115.969 155.816 116.089 155.696 116.237C155.576 116.386 155.486 116.568 155.426 116.778C155.366 116.989 155.335 117.197 155.335 117.408V121.518H153.774V114.617H153.743H153.745Z" fill="#C7AC87"/>
<path d="M162.806 116.898C162.686 116.417 162.506 116.088 162.265 115.907C162.025 115.696 161.755 115.607 161.396 115.607C161.125 115.607 160.915 115.667 160.706 115.787C160.496 115.907 160.316 116.086 160.196 116.297C160.046 116.507 159.957 116.778 159.866 117.046C159.806 117.346 159.746 117.616 159.746 117.946C159.746 118.277 159.777 118.607 159.866 118.906C159.957 119.206 160.046 119.507 160.196 119.746C160.347 119.986 160.496 120.165 160.706 120.316C160.917 120.467 161.125 120.527 161.396 120.527C161.575 120.527 161.755 120.496 161.906 120.407L162.325 120.048C162.444 119.897 162.535 119.717 162.624 119.538C162.715 119.327 162.775 119.119 162.804 118.908H164.453C164.393 119.327 164.302 119.717 164.154 120.048C164.005 120.378 163.764 120.677 163.524 120.888C163.254 121.127 162.954 121.307 162.593 121.429C162.234 121.549 161.844 121.608 161.394 121.608C160.853 121.608 160.374 121.489 159.984 121.278C159.594 121.068 159.263 120.768 158.993 120.438C158.722 120.079 158.543 119.689 158.423 119.239C158.303 118.789 158.244 118.369 158.244 117.917C158.244 117.436 158.334 116.986 158.483 116.567C158.632 116.148 158.842 115.787 159.144 115.457C159.414 115.157 159.773 114.916 160.163 114.736C160.554 114.557 161.004 114.466 161.485 114.466C161.904 114.466 162.294 114.526 162.655 114.645C162.985 114.765 163.285 114.916 163.524 115.155C163.764 115.366 163.974 115.605 164.125 115.905C164.276 116.204 164.395 116.505 164.455 116.865H162.806V116.896V116.898Z" fill="#C7AC87"/>
<path d="M172.017 117.886C172.017 117.376 171.928 116.957 171.777 116.536C171.627 116.117 171.416 115.756 171.117 115.456C170.846 115.157 170.487 114.916 170.097 114.767C169.707 114.585 169.257 114.497 168.747 114.497C168.237 114.497 167.787 114.585 167.366 114.767C166.947 114.947 166.586 115.186 166.317 115.516C166.047 115.847 165.807 116.206 165.657 116.627C165.506 117.046 165.417 117.496 165.417 117.946C165.417 118.456 165.506 118.906 165.657 119.356C165.836 119.806 166.047 120.196 166.346 120.526C166.616 120.888 166.976 121.127 167.397 121.338C167.787 121.546 168.266 121.637 168.776 121.637C169.137 121.637 169.496 121.608 169.827 121.486C170.157 121.367 170.487 121.218 170.758 121.007C171.057 120.797 171.267 120.557 171.478 120.256C171.686 119.957 171.806 119.626 171.897 119.236H170.427C170.126 120.107 169.587 120.557 168.776 120.557C168.536 120.557 168.326 120.498 168.117 120.378C167.907 120.256 167.727 120.107 167.576 119.897C167.426 119.717 167.306 119.478 167.217 119.207C167.128 118.945 167.071 118.683 167.067 118.396H172.017V117.886ZM170.427 117.376C170.427 117.376 170.425 117.356 170.423 117.347H167.067C167.067 117.106 167.126 116.866 167.217 116.656C167.306 116.447 167.426 116.237 167.576 116.086C167.727 115.937 167.907 115.787 168.086 115.696C168.266 115.607 168.476 115.547 168.716 115.547C168.986 115.547 169.197 115.607 169.407 115.696C169.616 115.787 169.798 115.937 169.946 116.086C170.066 116.237 170.188 116.447 170.277 116.656C170.363 116.858 170.394 117.089 170.423 117.347H170.427V117.376Z" fill="#C7AC87"/>
<path d="M234.845 84.2233C235.084 84.4132 235.328 84.5432 235.551 84.6196C235.326 84.5474 235.086 84.4256 234.845 84.2522L234.694 84.1634L234.634 84.343C234.634 84.343 234.395 84.8839 233.284 84.8839C233.105 84.8839 232.925 84.8839 232.714 84.8529C232.535 84.793 231.065 84.2233 229.835 83.9528L229.414 83.893H229.444C229.459 83.8868 229.473 83.8827 229.488 83.8765L229.804 83.9219C231.034 84.1923 232.504 84.7621 232.683 84.8219C232.894 84.8219 233.074 84.8529 233.255 84.8529C234.364 84.8529 234.605 84.312 234.605 84.312L234.694 84.1324L234.845 84.2233Z" fill="#C7AC87"/>
<path d="M236.405 81.3726C236.447 81.4551 236.465 81.5542 236.465 81.6719L236.447 81.8267L236.374 81.8535L236.405 81.5831C236.42 81.5047 236.42 81.4345 236.405 81.3726Z" fill="#C7AC87"/>
<path d="M236.705 84.3433L236.721 84.3557L236.614 84.463L236.705 84.3433Z" fill="#C7AC87"/>
<path d="M238.804 81.5828C238.835 81.6427 238.866 81.7624 238.804 81.9131L238.771 82.0473L238.656 82.0617L238.715 81.8223C238.767 81.6943 238.753 81.589 238.728 81.5229C238.757 81.5395 238.784 81.5601 238.804 81.5828Z" fill="#C7AC87"/>
<path d="M240.747 82.3223C240.761 82.3326 240.773 82.345 240.786 82.3594C240.778 82.3491 240.767 82.3408 240.755 82.3326C240.753 82.3285 240.749 82.3264 240.747 82.3223Z" fill="#C7AC87"/>
<path d="M240.875 82.7537C240.875 82.5699 240.852 82.4316 240.786 82.3594C240.809 82.378 240.827 82.4007 240.846 82.4234C240.846 82.3924 240.906 82.5431 240.875 82.7537Z" fill="#C7AC87"/>
<path d="M243.063 85.885C243.071 85.8003 243.063 85.7178 243.036 85.6331C242.966 85.2595 242.631 84.9292 242.369 84.7207C242.633 84.9271 242.976 85.2595 243.065 85.6331C243.079 85.7178 243.075 85.8003 243.063 85.885Z" fill="#C7AC87"/>
<path d="M233.86 92.1465C233.918 92.9474 234.133 93.6204 234.228 93.8846C234.126 93.6245 233.901 92.9578 233.86 92.1465Z" fill="#C7AC87"/>
<path d="M233.945 87.8524C233.825 87.9432 233.614 88.0341 233.344 88.0341C232.925 88.0341 232.415 87.8235 231.843 87.4024L231.814 87.3735C231.785 87.3446 230.402 85.7943 229.281 84.8736C229.246 84.8055 229.211 84.7373 229.174 84.6733C230.314 85.5734 231.814 87.2538 231.843 87.2538L231.874 87.2827C232.444 87.7038 232.954 87.9143 233.375 87.9143C233.674 87.9143 233.854 87.8235 233.974 87.7327C234.124 87.9432 234.244 88.1228 234.364 88.2735L234.304 88.3334L234.294 88.3396C234.188 88.2013 234.079 88.0382 233.945 87.8524Z" fill="#C7AC87"/>
<path d="M234.275 88.7525L234.064 88.6039L234.163 88.5337L234.304 88.6328C234.874 88.9631 235.654 89.5927 235.625 89.923L235.588 89.9663C235.511 89.6237 234.803 89.058 234.275 88.7525Z" fill="#C7AC87"/>
<path d="M235.625 94.0039C235.675 94.2 235.724 94.7202 235.607 95.098C235.714 94.7182 235.648 94.2 235.625 94.0039Z" fill="#C7AC87"/>
<path d="M235.947 92.3755L235.955 92.4147H235.896L235.947 92.3755Z" fill="#C7AC87"/>
<path d="M236.255 91.8449L236.224 91.8924C236.195 91.4176 235.613 90.7817 235.386 90.5547L235.204 90.373L235.301 90.3193L235.414 90.4329C235.654 90.6744 236.286 91.3639 236.255 91.8449Z" fill="#C7AC87"/>
<path d="M221.253 93.8245L221.342 93.7646V93.8699L221.253 93.8245Z" fill="#C7AC87"/>
<path d="M221.524 90.1336L221.505 90.1108L221.703 90.2244L221.695 90.2326L221.524 90.1336Z" fill="#C7AC87"/>
<path d="M222.694 88.3332L222.663 88.3022L222.874 88.4529L222.865 88.4571L222.694 88.3332Z" fill="#C7AC87"/>
<path d="M227.824 84.6733C227.254 85.7241 226.713 87.2827 226.625 87.4932C225.873 88.7525 225.303 88.5729 225.303 88.5729L225.124 88.513L225.093 88.7236C224.944 90.0736 224.284 90.1046 224.253 90.1046H224.104V90.2532C224.073 91.5145 223.264 91.8737 223.233 91.8737L223.144 91.9047V92.0244C223.082 93.133 222.694 93.9732 222.694 94.0041V94.095C222.723 94.4851 222.213 95.1746 221.823 95.5648L221.493 95.3232C221.424 95.2221 221.381 95.0982 221.354 94.9661C221.381 95.0528 221.416 95.1333 221.464 95.2035L221.792 95.445C222.182 95.0549 222.694 94.3633 222.663 93.9732V93.8844C222.663 93.8844 223.053 93.0132 223.113 91.9336V91.8139L223.204 91.7829C223.233 91.7829 224.044 91.4237 224.073 90.1645V90.0138H224.224C224.253 90.0138 224.913 89.9828 225.064 88.6327L225.093 88.4242L225.272 88.4841C225.272 88.4841 225.844 88.6926 226.594 87.4334C226.68 87.2331 227.176 85.8005 227.717 84.758C227.754 84.7291 227.789 84.7002 227.824 84.6733Z" fill="#C7AC87"/>
<path d="M219.152 90.0425L219.21 90.0569L219.183 90.1333C218.493 91.4834 217.653 92.2637 217.653 92.2947L217.622 92.3236L217.593 92.3545C217.442 92.7633 216.904 93.1266 216.445 93.3537C216.889 93.1245 217.389 92.7757 217.533 92.3834L217.593 92.3236C217.593 92.2947 218.433 91.5143 219.123 90.1643L219.152 90.0425Z" fill="#C7AC87"/>
<path d="M220.807 85.0036L220.803 84.9727L220.886 85.0016C220.886 85.0016 220.871 85.0036 220.863 85.0036H220.807Z" fill="#C7AC87"/>
<path d="M221.074 88.4839L221.105 88.5087L221.043 88.6325C220.692 89.3839 220.293 89.739 219.965 89.9021C220.279 89.7266 220.652 89.3715 220.983 88.6635L221.074 88.4839Z" fill="#C7AC87"/>
<path d="M222.093 84.5825C222.217 84.727 222.44 84.9562 222.89 85.0862C222.43 84.9582 222.199 84.727 222.093 84.5825Z" fill="#C7AC87"/>
<path d="M222.903 87.2539L222.921 87.2766L222.814 87.4645C222.632 87.7638 222.484 88.0033 222.333 88.154L222.182 88.3026C222.031 88.4533 221.897 88.5359 221.786 88.5813C221.893 88.5255 222.017 88.4388 222.153 88.3026L222.273 88.154C222.453 88.0033 222.603 87.7638 222.783 87.4645L222.903 87.2539Z" fill="#C7AC87"/>
<path d="M223.408 87.6645C223.15 87.6315 223.057 87.4952 223.055 87.4663C223.068 87.487 223.165 87.6273 223.408 87.6645Z" fill="#C7AC87"/>
<path d="M224.284 85.1523C224.22 85.1606 224.156 85.1668 224.096 85.1709C224.147 85.1668 224.201 85.1606 224.253 85.1523H224.284Z" fill="#C7AC87"/>
<path d="M224.853 87.1032C224.922 87.0206 225.217 86.6924 225.623 86.2754C225.211 86.7068 224.909 87.0495 224.853 87.1342C224.407 87.4479 224.007 87.6255 223.671 87.6647C224.005 87.6193 224.405 87.419 224.853 87.1032Z" fill="#C7AC87"/>
<path d="M224.313 85.1521H224.284C224.313 85.1521 226.414 84.3119 227.764 84.1633L228.004 84.1323L228.008 84.1365L227.793 84.1633C226.443 84.3119 224.343 85.1521 224.313 85.1521Z" fill="#C7AC87"/>
<path d="M228.035 84.1635L227.733 84.3431L227.283 84.7023C227.215 84.7581 227.147 84.8159 227.079 84.8757C227.157 84.8055 227.236 84.7374 227.314 84.6734L227.764 84.3122L228.026 84.1553L228.035 84.1635Z" fill="#C7AC87"/>
<path d="M223.204 109.336C223.276 109.54 223.823 110.155 224.387 110.721C223.817 110.155 223.262 109.54 223.173 109.336C223.095 109.131 223.204 108.977 223.328 108.877C223.21 108.979 223.109 109.133 223.204 109.336Z" fill="#C7AC87"/>
<path d="M227.45 85.5815L227.413 85.693C227.421 85.6662 227.434 85.629 227.45 85.5815Z" fill="#C7AC87"/>
<path d="M226.66 100.69L227.554 104.175L226.654 100.695L226.66 100.69Z" fill="#C7AC87"/>
<path d="M230.188 100.69L230.194 100.695L229.294 104.175L230.188 100.69Z" fill="#C7AC87"/>
<path d="M229.143 84.2832C229.275 84.3864 229.405 84.469 229.535 84.5887C229.401 84.4711 229.25 84.3885 229.143 84.2832Z" fill="#C7AC87"/>
<path d="M233.555 87.611C233.724 87.5532 233.798 87.4397 233.823 87.4355C233.811 87.4521 233.724 87.5594 233.555 87.611Z" fill="#C7AC87"/>
<path d="M236.075 84.9439H236.135L236.129 84.9728H236.075C235.654 84.9728 235.264 84.8221 234.814 84.5537C234.634 84.7932 234.215 85.1524 233.255 85.1524C233.045 85.1524 232.834 85.1524 232.624 85.1235H232.595C232.564 85.1235 230.464 84.2833 229.114 84.1326L228.875 84.1037H228.844L228.875 84.0728L229.114 84.1037C230.464 84.2833 232.564 85.0925 232.595 85.0925H232.624C232.834 85.1235 233.045 85.1235 233.255 85.1235C234.215 85.1235 234.634 84.7622 234.814 84.5228C235.235 84.7932 235.654 84.9439 236.075 84.9439Z" fill="#C7AC87"/>
<path d="M237.485 89.9541H237.514C237.489 89.9582 237.462 89.9624 237.433 89.9624C237.452 89.9603 237.469 89.9582 237.485 89.9541Z" fill="#C7AC87"/>
<path d="M237.696 89.9229L237.7 89.9291L237.605 89.9538H237.576L237.696 89.9229Z" fill="#C7AC87"/>
<path d="M238.172 86.0771C238.232 86.2155 238.22 86.3785 238.115 86.5623C238.195 86.3765 238.226 86.2155 238.172 86.0771Z" fill="#C7AC87"/>
<path d="M240.485 90.9427L240.456 91.0046V90.9427C240.815 89.5038 239.915 88.8742 239.886 88.8433C239.946 88.8742 240.815 89.5038 240.485 90.9427Z" fill="#C7AC87"/>
<path d="M240.994 93.4635C240.994 93.4635 240.98 93.4594 240.972 93.4552C241.56 92.644 240.485 91.0937 240.485 91.0648L240.456 91.0049L240.515 91.0648C240.515 91.0648 241.595 92.6543 240.994 93.4635Z" fill="#C7AC87"/>
<path d="M231.385 80.7389C231.437 80.5035 231.42 80.3219 231.393 80.2021C231.41 80.1939 231.424 80.1856 231.441 80.1753C231.457 80.3136 231.453 80.5015 231.385 80.7389Z" fill="#C7AC87"/>
<path d="M232.291 78.9595C232.287 79.0482 232.268 79.1535 232.225 79.2712C232.256 79.1535 232.264 79.0524 232.264 78.9719C232.273 78.9677 232.283 78.9636 232.291 78.9595Z" fill="#C7AC87"/>
<path d="M232.997 81.7192C232.911 81.9649 232.646 82.3654 231.874 82.7535C231.724 82.7824 230.615 83.0218 229.653 83.3831C229.354 83.5028 229.083 83.5937 228.815 83.7134L228.844 83.6824L228.875 83.6535L228.986 83.5317H228.988C229.213 83.4388 229.438 83.3624 229.684 83.2634C230.644 82.9021 231.754 82.6626 231.905 82.6317C232.601 82.3034 232.884 81.9628 232.997 81.7192Z" fill="#C7AC87"/>
<path d="M234.424 80.8913C234.492 80.8232 234.537 80.7571 234.57 80.6973C234.541 80.7654 234.488 80.8583 234.395 80.9532L234.244 81.073L233.885 81.2216L233.734 81.2526C233.583 81.2815 233.404 81.2815 233.195 81.2815H233.057L233.045 81.2216V81.1927H233.224C233.435 81.1927 233.614 81.1927 233.765 81.1617L233.914 81.1328L234.275 80.9821L234.424 80.8913Z" fill="#C7AC87"/>
<path d="M235.144 80.4415C235.532 80.4415 235.825 80.3197 236.032 80.1772C235.821 80.3341 235.52 80.4724 235.115 80.4724L234.785 80.4415H234.653L234.665 80.3816L234.814 80.4126L235.144 80.4415Z" fill="#C7AC87"/>
<path d="M237.095 79.7232C237.815 79.7232 238.371 79.556 238.414 79.5415L238.385 79.5725C238.385 79.5725 237.815 79.7521 237.064 79.7521C236.884 79.7521 236.705 79.7521 236.554 79.7232L236.465 79.6922L236.447 79.719L236.465 79.6633L236.585 79.6922C236.736 79.7232 236.915 79.7232 237.095 79.7232Z" fill="#C7AC87"/>
<path d="M238.476 79.5415L238.565 79.5725H238.445L238.414 79.5415H238.476Z" fill="#C7AC87"/>
<path d="M230.043 77.7124L230.163 77.8486C229.901 79.3432 229.259 81.5975 228.866 82.9393L228.633 83.1726L228.693 82.993C229.083 81.6718 229.775 79.2421 230.043 77.7124Z" fill="#C7AC87"/>
<path d="M231.185 76.3911V76.3952C230.951 76.4489 230.669 77.1962 230.524 77.863L230.464 78.1313L230.437 78.1086L230.493 77.863C230.644 77.1714 230.943 76.3911 231.185 76.3911Z" fill="#C7AC87"/>
<path d="M232.444 75.4023L232.454 75.4065C232.079 75.4663 231.69 76.1951 231.575 76.482L231.484 76.7215L231.445 76.6678L231.515 76.482C231.635 76.2116 232.054 75.4023 232.444 75.4023Z" fill="#C7AC87"/>
<path d="M233.435 75.1611C233.435 75.1611 233.455 75.1611 233.466 75.1632C233.123 75.1776 232.925 75.4625 232.925 75.4625L232.834 75.6112L232.797 75.574L232.865 75.4625C232.865 75.4625 233.074 75.1611 233.435 75.1611Z" fill="#C7AC87"/>
<path d="M234.927 75.1339C234.576 75.1484 234.184 75.3713 234.184 75.3713L234.124 75.4312L234.079 75.4023L234.124 75.3713C234.124 75.3713 234.545 75.1318 234.905 75.1318C234.913 75.1318 234.919 75.1318 234.927 75.1339Z" fill="#C7AC87"/>
<path d="M228.425 83.0529V82.993L228.303 82.543L228.274 82.4522C227.824 80.9225 227.465 79.3928 227.223 78.3132L227.135 77.8921L227.104 77.6216C227.044 77.3244 227.011 77.0808 227.004 76.9136C227.015 77.0746 227.056 77.3079 227.135 77.6216L227.163 77.8921L227.254 78.3132C227.494 79.3928 227.853 80.9225 228.303 82.4522L228.334 82.543L228.454 82.993L228.425 83.0529Z" fill="#C7AC87"/>
<path d="M224.044 75.5222L224.123 75.6544L224.104 75.6729L224.013 75.5222C224.013 75.5222 223.809 75.2663 223.518 75.2271C223.825 75.2498 224.044 75.5222 224.044 75.5222Z" fill="#C7AC87"/>
<path d="M225.334 76.5419C225.215 76.2488 224.812 75.4995 224.459 75.4644H224.463C224.822 75.4623 225.243 76.2426 225.363 76.5419L225.471 76.7566L225.454 76.7814L225.334 76.5419Z" fill="#C7AC87"/>
<path d="M225.964 80.0533H225.993V80.0822L225.844 80.0223C225.623 79.9233 225.462 79.8056 225.345 79.6982C225.458 79.7953 225.611 79.9005 225.813 79.9914L225.964 80.0533Z" fill="#C7AC87"/>
<path d="M225.78 76.4553L225.784 76.4512C225.993 76.4512 226.294 77.2026 226.443 77.923L226.497 78.1687L226.474 78.1914L226.414 77.923C226.27 77.2315 225.989 76.5131 225.78 76.4553Z" fill="#C7AC87"/>
<path d="M227.525 82.6628L227.554 82.6937C227.013 82.1818 226.503 81.7318 226.414 81.6719C226.41 81.6657 226.404 81.6595 226.4 81.6533C226.528 81.7462 227.037 82.1777 227.525 82.6628Z" fill="#C7AC87"/>
<path d="M228.243 83.4119L228.212 83.3768L228.154 83.2034C227.795 81.8864 227.108 79.4959 226.835 77.9373L226.864 77.9229C227.134 79.4814 227.793 81.8822 228.183 83.2034L228.243 83.4119Z" fill="#C7AC87"/>
<path d="M219.693 77.4732L219.816 77.5227L219.812 77.533L219.664 77.4732C219.664 77.4732 219.498 77.3906 219.302 77.3823C219.513 77.3823 219.693 77.4732 219.693 77.4732Z" fill="#C7AC87"/>
<path d="M221.583 77.7725L221.738 77.9273L221.732 77.9521L221.553 77.7725C221.553 77.7725 220.818 77.0975 220.279 77.0851C220.283 77.083 220.289 77.083 220.293 77.083C220.832 77.083 221.583 77.7725 221.583 77.7725Z" fill="#C7AC87"/>
<path d="M223.324 78.6722L223.456 78.858L223.443 78.8828L223.293 78.6722C222.969 78.2016 222.331 77.4729 221.994 77.444C221.998 77.4419 222 77.4419 222.003 77.4419C222.333 77.4419 222.993 78.1912 223.324 78.6722Z" fill="#C7AC87"/>
<path d="M228.063 83.6226V83.6535C228.045 83.6453 228.026 83.6349 228.008 83.6267L228.004 83.6226L227.644 83.2324C226.984 82.5429 226.113 81.8534 226.113 81.8534L226.084 81.8225C225.423 80.9823 225.423 80.4414 225.483 80.1731C224.703 79.7519 224.614 79.242 224.614 78.9716C224.253 78.823 224.013 78.6413 223.863 78.4328H223.834C223.778 78.4328 223.72 78.4328 223.666 78.4844C223.732 78.4019 223.799 78.4019 223.863 78.4019H223.893C224.044 78.6124 224.284 78.792 224.643 78.9427C224.643 79.2131 224.734 79.723 225.514 80.1421C225.454 80.4125 225.454 80.9534 226.113 81.7936L226.144 81.8225C226.144 81.8225 227.013 82.5119 227.673 83.2035L228.035 83.5937L228.063 83.6226Z" fill="#C7AC87"/>
<path d="M213.948 86.1455C213.931 86.1434 213.914 86.1434 213.902 86.1434C213.848 85.9845 213.82 85.8482 213.834 85.6748C213.822 85.84 213.853 85.9741 213.948 86.1455Z" fill="#C7AC87"/>
<path d="M218.072 84.8221C218.072 84.8221 218.08 84.8262 218.095 84.8345C218.041 84.8118 218.012 84.7932 218.012 84.7932L217.975 84.7684L217.983 84.7622L218.072 84.8221Z" fill="#C7AC87"/>
<path d="M218.252 81.4631C218.217 81.4982 218.202 81.5539 218.202 81.622C218.198 81.5539 218.204 81.4982 218.223 81.4631C218.278 81.3784 218.411 81.3206 218.596 81.3145C218.427 81.3268 218.305 81.3826 218.252 81.4631Z" fill="#C7AC87"/>
<path d="M218.101 84.8364C218.13 84.8488 218.167 84.8653 218.208 84.8798C218.161 84.8633 218.124 84.8467 218.101 84.8364Z" fill="#C7AC87"/>
<path d="M218.217 84.8819C218.217 84.8819 218.21 84.8819 218.208 84.8799C218.21 84.8799 218.214 84.8799 218.217 84.8819Z" fill="#C7AC87"/>
<path d="M218.359 84.9252C218.303 84.9107 218.258 84.8963 218.217 84.8818C218.258 84.8963 218.305 84.9107 218.359 84.9252Z" fill="#C7AC87"/>
<path d="M220.293 84.4629C220.293 84.4629 220.297 84.467 220.302 84.4753C220.275 84.4505 220.262 84.434 220.262 84.434L220.198 84.3452H220.202L220.293 84.4629Z" fill="#C7AC87"/>
<path d="M223.551 84.8198C222.475 84.7992 222.273 84.2831 222.244 84.2831L222.188 84.1221L222.213 84.1035L222.273 84.2831C222.304 84.2831 222.5 84.7889 223.551 84.8198Z" fill="#C7AC87"/>
<path d="M223.563 81.5829C223.563 81.5829 223.567 81.6015 223.569 81.6118C223.132 81.6077 222.81 81.521 222.603 81.3724L222.543 81.3435C222.543 81.3435 221.763 81.0421 221.162 81.0421C220.892 81.0421 220.712 81.073 220.624 81.1928C220.564 81.2815 220.533 81.4033 220.564 81.552L220.593 81.8224L220.562 81.81L220.533 81.552C220.504 81.4033 220.533 81.2815 220.593 81.1928C220.683 81.073 220.892 81.0132 221.133 81.0132C221.732 81.0132 222.512 81.3125 222.512 81.3125L222.572 81.3435C222.783 81.4921 223.113 81.5829 223.563 81.5829Z" fill="#C7AC87"/>
<path d="M227.525 83.8021C227.134 83.6535 226.684 83.5028 226.263 83.383C225.574 83.2034 225.004 83.0527 225.004 83.0527H224.973C224.591 82.8608 224.315 82.6626 224.114 82.4727C224.312 82.6543 224.581 82.8422 224.944 83.0218H224.973C224.973 83.0218 225.543 83.1725 226.234 83.3521C226.653 83.4718 227.103 83.6225 227.494 83.7732L227.525 83.8021Z" fill="#C7AC87"/>
<path d="M202.088 109.063H202.113C202.092 109.066 202.082 109.066 202.082 109.066C202.084 109.066 202.086 109.063 202.088 109.063Z" fill="#C7AC87"/>
<path d="M220.983 125.118C220.983 125.118 220.997 125.14 221.003 125.151C220.735 125.206 220.442 125.147 220.202 124.938C220.176 124.913 220.153 124.889 220.128 124.864C220.143 124.878 220.157 124.893 220.174 124.907C220.413 125.118 220.712 125.178 220.983 125.118Z" fill="#C7AC87"/>
<path d="M221.524 124.699L221.714 124.969L221.703 124.998L221.493 124.699C221.612 124.397 221.524 124.007 221.222 123.737C221.036 123.582 220.824 123.499 220.619 123.491C220.834 123.491 221.057 123.574 221.253 123.737C221.553 124.007 221.643 124.397 221.524 124.699Z" fill="#C7AC87"/>
<path d="M222.062 124.818L222.168 124.922C222.168 124.922 222.159 124.932 222.153 124.938L222.034 124.818H222.062Z" fill="#C7AC87"/>
<path d="M225.033 127.608C225.394 127.938 225.483 128.479 225.184 128.809C225.033 128.974 224.824 129.057 224.606 129.057C224.814 129.048 225.012 128.966 225.153 128.809C225.454 128.479 225.394 127.938 225.004 127.608C224.845 127.451 224.643 127.385 224.432 127.37C224.653 127.378 224.868 127.442 225.033 127.608Z" fill="#C7AC87"/>
<path d="M228.334 118.997C223.233 114.648 218.733 111.857 216.633 110.686C214.767 109.621 211.479 108.483 208.004 108.283C211.489 108.477 214.792 109.619 216.662 110.686C218.762 111.883 223.254 114.641 228.348 118.985C228.344 118.989 228.338 118.993 228.334 118.997Z" fill="#C7AC87"/>
<path d="M228.425 122.628C228.425 122.628 228.435 122.637 228.439 122.641C226.257 124.583 224.672 126.14 224.104 126.708L224.403 127.009V127.277L224.313 127.339L224.372 127.368H224.343L224.284 127.339L224.372 127.277V127.009L224.073 126.708C224.643 126.138 226.234 124.577 228.425 122.628Z" fill="#C7AC87"/>
<path d="M232.475 127.368C232.376 127.368 232.262 127.382 232.151 127.415C232.262 127.372 232.38 127.355 232.481 127.366H232.475V127.368Z" fill="#C7AC87"/>
<path d="M233.404 127.607C233.453 127.586 233.501 127.576 233.544 127.576C233.509 127.58 233.472 127.591 233.435 127.607C233.315 127.667 233.255 127.849 233.224 128.028C233.255 128.328 233.133 128.598 232.894 128.809C232.714 128.974 232.489 129.056 232.273 129.056C232.481 129.048 232.692 128.965 232.865 128.809C233.105 128.629 233.224 128.328 233.195 128.028C233.224 127.849 233.284 127.667 233.404 127.607Z" fill="#C7AC87"/>
<path d="M235.055 124.818L235.105 124.969L235.084 124.998L235.024 124.818H235.055Z" fill="#C7AC87"/>
<path d="M236.795 123.737C237.095 124.067 237.004 124.608 236.645 124.938C236.405 125.149 236.104 125.238 235.836 125.149C235.718 125.343 235.714 125.539 235.726 125.65C235.701 125.547 235.677 125.333 235.805 125.118C236.075 125.209 236.374 125.118 236.614 124.907C236.975 124.608 237.064 124.067 236.765 123.737C236.618 123.58 236.418 123.497 236.207 123.493C236.428 123.485 236.641 123.568 236.795 123.737Z" fill="#C7AC87"/>
<path d="M243.546 125.989C245.076 128.179 241.956 130.188 239.766 130.219H239.735C241.925 130.188 245.047 128.179 243.515 125.989C243.515 125.989 243.362 125.807 243.11 125.661C243.381 125.803 243.546 125.989 243.546 125.989Z" fill="#C7AC87"/>
<path d="M254.615 109.067V109.065C253.546 108.669 252.418 108.432 251.277 108.324C252.429 108.427 253.566 108.663 254.646 109.065C254.65 109.067 254.64 109.067 254.613 109.067H254.615Z" fill="#C7AC87"/>
</svg>
