<svg width="16" height="16" viewBox="0 0 16 16" fill="none" xmlns="http://www.w3.org/2000/svg">
<path d="M15 9H0.984375C0.6875 9 0.449219 8.90625 0.269531 8.71875C0.0898438 8.53125 0 8.28906 0 7.99219C0 7.69531 0.0898438 7.45312 0.269531 7.26562C0.449219 7.07812 0.6875 6.98438 0.984375 6.98438H15C15.2969 6.98438 15.5352 7.07812 15.7148 7.26562C15.8945 7.45312 15.9844 7.69531 15.9844 7.99219C15.9844 8.28906 15.8945 8.53125 15.7148 8.71875C15.5352 8.90625 15.2969 9 15 9ZM7.99219 15.9844C7.83594 15.9844 7.70703 15.9609 7.60547 15.9141C7.50391 15.8672 7.39844 15.7969 7.28906 15.7031C7.08594 15.5 6.98438 15.2656 6.98438 15C6.98438 14.7344 7.08594 14.5 7.28906 14.2969L13.5938 7.99219L7.28906 1.6875C7.08594 1.48438 6.98438 1.25 6.98438 0.984375C6.98438 0.71875 7.08594 0.484375 7.28906 0.28125C7.49219 0.09375 7.72656 0 7.99219 0C8.25781 0 8.49219 0.09375 8.69531 0.28125L15.7031 7.28906C15.8906 7.49219 15.9844 7.72656 15.9844 7.99219C15.9844 8.25781 15.8906 8.49219 15.7031 8.69531L8.69531 15.7031C8.58594 15.7969 8.48047 15.8672 8.37891 15.9141C8.27734 15.9609 8.14844 15.9844 7.99219 15.9844Z" fill="#666666" fill-opacity="0.5"/>
</svg>
