<svg width="150" height="60" viewBox="0 0 150 60" fill="none" xmlns="http://www.w3.org/2000/svg">
<path d="M18.246 42.195H18.206L16.146 38.135H15.236V43.425H15.626V39.115H15.686L17.886 43.425H18.066L20.236 39.085H20.266V43.425H21.156V38.135H20.266L18.246 42.195ZM22.336 39.495V43.425H23.146V39.265H22.906L22.336 39.495ZM23.066 37.375C23.026 37.335 22.976 37.305 22.916 37.285C22.856 37.265 22.796 37.255 22.736 37.255C22.676 37.255 22.616 37.265 22.556 37.285C22.496 37.305 22.456 37.335 22.406 37.375C22.366 37.415 22.336 37.455 22.306 37.505C22.276 37.555 22.266 37.605 22.266 37.665C22.266 37.725 22.276 37.775 22.306 37.825C22.336 37.875 22.366 37.915 22.406 37.955C22.446 37.995 22.496 38.025 22.556 38.045C22.616 38.065 22.676 38.075 22.736 38.075C22.796 38.075 22.856 38.065 22.916 38.045C22.976 38.025 23.026 37.995 23.066 37.955C23.106 37.915 23.146 37.875 23.166 37.825C23.196 37.775 23.206 37.725 23.206 37.665C23.206 37.605 23.196 37.555 23.166 37.505C23.136 37.455 23.106 37.415 23.066 37.375ZM27.246 39.625C27.156 39.515 27.046 39.425 26.916 39.365C26.786 39.305 26.656 39.265 26.516 39.265C26.236 39.265 25.966 39.335 25.706 39.475C25.436 39.615 25.186 39.825 24.936 40.095V39.355H24.126V43.435H24.936V40.405C25.026 40.315 25.126 40.235 25.226 40.165C25.326 40.095 25.426 40.035 25.526 39.975C25.626 39.925 25.726 39.885 25.816 39.855C25.916 39.825 26.006 39.815 26.086 39.815C26.276 39.815 26.436 39.885 26.556 40.025C26.676 40.165 26.736 40.365 26.736 40.635V43.425H27.546V40.495C27.546 40.325 27.516 40.165 27.466 40.015C27.416 39.865 27.346 39.735 27.246 39.625ZM29.246 37.375C29.206 37.335 29.156 37.305 29.096 37.285C29.036 37.265 28.976 37.255 28.916 37.255C28.856 37.255 28.796 37.265 28.736 37.285C28.676 37.305 28.636 37.335 28.586 37.375C28.546 37.415 28.506 37.455 28.486 37.505C28.456 37.555 28.446 37.605 28.446 37.665C28.446 37.725 28.456 37.775 28.486 37.825C28.516 37.875 28.546 37.915 28.586 37.955C28.626 37.995 28.676 38.025 28.736 38.045C28.796 38.065 28.856 38.075 28.916 38.075C28.976 38.075 29.036 38.065 29.096 38.045C29.156 38.025 29.206 37.995 29.246 37.955C29.286 37.915 29.316 37.875 29.346 37.825C29.376 37.775 29.386 37.725 29.386 37.665C29.386 37.605 29.376 37.555 29.346 37.505C29.326 37.455 29.286 37.415 29.246 37.375ZM28.526 39.495V43.425H29.336V39.265H29.096L28.526 39.495ZM32.806 41.495C32.696 41.395 32.566 41.315 32.426 41.235C32.286 41.165 32.136 41.095 31.986 41.025C31.836 40.955 31.686 40.895 31.546 40.835C31.406 40.775 31.276 40.705 31.166 40.635C31.056 40.565 30.966 40.475 30.896 40.385C30.826 40.295 30.796 40.185 30.796 40.065C30.796 39.995 30.816 39.925 30.856 39.855C30.896 39.785 30.946 39.735 31.016 39.685C31.086 39.635 31.166 39.595 31.266 39.565C31.366 39.535 31.466 39.525 31.586 39.525C31.806 39.525 32.006 39.585 32.196 39.715C32.386 39.835 32.556 40.025 32.716 40.285L33.016 40.015C32.896 39.855 32.776 39.725 32.666 39.625C32.556 39.525 32.436 39.445 32.326 39.395C32.216 39.345 32.096 39.305 31.976 39.285C31.856 39.265 31.726 39.255 31.596 39.255C31.396 39.255 31.206 39.285 31.036 39.335C30.866 39.395 30.716 39.475 30.596 39.575C30.476 39.675 30.376 39.795 30.306 39.935C30.236 40.075 30.206 40.225 30.206 40.395C30.206 40.575 30.236 40.725 30.296 40.845C30.356 40.975 30.436 41.085 30.546 41.185C30.646 41.285 30.766 41.365 30.896 41.445C31.026 41.515 31.156 41.585 31.296 41.655C31.436 41.715 31.566 41.785 31.696 41.845C31.826 41.905 31.946 41.975 32.046 42.045C32.146 42.115 32.236 42.205 32.296 42.295C32.356 42.385 32.386 42.495 32.386 42.625C32.386 42.705 32.366 42.775 32.326 42.845C32.286 42.915 32.236 42.985 32.166 43.035C32.096 43.095 32.016 43.135 31.926 43.165C31.836 43.195 31.726 43.215 31.616 43.215C31.496 43.215 31.396 43.205 31.286 43.175C31.186 43.145 31.086 43.095 30.996 43.035C30.906 42.975 30.816 42.895 30.716 42.795C30.626 42.695 30.526 42.575 30.436 42.435L30.106 42.735C30.226 42.895 30.356 43.025 30.476 43.125C30.606 43.225 30.736 43.305 30.856 43.355C30.986 43.405 31.106 43.445 31.236 43.465C31.366 43.485 31.486 43.495 31.606 43.495C31.866 43.495 32.096 43.465 32.296 43.395C32.496 43.335 32.656 43.245 32.786 43.135C32.916 43.025 33.016 42.895 33.076 42.745C33.136 42.595 33.176 42.435 33.176 42.265C33.176 42.095 33.146 41.945 33.076 41.815C33.006 41.705 32.926 41.595 32.806 41.495ZM35.776 42.935C35.706 42.985 35.616 43.005 35.526 43.005C35.466 43.005 35.406 42.995 35.356 42.975C35.296 42.955 35.256 42.925 35.216 42.885C35.176 42.845 35.146 42.795 35.126 42.745C35.106 42.695 35.096 42.635 35.096 42.575V39.695H36.016V39.355H35.096V37.955H34.866C34.826 38.165 34.776 38.355 34.726 38.545C34.676 38.735 34.596 38.895 34.506 39.035C34.416 39.175 34.296 39.285 34.146 39.365C33.996 39.445 33.816 39.485 33.586 39.485V39.685H34.296V42.565C34.296 42.705 34.316 42.835 34.346 42.955C34.376 43.075 34.426 43.175 34.496 43.255C34.566 43.335 34.646 43.405 34.746 43.445C34.846 43.495 34.966 43.515 35.106 43.515C35.366 43.515 35.596 43.465 35.776 43.355C35.956 43.245 36.096 43.095 36.206 42.915L36.006 42.775C35.916 42.835 35.846 42.895 35.776 42.935ZM39.086 39.405C39.026 39.365 38.966 39.325 38.886 39.295C38.806 39.265 38.726 39.255 38.636 39.255C38.526 39.255 38.416 39.275 38.316 39.325C38.206 39.375 38.106 39.435 38.006 39.515C37.906 39.595 37.816 39.685 37.726 39.785C37.636 39.885 37.546 39.995 37.476 40.115V39.345H36.666V43.425H37.476V40.595C37.536 40.505 37.586 40.415 37.646 40.345C37.706 40.265 37.756 40.205 37.816 40.145C37.866 40.085 37.926 40.045 37.976 40.015C38.026 39.985 38.086 39.965 38.136 39.965C38.206 39.965 38.266 39.975 38.306 39.995C38.356 40.015 38.396 40.035 38.446 40.055C38.486 40.075 38.536 40.105 38.596 40.125C38.646 40.145 38.726 40.155 38.816 40.155C38.966 40.155 39.076 40.125 39.156 40.055C39.236 39.985 39.276 39.885 39.276 39.755C39.276 39.685 39.256 39.625 39.226 39.565C39.186 39.505 39.136 39.455 39.086 39.405ZM41.876 42.295L40.296 39.355H39.376L41.466 43.245L41.196 43.855C41.166 43.925 41.126 44.005 41.086 44.095C41.046 44.185 40.996 44.265 40.946 44.335C40.896 44.405 40.836 44.465 40.766 44.515C40.696 44.565 40.626 44.585 40.546 44.585C40.466 44.585 40.406 44.575 40.356 44.555C40.306 44.535 40.266 44.515 40.226 44.495C40.186 44.475 40.136 44.445 40.096 44.435C40.046 44.415 39.976 44.405 39.896 44.405C39.826 44.405 39.756 44.415 39.696 44.445C39.636 44.465 39.586 44.505 39.546 44.545C39.506 44.585 39.476 44.635 39.446 44.685C39.426 44.735 39.416 44.795 39.416 44.855C39.416 44.925 39.436 44.985 39.466 45.045C39.496 45.105 39.546 45.155 39.606 45.195C39.666 45.235 39.736 45.265 39.816 45.295C39.896 45.315 39.976 45.325 40.066 45.325C40.196 45.325 40.326 45.305 40.456 45.255C40.586 45.205 40.726 45.135 40.846 45.045C40.976 44.945 41.096 44.825 41.206 44.685C41.316 44.535 41.426 44.365 41.506 44.165L43.586 39.375H43.156L41.876 42.295ZM49.916 39.845C49.726 39.665 49.496 39.525 49.236 39.415C48.976 39.315 48.686 39.255 48.376 39.255C48.066 39.255 47.776 39.315 47.516 39.425C47.246 39.535 47.026 39.695 46.836 39.895C46.646 40.095 46.496 40.325 46.386 40.585C46.276 40.855 46.226 41.135 46.226 41.435C46.226 41.735 46.276 41.995 46.386 42.245C46.496 42.495 46.646 42.715 46.836 42.905C47.026 43.095 47.256 43.245 47.516 43.345C47.776 43.455 48.066 43.505 48.376 43.505C48.686 43.505 48.976 43.445 49.236 43.325C49.496 43.205 49.726 43.045 49.916 42.845C50.106 42.645 50.256 42.405 50.366 42.135C50.476 41.865 50.526 41.575 50.526 41.265C50.526 40.985 50.476 40.725 50.366 40.485C50.256 40.235 50.106 40.025 49.916 39.845ZM49.536 42.275C49.486 42.465 49.406 42.625 49.306 42.765C49.206 42.905 49.096 43.015 48.956 43.095C48.826 43.175 48.676 43.215 48.516 43.215C48.296 43.215 48.096 43.155 47.926 43.045C47.756 42.935 47.606 42.775 47.486 42.585C47.366 42.395 47.276 42.165 47.216 41.905C47.156 41.645 47.116 41.365 47.116 41.065C47.116 40.855 47.146 40.665 47.206 40.485C47.266 40.305 47.346 40.145 47.436 40.005C47.536 39.865 47.646 39.765 47.776 39.685C47.906 39.605 48.036 39.565 48.176 39.565C48.446 39.565 48.666 39.615 48.846 39.735C49.026 39.845 49.176 39.995 49.286 40.185C49.396 40.375 49.486 40.605 49.536 40.855C49.586 41.115 49.616 41.385 49.616 41.685C49.616 41.895 49.586 42.085 49.536 42.275ZM54.156 37.455C54.056 37.395 53.946 37.345 53.796 37.305C53.656 37.265 53.496 37.255 53.316 37.255C53.106 37.255 52.906 37.295 52.726 37.375C52.536 37.455 52.376 37.575 52.246 37.715C52.106 37.865 51.996 38.035 51.926 38.225C51.846 38.425 51.806 38.635 51.806 38.855V39.335H50.956V39.675H51.806V43.415H52.616V39.675H53.706V39.335H52.616V38.365C52.616 38.265 52.626 38.155 52.656 38.065C52.686 37.965 52.726 37.875 52.776 37.805C52.826 37.725 52.886 37.665 52.956 37.625C53.026 37.575 53.106 37.555 53.186 37.555C53.296 37.555 53.376 37.575 53.436 37.615C53.496 37.655 53.536 37.705 53.566 37.755C53.596 37.815 53.616 37.875 53.636 37.945C53.656 38.015 53.676 38.075 53.706 38.135C53.736 38.195 53.776 38.245 53.826 38.275C53.876 38.315 53.956 38.335 54.056 38.335C54.116 38.335 54.166 38.325 54.216 38.305C54.266 38.285 54.316 38.265 54.346 38.225C54.386 38.195 54.416 38.155 54.436 38.105C54.456 38.055 54.466 38.005 54.466 37.945C54.466 37.845 54.436 37.755 54.386 37.675C54.326 37.595 54.256 37.515 54.156 37.455ZM60.386 40.545H57.726V38.135H56.836V43.425H57.726V40.885H60.386V43.425H61.276V38.135H60.386V40.545ZM65.736 42.265C65.646 42.385 65.526 42.495 65.396 42.585C65.266 42.675 65.116 42.755 64.956 42.805C64.796 42.865 64.626 42.895 64.446 42.895C64.236 42.895 64.046 42.845 63.866 42.755C63.686 42.655 63.536 42.525 63.406 42.355C63.276 42.185 63.176 41.985 63.106 41.745C63.036 41.515 62.996 41.255 62.996 40.985H66.036C66.036 40.755 65.996 40.535 65.906 40.335C65.816 40.125 65.696 39.945 65.536 39.785C65.376 39.625 65.186 39.505 64.966 39.405C64.746 39.315 64.496 39.265 64.226 39.265C63.926 39.265 63.646 39.325 63.406 39.435C63.156 39.545 62.946 39.705 62.776 39.905C62.606 40.105 62.466 40.345 62.366 40.625C62.266 40.905 62.226 41.205 62.226 41.535C62.226 41.805 62.276 42.065 62.386 42.305C62.486 42.545 62.636 42.755 62.816 42.935C62.996 43.115 63.206 43.255 63.446 43.355C63.686 43.455 63.946 43.515 64.226 43.515C64.436 43.515 64.646 43.475 64.856 43.395C65.066 43.315 65.256 43.205 65.426 43.075C65.596 42.935 65.756 42.775 65.886 42.595C66.016 42.415 66.106 42.215 66.166 42.005L65.936 41.905C65.896 42.025 65.826 42.145 65.736 42.265ZM63.116 40.225C63.176 40.095 63.246 39.975 63.336 39.885C63.426 39.785 63.526 39.715 63.636 39.655C63.746 39.595 63.866 39.575 63.986 39.575C64.136 39.575 64.266 39.605 64.396 39.655C64.526 39.715 64.636 39.785 64.726 39.885C64.826 39.985 64.896 40.095 64.946 40.235C64.996 40.365 65.026 40.515 65.026 40.665H62.996C63.026 40.495 63.056 40.355 63.116 40.225ZM69.606 39.555C69.496 39.465 69.346 39.385 69.156 39.335C68.976 39.285 68.746 39.255 68.476 39.255C68.256 39.255 68.046 39.275 67.846 39.325C67.646 39.375 67.466 39.445 67.326 39.525C67.176 39.615 67.056 39.715 66.966 39.825C66.876 39.945 66.836 40.065 66.836 40.205C66.836 40.275 66.846 40.335 66.866 40.395C66.886 40.455 66.916 40.505 66.956 40.545C66.996 40.585 67.036 40.625 67.096 40.645C67.146 40.665 67.206 40.685 67.266 40.685C67.346 40.685 67.416 40.665 67.466 40.635C67.516 40.605 67.556 40.565 67.586 40.515C67.616 40.465 67.636 40.405 67.646 40.345C67.656 40.275 67.666 40.215 67.666 40.135C67.666 40.055 67.676 39.985 67.696 39.905C67.716 39.835 67.746 39.765 67.796 39.705C67.846 39.645 67.916 39.595 67.996 39.565C68.086 39.525 68.196 39.515 68.336 39.515C68.456 39.515 68.566 39.535 68.666 39.565C68.766 39.595 68.846 39.655 68.916 39.735C68.986 39.815 69.036 39.915 69.076 40.045C69.116 40.175 69.126 40.325 69.126 40.515V40.765C68.946 40.815 68.756 40.855 68.566 40.915C68.376 40.965 68.186 41.025 68.006 41.095C67.826 41.165 67.656 41.245 67.496 41.325C67.336 41.415 67.196 41.515 67.076 41.625C66.956 41.735 66.856 41.865 66.786 42.005C66.716 42.145 66.686 42.305 66.686 42.475C66.686 42.615 66.706 42.755 66.756 42.875C66.806 42.995 66.876 43.105 66.966 43.195C67.056 43.285 67.166 43.355 67.296 43.415C67.426 43.465 67.566 43.495 67.726 43.495C67.896 43.495 68.046 43.475 68.176 43.435C68.306 43.395 68.426 43.345 68.536 43.285C68.646 43.225 68.746 43.155 68.836 43.075C68.926 43.005 69.026 42.925 69.116 42.855V43.415H69.926V40.335C69.926 40.175 69.896 40.025 69.846 39.895C69.806 39.765 69.716 39.655 69.606 39.555ZM69.116 42.575C69.036 42.635 68.956 42.695 68.876 42.745C68.796 42.795 68.726 42.845 68.646 42.885C68.566 42.925 68.486 42.955 68.406 42.985C68.326 43.005 68.236 43.025 68.146 43.025C68.056 43.025 67.976 43.005 67.896 42.965C67.816 42.925 67.746 42.875 67.686 42.805C67.626 42.735 67.576 42.665 67.536 42.565C67.496 42.475 67.486 42.385 67.486 42.285C67.486 42.185 67.506 42.095 67.556 42.005C67.606 41.915 67.666 41.835 67.756 41.755C67.836 41.675 67.936 41.605 68.046 41.535C68.156 41.465 68.266 41.405 68.386 41.345C68.506 41.285 68.626 41.235 68.756 41.185C68.876 41.135 69.006 41.095 69.116 41.055V42.575ZM71.046 37.485V43.425H71.856V37.255H71.626L71.046 37.485ZM74.626 42.935C74.546 42.985 74.466 43.005 74.376 43.005C74.316 43.005 74.256 42.995 74.206 42.975C74.156 42.955 74.106 42.925 74.066 42.885C74.026 42.845 73.996 42.795 73.976 42.745C73.956 42.695 73.946 42.635 73.946 42.575V39.695H74.866V39.355H73.946V37.955H73.706C73.666 38.165 73.616 38.355 73.566 38.545C73.516 38.735 73.436 38.895 73.346 39.035C73.256 39.175 73.136 39.285 72.986 39.365C72.836 39.445 72.646 39.485 72.426 39.485V39.685H73.136V42.565C73.136 42.705 73.156 42.835 73.186 42.955C73.216 43.075 73.266 43.175 73.336 43.255C73.406 43.335 73.486 43.405 73.586 43.445C73.686 43.495 73.806 43.515 73.946 43.515C74.206 43.515 74.436 43.465 74.606 43.355C74.786 43.245 74.926 43.095 75.036 42.915L74.836 42.775C74.766 42.835 74.696 42.895 74.626 42.935ZM78.846 40.015C78.796 39.865 78.716 39.735 78.626 39.625C78.536 39.515 78.426 39.425 78.296 39.365C78.166 39.305 78.036 39.265 77.896 39.265C77.616 39.265 77.346 39.335 77.086 39.475C76.816 39.615 76.566 39.825 76.316 40.095V37.265H76.086L75.506 37.495V43.435H76.316V40.405C76.406 40.315 76.506 40.235 76.596 40.165C76.696 40.095 76.796 40.035 76.886 39.975C76.986 39.925 77.086 39.885 77.176 39.855C77.276 39.825 77.366 39.815 77.446 39.815C77.636 39.815 77.796 39.885 77.916 40.025C78.036 40.165 78.096 40.365 78.096 40.635V43.425H78.906V40.495C78.926 40.325 78.906 40.165 78.846 40.015Z" fill="white"/>
<path d="M46.746 32.275H43.866L43.896 32.095C43.986 31.595 44.026 31.065 44.026 30.765C44.026 29.005 43.246 26.945 41.046 26.945C40.296 26.945 39.566 27.285 38.966 27.705C38.276 28.185 37.666 28.785 37.196 29.485C36.676 30.285 36.276 31.175 35.836 32.015C35.796 32.095 35.746 32.185 35.706 32.265H35.656V28.865H34.766V32.265H32.166V31.925C32.166 28.325 29.566 27.055 27.336 27.055H23.906V27.815C24.156 27.795 27.076 27.785 27.216 27.785C29.706 27.785 31.196 29.405 31.206 32.115V32.265H20.206V26.535C19.946 26.505 19.476 26.485 19.276 26.485C17.656 26.485 15.246 27.655 15.246 30.165C15.246 31.005 15.546 31.715 16.126 32.215C16.656 32.675 17.396 32.935 18.196 32.935H18.476L19.046 32.325L19.096 32.275H18.446C17.116 32.275 16.216 31.415 16.216 30.125C16.216 28.945 16.786 28.245 17.266 27.865C17.866 27.395 18.576 27.225 18.996 27.225H19.306V32.935H47.616V22.725H46.726V32.275H46.746ZM42.976 32.165L42.946 32.275H36.566L36.606 32.095C37.166 29.615 39.396 27.685 40.946 27.685C41.446 27.685 43.076 27.915 43.076 30.935C43.076 31.115 43.076 31.765 42.976 32.165ZM50.456 32.935H51.346V22.725H50.456V32.935ZM17.616 25.075C17.996 25.075 18.296 24.775 18.296 24.395C18.296 24.015 17.996 23.715 17.616 23.715C17.236 23.715 16.936 24.015 16.936 24.395C16.936 24.775 17.236 25.075 17.616 25.075ZM58.146 25.085C58.526 25.085 58.826 24.785 58.826 24.405C58.826 24.025 58.526 23.725 58.146 23.725C57.766 23.725 57.466 24.025 57.466 24.405C57.466 24.785 57.766 25.085 58.146 25.085ZM19.646 25.075C20.016 25.075 20.326 24.775 20.326 24.395C20.326 24.015 20.026 23.715 19.646 23.715C19.266 23.715 18.966 24.015 18.966 24.395C18.966 24.775 19.266 25.075 19.646 25.075ZM67.386 32.935H68.276V22.725H67.386V32.935ZM55.786 30.245C55.786 31.775 57.056 32.935 58.736 32.935H60.736V26.545C60.476 26.515 60.186 26.495 59.866 26.495C57.576 26.495 55.786 28.145 55.786 30.245ZM59.846 32.275H58.996C57.446 32.275 56.746 31.195 56.746 30.125C56.746 28.245 58.176 27.225 59.516 27.225H59.846V32.275ZM71.766 23.725C71.396 23.725 71.086 24.025 71.086 24.405C71.086 24.785 71.386 25.085 71.766 25.085C72.146 25.085 72.446 24.785 72.446 24.405C72.436 24.035 72.136 23.725 71.766 23.725ZM78.356 26.695C76.036 26.695 74.216 28.275 74.216 30.305C74.216 32.335 75.906 32.935 77.046 32.935C77.206 32.935 77.316 32.935 77.386 32.925L77.826 32.465L78.016 32.265H77.426C76.296 32.265 75.166 31.625 75.166 30.195C75.166 28.915 76.346 27.485 77.936 27.485H78.086V33.065C78.086 34.135 77.886 35.125 76.436 35.125C76.316 35.125 76.146 35.105 75.976 35.075L75.866 35.755C76.076 35.795 76.316 35.825 76.666 35.825C77.356 35.825 78.976 35.595 78.976 33.445V26.745C78.726 26.715 78.526 26.695 78.356 26.695ZM71.316 33.495C71.316 34.665 70.846 35.145 69.696 35.145C69.576 35.145 69.396 35.125 69.256 35.095L69.146 35.805C69.506 35.855 69.666 35.865 69.946 35.865C70.626 35.865 72.216 35.655 72.216 33.755V27.445H71.326V33.495H71.316ZM60.176 23.725C59.796 23.725 59.496 24.025 59.496 24.405C59.496 24.785 59.796 25.085 60.176 25.085C60.556 25.085 60.856 24.785 60.856 24.405C60.846 24.035 60.546 23.725 60.176 23.725ZM63.766 33.495C63.766 34.665 63.296 35.145 62.146 35.145C62.026 35.145 61.846 35.125 61.706 35.095L61.596 35.805C61.956 35.855 62.116 35.865 62.396 35.865C63.076 35.865 64.656 35.655 64.656 33.755V27.445H63.766V33.495Z" fill="white"/>
<path fill-rule="evenodd" clip-rule="evenodd" d="M123.761 33.1151C123.271 33.4151 122.771 33.7451 122.511 33.9251C121.711 34.4851 120.891 35.0751 120.081 35.6851C116.501 38.3951 112.951 41.5751 110.241 44.6251H103.771C103.771 44.6251 119.601 30.9651 126.861 29.9151C133.331 28.9851 135.851 33.6651 135.311 38.7051C135.381 38.0851 135.371 37.4551 135.271 36.8951C135.041 35.5451 134.471 34.4351 133.681 33.5751C133.041 32.8751 132.251 32.2551 131.191 31.8551C130.271 31.5051 129.291 31.3551 128.221 31.4551C128.231 31.4651 126.361 31.5451 123.761 33.1151Z" fill="white"/>
<path fill-rule="evenodd" clip-rule="evenodd" d="M99.8211 33.1151C100.311 33.4151 100.811 33.7451 101.071 33.9251C101.871 34.4851 102.691 35.0751 103.501 35.6851C107.081 38.3951 110.631 41.5751 113.341 44.6251H119.811C119.811 44.6251 103.981 30.9651 96.7211 29.9151C90.2511 28.9851 87.7311 33.6651 88.2711 38.7051C88.2011 38.0851 88.2111 37.4551 88.3111 36.8951C88.5411 35.5451 89.1111 34.4351 89.9011 33.5751C90.5411 32.8751 91.3311 32.2551 92.3911 31.8551C93.3011 31.5051 94.2911 31.3551 95.3611 31.4551C95.3511 31.4651 97.2111 31.5451 99.8211 33.1151Z" fill="white"/>
<path d="M98.4111 36.5151L96.2111 34.3051L94.2711 36.2451L92.3311 34.3051L90.1311 36.5151L92.3311 38.7251L94.2711 36.7851L96.2111 38.7251L98.4111 36.5151Z" fill="white"/>
<path d="M121.951 20.095C121.781 19.705 121.581 19.315 121.341 18.945C119.341 15.845 115.521 14.635 112.181 15.805C111.981 15.085 111.831 14.675 111.831 14.675C111.831 14.675 111.671 15.095 111.481 15.805C108.151 14.635 104.331 15.855 102.331 18.945C102.091 19.315 101.891 19.705 101.721 20.095C103.131 18.545 105.061 17.675 107.061 17.555C105.201 18.985 104.001 21.235 104.001 23.755C104.001 24.195 104.041 24.635 104.111 25.055C104.491 22.775 105.871 20.825 107.771 19.665C106.571 22.065 106.621 25.015 108.181 27.435C108.421 27.805 108.691 28.155 108.981 28.465C107.681 25.455 108.411 21.945 110.781 19.695C110.731 20.275 110.691 20.895 110.691 21.525C110.691 25.315 111.831 28.385 111.831 28.385C111.831 28.385 112.971 25.315 112.971 21.525C112.971 20.895 112.941 20.285 112.881 19.695C115.251 21.945 115.981 25.455 114.681 28.465C114.971 28.145 115.241 27.805 115.481 27.435C117.041 25.015 117.101 22.065 115.891 19.665C117.801 20.825 119.171 22.775 119.551 25.055C119.621 24.635 119.661 24.205 119.661 23.755C119.661 21.225 118.461 18.985 116.601 17.555C118.611 17.675 120.551 18.545 121.951 20.095Z" fill="white"/>
<path fill-rule="evenodd" clip-rule="evenodd" d="M103.921 32.965C103.921 32.965 109.551 24.845 119.441 35.375C128.761 45.295 132.251 43.625 134.901 40.475C134.901 40.475 134.761 40.865 134.521 41.235C134.341 41.525 134.231 41.685 134.191 41.735C132.871 43.505 130.991 44.605 128.681 44.625C125.711 44.655 122.031 42.875 117.911 38.325C108.741 28.195 103.921 32.965 103.921 32.965Z" fill="white"/>
</svg>
